<svg xmlns:dc="http://purl.org/dc/elements/1.1/" xmlns:cc="http://creativecommons.org/ns#" xmlns:rdf="http://www.w3.org/1999/02/22-rdf-syntax-ns#" xmlns:svg="http://www.w3.org/2000/svg" xmlns="http://www.w3.org/2000/svg" viewBox="0 0 47.5 47.5" style="enable-background:new 0 0 47.5 47.5" id="svg2"><defs id="defs6"><clipPath id="clipPath16" clipPathUnits="userSpaceOnUse"><path id="path18" d="M0 38H38V0H0V38z"/></clipPath></defs><g transform="matrix(1.25,0,0,-1.25,0,47.5)" id="g10"><g id="g12"><g clip-path="url(#clipPath16)" id="g14"><g transform="translate(36,19)" id="g20"><path id="path22" style="fill:#ffcc4d;fill-opacity:1;fill-rule:nonzero;stroke:none" d="m0 0c0-9.389-7.611-17-17-17-9.389.0-17 7.611-17 17 0 9.389 7.611 17 17 17C-7.611 17 0 9.389.0.0"/></g><g transform="translate(19,16)" id="g24"><path id="path26" style="fill:#664500;fill-opacity:1;fill-rule:nonzero;stroke:none" d="m0 0c-3.623.0-6.027.422-9 1-.679.131-2 0-2-2 0-4 4.595-9 11-9 6.404.0 11 5 11 9C11 1 9.679 1.132 9 1 6.027.422 3.623.0.0.0"/></g><g transform="translate(11,24)" id="g28"><path id="path30" style="fill:#664500;fill-opacity:1;fill-rule:nonzero;stroke:none" d="M0 0C0 0 0 2 2 2 4 2 4 0 4 0v-2c0 0 0-2-2-2-2 0-2 2-2 2v2z"/></g><g transform="translate(23,24)" id="g32"><path id="path34" style="fill:#664500;fill-opacity:1;fill-rule:nonzero;stroke:none" d="M0 0C0 0 0 2 2 2 4 2 4 0 4 0v-2c0 0 0-2-2-2-2 0-2 2-2 2v2z"/></g><g transform="translate(10,15)" id="g36"><path id="path38" style="fill:#fff;fill-opacity:1;fill-rule:nonzero;stroke:none" d="m0 0c0 0 3-1 9-1 6 0 9 1 9 1 0 0-2-4-9-4-7 0-9 4-9 4"/></g></g></g></g></svg>