<svg xmlns:dc="http://purl.org/dc/elements/1.1/" xmlns:cc="http://creativecommons.org/ns#" xmlns:rdf="http://www.w3.org/1999/02/22-rdf-syntax-ns#" xmlns:svg="http://www.w3.org/2000/svg" xmlns="http://www.w3.org/2000/svg" viewBox="0 0 45 45" style="enable-background:new 0 0 45 45" id="svg2"><defs id="defs6"><clipPath id="clipPath16" clipPathUnits="userSpaceOnUse"><path id="path18" d="M0 36H36V0H0V36z"/></clipPath></defs><g transform="matrix(1.25,0,0,-1.25,0,45)" id="g10"><g id="g12"><g clip-path="url(#clipPath16)" id="g14"><g transform="translate(36,18)" id="g20"><path id="path22" style="fill:#ffcc4d;fill-opacity:1;fill-rule:nonzero;stroke:none" d="m0 0c0-9.941-8.059-18-18-18-9.94.0-18 8.059-18 18 0 9.94 8.06 18 18 18C-8.059 18 0 9.94.0.0"/></g><g transform="translate(28.457,18.2031)" id="g24"><path id="path26" style="fill:#664500;fill-opacity:1;fill-rule:nonzero;stroke:none" d="m0 0c-.059.135-1.499 3.297-4.457 3.297-2.957.0-4.397-3.162-4.457-3.297-.092-.207-.032-.449.144-.591.175-.142.426-.147.611-.014.012.009 1.262.902 3.702.902 2.426.0 3.674-.881 3.702-.901.088-.066.194-.099.298-.099.11.0.221.037.312.109C.032-.452.093-.208.0.0"/></g><g transform="translate(16.457,18.2031)" id="g28"><path id="path30" style="fill:#664500;fill-opacity:1;fill-rule:nonzero;stroke:none" d="m0 0c-.06.135-1.499 3.297-4.457 3.297-2.957.0-4.397-3.162-4.457-3.297-.092-.207-.032-.449.144-.591.176-.142.427-.147.61-.014.013.009 1.262.902 3.703.902 2.426.0 3.674-.881 3.702-.901.088-.066.194-.099.298-.099.11.0.221.037.312.109C.033-.452.092-.208.0.0"/></g><g transform="translate(18,14)" id="g32"><path id="path34" style="fill:#664500;fill-opacity:1;fill-rule:nonzero;stroke:none" d="m0 0c-3.623.0-6.027.422-9 1-.679.131-2 0-2-2 0-4 4.595-9 11-9 6.404.0 11 5 11 9C11 1 9.679 1.132 9 1 6.027.422 3.623.0.0.0"/></g><g transform="translate(9,13)" id="g36"><path id="path38" style="fill:#fff;fill-opacity:1;fill-rule:nonzero;stroke:none" d="m0 0c0 0 3-1 9-1 6 0 9 1 9 1 0 0-2-4-9-4-7 0-9 4-9 4"/></g></g></g></g></svg>