<svg xmlns:dc="http://purl.org/dc/elements/1.1/" xmlns:cc="http://creativecommons.org/ns#" xmlns:rdf="http://www.w3.org/1999/02/22-rdf-syntax-ns#" xmlns:svg="http://www.w3.org/2000/svg" xmlns="http://www.w3.org/2000/svg" viewBox="0 0 45 45" style="enable-background:new 0 0 45 45" id="svg2"><defs id="defs6"><clipPath id="clipPath16" clipPathUnits="userSpaceOnUse"><path id="path18" d="M0 36H36V0H0V36z"/></clipPath></defs><g transform="matrix(1.25,0,0,-1.25,0,45)" id="g10"><g id="g12"><g clip-path="url(#clipPath16)" id="g14"><g transform="translate(36,18)" id="g20"><path id="path22" style="fill:#ffcc4d;fill-opacity:1;fill-rule:nonzero;stroke:none" d="m0 0c0-9.941-8.059-18-18-18-9.94.0-18 8.059-18 18 0 9.94 8.06 18 18 18C-8.059 18 0 9.94.0.0"/></g><g transform="translate(17.3125,18.3882)" id="g24"><path id="path26" style="fill:#664500;fill-opacity:1;fill-rule:nonzero;stroke:none" d="m0 0c-.176.143-.427.147-.61.014-.013-.01-1.261-.902-3.702-.902-2.441.0-3.69.892-3.701.9-.182.136-.434.133-.611-.009-.178-.142-.238-.386-.146-.594.061-.135 1.5-3.297 4.458-3.297 2.958.0 4.397 3.162 4.457 3.297C.236-.384.176-.142.0.0"/></g><g transform="translate(27.3125,18.3882)" id="g28"><path id="path30" style="fill:#664500;fill-opacity:1;fill-rule:nonzero;stroke:none" d="m0 0c-.176.143-.426.148-.61.014-.012-.01-1.261-.902-3.702-.902-2.441.0-3.691.892-3.701.9-.182.136-.433.133-.611-.009-.178-.142-.238-.386-.146-.594.06-.135 1.5-3.297 4.458-3.297 2.958.0 4.397 3.162 4.457 3.297C.236-.384.177-.142.0.0"/></g><g transform="translate(22,8)" id="g32"><path id="path34" style="fill:#664500;fill-opacity:1;fill-rule:nonzero;stroke:none" d="m0 0h-8c-.552.0-1 .447-1 1 0 .553.448 1 1 1H0C.553 2 1 1.553 1 1 1 .447.553.0.0.0"/></g><g transform="translate(6,22)" id="g36"><path id="path38" style="fill:#664500;fill-opacity:1;fill-rule:nonzero;stroke:none" d="m0 0c-.552.0-1 .448-1 1 0 .551.445.998.996 1C.151 2.002 3.564 2.086 6.2 5.6 6.531 6.04 7.158 6.132 7.6 5.8 8.042 5.469 8.131 4.842 7.8 4.4 4.538.05.184.0.0.0"/></g><g transform="translate(30,22)" id="g40"><path id="path42" style="fill:#664500;fill-opacity:1;fill-rule:nonzero;stroke:none" d="m0 0c-.184.0-4.537.05-7.8 4.4-.332.442-.242 1.069.2 1.4.442.333 1.068.242 1.4-.2C-3.56 2.079-.139 2.001.006 2 .556 1.994 1 1.544.997.995.994.444.55.0.0.0"/></g></g></g></g></svg>