<svg xmlns:dc="http://purl.org/dc/elements/1.1/" xmlns:cc="http://creativecommons.org/ns#" xmlns:rdf="http://www.w3.org/1999/02/22-rdf-syntax-ns#" xmlns:svg="http://www.w3.org/2000/svg" xmlns="http://www.w3.org/2000/svg" viewBox="0 0 45 45" style="enable-background:new 0 0 45 45" id="svg2"><defs id="defs6"><clipPath id="clipPath16" clipPathUnits="userSpaceOnUse"><path id="path18" d="M0 36H36V0H0V36z"/></clipPath></defs><g transform="matrix(1.25,0,0,-1.25,0,45)" id="g10"><g id="g12"><g clip-path="url(#clipPath16)" id="g14"><g transform="translate(36,18)" id="g20"><path id="path22" style="fill:#ffcc4d;fill-opacity:1;fill-rule:nonzero;stroke:none" d="m0 0c0-9.941-8.059-18-18-18-9.94.0-18 8.059-18 18 0 9.94 8.06 18 18 18C-8.059 18 0 9.94.0.0"/></g><g transform="translate(25.4854,8.1211)" id="g24"><path id="path26" style="fill:#664500;fill-opacity:1;fill-rule:nonzero;stroke:none" d="m0 0c-.045.179-1.168 4.379-7.485 4.379-6.318.0-7.441-4.2-7.485-4.379-.055-.217.043-.442.237-.554.195-.111.439-.078.599.077.019.019 1.954 1.856 6.649 1.856 4.694.0 6.63-1.837 6.648-1.856.096-.094.224-.144.352-.144.084.0.169.021.246.064C-.043-.445.055-.218.0.0"/></g><g transform="translate(29.001,22)" id="g28"><path id="path30" style="fill:#664500;fill-opacity:1;fill-rule:nonzero;stroke:none" d="M0 0C-.305.0-.605.138-.801.4c-2.431 3.244-6.513.846-6.685.743C-7.961.858-8.575 1.013-8.858 1.485-9.143 1.959-8.989 2.573-8.516 2.857-6.518 4.056-2.002 5.334.799 1.6 1.131 1.158 1.041.531.599.2.419.065.209.0.0.0"/></g><g transform="translate(6.999,22)" id="g32"><path id="path34" style="fill:#664500;fill-opacity:1;fill-rule:nonzero;stroke:none" d="M0 0C-.208.0-.419.065-.599.2-1.041.531-1.13 1.158-.799 1.6 2.002 5.335 6.519 4.056 8.516 2.857 8.989 2.573 9.143 1.959 8.858 1.485 8.575 1.012 7.962.857 7.488 1.142 7.31 1.248 3.214 3.617.801.4.604.138.304.0.0.0"/></g><g transform="translate(29,20)" id="g36"><path id="path38" style="fill:#664500;fill-opacity:1;fill-rule:nonzero;stroke:none" d="m0 0c0 .552-.447 1-1 1h-7c-.553.0-1-.448-1-1 0-.552.447-1 1-1h5.092c.207-.581.756-1 1.408-1 .828.0 1.5.671 1.5 1.5.0.11-.014.217-.036.321C-.024-.119.0-.063.0.0"/></g><g transform="translate(16,20)" id="g40"><path id="path42" style="fill:#664500;fill-opacity:1;fill-rule:nonzero;stroke:none" d="m0 0c0 .552-.448 1-1 1h-7c-.552.0-1-.448-1-1 0-.552.448-1 1-1h5.092c.207-.581.756-1 1.408-1 .828.0 1.5.671 1.5 1.5.0.11-.014.217-.036.321C-.025-.119.0-.063.0.0"/></g></g></g></g></svg>