<svg xmlns:dc="http://purl.org/dc/elements/1.1/" xmlns:cc="http://creativecommons.org/ns#" xmlns:rdf="http://www.w3.org/1999/02/22-rdf-syntax-ns#" xmlns:svg="http://www.w3.org/2000/svg" xmlns="http://www.w3.org/2000/svg" viewBox="0 0 47.5 47.5" style="enable-background:new 0 0 47.5 47.5" id="svg2"><defs id="defs6"><clipPath id="clipPath16" clipPathUnits="userSpaceOnUse"><path id="path18" d="M0 38H38V0H0V38z"/></clipPath></defs><g transform="matrix(1.25,0,0,-1.25,0,47.5)" id="g10"><g id="g12"><g clip-path="url(#clipPath16)" id="g14"><g transform="translate(36,19)" id="g20"><path id="path22" style="fill:#ffcc4d;fill-opacity:1;fill-rule:nonzero;stroke:none" d="m0 0c0-9.389-7.611-17-17-17-9.389.0-17 7.611-17 17 0 9.389 7.611 17 17 17C-7.611 17 0 9.389.0.0"/></g><g transform="translate(23,10)" id="g24"><path id="path26" style="fill:#664500;fill-opacity:1;fill-rule:nonzero;stroke:none" d="m0 0c0-2.763-1.791-3-4-3-2.21.0-4 .237-4 3 0 2.761 1.79 6 4 6 2.209.0 4-3.239 4-6"/></g><g transform="translate(31,21.9995)" id="g28"><path id="path30" style="fill:#664500;fill-opacity:1;fill-rule:nonzero;stroke:none" d="M0 0C-.124.0-.25.023-.371.072-5.6 2.163-7.743 5.312-7.832 5.446-8.139 5.905-8.015 6.526-7.555 6.833-7.096 7.139-6.477 7.016-6.17 6.559-6.151 6.531-4.24 3.773.371 1.929.884 1.724 1.134 1.142.929.629.773.238.396.0.0.0"/></g><g transform="translate(7.0005,21.9995)" id="g32"><path id="path34" style="fill:#664500;fill-opacity:1;fill-rule:nonzero;stroke:none" d="m0 0c-.397.0-.772.238-.929.629-.205.513.044 1.095.557 1.3C4.24 3.773 6.151 6.531 6.17 6.559 6.478 7.015 7.099 7.136 7.557 6.829 8.013 6.521 8.137 5.904 7.832 5.446 7.743 5.312 5.599 2.163.371.072.249.023.124.0.0.0"/></g><g transform="translate(9,2)" id="g36"><path id="path38" style="fill:#5dadec;fill-opacity:1;fill-rule:nonzero;stroke:none" d="m0 0 4 .046v18.953H0V0zM16 19h4V0L16 .046V19z"/></g><g transform="translate(15.999,19)" id="g40"><path id="path42" style="fill:#664500;fill-opacity:1;fill-rule:nonzero;stroke:none" d="m0 0c-.15.0-.303.034-.446.105-3.512 1.757-7.071.019-7.106.0-.495-.248-1.094-.046-1.342.448-.247.494-.046 1.095.448 1.342.182.089 4.498 2.196 8.894.0C.942 1.648 1.143 1.047.896.553.72.202.367.0.0.0"/></g><g transform="translate(29.999,19)" id="g44"><path id="path46" style="fill:#664500;fill-opacity:1;fill-rule:nonzero;stroke:none" d="m0 0c-.15.0-.303.034-.446.105-3.513 1.756-7.071.019-7.106.0-.494-.247-1.094-.047-1.342.448-.247.494-.046 1.095.448 1.342.181.089 4.501 2.196 8.894.0C.942 1.648 1.143 1.047.895.553.72.202.367.0.0.0"/></g><g transform="translate(37,3)" id="g48"><path id="path50" style="fill:#5dadec;fill-opacity:1;fill-rule:nonzero;stroke:none" d="m0 0c0-1.104-8.059-2-18-2-9.941.0-18 .896-18 2 0 1.104 8.059 2 18 2C-8.059 2 0 1.104.0.0"/></g><g transform="translate(22,10)" id="g52"><path id="path54" style="fill:#e75a70;fill-opacity:1;fill-rule:nonzero;stroke:none" d="m0 0c0-1.657-1.343-2-3-2-1.657.0-3 .343-3 2 0 1.657 1.343 2 3 2 1.657.0 3-.343 3-2"/></g></g></g></g></svg>