<svg xmlns:dc="http://purl.org/dc/elements/1.1/" xmlns:cc="http://creativecommons.org/ns#" xmlns:rdf="http://www.w3.org/1999/02/22-rdf-syntax-ns#" xmlns:svg="http://www.w3.org/2000/svg" xmlns="http://www.w3.org/2000/svg" viewBox="0 0 47.5 47.5" style="enable-background:new 0 0 47.5 47.5" id="svg2"><defs id="defs6"><clipPath id="clipPath16" clipPathUnits="userSpaceOnUse"><path id="path18" d="M0 38H38V0H0V38z"/></clipPath></defs><g transform="matrix(1.25,0,0,-1.25,0,47.5)" id="g10"><g id="g12"><g clip-path="url(#clipPath16)" id="g14"><g transform="translate(36,19)" id="g20"><path id="path22" style="fill:#ffcc4d;fill-opacity:1;fill-rule:nonzero;stroke:none" d="m0 0c0-9.389-7.611-17-17-17-9.388.0-17 7.611-17 17 0 9.388 7.612 17 17 17C-7.611 17 0 9.388.0.0"/></g><g transform="translate(24,10)" id="g24"><path id="path26" style="fill:#664500;fill-opacity:1;fill-rule:nonzero;stroke:none" d="m0 0c0-3.314-2.238-6-5-6-2.762.0-5 2.686-5 6 0 3.313 2.238 6 5 6 2.762.0 5-2.687 5-6"/></g><g transform="translate(6.999,26)" id="g28"><path id="path30" style="fill:#664500;fill-opacity:1;fill-rule:nonzero;stroke:none" d="m0 0c-.208.0-.419.065-.599.2-.442.331-.531.958-.2 1.4 3.262 4.35 7.616 4.4 7.8 4.4.552.0 1-.448 1-1C8.001 4.449 7.556 4.002 7.005 4 6.85 3.998 3.436 3.914.801.4.604.138.304.0.0.0"/></g><g transform="translate(31.001,26)" id="g32"><path id="path34" style="fill:#664500;fill-opacity:1;fill-rule:nonzero;stroke:none" d="M0 0C-.305.0-.605.138-.801.4-3.441 3.921-6.862 3.999-7.007 4-7.557 4.006-8.001 4.456-7.998 5.005-7.995 5.556-7.551 6-7.001 6-6.817 6-2.464 5.95.799 1.6 1.131 1.158 1.041.531.599.2.419.065.209.0.0.0"/></g><g transform="translate(14.9141,21.5)" id="g36"><path id="path38" style="fill:#664500;fill-opacity:1;fill-rule:nonzero;stroke:none" d="m0 0 1.793 1.793c.391.391.391 1.023.0 1.414-.391.391-1.023.391-1.414.0L-1.414 1.414-3.207 3.207c-.391.391-1.023.391-1.414.0-.391-.391-.391-1.023.0-1.414L-2.828.0-4.621-1.793c-.391-.391-.391-1.023.0-1.414.195-.195.451-.293.707-.293.256.0.512.098.707.293l1.793 1.793 1.793-1.793C.574-3.402.83-3.5 1.086-3.5c.256.0.512.098.707.293.391.391.391 1.023.0 1.414L0 0z"/></g><g transform="translate(25.9141,21.5)" id="g40"><path id="path42" style="fill:#664500;fill-opacity:1;fill-rule:nonzero;stroke:none" d="m0 0 1.793 1.793c.391.391.391 1.023.0 1.414-.391.391-1.024.391-1.414.0L-1.414 1.414-3.207 3.207c-.391.391-1.024.391-1.414.0-.391-.391-.391-1.023.0-1.414L-2.828.0-4.621-1.793c-.391-.391-.391-1.023.0-1.414.195-.195.451-.293.707-.293.256.0.512.098.707.293l1.793 1.793 1.793-1.793C.574-3.402.83-3.5 1.086-3.5c.256.0.512.098.707.293.391.391.391 1.023.0 1.414L0 0z"/></g></g></g></g></svg>