<svg version="1.2" baseProfile="tiny" id="Layer_1" xmlns="http://www.w3.org/2000/svg" xmlns:xlink="http://www.w3.org/1999/xlink" width="500" height="336" viewBox="0 0 500 336"><path fill-rule="evenodd" fill="#fff" d="M77 347.9c0-116.7.0-233.3.0-350 116.7.0 233.3.0 350 0 0 116.7.0 233.3.0 350C310.3 347.9 193.7 347.9 77 347.9zM379.4 81.1c.9-6.2-1.7-9.7-8.7-12.3-2.5-.9-4.9-2.4-7.1-4-2.7-2-5.2-4.3-7.7-6.6-1.5-1.3-2.9-2.7-4.3-3.9-2.9-2.4-5.5-5.6-8.8-7-5.3-2.3-9.1-5.6-12.2-10.4-6.4-9.7-15.6-14.8-27.3-12.6-7.5 1.4-13.6-.2-19.6-4.7-5-3.8-11.3-5.7-16.9-2.8-5 2.5-9.3 1.8-14.1 1-3.4-.6-7-.6-10.3-.8 5.4 1.2 10.9 2.4 16.4 3.6 1.1.2 2.6.7 3.3.2 8.9-5.9 16.4-2.4 23.7 3.2 4.1 3.2 8.8 4.8 14.1 3.7 13-2.7 22.1 2.5 29.5 12.9 2.5 3.6 6.9 5.8 10.5 8.6 3.3 2.6 6.8 5 10.1 7.6 5.2 4.1 10.4 8.4 15.6 12.5.7.6 1.9.7 2.8 1 8.7 2.6 9.5 3.6 9.9 11.8 2.8 1.9 5.4 3.7 8 5.5.1-.2.3-.4.4-.5C384.3 85.1 381.9 83.1 379.4 81.1zM308.8 194.8c1.8.4 4.1 1.5 6.3 1.3 14.7-1.4 27.5-7 36.3-19.1 7.1-9.7 4.4-20.7-6.3-26.1-14.1-7.2-28.8-7.8-43.4-1.5-10.2 4.4-18 17.3-17.3 27.4 1-3 1.7-5.9 2.8-8.6 3.9-10.3 11.3-16.7 22.1-18.9 10.9-2.2 21.6-1.1 31.7 3.4 11.9 5.3 14.2 15.3 6 25.4-6.4 7.9-15.1 12.5-24.7 15.2C318.1 194.6 313.3 194.4 308.8 194.8zM242.3 109.1c.3-.3.6-.6.9-.9-3.5-3.1-6.8-6.3-10.5-9.1-8.1-6.1-17-7.8-25.4-1.4-8 6.2-14.8 6.8-23.3.9-6.4-4.4-12.3-2.8-16.4 2.4-5.2 6.5-6.1 17-2.1 21.8-.2-2.9-.7-6.2-.5-9.5 1-12.9 9.6-17.2 20.5-10.4 9.3 5.8 11.5 5.7 20.6-.9 10.4-7.5 17.8-7.4 28.1.5C237 104.8 239.6 106.9 242.3 109.1zM212.9 56.5c-5.1-1.7-9.9-1-12.9 1.9-3.5 3.5-2.9 7.5-1.6 11.6.9 2.7 2 5.3 2.9 8 2.8 8.3.2 11.7-8.6 11.1-8.4-.5-16-3.5-22.3-9-3-2.6-5.4-5.9-8.1-8.9 5 11.6 14.3 17.8 26.1 20.7 5.5 1.3 11.2 2.1 15.3-2.7 4.3-5 1.3-10.1-.8-14.9C197.2 61 198.8 57.9 212.9 56.5zM303.4 318c.5-.2 1.1-.5 1.6-.7-.3-.9-.4-1.9-.9-2.6-7.2-11.1-10.3-23.7-14.6-35.9-1.9-5.6-5.3-11.7-9.9-15.2-8.8-6.7-18.8-11.8-28.4-17.5-.2-.1-.6.2-1.5.4 5.1 3.3 9.5 6.5 14.3 9.2 13.3 7.3 21.1 18.3 25.6 32.8C293.1 298.7 298.8 308.2 303.4 318zM145.1 41.9c.1.3.2.5.3.8 2.6-.8 5.3-1.6 7.9-2.4 11.9-3.9 24.2-6.8 35.6-11.9 11.5-5.2 23-7.1 35.3-5.9 1.8.2 3.7.4 5.5.5-1.8-1.3-3.7-1.7-5.6-2.1-20.4-4.7-37.9 5-56.1 11.1-.2.1-.3.2-.4.2-5.3 2.2-10.7 4.4-16 6.6C149.4 39.8 147.3 40.9 145.1 41.9zM298.8 215.2c14.3 1.2 28.9 2.1 43-2.9 5.4-1.9 8.8-6.2 11.1-11.6 3-7 6.5-13.8 9.6-20.8 1.2-2.8 2.1-5.7 3.1-8.6-2.2 3.2-3.8 6.5-5.7 9.8-2.8 4.9-6.6 9.5-8.3 14.7-3.3 9.9-10.2 14.6-19.8 15.9C320.8 213.3 309.7 214.1 298.8 215.2zM273.3 144.9c-4.7-10.9-4.4-21.8-.3-32.6 3.3-8.6 11.3-12.9 19.6-10.4 8.4 2.5 14.5 7.6 16.1 17.2.9-8.3-5.8-16.9-15.3-20-8.5-2.8-17.9.5-21.9 8.4-5.5 11.1-5.3 22.5-.5 33.8C271.5 142.7 272.5 143.8 273.3 144.9zM182.7 217.4c-.4.3-.8.6-1.2.9 2.9 3 5.3 6.6 8.7 8.9 16.7 11.5 35.3 12.7 54.5 9.2 6.1-1.1 12-3.3 18-4.9-.6-1.1-1-1.4-1.2-1.3-14.4 5.2-29.3 5.7-44.3 3.7C204 232 191.1 229.2 182.7 217.4zM120.5 113.2c-5.8 11.7-6.5 23.9-1.7 36.1 2.6 6.6 7.8 9.6 14.2 8.5 8.6-1.5 15.1-6.2 18.5-14.3 1.1-2.6.7-5.9 1.1-8.8-.5-.1-1-.1-1.5-.2 1.1 8.3-3.6 13.3-9.8 17.1-9.8 6.1-17.8 3.1-21.2-8C116.9 133.4 117.1 123.3 120.5 113.2zM220.7 210.9c0 .2-.1.4-.1.6 5.6 2.7 11.4 5 16.6 8.2 9.9 6.1 20.6 7.5 31.7 5.7 8.3-1.4 16.1-4.9 20.7-12.5 1.6-2.6 2-5.9 3-8.9-2.4 9.5-9.2 14.2-17.8 16.6-12.7 3.5-25.2 2.9-37.3-3.3C232.2 214.7 226.3 213 220.7 210.9zM328.3 255.2c-.2-.1-.5-.1-.7-.2-1.2 3.2-2.1 6.7-3.8 9.7-6.7 11.4-9.1 23.2-5.5 36.2.6 2.2-.1 4.8-.3 7.3-.6 6.9-3.4 13.8-.8 20.6.5-3.8 1.4-7.7 1.6-11.6.2-6.5 4-12.3 2.4-19.5-2.4-10.4-1.3-21 3.5-31C326.4 263 327.1 259 328.3 255.2zM260.8 62.9c3.1-1.5 6.2-3.7 9.6-4.4 8.7-2 22.2 4.7 26.5 12.6 4.9 8.9.2 17.1-9.9 17.2-1.1.0-2.3-.1-3.7-.2 8.4 4 16.5.2 17.9-8.5 1.2-6.9-1.6-12.4-6.8-16.7-5.3-4.3-11.6-6.5-18.4-6.9C269.6 55.7 264.3 57.8 260.8 62.9zM317.4 84.8c-1.2 5.2.6 8.2 6.3 8.9 7.1.8 14.3.3 21.4 1.2 5.5.7 11.2 2 15.9 4.7 6.3 3.5 6.3 9.8 1 14.9-.3.3-.6.7-1.3 1.7 9.6-3.9 8.6-13.8 2.3-19-5.7-4.6-12.2-6.4-19.6-5.9-6.5.5-13 .6-19.4.5C319.9 91.7 317.1 89.6 317.4 84.8zM254.7 138.7c-3.4-4.8-7.3-10.1-11-15.6-3.4-4.9-7.2-9.1-13.8-7.8-7.8 1.5-14.4 5.3-17.6 13.1-1.5 3.7.1 7.2 3.5 8.9 2.2 1.1 5.2 1 7.8 1.4.0-.5.1-1.1.1-1.6-4 1.5-7 .2-8.9-3.3-2-3.7.1-6.7 2.8-8.7 3.1-2.3 6.7-4.3 10.4-5.8 4.6-1.9 8.8-.7 12 3.4 2.5 3.3 4.8 6.8 7.6 9.9C249.9 135.2 252.8 137.2 254.7 138.7zM225.2 79.8c.6.1 1.2.2 1.9.3.3-1.8.3-3.7 1.1-5.3 1.1-2.3 2.3-5 4.2-6.4 4.8-3.5 10.3-1.8 12.9 3.6 2.2 4.6 3.6 9.7 5.8 14.3 1.8 3.8 5.1 6.5 9.5 6.1 4.6-.4 6.6-4 7.8-8 .4-1.5.4-3.2.8-6-1.3 3.4-1.9 5.8-3.1 7.9-2.9 5.1-7.8 5.3-11.1.6-1.4-2-2-4.5-2.9-6.8-1.4-3.5-2.3-7.3-4.3-10.6-3.9-6.6-13.1-7.6-17.8-1.6C227.3 71 226.7 75.8 225.2 79.8zM156.6 89.9c-2.8-.9-5.5-2-8.4-2.6-8.7-1.5-19.3 5.2-21.4 13.4-2 7.5 3.5 16.7 12.1 20 4.2 1.6 6.9.5 8.2-3.8-2.6 4.2-5.6 3.3-8.7 1.3-7-4.5-10.1-11.4-7.9-17.6C133.4 92 141.6 88.8 156.6 89.9zM202.3 193.5c8.7-4.6 16.8-2.1 24.8 1.7 7.9 3.8 15.8 7.8 23.9 11 3.2 1.3 7.1.8 10.7 1.2.0-.4.1-.9.1-1.3-8.4.8-14.8-3.9-21.8-7.5-6.6-3.4-13.3-6.9-20.3-9.2C213.7 187.5 207.3 188.6 202.3 193.5zm150.3-66.7c.1-8.5-9.7-16.7-19.6-16.3-12.9.5-24.4 14.5-23.5 29.1 3-13.7 9.5-23.7 24-25.6C341.7 112.8 348.6 117.9 352.6 126.8zM232.5 177.9c10.6 3.1 16.3-.2 18.4-10.8 2.5-12.3 9-14.3 20.2-11.1 2.8.8 5.5 2.3 8.2 3.5-1.5-1.8-3.2-3.1-5.1-4.2-14.5-7.7-26.1-2.5-26.6 12.4-.3 7.2-4 9.6-11.3 10.1C235.1 178 233.8 177.9 232.5 177.9zM167.9 161c-3.1 6-12.5 8.5-17.5 3.9-3.1-2.9-3.7-7.7-.2-11.1 5-4.8 10.7-8.8 15.7-12.7-6.7 2-13.8 5.1-18.9 11.5-3.9 4.9-3.3 10.9 1.2 14.7 4.7 3.9 14 3.1 17.8-1.6C166.9 164.4 167.2 162.5 167.9 161zM381 118.4c7.2-8.1 5.5-17.7-3.7-21.9.7.8 1.4 1.6 2 2.4 5.4 6.9 5.1 10.6-1 17.1-.9.9-.8 3.8.0 4.9 5.9 8 11.1 16 5.2 26.4C390.5 139.5 389.7 131.7 381 118.4zM98.5 132.3c-4.4 8.2-3.7 20.8 2.3 27.1 6.5 7 13.7 13.4 20.6 20 .1.1.6-.1 2-.3-6.7-7.4-13.5-13.9-19.1-21.3-3.1-4.1-4.8-9.6-6.1-14.8C97.3 139.6 98.3 135.8 98.5 132.3zM394.5 107.8c2.9 9.6 11.6 16.2 6.8 26.6-.6 1.4.2 3.6.8 5.3 2.3 6.9 4.1 13.9 1.3 21.2 4.5-6.2 3.6-12.9 2.3-19.6-.5-2.7-1.5-6-.5-8.2 2.2-5.1.8-8.9-2.3-12.8-1.4-1.8-2.2-4.1-3.4-6C398.2 112.2 396.6 110.5 394.5 107.8zM334.4 246.6c.1.2.3.4.4.5 3.6-3.1 7-6.4 10.8-9.4 2.1-1.6 4.7-2.6 7-3.8 2.4-1.3 5.8-1.9 6.9-3.9 4.1-6.9 7.5-14.3 11.2-21.5-4.8 5.4-9.2 11.1-12.8 17.4-1.7 3-3.4 4.3-6.6 5.1-2.4.6-4.9 1.9-6.6 3.7C341 238.4 337.8 242.6 334.4 246.6zM317.5 248.4c-19.1 6.2-27.3 5.3-48.3-4.7C281 257 301.5 259.4 317.5 248.4zM132.6 55.6c-.2-.4-.5-.8-.7-1.2-5 2.1-10.4 3.5-14.9 6.5-3 2-5.7 5.8-6.8 9.3-2.1 7.1-3.1 14.5-4.4 21.8-.3 1.7-.4 3.4-.6 5.2 2.9-7 6.7-13.9 7.4-21.1.9-9.3 5.5-14.2 13.2-17.6C128 57.4 130.3 56.5 132.6 55.6zM371.7 197.9c1.4-4.1 2.8-8.2 4.4-13.2-5.4 7-10.1 13.1-15.2 19.8 3.5-2 6.7-3.8 9.9-5.6 3.2 3.6 6.7 6.3 11.8 4 3.8-1.7 6.3-7.4 5.8-12.7C381.9 201.7 378.5 203.3 371.7 197.9zM218.5 37.8c0-.2.1-.5.1-.7-7-.8-14-2.4-21-2-4.2.2-8.6 3.1-12.1 5.7-1.7 1.3-2.8 5.4-2 7.4.7 1.7 4.3 2.3 6.7 3.4.0-.2.1-.4.1-.6-1.8-1.4-3.6-2.8-5.4-4.2 1.8-2.1 3.1-4.9 5.4-6 3.1-1.6 6.9-2.5 10.5-2.7C206.6 37.5 212.6 37.8 218.5 37.8zM204.3 163.7c.2-.5.4-.9.6-1.3-5.5-2.4-10.9-5.2-16.5-7-3.6-1.2-7 .3-8.5 4.3-1.4 3.8 1.1 5.9 4 7.6 3.9 2.3 7.8 4.5 11.8 6.7.5-.5 1-1 1.6-1.5-1.6-.9-3.3-1.6-4.8-2.6-2.5-1.6-5-3.3-7.3-5.2-1-.8-2.2-2.8-1.9-3.5.7-1.2 2.4-2.5 3.7-2.5 2.3-.1 4.7.4 6.8 1.1C197.4 160.7 200.9 162.3 204.3 163.7zM160.6 192.4c1.3-7.7 4.4-13.8 12.6-15.5 7.7-1.6 13.5 2.4 19.1 7.1-5.9-8.9-14.4-12.7-21.7-10C163.3 176.7 159.6 183.3 160.6 192.4zM338.3 65.7c-5.6-19.2-24.5-27.8-39.2-17.8C316.5 44.5 330.1 49.2 338.3 65.7zM243.1 151.7c-8.4-4.3-21.7-2.2-25.9 2.3-4.5 4.8-5.9 10.1-3.6 16.1C214.9 155.7 221.2 151.6 243.1 151.7zm-89.5 35.5c-16.9-1.8-25.5-9.7-24.1-22.3-3.5 5.5-2.9 10.4 1.9 16.2C137.2 188 145.6 190.3 153.6 187.2zM296.2 228.6c10.2 10 28.9 13 37.5 6.1C320.4 237.8 308.4 233 296.2 228.6zM347.3 226c-10.4 3.3-13.3 2.9-37.2-4.4C321.2 231.7 338 234 347.3 226zM233.3 54.2c5-13.8 14.3-19.7 29.7-16.8C247.6 29.6 233.4 38 233.3 54.2zM159.3 208c-1.7 7.3.3 12.9 5.9 17 6.2 4.6 13.1 3.5 19.9 1.8C168.4 226.3 161.5 221.2 159.3 208zM341.8 71.7c15.3-2.5 18.8 10.1 25.2 20.8C363 72.9 355.6 66.9 341.8 71.7zM156.1 209.7c-11.9-5.5-21.6-11.6-27.8-22.5C129.4 199.2 142.2 208.4 156.1 209.7zM323 243c.1-.4.1-.8.2-1.3-11.3-1.3-22.5-2.7-33.8-4C300.2 242.7 311.5 243.8 323 243zM201.4 128.7c-6.1 3.7-8.6 8.9-7.6 15.2.9 6 6 11.9 11.3 13.3C195.9 147.8 194.4 138.5 201.4 128.7zM306.4 259.4c-.7.0-1.3.0-2-.1-.2 9.6-4.3 19.2.5 28.8C305.4 278.6 305.9 269 306.4 259.4zM106.3 103.1c-9.6 2.9-13 16.7-2 26C99.8 119.7 98.7 111.1 106.3 103.1zM139.8 59.8c-5.3 10.3-5.1 16.3.4 19.7 3.8 2.4 6.8 1.8 9.4-2C141.4 81 138.9 76.7 139.8 59.8zm217.7 154c-6 3.9-6 3.9-22.8 4.4C343 224.4 351.9 223 357.5 213.8zM264.4 39.2c6.7.0 13.7.0 20.7.0C277.6 33 269.4 33.4 264.4 39.2zM382.8 157.4c-1.9 7-3.6 13.4-5.5 20.4C383.3 171.8 385.6 165.6 382.8 157.4zM399.7 171.1c-2.1 5.4-4.2 11.1-6.1 15.9C400.3 185.7 402.5 181.1 399.7 171.1z"/><path fill-rule="evenodd" d="M379.4 81.1c2.4 2 4.8 4 7.2 5.9-.1.2-.3.4-.4.5-2.6-1.8-5.2-3.6-8-5.5-.4-8.2-1.3-9.2-9.9-11.8-1-.3-2.1-.4-2.8-1-5.2-4.1-10.4-8.4-15.6-12.5-3.3-2.6-6.8-5.1-10.1-7.6-3.6-2.8-8-5-10.5-8.6-7.4-10.4-16.5-15.6-29.5-12.9-5.2 1.1-9.9-.6-14.1-3.7-7.3-5.6-14.8-9.1-23.7-3.2-.8.5-2.2.1-3.3-.2-5.5-1.2-11-2.4-16.4-3.6 3.3.2 6.9.2 10.3.8 4.8.9 9.1 1.6 14.1-1 5.6-2.8 11.9-.9 16.9 2.8 6 4.4 12 6.1 19.6 4.7 11.7-2.2 21 2.8 27.3 12.6 3.2 4.8 7 8.1 12.2 10.4 3.3 1.5 5.9 4.6 8.8 7 1.5 1.3 2.9 2.7 4.3 3.9 2.5 2.2 5 4.6 7.7 6.6 2.2 1.6 4.6 3.1 7.1 4C377.7 71.4 380.3 74.9 379.4 81.1z"/><path fill-rule="evenodd" d="M308.8 194.8c4.4-.4 9.2-.2 13.6-1.5 9.6-2.7 18.3-7.3 24.7-15.2 8.2-10.1 5.9-20.1-6-25.4-10.2-4.5-20.8-5.6-31.7-3.4-10.8 2.2-18.2 8.6-22.1 18.9-1.1 2.8-1.8 5.7-2.8 8.6-.7-10.1 7.1-23 17.3-27.4 14.6-6.3 29.3-5.6 43.4 1.5 10.7 5.4 13.3 16.5 6.3 26.1-8.9 12.2-21.6 17.8-36.3 19.1C312.9 196.3 310.6 195.2 308.8 194.8z"/><path fill-rule="evenodd" d="M242.3 109.1c-2.7-2.1-5.3-4.3-8.1-6.4-10.3-7.9-17.6-8.1-28.1-.5-9.2 6.6-11.3 6.7-20.6.9-10.9-6.8-19.5-2.5-20.5 10.4-.3 3.2.3 6.5.5 9.5-4-4.8-3.1-15.3 2.1-21.8 4.1-5.2 10-6.8 16.4-2.4 8.5 5.8 15.3 5.3 23.3-.9 8.3-6.5 17.3-4.7 25.4 1.4 3.7 2.8 7 6.1 10.5 9.1C242.9 108.5 242.6 108.8 242.3 109.1z"/><path fill-rule="evenodd" d="M212.9 56.5c-14 1.4-15.7 4.4-9.8 17.7 2.1 4.8 5.1 9.9.8 14.9-4.2 4.8-9.9 4.1-15.3 2.7-11.8-2.9-21.1-9.1-26.1-20.7 2.7 3 5.1 6.3 8.1 8.9 6.3 5.6 13.9 8.5 22.3 9 8.8.5 11.4-2.9 8.6-11.1-.9-2.7-2-5.3-2.9-8-1.4-4.1-1.9-8.2 1.6-11.6C203 55.5 207.8 54.8 212.9 56.5z"/><path fill-rule="evenodd" d="M303.4 318c-4.6-9.8-10.4-19.3-13.6-29.6-4.5-14.5-12.4-25.5-25.6-32.8-4.8-2.6-9.2-5.9-14.3-9.2.8-.2 1.3-.5 1.5-.4 9.5 5.7 19.6 10.8 28.4 17.5 4.5 3.5 7.9 9.6 9.9 15.2 4.2 12.3 7.4 24.9 14.6 35.9.5.7.6 1.7.9 2.6C304.5 317.5 304 317.8 303.4 318z"/><path fill-rule="evenodd" d="M145.1 41.9c2.2-1 4.3-2 6.5-3 5.3-2.2 10.6-4.4 16-6.6.2-.1.3-.2.4-.2 18.2-6.1 35.7-15.9 56.1-11.1 1.9.4 3.8.8 5.6 2.1-1.8-.2-3.7-.3-5.5-.5-12.3-1.3-23.8.6-35.3 5.9-11.3 5.1-23.7 8-35.6 11.9-2.6.8-5.2 1.6-7.9 2.4C145.4 42.4 145.2 42.1 145.1 41.9z"/><path fill-rule="evenodd" d="M298.8 215.2c10.9-1.1 22-2 33-3.5 9.6-1.3 16.5-5.9 19.8-15.9 1.7-5.2 5.5-9.8 8.3-14.7 1.8-3.2 3.5-6.5 5.7-9.8-1 2.9-1.8 5.8-3.1 8.6-3.1 7-6.6 13.7-9.6 20.8-2.3 5.4-5.7 9.7-11.1 11.6C327.7 217.3 313.1 216.4 298.8 215.2z"/><path fill-rule="evenodd" d="M273.3 144.9c-.8-1.2-1.8-2.2-2.3-3.5-4.7-11.3-4.9-22.8.5-33.8 3.9-7.9 13.3-11.2 21.9-8.4 9.5 3.1 16.2 11.7 15.3 20-1.6-9.6-7.7-14.7-16.1-17.2-8.3-2.5-16.3 1.8-19.6 10.4C268.8 123.1 268.6 134 273.3 144.9z"/><path fill-rule="evenodd" d="M182.7 217.4c8.4 11.8 21.3 14.7 34.5 16.4 15 2 29.9 1.5 44.3-3.7.2-.1.6.2 1.2 1.3-6 1.7-11.9 3.8-18 4.9-19.2 3.5-37.9 2.3-54.5-9.2-3.3-2.3-5.8-5.9-8.7-8.9C181.9 218 182.3 217.7 182.7 217.4z"/><path fill-rule="evenodd" d="M120.5 113.2c-3.3 10.1-3.5 20.3-.5 30.4 3.3 11 11.3 14.1 21.2 8 6.2-3.9 10.9-8.9 9.8-17.1.5.1 1 .1 1.5.2-.3 3 .1 6.2-1.1 8.8-3.4 8.1-9.9 12.8-18.5 14.3-6.3 1.1-11.6-1.9-14.2-8.5C113.9 137 114.7 124.9 120.5 113.2z"/><path fill-rule="evenodd" d="M220.7 210.9c5.6 2.1 11.5 3.7 16.8 6.5 12.1 6.2 24.6 6.8 37.3 3.3 8.6-2.3 15.4-7.1 17.8-16.6-1 3-1.4 6.3-3 8.9-4.7 7.6-12.4 11.1-20.7 12.5-11 1.8-21.8.4-31.7-5.7-5.2-3.3-11.1-5.5-16.6-8.2C220.6 211.3 220.6 211.1 220.7 210.9z"/><path fill-rule="evenodd" d="M328.3 255.2c-1.2 3.8-1.9 7.8-3.7 11.4-4.8 10-5.9 20.6-3.5 31 1.6 7.2-2.2 12.9-2.4 19.5-.1 3.9-1 7.8-1.6 11.6-2.6-6.8.2-13.7.8-20.6.2-2.4.9-5 .3-7.3-3.5-12.9-1.2-24.8 5.5-36.2 1.7-2.9 2.6-6.4 3.8-9.7C327.8 255 328.1 255.1 328.3 255.2z"/><path fill-rule="evenodd" d="M260.8 62.9c3.5-5.2 8.8-7.3 15.3-6.9 6.8.4 13.1 2.6 18.4 6.9 5.3 4.3 8 9.8 6.8 16.7-1.5 8.7-9.5 12.6-17.9 8.5 1.4.1 2.5.2 3.7.2 10.1-.1 14.8-8.2 9.9-17.2-4.3-7.9-17.8-14.6-26.5-12.6C267 59.3 263.9 61.5 260.8 62.9z"/><path fill-rule="evenodd" d="M317.4 84.8c-.3 4.8 2.5 6.9 6.6 7 6.5.1 13 0 19.4-.5 7.3-.5 13.9 1.2 19.6 5.9 6.3 5.2 7.3 15.1-2.3 19 .8-1 1-1.4 1.3-1.7 5.3-5.1 5.3-11.3-1-14.9-4.7-2.6-10.5-3.9-15.9-4.7-7-1-14.3-.4-21.4-1.2C318.1 93 316.3 90 317.4 84.8z"/><path fill-rule="evenodd" d="M254.7 138.7c-1.8-1.5-4.8-3.5-7.1-6-2.8-3-5-6.6-7.6-9.9-3.1-4.1-7.3-5.3-12-3.4-3.6 1.5-7.2 3.4-10.4 5.8-2.7 2-4.8 5-2.8 8.7 1.9 3.5 4.9 4.8 8.9 3.3.0.5-.1 1.1-.1 1.6-2.6-.4-5.5-.3-7.8-1.4-3.4-1.7-5-5.2-3.5-8.9 3.1-7.8 9.7-11.6 17.6-13.1 6.6-1.3 10.4 2.9 13.8 7.8C247.4 128.5 251.3 133.9 254.7 138.7z"/><path fill-rule="evenodd" d="M225.2 79.8c1.5-4.1 2.1-8.8 4.6-12 4.7-6 13.9-5 17.8 1.6 1.9 3.2 2.8 7 4.3 10.6.9 2.3 1.5 4.8 2.9 6.8 3.4 4.8 8.3 4.5 11.1-.6 1.2-2.1 1.8-4.5 3.1-7.9-.3 2.8-.3 4.4-.8 6-1.2 4-3.1 7.7-7.8 8-4.4.3-7.7-2.4-9.5-6.1-2.2-4.6-3.6-9.6-5.8-14.3-2.6-5.4-8.1-7-12.9-3.6-1.9 1.4-3.1 4.1-4.2 6.4-.7 1.6-.7 3.5-1.1 5.3C226.5 80.1 225.9 80 225.2 79.8z"/><path fill-rule="evenodd" d="M156.6 89.9c-14.9-1-23.2 2.2-26.1 10.7-2.2 6.3.9 13.2 7.9 17.6 3.1 2 6.1 2.9 8.7-1.3-1.3 4.3-4 5.4-8.2 3.8-8.6-3.3-14.1-12.4-12.1-20 2.2-8.2 12.7-14.9 21.4-13.4C151 87.8 153.8 89 156.6 89.9z"/><path fill-rule="evenodd" d="M202.3 193.5c5.1-4.9 11.4-6 17.5-4 7 2.3 13.7 5.8 20.3 9.2 6.9 3.6 13.4 8.3 21.8 7.5.0.4-.1.9-.1 1.3-3.6-.3-7.5.1-10.7-1.2-8.1-3.3-16-7.3-23.9-11C219 191.4 211 188.9 202.3 193.5z"/><path fill-rule="evenodd" d="M352.6 126.8c-3.9-8.8-10.9-14-19.1-12.9-14.5 1.9-21 12-24 25.6-.9-14.6 10.6-28.6 23.5-29.1C342.8 110.1 352.7 118.3 352.6 126.8z"/><path fill-rule="evenodd" d="M232.5 177.9c1.3.0 2.6.1 3.8.0 7.3-.5 11-2.9 11.3-10.1.6-14.9 12.1-20.1 26.6-12.4 1.9 1 3.6 2.4 5.1 4.2-2.7-1.2-5.4-2.7-8.2-3.5-11.1-3.2-17.7-1.2-20.2 11.1C248.9 177.7 243.1 180.9 232.5 177.9z"/><path fill-rule="evenodd" d="M167.9 161c-.6 1.6-.9 3.4-1.9 4.6-3.8 4.7-13.1 5.4-17.8 1.6-4.5-3.7-5.1-9.8-1.2-14.7 5.1-6.4 12.1-9.4 18.9-11.5-4.9 3.9-10.7 7.9-15.7 12.7-3.5 3.4-2.9 8.2.2 11.1C155.3 169.5 164.8 167 167.9 161z"/><path fill-rule="evenodd" d="M381 118.4c8.7 13.2 9.4 21.1 2.5 28.9 5.9-10.4.7-18.4-5.2-26.4-.8-1.1-.8-4 0-4.9 6-6.4 6.4-10.2 1-17.1-.6-.8-1.3-1.5-2-2.4C386.6 100.8 388.2 110.3 381 118.4z"/><path fill-rule="evenodd" d="M98.5 132.3c-.2 3.5-1.3 7.4-.4 10.7 1.3 5.2 3 10.7 6.1 14.8 5.6 7.4 12.4 14 19.1 21.3-1.4.2-1.9.4-2 .3-6.9-6.6-14.1-13.1-20.6-20C94.9 153.1 94.2 140.4 98.5 132.3z"/><path fill-rule="evenodd" d="M394.5 107.8c2.2 2.7 3.8 4.4 5 6.3 1.3 1.9 2 4.2 3.4 6 3.1 3.9 4.5 7.7 2.3 12.8-1 2.3.0 5.5.5 8.2 1.3 6.8 2.2 13.5-2.3 19.6 2.8-7.3.9-14.3-1.3-21.2-.6-1.7-1.4-3.9-.8-5.3C406.1 124 397.4 117.5 394.5 107.8z"/><path fill-rule="evenodd" d="M334.4 246.6c3.4-4 6.6-8.2 10.3-12 1.7-1.7 4.3-3.1 6.6-3.7 3.2-.7 4.9-2.1 6.6-5.1 3.5-6.2 8-12 12.8-17.4-3.7 7.2-7 14.6-11.2 21.5-1.2 2-4.6 2.6-6.9 3.9-2.4 1.3-4.9 2.2-7 3.8-3.8 2.9-7.2 6.2-10.8 9.4C334.7 247 334.6 246.8 334.4 246.6z"/><path fill-rule="evenodd" d="M317.5 248.4c-16 11-36.6 8.7-48.3-4.7C290.2 253.6 298.4 254.5 317.5 248.4z"/><path fill-rule="evenodd" d="M132.6 55.6c-2.3.9-4.6 1.8-6.9 2.8-7.6 3.4-12.3 8.3-13.2 17.6-.7 7.2-4.5 14.1-7.4 21.1.2-1.7.3-3.5.6-5.2 1.4-7.3 2.3-14.8 4.4-21.8 1.1-3.5 3.8-7.3 6.8-9.3 4.5-2.9 9.9-4.4 14.9-6.5C132.1 54.7 132.3 55.1 132.6 55.6z"/><path fill-rule="evenodd" d="M371.7 197.9c6.8 5.4 10.1 3.8 16.6-7.7.5 5.4-2 11-5.8 12.7-5 2.2-8.6-.4-11.8-4-3.2 1.8-6.4 3.6-9.9 5.6 5.2-6.7 9.9-12.8 15.2-19.8C374.5 189.7 373.1 193.8 371.7 197.9z"/><path fill-rule="evenodd" d="M218.5 37.8c-5.9.0-11.9-.3-17.7.1-3.6.3-7.3 1.1-10.5 2.7-2.2 1.1-3.6 4-5.4 6 1.8 1.4 3.6 2.8 5.4 4.2.0.2-.1.4-.1.6-2.3-1.1-6-1.6-6.7-3.4-.8-2 .3-6.1 2-7.4 3.5-2.7 7.9-5.5 12.1-5.7 6.9-.4 14 1.2 21 2C218.6 37.3 218.5 37.5 218.5 37.8z"/><path fill-rule="evenodd" d="M204.3 163.7c-3.5-1.4-6.9-2.9-10.5-4.1-2.2-.7-4.6-1.2-6.8-1.1-1.4.1-3.1 1.3-3.7 2.5-.4.7.9 2.7 1.9 3.5 2.3 1.9 4.8 3.6 7.3 5.2 1.5 1 3.2 1.7 4.8 2.6-.5.5-1 1-1.6 1.5-3.9-2.2-7.9-4.5-11.8-6.7-2.9-1.7-5.4-3.8-4-7.6 1.4-4 4.9-5.5 8.5-4.3 5.7 1.9 11 4.6 16.5 7C204.7 162.8 204.5 163.2 204.3 163.7z"/><path fill-rule="evenodd" d="M160.6 192.4c-1-9.2 2.7-15.8 10-18.4 7.3-2.7 15.8 1.1 21.7 10-5.5-4.7-11.4-8.7-19.1-7.1C165 178.6 161.9 184.8 160.6 192.4z"/><path fill-rule="evenodd" d="M338.3 65.7c-8.2-16.4-21.8-21.1-39.2-17.8C313.8 37.9 332.7 46.5 338.3 65.7z"/><path fill-rule="evenodd" d="M243.1 151.7c-21.9-.1-28.2 4-29.4 18.5-2.4-6.1-.9-11.3 3.6-16.1C221.4 149.5 234.7 147.4 243.1 151.7z"/><path fill-rule="evenodd" d="M153.6 187.2c-8 3.1-16.4.8-22.1-6.1-4.9-5.8-5.4-10.7-1.9-16.2C128.1 177.5 136.7 185.4 153.6 187.2z"/><path fill-rule="evenodd" d="M296.2 228.6c12.2 4.4 24.3 9.2 37.5 6.1C325.1 241.6 306.4 238.6 296.2 228.6z"/><path fill-rule="evenodd" d="M347.3 226c-9.3 8-26.2 5.7-37.2-4.4C334 228.9 336.9 229.3 347.3 226z"/><path fill-rule="evenodd" d="M233.3 54.2c.1-16.2 14.3-24.6 29.7-16.8C247.6 34.5 238.3 40.4 233.3 54.2z"/><path fill-rule="evenodd" d="M159.3 208c2.2 13.2 9 18.2 25.8 18.8-6.8 1.6-13.7 2.7-19.9-1.8C159.7 220.9 157.7 215.3 159.3 208z"/><path fill-rule="evenodd" d="M341.8 71.7C355.6 67 363 72.9 367 92.5 360.6 81.7 357.1 69.2 341.8 71.7z"/><path fill-rule="evenodd" d="M156.1 209.7c-13.9-1.2-26.7-10.4-27.8-22.5C134.5 198 144.2 204.2 156.1 209.7z"/><path fill-rule="evenodd" d="M323 243c-11.5.8-22.8-.3-33.6-5.3 11.3 1.3 22.5 2.7 33.8 4C323.1 242.1 323.1 242.5 323 243z"/><path fill-rule="evenodd" d="M201.4 128.7c-7 9.9-5.6 19.1 3.7 28.5-5.3-1.3-10.4-7.3-11.3-13.3C192.9 137.6 195.3 132.3 201.4 128.7z"/><path fill-rule="evenodd" d="M306.4 259.4c-.5 9.6-1 19.2-1.5 28.8-4.8-9.7-.7-19.2-.5-28.8C305.1 259.4 305.7 259.4 306.4 259.4z"/><path fill-rule="evenodd" d="M106.3 103.1c-7.6 8-6.5 16.6-2 26C93.3 119.8 96.7 106 106.3 103.1z"/><path fill-rule="evenodd" d="M139.8 59.8c-1 16.9 1.5 21.2 9.8 17.7-2.6 3.8-5.6 4.4-9.4 2C134.8 76.1 134.5 70.1 139.8 59.8z"/><path fill-rule="evenodd" d="M357.5 213.8c-5.5 9.2-14.5 10.6-22.8 4.4C351.5 217.7 351.5 217.7 357.5 213.8z"/><path fill-rule="evenodd" d="M264.4 39.2c5-5.9 13.2-6.2 20.7.0C278.1 39.2 271.1 39.2 264.4 39.2z"/><path fill-rule="evenodd" d="M382.8 157.4c2.8 8.2.5 14.4-5.5 20.4C379.2 170.8 380.9 164.4 382.8 157.4z"/><path fill-rule="evenodd" d="M399.7 171.1c2.7 10 .6 14.6-6.1 15.9C395.5 182.1 397.6 176.5 399.7 171.1z"/></svg>