<svg version="1.2" baseProfile="tiny" id="Layer_1" xmlns="http://www.w3.org/2000/svg" xmlns:xlink="http://www.w3.org/1999/xlink" width="595.3" height="316" viewBox="0 0 595.3 316"><path fill-rule="evenodd" fill="#e1e1e1" d="M272 38.8c7.8-1.3 15.8-2.4 23.5-4.1 3.9-.9 7.4-3.2 11.1-4.8 1.9-.8 4.1-2 5.9-1.8 6.9 1 12.7 3.6 18.3 8.4 8.6 7.4 18.5 13.4 30.3 15.4 6.4 1.1 12.6 3.8 18.9 5.8-2.2.6-4.4 1.7-6.5 1.6-3.4-.3-4.5 1.7-3.9 4.1.3 1.4 2.6 2.7 4.3 3.3 1.3.5 3.1-.2 4.4-.4-2.5 4.7-4.9 9.1-7.2 13.6-7.1 11-13 23.2-26.1 28.9-1.6.7-3.3 1.4-4.9 2.1-3-1-6-2.1-9-3.1-3.9-2.7-8-2.7-9.6.1-1.9 3.3-3.7 6.6-5.5 9.9-1.3.8-2.6 1.6-4.1 2.5-2.1-8.7-3.5-9.5-12.1-9.6-5 0-7.2 3.5-10.3 6.1-2.3 1.9-5.1 3.3-7.7 4.9.2-.7.3-1.3.5-2 .6-1.6 1.2-3.3 1.7-4.9 1.7-6.4 3.3-12.7 5-19.1 2.5.5 3 0 3.8-2.7 1.9-6.4 4.1-12.7 6-19 .5-1.7.8-3.5 1.2-5.2.7-.4 1.4-.8 2.1-1.1 2 .7 4 1.4 6 2 3.1 2 6.3 3.8 9.2 6 1.4 1.1 3.4 3.3 3.1 4.5-.4 1.7-2.6 3-4.2 4.2-2 1.5-4.3 2.6-6.5 3.9 1.9 2.2 3.7 4.6 5.9 6.5 1.6 1.3 3.8 2.1 5.7 2.9 4.3 1.7 8.8 3.3 13.1 4.9.4-2.9 2.6-3.1 5.7-2.3 3.3.9 6.6 1.4 10.6 2.3-1.7-5.1-4.3-9.1-3.9-12.8.4-3.8 3.8-7.3 5.8-10.9-.3-.5-.7-.9-1-1.4-2.3 1.2-4.7 2.3-6.9 3.7-2.3 1.6-4.4 3.6-6.6 5.4-2-1.7-3.9-3.4-5.9-5-1.1-1.4-2.8-2.8-3.1-4.4-1.7-8.3-8.9-8.6-14.9-10.7-2.1-.9-4.1-2.6-6.2-2.6-5.8.0-7.4-3.3-7.8-8.1 2.7-.8 5.4-1.5 8.1-2.3.0-.6.0-1.2.0-1.7-6-2.2-11.8-4.8-18-6.4-1.7-.4-4.2 2.1-6.3 3.2-2.4-2.8-4.7-5.7-6.9-8.2-1.3.8-2.9 1.7-4.4 2.6C272.5 41.8 272.3 40.3 272 38.8z"/><path fill-rule="evenodd" fill="#bcbcbc" d="M414.1 149.8c10.3 5.8 11.1 16.1 12.4 26.1.2 1.2-1.2 2.6-1.9 3.8-6.8 10.8-14 21.3-20.3 32.5-2.6 4.6-3 10.4-4.4 15.7-.7 2.3-1.3 4.7-2 7-2.9 2-2.5 3.6.5 4.9.9.4 1.8.8 2.7 1.2 7.8 4.3 8.3 7.8 2.2 14-1.2 1.2-2.3 2.5-3.6 3.5-6.3 5-12.7 9.3-21.1 10.5-10 1.4-19.8 3.9-29.7 5.9-5 .6-10 1.3-15 1.9 4.7-1.3 9.4-2.7 14-4 2.7-.3 5.3-.7 8-1 5.8-1.4 11.7-2.5 17.4-4.3 8.2-2.5 10.9-8.2 7.6-15-.6-1.3-1.8-2.3-2.9-3.3-3-2.9-6.1-5.6-9.1-8.4 2.2.6 4.3 1 5-2.1.6-8 4.6-15.9.7-24.1-1.2-2.5-1.1-5.5-1.9-8.2-1.2-4-2.6-7.9-3.9-11.8.0-1.5.0-3 0-4.5.7-1.8 1.5-3.5 2.2-5.3.5 3.2 1 6.4 1.4 9.6.3.0.6.0.9.1.8-1.9 1.6-3.8 2.4-5.7.6 2.2 1 4.5 1.7 6.7 2.7 8.8 7.4 17.5 2.9 26.8-2.3 4.8-1 7.3 3.6 9 3.3-10.9-.3-33.9-6.7-42.7-.3-.4-.8-.5-1.3-.7.2-7 6.2-9.8 10.1-14.2 3.4-.8 4.2-6.5 1.2-10.9-.5 3.2-.9 6.2-1.3 9.1-1.3.7-2.6 1.4-3.8 2.2 2-4.9 5.8-8.9 1.8-14 5.2-2 7.3-5.7 7.1-11.6-2.3.8-4.7 1.6-7.1 2.4 2.3-3.3 4.7-6.6 7-9.9.7.6 1.4 1.3 2.1 1.9 1.5 2.2 3.6 4.2 4.3 6.6 1.3 4.5 4.1 3.9 7.4 3.1 3.4-.8 4.6-2.9 3.9-6.3-.4-1.8-.9-3.9 2.3-3.4C412 145.2 413 147.5 414.1 149.8z"/><path fill-rule="evenodd" fill="#e3e3e3" d="M398 234.9c.7-2.3 1.3-4.7 2-7 .8.1 1.8.0 2.4.4 8.3 5.2 16.9 10 24.7 15.8 4.9 3.7 4 10.9-1.5 13.8-7.1 3.8-14.7 7.1-22.4 9.7-13.3 4.6-26.8 9.1-40.4 12.5-7.3 1.8-15.2.8-22.7 1.6-11 1.3-22 2.9-33 4.8-25.3 4.4-50.5 6-75.8.7-10.7-2.2-21.4-4.8-32.2-6.9-6.8-1.3-13.9-1.4-20.6-2.9-6.6-1.5-12.4-4.8-15.2-11.7-5.4-13.5-.1-24.3 14.1-28 5.5-1.4 11.2-1.8 16.6-3.2 2.6-.7 4.8-2.6 7.2-3.9 1.7 1.3 3.3 2.6 5 3.9-1.8 1.1-3.4 2.7-5.3 3.1-7.1 1.6-14.3 2.8-21.5 4-8.3 1.4-14 6.6-15 13.8-.8 6 4.1 14.3 10.8 17.1 6.4 2.8 12.9 5.3 20.2 3.5 1.7-.4 3.8.6 5.7 1.1 6.7 1.8 13.4 3.7 20.1 5.5v0c4.7.6 9.4 1.6 14.1 1.6 9 .1 17.9-.4 26.9-.6 7 0 14-.1 21-.1 1 0 2 0 2.9.0 7.2-.6 14.5-1 21.7-2 8.8-1.3 17.5-3.2 26.3-4.9v0c5-.6 10-1.3 15-1.9 1.8.1 3.7.4 5.4.1 7-1.2 14-3.2 21-3.9 14.2-1.4 26.4-7.7 38.3-14.5 6.4-3.6 6.6-8.2.6-12.5C409.3 240.5 403.5 237.9 398 234.9z"/><path fill-rule="evenodd" fill="#b4b4b4" d="M206.1 234.8c-1.7-1.3-3.3-2.6-5-3.9-3.8-5.6-7.5-11.2-11.3-16.8-3.1-4.5-6.4-8.8-9.5-13.3-1.3-1.9-2.4-4-3.1-6.1-3.3-10.1-6.4-20.2-9.4-30.4-1.2-3.9-2.1-8-2.6-12-1-8.1-1.6-16.2-2.3-24.3-.3-3.6-.5-7.3-.7-10.9 1 2.6 2.2 5.2 2.8 7.9.9 4.3 1.4 8.7 2.1 13v0c0 5.7.0 11.4.0 17.1.4.3.9.6 1.3.9.9-1.3 1.8-2.6 2.7-4 5.4.5 7.2 5 9.3 8.9 2.7 5.1 4 11 7.2 15.8 9.7 14.3 14.3 30.2 15.4 47.2.3 5.4 2.9 8.7 7.9 10-1 .7-2 1.4-3 2.2C207.3 235.5 206.7 235.1 206.1 234.8z"/><path fill-rule="evenodd" fill="#e9e9e9" d="M210.9 233.7c-5-1.3-7.6-4.6-7.9-10-1.1-17.1-5.7-32.9-15.4-47.2-3.2-4.7-4.5-10.7-7.2-15.8-2-3.8-3.9-8.3-9.3-8.9-1-1.8-2.4-3.5-2.9-5.5-.7-2.8-.8-5.7-1.1-8.6v0c.3-8.1.6-16.2.8-24.3.0-.9-.6-1.9-.9-2.8 2-1.6 4.1-3.2 6.1-4.9 1-.2 1.9-.3 2.9-.5 1-.2 2-.3 3-.5.0.3-.1.6-.2.9.0 1.7.1 3.4.1 5.1-4.9-2.1-7.3-1-7.8 4.2-.8 7.6-1.7 15.2-1.6 22.9.1 5.5 1.8 10.7 8.2 13 4.4 1.6 9.6 2 12.2 6.9.2.3.9.7 1.3.6 4.8-1.1 5.4 3.2 7.5 5.6.7.9 1.3 1.9 1.9 2.9.4-.2.8-.4 1.2-.6-1.8-3.6-2.6-8.8-5.5-10.4-6.8-3.7-10.1-9.3-12.4-16 2.2 2.5 4 6.4 6.5 7 5 1.1 7.3 4.4 10.7 7.4 6 5.2 6.9 12.2 9.3 18.7.3.9-1.6 2.5-2.5 3.8-5.7-4.6-11.5-9.2-17.2-13.8-.9-.7-1.9-1.3-2.9-2-.3.3-.6.5-.8.8 3.6 5.7 7.3 11.4 10.9 17 2.6 4 5.3 8 7.9 12.1.0 2.6.5 5.3-.1 7.7-3.1 10.7 3.5 18.1 8.1 26.3C212.9 227.9 211.9 230.8 210.9 233.7z"/><path fill-rule="evenodd" fill="#ccc" d="M245 46c5.3-1.4 10.7-2.8 16-4.2-1.3 1.9-2.6 3.8-3.9 5.7-3.6 5.1-7.5 10-10.8 15.4-.9 1.5-.2 4-.2 6 .3 1 .6 2 .9 2.9 1 3 2.1 5.9 3.1 8.9 1 3.7 1.9 7.4 2.9 11.2-1.6-.7-3.1-1.3-4.7-2-.4 1-1.2 2.3-1 3.1 1.1 3.3 2.6 6.6 4.3 10.6-1.8.8-4.3 2-6.8 3.1-7.4-11-19.1-14-30.8-16.9 2.3-1.7 4.5-3.3 6.8-5 3.7-2.7 7.5-5.4 11.2-8.1 3.5-3.2 7.7-5.9 10.4-9.6 2.7-3.8 3.9-8.7 6-13 1.5-3 1.1-4.7-2.3-5.3C245.7 47.9 245.3 47 245 46z"/><path fill-rule="evenodd" fill="#cdcdcd" d="M232 76.9c-3.7 2.7-7.5 5.4-11.2 8.1-2.3 1.6-4.5 3.3-6.8 5-7-.6-13.8.5-20 4-8 .1-11.7 3-14.1 11-.3.0-.6.0-.9.1-1 .2-2 .3-3 .5-1 .2-1.9.3-2.9.5 5.6-9.4 11.3-18.7 16.9-28.1 1.6.5 3.6 1.9 4.6 1.4 4-2.2 7.6-4.9 11.4-7.5 10.5-7.3 21-14.6 31.6-21.8 2.3-1.6 5-2.7 7.5-4 .3 1 .7 1.9 1 2.9-1.6.8-3.4 1.4-4.8 2.4-8.5 6.1-17 12.1-25.3 18.4-5.1 3.8-10 7.7-14.8 11.8-1.3 1.1-1.6 3.3-2.4 5 1.8.4 3.7 1.4 5.5 1.2 5.5-.6 11.1-1 16-4.7C223.6 80.4 228 78.9 232 76.9z"/><path fill-rule="evenodd" fill="#ccc" d="M374 97.9c1.3-.4 2.6-.7 4-1.1.2 4.5.4 9.1.8 13.6.1 1.7.3 3.7 1.3 4.9 2.7 3.1 5.9 5.8 8.9 8.6 4.1 2.9 8.2 5.9 12.3 8.8-3.3 1.1-6.7 2.1-9.5 3.1-2.6 2.7-4.8 6.9-7.8 7.6-5.5 1.3-10.6-1.6-15.5-5.8 12.8 1.2 14.8.4 14.1-4.9-3.4.7-6.8 1.3-10.5 2.1.0-2.2.0-3.5.0-4.8-.3-1-.3-2.4-1-3-2.3-1.9-4.8-3.5-7.2-5.2.3-.4.5-.8.8-1.2 2.4.8 4.8 1.6 7.2 2.4.1-.2.1-.4.2-.7-1.7-1.1-3.3-2.1-5-3.2 4.1.8 8.2 1.5 12.2 2.3.3-.4.6-.8.9-1.2-1.2-1.8-2.4-3.5-3.6-5.3-1.5-2.3-3-4.6-4.5-6.9C378.6 105.1 379.1 102.8 374 97.9z"/><path fill-rule="evenodd" fill="#cfcfcf" d="M272 38.8c.3 1.5.5 3 .8 4.4 1.5-.9 3-1.8 4.4-2.6 2.2 2.6 4.5 5.4 6.9 8.2-6.4 4.6-12.7 9.2-19.1 13.7 1-3.3 1.9-6.5 2.9-9.7-3.2 2.6-6.1 5.5-9.5 7.6-3.6 2.2-4.3 4.3-1.3 7.4-1 0-2.3.5-2.8.0-1.3-1.1-2.2-2.6-3.2-4 1.9-9 12.8-9.1 16.4-15.2-1.8-3.2-3.1-5.5-4.4-7.8C266 40.2 269 39.5 272 38.8z"/><path fill-rule="evenodd" fill="#a3a3a3" d="M371 79.9c2.4-4.4 4.7-8.9 7.2-13.6-1.3.2-3 .9-4.4.4-1.7-.6-4-1.9-4.3-3.3-.5-2.3.5-4.3 3.9-4.1 2.1.2 4.3-1 6.5-1.6 7 5.7 3.4 10.4-.4 18.5-.6 1.3-2.1 2.8-1.8 3.7 2.1 6.2-2.2 9.8-5.2 14-.8 1.1-1.6 2.1-2.4 3.2-.1-.1-.3-.2-.4-.3.5-3.4 1.1-6.9 1.5-10.3C371.4 84.3 371.1 82.1 371 79.9z"/><path fill-rule="evenodd" fill="#e9e9e9" d="M389 123.9c-3-2.9-6.2-5.5-8.9-8.6-1-1.1-1.1-3.2-1.3-4.9-.4-4.5-.5-9.1-.8-13.6 3.5-2.4 5.9-1.9 8.3 2.1 1.3 2.2 4.5 3.3 6.8 4.9-4.7 5.4-4.9 11.7-3.9 18.3C389.1 122.7 389.1 123.3 389 123.9z"/><path fill-rule="evenodd" fill="#e2e2e2" d="M263 40.9c1.3 2.3 2.6 4.6 4.4 7.8-3.6 6.1-14.4 6.2-16.4 15.2-1.6 1.7-3.3 3.4-4.9 5 0-2-.7-4.6.2-6 3.3-5.3 7.2-10.3 10.8-15.4 1.3-1.9 2.6-3.8 3.9-5.7C261.7 41.5 262.3 41.2 263 40.9z"
		/><path fill-rule="evenodd" fill="#b4b4b4" d="M389.2 122c-1-6.6-.8-12.9 3.9-18.3.6.4 1.3.8 1.9 1.2-1.5 7.3-.7 8.1 6.3 6.2 1.9-.5 3.9-.8 5.8-1.1-1.7 1-3.4 1.9-5.1 2.9-2.2 1-6 1.6-6.2 2.9C395 119.9 392 120.7 389.2 122z"
		/><path fill-rule="evenodd" fill="#bcbcbc" d="M413 107.9c1.7 8 3.3 16 5 24-.7.7-1.3 1.3-2 2-1.7-6-3.3-12-5-18-.7-2.3-1.3-4.6-2-6.9C410.3 108.6 411.7 108.3 413 107.9z"/><path fill-rule="evenodd" fill="#dbdbdb" d="M413 107.9c-1.3.3-2.6.7-3.9 1-.7.3-1.3.7-2 1-1.9.4-3.9.6-5.8 1.1-7 1.9-7.8 1.2-6.3-6.2 4.2.3 8.5.5 12.7 1.1C409.4 106.3 411.2 107.3 413 107.9z"/><path fill-rule="evenodd" fill="#d7d7d7" d="M167 110.8c.3.9.9 1.9.9 2.8-.2 8.1-.5 16.2-.8 24.3-.7-4.3-1.2-8.7-2.1-13-.6-2.7-1.9-5.3-2.8-7.9C163.7 114.9 165.3 112.9 167 110.8z"/><path fill-rule="evenodd" fill="#a3a3a3" d="M374 97.9c5.1 4.8 4.6 7.2-2 10-.3-.7-.7-1.3-1-2-1.3-3-2.6-6.1-3.9-9.1.9.0 1.8-.1 2.8-.1.1.1.3.2.4.3C371.5 97.4 372.8 97.6 374 97.9z"/><path fill-rule="evenodd" fill="#dcdcdc" d="M206 71.8c-3.8 2.5-7.4 5.3-11.4 7.5-1 .5-3-.9-4.6-1.4C195.3 75.8 200.6 73.8 206 71.8z"/><path fill-rule="evenodd" fill="#dbdbdb" d="M416 133.9c.7-.7 1.3-1.3 2-2 1.9 3.8 1 7.2-1.1 10.8-1.3 2.2-1.9 4.8-2.8 7.2-1-2.3-2.1-4.6-3.1-6.9 1.3-1 2.7-2 4-3 2.1-1.3 3.1-2.8 1.1-5C416.1 134.6 416 134.2 416 133.9z"/><path fill-rule="evenodd" fill="#aeaeae" d="M246.1 68.9c1.6-1.7 3.3-3.4 4.9-5 1 1.4 1.9 2.9 3.2 4 .5.5 1.8.0 2.8.0 2.4-1.6 4.7-3.3 7.1-4.9 2.7-.4 5.3-.7 8-1.1 7.6 1.9 13.9-1.3 20.1-5 .8-.5.6-2.5.8-3.9 1.1 1.4 2.2 2.8 3.5 4.4 1-.4 2.4-.8 3.8-1.3.4 4.8 2 8.1 7.8 8.1 2.1.0 4.1 1.7 6.2 2.6-2.9-.3-5.7-.7-8.6-.7-1.2.0-2.3 1.1-3.5 1.7-.7.4-1.4.8-2.1 1.1-.6.7-1.3 1.4-1.9 2.1-.4-.1-.8-.2-1.2-.3.1-2 .2-4.1.3-5.9-1.3-1.6-2.7-3.3-4.3-5.2-5.9 5-11.9 10.1-17.9 15.3-2.3 3-4.6 6-7 9-1.7 2.6-3.6 5.1-5.1 7.7-2.1 3.6-4.8 5.2-8.9 3.3-.3-1-.7-2-1-3-1-3.7-1.9-7.4-2.9-11.2.9-1 2.2-1.8 2.5-2.9.5-1.7 1.1-4 .4-5.4-1.4-2.9-3.8-2.4-6.1-.5C246.7 70.9 246.4 69.9 246.1 68.9z"/><path fill-rule="evenodd" fill="#d6d6d6" d="M281.8 121.8c2.6-1.6 5.4-3 7.7-4.9 3.1-2.6 5.4-6.2 10.3-6.1 8.7.1 10 .8 12.1 9.6 1.5-.9 2.8-1.7 4.1-2.5.5 3.3 1.6 5.1 5.6 5.5 2.9.3 5.6 3.1 8.4 4.6 1.6.8 3.4 1.3 5.1 1.9 1.9.7 3.9 1.5 5.8 2.2.0.9.0 1.9.0 2.8-3.7-.6-7.3-1.3-11-1.9-3-6.4-3.1 1.5-4.9 1-.6-.3-1.3-.6-1.9-.9-4.6.1-9.3-.6-13.7.3-8.4 1.7-14.3-1-19.7-7.3-3.1-3.6-6.3-2.4-8.9 1.5-1 1.6-2.6 2.9-3.9 4.4.0-1.7.0-3.4-.1-5.1.0-.4-.1-.8-.1-1.2C278.5 124.4 280.1 123.1 281.8 121.8z"/><path fill-rule="evenodd" fill="#f0f0f0" d="M289 95.9c-1.7 6.4-3.3 12.7-5 19.1-1 0-2-.1-3-.1-3.2.7-6.6 1-9.5 2.4-3.8 1.7-5.4.2-6-3-.4-1.7-.1-3.6.0-5.4 1.2-12 4.5-23.4 10.5-33.9 1 .3 2 .7 2.9 1 2.7 3.4 5.4 6.8 8 10.3 1.3 1.7 2.1 3.8 3.1 5.7C289.7 93.2 289.3 94.6 289 95.9z"/><path fill-rule="evenodd" fill="#ccc" d="M338 86.9c2.2-1.8 4.3-3.8 6.6-5.4 2.1-1.5 4.6-2.5 6.9-3.7.3.5.7.9 1 1.4-2.1 3.6-5.4 7.1-5.8 10.9-.4 3.7 2.2 7.7 3.9 12.8-4-.9-7.4-1.4-10.6-2.3-3-.8-5.3-.6-5.7 2.3-4.4-1.6-8.8-3.2-13.1-4.9-2-.8-4.2-1.5-5.7-2.9-2.2-1.9-3.9-4.3-5.9-6.5 2.2-1.3 4.4-2.5 6.5-3.9 1.6-1.2 3.8-2.6 4.2-4.2.3-1.2-1.6-3.4-3.1-4.5-2.9-2.2-6.1-4-9.2-6 4.3 1.7 8.6 3.4 13 5.1 4.6 3.8 3.7 9.5 5.1 14.5.4 1.6 1.6 3.1 2.4 4.7 1.5-1 3.1-2 4.6-3C334.7 89.6 336.3 88.3 338 86.9z"/><path fill-rule="evenodd" fill="#545454" d="M341 132c-1.9-.7-3.9-1.5-5.8-2.2.6-3 1.2-5.9 1.9-8.9 1-3.3 2-6.6 3-9.9 1.6-.7 3.3-1.4 4.9-2.1 4.8 2.3 9.5 4.6 14.3 6.8 2.6 1.1 5.1 2.2 7.7 3.3v0c1.7 1.1 3.3 2.1 5 3.2-.1.2-.1.4-.2.7-2.4-.8-4.8-1.6-7.2-2.4-.3.4-.5.8-.8 1.2 2.4 1.7 5 3.3 7.2 5.2.7.6.7 2 1 3-2-.1-4-.1-6-.2-1.5-1.2-3-2.4-4.6-3.5-2.7-1.7-5.9-2.8-8.2-4.9-2.7-2.4-4.4-2.4-6.2.6-.4 3.6-.8 7.2-1.2 10.8-.6.1-1.2.2-1.8.3C343 132.7 342 132.3 341 132z"/><path fill-rule="evenodd" fill="#c9c9c9" d="M289 95.9c.3-1.3.7-2.7 1-4 1.4-2.8 2.5-5.5-.6-7.9-3.5-2.7-7-5.4-10.5-8.1-1-.3-2-.7-2.9-1-.4.0-.7.0-1.1-.1 6-5.1 12-10.3 17.9-15.3 1.6 2 3 3.6 4.3 5.2-.1 1.8-.2 3.9-.3 5.9.4.1.8.2 1.2.3.6-.7 1.3-1.4 1.9-2.1-.4 1.7-.6 3.5-1.2 5.2-2 6.4-4.1 12.7-6 19C292 95.9 291.5 96.4 289 95.9z"
		/><path fill-rule="evenodd" fill="#8f8f8f" d="M300.2 56.1c-1.4.5-2.8 1-3.8 1.3-1.3-1.6-2.4-3-3.5-4.4-2.1.3-4.4.1-6.2 1-5 2.4-9.8 5.2-14.7 7.9-2.7.4-5.3.7-8 1.1.3-.1.6-.2.9-.3 6.4-4.6 12.7-9.2 19.1-13.7 2.1-1.2 4.6-3.7 6.3-3.2 6.1 1.6 12 4.2 18 6.4.0.6.0 1.2.0 1.7C305.6 54.5 302.9 55.3 300.2 56.1z"/><path fill-rule="evenodd" fill="#bababa" d="M337 120.9c-.6 3-1.2 5.9-1.9 8.9-1.7-.6-3.5-1-5.1-1.9-2.9-1.5-5.5-4.3-8.4-4.6-4-.4-5.2-2.2-5.6-5.5 1.8-3.3 3.6-6.7 5.5-9.9 1.6-2.8 5.7-2.7 9.6-.1-.9.3-1.9.5-2.8.9-4.6 1.8-5 4.3-1.2 7.5 1.5 1.2 3.5 1.7 5.2 2.6C333.8 119.5 335.4 120.2 337 120.9zM331.8 126.3c.3-.3.7-.7 1-1-1.6-1.9-3-4-4.8-5.6-.6-.6-2.2-.2-3.3-.3.3 1.2.3 2.8 1 3.4C327.6 124.1 329.8 125.1 331.8 126.3z"/><path fill-rule="evenodd" fill="#757575" d="M359.2 115.7c-4.8-2.3-9.5-4.6-14.3-6.8 13-5.7 18.9-17.9 26.1-28.9.1 2.2.4 4.4.2 6.5-.3 3.5-.9 6.9-1.5 10.3-.9.0-1.8.1-2.8.1-1.1-.6-3-1.8-3.1-1.7-2.9 4.4-6.2 8.7-8.1 13.5C355.2 110.3 358 113.3 359.2 115.7z"/><path fill-rule="evenodd" fill="#8e8e8e" d="M337 120.9c-1.6-.7-3.2-1.4-4.8-2.1-1.8-.8-3.8-1.4-5.2-2.6-3.9-3.2-3.4-5.7 1.2-7.5.9-.4 1.9-.6 2.8-.9 3 1 6 2.1 9 3.1C339.1 114.3 338.1 117.6 337 120.9z"/><path fill-rule="evenodd" fill="#969696" d="M321 74.9c-4.3-1.7-8.6-3.4-13-5.1-2-.7-4-1.4-6-2 1.2-.6 2.3-1.7 3.5-1.7 2.9.0 5.7.4 8.6.7 6 2.1 13.2 2.4 14.9 10.7.3 1.6 2 2.9 3.1 4.4-.7.4-1.4.7-2.1 1.1C328.4 78.6 325.3 76.1 321 74.9z"/><path fill-rule="evenodd" fill="#6a6a6a" d="M281.8 121.8c-1.6 1.3-3.3 2.5-4.9 3.8-4.2 2.1-8.8 3.5-10.6 8.6-.3 1-2 1.5-3 2.3.0-1.2.0-2.3.0-3.5 1.3-3.7 2.7-7.4 4-11 .6-.1 1.2-.2 1.8-.2 1.8-.2 3.6-.3 5.3-.6 2.7-.4 5.3-.9 7.9-1.3C282.1 120.5 281.9 121.2 281.8 121.8z"/><path fill-rule="evenodd" fill="#bfbfbf" d="M282.3 119.9c-2.6.4-5.3.9-7.9 1.3-1.8.3-3.6.4-5.3.6 1.4-1.3 2.7-2.9 4.3-3.8 2.4-1.3 5.1-2.1 7.7-3 1 0 2 .1 3 .1C283.4 116.6 282.8 118.3 282.3 119.9z"/><path fill-rule="evenodd" fill="#949494" d="M330 82.9c.7-.4 1.4-.7 2.1-1.1 2 1.7 3.9 3.4 5.9 5-1.7 1.4-3.3 2.7-5 4.1C332 88.3 331 85.6 330 82.9z"/><path fill-rule="evenodd" fill="#c6c6c6" d="M330 132.9c3.7.6 7.3 1.3 11 1.9 3 .5 6 .9 9.7 1.5-2.6 2.9-4.5 4.9-6.5 7.1 1.5 1.1 2.5 1.8 3.6 2.6.1 1.2-.2 2.6.4 3.4 2.1 2.9 4.5 5.6 6.8 8.4-1.3.6-3.8 1.2-3.8 1.7.2 4.4 1.1 8.6 4.8 12.1 1.5-2.2 2.6-3.8 3.7-5.5.6.0 1.2-.1 1.7-.1 1.4 4.9 2.8 9.8 4.2 14.7 1.1 3.1 2.1 6.2 3.2 9.3.0 1.5.0 3 0 4.5.0 2-.2 3.9.1 5.8 1.2 8.8 2.6 17.6 3.9 26.4-10.5 1.7-10.9 2.1-10 12-1.7 3.4-3.3 6.7-5 10.1.0-6.4-.2-12.9.0-19.3.1-3 .9-5.9 1-8.9.0-6.4-.8-7.1-7.9-6.8.0-2.8.0-5.5.0-8.3.0-9.1-.4-9.5-9.5-9.7-.2.0-.3-.5-.4-.6 3.3-2.9 6.6-5.7 9.9-8.6.0-.5.1-1.3-.1-1.4-5.1-2.3-10.1-4.8-15.4-6.5-5.1-1.7-10.7-2.3-15.7-6.2 6.4-2.2 11.5-4.4 16.8-5.6 2.1-.5 4.7 1 6.9 2 1.4.6 2.5 2 4.4 3.5.5-2.2.8-3.5 1.2-4.9-5.8.0-7.1-1.3-6.3-7.4-10 2.6-19.7 5-29.9 7.6.9-5.2 4.7-5.5 7.6-7.1 1.6-.9 3.9-3 3.7-4-1.2-4.3 1.7-4.5 4.3-4.9 2.5-.3 5-.1 7.5-.1 3.9 1.6 6.3 7 12.8 4.5-4.7-5.2-9.1-9.7-13.1-14.5C333.5 139.3 331.9 136 330 132.9z"/><path fill-rule="evenodd" fill="#e6e6e6" d="M347.9 146.1c-1-.7-2.1-1.5-3.6-2.6 2.1-2.3 3.9-4.3 6.5-7.1-3.8-.6-6.8-1.1-9.7-1.5.0-.9.0-1.9.0-2.8 1 .3 2 .7 3 1 4.6 1.5 8.9 1.9 12.5-2.4 1.8-2.1 4.1-3.4 6.8-1.1.6.5 1.8.1 2.7.2 2 .1 4 .1 6 .2.0 1.3.0 2.6.0 4.8 3.7-.7 7.1-1.4 10.5-2.1.7 5.4-1.3 6.1-14.1 4.9 4.9 4.2 10 7.1 15.5 5.8 3-.7 5.2-4.9 7.8-7.6 2.8-.9 6.2-2 9.5-3.1.6.4 1.1.9 1.7 1.3-1.6 4.9-4.2 8.7-10 8.8-.7-.6-1.4-1.3-2.1-1.9-2.1 1.8-4 4.3-6.5 5.1-6.7 2.3-13.6 4.2-20.6 5.5-2.5.5-5.4-1.4-8.1-2.2-.2-.1-.6.1-.7.1.2 1.1.3 2.2.5 3.9C352.6 150.5 350.2 148.3 347.9 146.1z"/><path fill-rule="evenodd" fill="#717171" d="M348 272.9c-4.7 1.3-9.4 2.7-14 4 0 0 0 0 0 0-3.1.2-6.3.1-9.4.5-12.8 1.5-25.7 3.1-38.5 4.7-13-.7-26-1.4-39-2.1-.3-.1-.6-.1-.9-.2 2-.3 4-.6 6-.9 4.4.3 8.9.3 13.3.8 11 1.2 21.9 1.6 32.7-1.7 3.6-.3 7.2-.4 10.8-.9.4-.1.7-1.4 1.1-2.1 5.3-.7 10.7-1.3 16-2 2.3-.6 4.7-1.2 7-1.8 6.3-2.4 12.6-4.8 18.9-7.2 2-1.3 4-2.7 6-4 3.1.7 6.1 1.4 10.3 2.3C360.6 266.2 354.3 269.5 348 272.9z"/><path fill-rule="evenodd" fill="#cbcbcb" d="M398 234.9c5.5 3 11.3 5.6 16.4 9.2 6 4.2 5.7 8.8-.6 12.5-12 6.8-24.1 13.2-38.3 14.5-7.1.7-14 2.7-21 3.9-1.7.3-3.6-.1-5.4-.1 9.9-2 19.7-4.5 29.7-5.9 8.4-1.2 14.8-5.5 21.1-10.5 1.3-1 2.4-2.3 3.6-3.5 6.1-6.2 5.6-9.7-2.2-14-.9-.5-1.8-.8-2.7-1.2C395.4 238.5 395 236.8 398 234.9z"/><path fill-rule="evenodd" fill="#d9d9d9" d="M384 150.9c2.4-.8 4.8-1.6 7.1-2.4.2 6-1.9 9.7-7.1 11.6 4 5.2.2 9.1-1.8 14 1.3-.7 2.6-1.4 3.8-2.2.0.6.1 1.2.1 1.8-3.9 4.4-9.9 7.2-10.1 14.2.0.3-.1.6-.1.9-.8 1.9-1.6 3.8-2.4 5.7-.3.0-.6.0-.9-.1-.5-3.2-1-6.4-1.4-9.6 1.3-6.7 2.6-13.3 3.8-20 1.4-1.5 2.8-3 4.3-4.5 2.6-2.5 4.3-5.1 1.6-8.5C382 151.5 383 151.2 384 150.9z"/><path fill-rule="evenodd" fill="#828282" d="M348 272.9c6.3-3.3 12.6-6.7 20.2-10.7-4.2-.9-7.2-1.6-10.3-2.3 1.3-2.6 3.2-5.2 3.8-8 1.5-6.2 4.1-7.2 9.4-3.1-2.2 5.6-1.5 6.8 4.8 8 1 .2 2 .2 2.9.5 2.3.9 3 2.6.9 4-3.3 2.2-7 4.1-10.6 5.7-4.3 1.9-8.8 3.3-13.2 4.9C353.3 272.2 350.7 272.5 348 272.9z"/><path fill-rule="evenodd" fill="#a4a4a4" d="M356 271.9c4.4-1.6 8.9-3.1 13.2-4.9 3.7-1.6 7.3-3.5 10.6-5.7 2.1-1.4 1.4-3.2-.9-4-.9-.3-1.9-.4-2.9-.5-6.3-1.2-7-2.4-4.8-8-5.4-4.1-8-3.1-9.4 3.1-.7 2.8-2.5 5.3-3.8 8-2 1.3-4 2.7-6 4-1.8-.6-3.5-1.5-5.3-1.9-2.6-.5-5.2-.6-7.9-.9 2.5-.1 4.9.0 7.4-.2 2.6-.2 5.2-.4 7.7-1.2 1.6-.5 3.3-1.9.0-2.9 4.4-1 4.3-4.4 4.1-7.9 1.7-3.4 3.3-6.7 5-10.1 2 .7 4 1.3 6 2 3 2.8 6.1 5.6 9.1 8.4 1.1 1 2.2 2.1 2.9 3.3 3.4 6.8.6 12.5-7.6 15C367.7 269.4 361.8 270.5 356 271.9z"/><path fill-rule="evenodd" fill="#979797" d="M384 150.9c-1 .3-2 .7-3 1-1.9 1.2-3.8 2.6-5.9 3.4-4.6 1.9-9.3 3.5-14.2 5.3-1.4-.6-3.6-1.7-5.9-2.7-2.3-2.8-4.7-5.5-6.8-8.4-.6-.8-.3-2.3-.4-3.4 2.4 2.2 4.7 4.5 7.7 7.3-.2-1.7-.4-2.8-.5-3.9.1.0.4-.1.7-.1 2.7.8 5.6 2.7 8.1 2.2 7-1.3 13.9-3.2 20.6-5.5 2.5-.8 4.3-3.4 6.5-5.1C388.6 144.2 386.3 147.6 384 150.9z"/><path fill-rule="evenodd" fill="#ccc" d="M393 142.9c5.8-.1 8.4-3.9 10-8.8l-.1-.4c.7.4 1.4.8 2.1 1.2.7.7 1.3 1.3 2 2 2.7 1 5.3 2 8 3-1.3 1-2.7 2-4 3-3.2-.5-2.7 1.6-2.3 3.4.7 3.4-.6 5.5-3.9 6.3-3.2.8-6.1 1.4-7.4-3.1C396.6 147.1 394.5 145.1 393 142.9z"/><path fill-rule="evenodd" fill="#888" d="M375.9 188.8c.1-.3.1-.6.1-.9.4.2 1 .4 1.3.7 6.4 8.8 10 31.8 6.7 42.7-4.6-1.6-5.9-4.2-3.6-9 4.5-9.4-.2-18.1-2.9-26.8C376.9 193.3 376.4 191.1 375.9 188.8z"/><path fill-rule="evenodd" fill="#cdcdcd" d="M369 240.9c-2-.7-4-1.3-6-2-.9-9.8-.6-10.2 10-12 .4 4 .7 7.9 1.1 11.9C373.3 241.9 371.2 241.4 369 240.9z"/><path fill-rule="evenodd" fill="#9f9f9f" d="M374 238.8c-.4-4-.7-7.9-1.1-11.9-1.3-8.8-2.7-17.6-3.9-26.4-.3-1.9-.1-3.9-.1-5.8 1.3 3.9 2.8 7.8 3.9 11.8.8 2.7.7 5.7 1.9 8.2C378.6 222.9 374.6 230.8 374 238.8z"/><path fill-rule="evenodd" fill="#3b3b3b" d="M375 164.9c-1.3 6.7-2.6 13.3-3.8 20-.7 1.8-1.5 3.5-2.2 5.3-1.1-3.1-2.1-6.2-3.2-9.3 1.2-3.7 2.2-7.5 3.7-11.2 1.4-3.3 3.2-6.4 4.8-9.6.3.2.6.3.9.5C375.2 162 375.1 163.4 375 164.9z"/><path fill-rule="evenodd" fill="#767676" d="M386.1 173.7c0-.6-.1-1.2-.1-1.8.4-2.9.8-5.8 1.3-9.1C390.3 167.2 389.6 172.9 386.1 173.7z"/><path fill-rule="evenodd" fill="#c5c5c5" d="M246.1 279.7c.3.1.6.1.9.2 4.6.7 9.2 1.5 13.8 2 7.4.8 14.8 1.3 22.3 2-7 0-14 .1-21 .1-1.6-.3-3.2-.9-4.8-.9-12.1-.1-24.1-.1-36.2-.1v0c-3.3-1.6-6.5-3.5-9.8-4.8-5-2-10.3-5.4-15.3-5.1-7.4.4-13.8-1.2-20.1-4.2-5.4-2.6-8.3-7.8-7.6-12.8.7-4.6 5-8.7 10.7-9.9 7-1.4 14.1-2.6 21-4.3 3.5-.8 6.7-2.5 10.1-3.8 1.7 1.6 3.4 3.3 5.1 4.9-1.4 1.2-2.6 2.7-4.2 3.4-5.8 2.5-9.8 6.6-12.2 12.5-1.8 4.4-1 6.8 3.3 9.4 5.1 3 10 6.3 14.7 9.8 3.7 2.7 9.7 3.4 13.4 1 3.3.3 6.7.5 10 .8C242.1 279.7 244.1 279.7 246.1 279.7z"/><path fill-rule="evenodd" fill="#e3e3e3" d="M209.9 238c-3.4 1.3-6.6 2.9-10.1 3.8-7 1.7-14 2.8-21 4.3-5.6 1.2-10 5.3-10.7 9.9-.7 5 2.2 10.2 7.6 12.8 6.3 3 12.7 4.6 20.1 4.2 5-.3 10.2 3.1 15.3 5.1 3.4 1.4 6.6 3.2 9.8 4.8-6.7-1.8-13.4-3.7-20.1-5.5-1.9-.5-4-1.5-5.7-1.1-7.3 1.8-13.8-.7-20.2-3.5-6.6-2.9-11.6-11.2-10.8-17.1 1-7.2 6.7-12.4 15-13.8 7.2-1.2 14.4-2.4 21.5-4 1.9-.4 3.6-2 5.3-3.1.6.4 1.3.8 1.9 1.1C208.6 236.6 209.3 237.3 209.9 238z"/><path fill-rule="evenodd" fill="#bcbcbc" d="M286 282c12.8-1.6 25.7-3.2 38.5-4.7 3.1-.4 6.3-.3 9.4-.5-8.8 1.7-17.5 3.6-26.3 4.9-7.2 1.1-14.5 1.4-21.7 2C286 283.2 286 282.6 286 282z"/><path fill-rule="evenodd" fill="#e3e3e3" d="M221 282.9c12.1.0 24.1.0 36.2.1 1.6.0 3.2.6 4.8.9-9 .2-17.9.7-26.9.6C230.4 284.5 225.7 283.5 221 282.9z"/><path fill-rule="evenodd" fill="#aaa" d="M286 282c0 .6-.1 1.2-.1 1.8-1 0-1.9.0-2.9.0-7.4-.6-14.9-1.2-22.3-2-4.6-.5-9.2-1.3-13.8-2C260 280.6 273 281.3 286 282z"/><path fill-rule="evenodd" fill="#959595" d="M209.9 238c-.7-.7-1.3-1.4-2-2.1 1-.7 2-1.4 3-2.2 1-2.9 2-5.9 3-8.8.0-.7.1-1.3.1-2 2.3-3.4 4.6-6.7 6.8-10.1-.1 3.2-2.9 7 2 9-1.3 2.4-2.6 4.7-3.9 7.1-.4 5.3-.9 10.6-1.3 15.8-.4-.2-1.5-1-2.7-1.8C213.4 241.2 211.6 239.6 209.9 238z"/><path fill-rule="evenodd" fill="#d7d7d7" d="M167 137.9c.3 2.9.4 5.8 1.1 8.6.5 1.9 1.9 3.7 2.9 5.5-.9 1.3-1.8 2.6-2.7 4-.4-.3-.9-.6-1.3-.9C167 149.3 167 143.6 167 137.9z"/><path fill-rule="evenodd" fill="#f3f3f3" d="M184 139.9c2.3 6.7 5.6 12.3 12.4 16 2.9 1.6 3.7 6.8 5.5 10.4-.4.2-.8.4-1.2.6-.6-1-1.1-2-1.9-2.9-2.1-2.4-2.7-6.8-7.5-5.6-.4.1-1.1-.3-1.3-.6-2.6-4.9-7.9-5.3-12.2-6.9-6.4-2.3-8.1-7.5-8.2-13-.1-7.6.8-15.3 1.6-22.9.5-5.2 2.9-6.3 7.8-4.2 4.5 7.2 8.1 14.4 4.6 23.2C182.9 135.8 183.8 138 184 139.9z"/><path fill-rule="evenodd" fill="#cdcdcd" d="M184 139.9c-.2-1.9-1-4.1-.4-5.7 3.5-8.8-.2-16.1-4.6-23.2.0-1.7-.1-3.4-.1-5.1 1.1.3 2.1.6 3.2 1 1.7 2.3 3 5 5.2 6.5 1 .7 3.7-1.4 5.7-1.9 1.2-.3 3.1-.2 3.6.5 2.4 3.1 4.3 6.6 6.5 9.9-3.7-1.1-7.5-2.3-11.4-3.5.7 1.5 1.5 3 2.3 4.6-3.9.9-3.1 3.7-2.4 6.3.8 3.4 2 6.6 2.8 10 1.3 5.1 6.5 10.9 10.3 11.3 7 .7 9.2 2.6 9.2 9.6.0 5.9-1.2 11.8-1.8 17.7-1.3.0-2.6.0-4 0 0-.3.0-.7.0-1 .9-1.3 2.8-2.9 2.5-3.8-2.3-6.5-3.2-13.5-9.3-18.7-3.4-3-5.8-6.2-10.7-7.4C188 146.3 186.2 142.3 184 139.9z"/><path fill-rule="evenodd" fill="#9c9c9c" d="M182 106.8c-1.1-.3-2.1-.6-3.2-1 .1-.3.2-.6.2-.9.3.0.6.0.9-.1 4.7-3.7 9.4-7.3 14.1-11 6.2-3.5 13-4.6 20-4 11.8 2.9 23.5 5.9 30.8 16.9-2 .7-4 1.7-6.1 2.2-2.1.5-4.6 1.4-6.4.7-6-2.4-11.6-5.7-17.5-8.1-5.4-2.2-11.1-3.7-16.7-5.6C192.8 99.6 187.4 103.2 182 106.8z"/><path fill-rule="evenodd" fill="#c6c6c6" d="M214 222.9c0 .7-.1 1.3-.1 2-4.6-8.2-11.2-15.7-8.1-26.3.7-2.4.1-5.1.1-7.7 3 .3 6.9 1.8 8.7.5 2-1.5 2.1-5.6 3-8.6.1-.3.2-.6.4-.9.5-.4 1-.8 1.4-1.3 2-2.3 3.5-5.8 7.5-3.5 3.8 2.1 4.5 5.5 3.2 9.4-1 2.8-2.1 5.5-3.2 8.3-1 1.4-2 2.8-3 4.2-2.1 2.7-4.2 5.4-7.1 9.1-2.1-2.5-4-4.9-6.6-8.1-1.2 4.8-2.6 8.4-.6 12.5C211.3 215.8 212.6 219.4 214 222.9z"/><path fill-rule="evenodd" fill="#9d9d9d" d="M218 181.9c-.1.3-.3.6-.4.9-.9 3-1 7.1-3 8.6-1.8 1.3-5.7-.2-8.7-.5-2.6-4-5.3-8-7.9-12.1 1.4-.8 2.7-2.2 4.2-2.2 1.9-.1 3.9.8 5.8 1.3 1.3.0 2.6.0 4 0 1.3-2.8 3.3-5.4 3.9-8.3 2.3-10.8 4.1-21.7 6.2-32.6.3 1.1.9 2.2.9 3.3C222.7 154.3 224.9 168.6 218 181.9z"/><path fill-rule="evenodd" fill="#b6b6b6" d="M208 177.9c-1.9-.5-3.9-1.4-5.8-1.3-1.4.1-2.8 1.4-4.2 2.2-3.6-5.7-7.3-11.4-10.9-17 .3-.3.6-.5.8-.8 1 .7 2 1.3 2.9 2 5.8 4.6 11.5 9.2 17.2 13.8C208 177.2 208 177.5 208 177.9z"/><path fill-rule="evenodd" fill="#dcdcdc" d="M232 76.9c-4 2-8.4 3.5-11.9 6.2-4.9 3.7-10.4 4.1-16 4.7-1.8.2-3.7-.8-5.5-1.2.8-1.7 1.1-3.9 2.4-5 4.8-4.1 9.7-8 14.8-11.8 8.4-6.2 16.8-12.3 25.3-18.4 1.5-1 3.2-1.6 4.8-2.4 3.4.6 3.8 2.4 2.3 5.3-2.1 4.3-3.3 9.2-6 13C239.7 71 235.5 73.7 232 76.9z"/><path fill-rule="evenodd" fill="#e5e5e5" d="M198.1 96c5.6 1.8 11.3 3.3 16.7 5.5 6 2.4 11.6 5.7 17.5 8.1 1.8.7 4.3-.2 6.4-.7 2.1-.5 4.1-1.4 6.1-2.2 2.5-1.1 4.9-2.3 6.8-3.1-1.7-4-3.2-7.3-4.3-10.6-.3-.8.6-2.1 1-3.1 1.6.7 3.1 1.3 4.7 2 .3 1 .7 2 1 3 1 4.8 2.1 9.5-3 12.9-1.5.7-3.4 1.1-4.4 2.2-5.6 5.8-13.1 1.6-19.4 3.9-.3.1-.8-.5-1.3-.7-6.6-2.7-13-6.1-19.9-7.9C200.4 104 197.5 101.8 198.1 96z"/><path fill-rule="evenodd" fill="#8f8f8f" d="M247 71.9c2.2-1.9 4.7-2.4 6.1.5.7 1.4.1 3.7-.4 5.4-.4 1.1-1.7 2-2.5 2.9C249.1 77.8 248 74.8 247 71.9z"/><path fill-rule="evenodd" fill="#aeaeae" d="M194 93.9c-4.7 3.7-9.4 7.3-14.1 11C182.3 96.9 186 94 194 93.9z"/><path fill-rule="evenodd" fill="#5b5b5b" d="M403 134c-.6-.4-1.1-.9-1.7-1.3-4.1-2.9-8.2-5.9-12.3-8.8.0-.6.1-1.2.1-1.9 2.9-1.3 5.8-2.2 6.6-6.3.2-1.3 4-2 6.2-2.9 1.3 1.5 3.1 2.9 3.9 4.7 2.5 5.9 1 11.3-2.9 16.2L403 134z"/><path fill-rule="evenodd" fill="#ededed" d="M371 105.9c.3.7.7 1.3 1 2 1.5 2.3 3 4.6 4.5 6.9 1.2 1.8 2.4 3.6 3.6 5.3-.3.4-.6.8-.9 1.2-4.1-.8-8.2-1.5-12.2-2.3.0.0.0.0.0.0C363.5 113.8 365 109.1 371 105.9z"/><path fill-rule="evenodd" fill="#e2e2e2" d="M264.9 62.7c-.3.1-.6.2-.9.3-2.4 1.6-4.7 3.3-7.1 4.9-3-3-2.4-5.1 1.3-7.4 3.4-2.1 6.3-5 9.5-7.6C266.8 56.1 265.9 59.4 264.9 62.7z"/><path fill-rule="evenodd" fill="#767676" d="M402.9 133.7c3.8-4.9 5.4-10.3 2.9-16.2-.8-1.8-2.5-3.1-3.9-4.7 1.7-1 3.4-1.9 5.1-2.9.7-.3 1.3-.7 2-1 .7 2.3 1.3 4.6 2 6.9.0 1.8-.3 3.6.0 5.4 1.1 6-.8 10.5-6 13.7C404.3 134.5 403.6 134.1 402.9 133.7z"/><path fill-rule="evenodd" fill="#969696" d="M405 134.9c5.2-3.1 7.1-7.7 6-13.7-.3-1.7.0-3.6.0-5.4 1.7 6 3.3 12 5 18 0 .3.1.7.1 1-3 .7-6.1 1.4-9.1 2C406.3 136.3 405.7 135.6 405 134.9z"/><path fill-rule="evenodd" fill="#c3c3c3" d="M371 105.9c-6 3.1-7.5 7.9-4 13.1-2.6-1.1-5.1-2.2-7.7-3.3-1.2-2.4-4.1-5.4-3.4-7.1 1.9-4.8 5.2-9.1 8.1-13.5.0-.1 2 1.1 3.1 1.7C368.3 99.9 369.7 102.9 371 105.9z"/><path fill-rule="evenodd" fill="#bcbcbc" d="M407 136.9c3-.7 6.1-1.4 9.1-2 2 2.2 1 3.7-1.1 5C412.3 138.9 409.7 137.9 407 136.9z"/><path fill-rule="evenodd" fill="#d6d6d6" d="M281 114.9c-2.6 1-5.3 1.7-7.7 3-1.7.9-2.9 2.5-4.3 3.8-.6.1-1.2.2-1.8.2-2.4-.7-4.8-1.4-7.2-2.1-1.9-.3-3.9-.8-5.8-1-4.9-.4-5.5-1.4-3-5.3 3-4.6 6.4-8.9 9.1-13.7 2.9-5.2 5.1-10.7 7.7-16 2.3-3 4.6-6 7-9 .4.0.7.0 1.1.1-6 10.5-9.3 21.9-10.5 33.9-.2 1.8-.4 3.7.0 5.4.7 3.3 2.3 4.8 6 3C274.4 115.9 277.8 115.6 281 114.9z"/><path fill-rule="evenodd" fill="#ccc" d="M268 83.9c-2.5 5.4-4.8 10.9-7.7 16-2.7 4.8-6.1 9.1-9.1 13.7-2.6 4-1.9 4.9 3 5.3 1.9.2 3.9.6 5.8 1-2 0-4-.1-5.9.1-3.5.4-4.7 2.5-2.2 4.8 3.4 3.1 7.5 5.6 11.3 8.3.0 1.2.0 2.3.0 3.5-.5.5-1 1-1.6 1.5-.2.0-.4.0-.6-.2-.7-1-1.3-2-2-3-3.3-3.3-6.7-6.6-10-9.9-1-1.4-2-2.7-3-4 1.5-3 3.1-5.9 4.3-8.9.5-1.3.4-2.8.6-4.2 5.1-3.3 4-8.1 3-12.9 4.1 1.8 6.8.3 8.9-3.3C264.4 88.9 266.3 86.5 268 83.9z"/><path fill-rule="evenodd" fill="#d8d8d8" d="M272 61.9c4.9-2.7 9.7-5.5 14.7-7.9 1.8-.9 4.1-.7 6.2-1-.3 1.3-.1 3.4-.8 3.9C286 60.6 279.6 63.8 272 61.9z"/><path fill-rule="evenodd" fill="#c4c4c4" d="M261.6 138.1c.5-.5 1-1 1.6-1.5 1-.8 2.7-1.3 3-2.3 1.8-5.2 6.4-6.6 10.6-8.6.0.4.1.8.1 1.2-2.5 1.7-5.1 3.4-7.6 5.1.4.8.8 1.5 1.1 2.3 2.2-.8 4.4-1.5 6.5-2.3 1.3-1.4 2.8-2.7 3.9-4.4 2.6-4 5.8-5.1 8.9-1.5 5.4 6.3 11.4 9 19.7 7.3 4.4-.9 9.1-.3 13.7-.3-6.1 2-12.1 3.9-18.2 5.9-6.7 1.7-13.5 3.3-20.2 5.2-1.1.3-1.8 1.8-2.7 2.8-5.1 1-10.2 2-15.3 3-4.6-2.7-5.6 1.9-7.9 3.9-.9-.6-1.9-1.2-2.8-1.8 1.3-2.7 2.6-5.5 3.9-8.2 1.2 4.2 2.9 4.6 11.1 1.8-3.6-2.3-6.3-4-8.9-5.6C261.9 139.3 261.8 138.7 261.6 138.1z"/><path fill-rule="evenodd" fill="#e2e2e2" d="M330 132.9c1.9 3 3.5 6.3 5.7 9.1 4 4.8 8.3 9.2 13.1 14.5-6.5 2.5-8.9-3-12.8-4.5-3.1-.6-6.2-2.1-9.1-1.7-3.6.6-7 2.8-10.6 4.1-.9.3-2.2-.2-3.3-.3 2-3.7 4.1-7.3 6.2-11 2-3 4-6.1 5.9-9.1C326.9 134.4 327 126.5 330 132.9z"/><path fill-rule="evenodd" fill="#626262" d="M325.1 133.9c-2 3-4 6.1-5.9 9.1-4.7-1.4-9.5-2.7-14.2-4.1 6.1-2 12.1-3.9 18.2-5.9C323.8 133.3 324.5 133.6 325.1 133.9z"/><path fill-rule="evenodd" fill="#e0e0e0" d="M277 131.9c-2.2.8-4.4 1.5-6.5 2.3-.4-.8-.8-1.5-1.1-2.3 2.5-1.7 5.1-3.4 7.6-5.1C277 128.5 277 130.2 277 131.9z"/><path fill-rule="evenodd" fill="#e1e1e1" d="M279 75.9c3.5 2.7 7 5.4 10.5 8.1 3.1 2.4 2 5.2.6 7.9-1-1.9-1.8-4-3.1-5.7C284.4 82.7 281.6 79.3 279 75.9z"/><path fill-rule="evenodd" fill="#b4b4b4" d="M330 82.9c1 2.7 2 5.4 3 8-1.5 1-3.1 2-4.6 3-.8-1.5-1.9-3-2.4-4.7-1.3-5-.4-10.7-5.1-14.5C325.3 76.1 328.4 78.6 330 82.9z"/><path fill-rule="evenodd" fill="#b2b2b2" d="M366 129.7c-.9.0-2.1.3-2.7-.2-2.8-2.3-5-1.1-6.8 1.1-3.6 4.3-7.9 3.9-12.5 2.4.6-.1 1.2-.2 1.8-.3 4.5-3.1 1-7.2 1.2-10.8 1.8-3 3.5-2.9 6.2-.6 2.3 2.1 5.5 3.2 8.2 4.9C363 127.3 364.5 128.5 366 129.7z"/><path fill-rule="evenodd" fill="#7e7e7e" d="M347 121.9c-.2 3.6 3.2 7.6-1.2 10.8C346.2 129.1 346.6 125.5 347 121.9z"/><path fill-rule="evenodd" fill="#949494" d="M331.8 126.3c-2.1-1.2-4.3-2.1-6.1-3.5-.8-.6-.7-2.2-1-3.4 1.1.1 2.7-.3 3.3.3 1.8 1.7 3.2 3.7 4.8 5.6C332.5 125.6 332.2 125.9 331.8 126.3z"/><path fill-rule="evenodd" fill="#c1c1c1" d="M263.2 133.1c-3.8-2.7-7.9-5.2-11.3-8.3-2.5-2.2-1.3-4.4 2.2-4.8 2-.2 3.9-.1 5.9-.1 2.4.7 4.8 1.4 7.2 2.1C265.8 125.7 264.5 129.4 263.2 133.1z"/><path fill-rule="evenodd" fill="#cdcdcd" d="M358 248.9c.2 3.4.3 6.8-4.1 7.9-4.6.4-9.3.7-13.9 1-1.9-5.1-6.1-7.2-11-8.4-6.8-1.7-12-5.2-16.1-11-1.4-2-4-3.4-6.4-4.3-3.8-1.3-7.9-1.9-11.8-2.9-6.5-1.7-12.9-3.5-19.3-5-.6-.1-1.5 1-2.3 1.5-1.1.3-2.1.7-4 1.2 7.3 3.2 13.6 6 19.9 8.8 1.3 1.7 2.7 3.4 4 5-1.3 1-2.6 2-4 3 .6 1.5.9 3.1 1.8 4.3.9 1.3 2.3 2.2 4.4 4.1-4.1.8-6.9 1.2-9.6 1.8-6.5 1.4-8.3 4.3-6.7 10.5.5 2.1.7 4.3 1 6.4-.3-.4-.6-.7-1-1.1-1.3-4.8-3.7-7.8-9.5-7.4-3.8.3-7.7-.8-11.5-1.3-.2-.5-.4-1-.6-1.5 1.9-1.6 3.7-4.2 5.8-4.6 2.6-.4 5.5 1.1 8.3 1.8 1.6-4.3 1.1-8-3.9-10.4-1.3-.6-2.4-1.9-3.2-3.1-4.3-6.3-8.4-12.8-12.6-19.2-.4-.5-1-1.4-.9-1.7 2.8-4.9-1.7-5.7-4.2-7.6-2-1.5-4-3-5.6-4.9-3.3-3.7-6.9-7.5-5.2-13.2 1-.6 2-1.3 3.1-1.9 2.1 11.1 6.3 20.1 20.4 19.6-1.2 2.1-1.9 3.3-2.7 4.6 4.1 2 7.7 3.6 12 1.1 1.6-.9 4.1-.4 6.1-.2 6.3.5 12.7 1.2 19 1.8 1.3-2.3 2.5-4.6 3.9-6.8 1.3-2 2.4-4.8 4.3-5.8 4.4-2.3 8-4 3-9.6 7.8 3.4 15.7 6.8 23.5 10.2.3-.3.6-.6.9-1-3.5-4.5-1.3-8.9 1.7-11.2 6.1-4.9 13.2-8.6 19.8-12.9-3.3 2.8-6.6 5.7-9.9 8.6.1.1.2.6.4.6 9.1.2 9.5.5 9.5 9.7.0 2.8.0 5.5.0 8.3 7.1-.3 8 .4 7.9 6.8.0 3-.9 5.9-1 8.9C357.8 236.1 358 242.5 358 248.9z"/><path fill-rule="evenodd" fill="#d6d6d6" d="M351 186.9c-6.7 4.2-13.7 8-19.8 12.9-2.9 2.3-5.2 6.7-1.7 11.2-.3.3-.6.6-.9 1-7.8-3.4-15.7-6.8-23.5-10.2 5 5.5 1.4 7.3-3 9.6-1.9 1-3 3.7-4.3 5.8-1.4 2.2-2.6 4.5-3.9 6.8-13.4-4.9-26.7-9.8-40.6-14.8 3-2.3 9.2-2 6-8.7 2.4-.2 4.2-.2 5.9-.5 2.1-.4 4.4-.6 6.2-1.6 1.4-.8 2.7-2.6 2.8-4.1.1-1-1.8-2.8-3.2-3.2-3.3-1-6.8-1.4-10.1-2.1 1.3-.6 2.7-1.3 4-1.9 6.7-2 13.3-4 20-6 .3.0.7.0 1 0 1.9.5 3.9.9 5.8 1.5 5.4 1.7 6.8.9 8.3-4.8.4-1.5 1-3.5 2.2-4.2 3.6-2.4 4-5.8 3.7-9.6 1.7-2.6 3.4-5.3 5.1-7.9.7-.6 1.3-1.3 2-1.9 1.1.1 2.3.6 3.3.3 3.6-1.3 6.9-3.5 10.6-4.1 2.9-.4 6.1 1 9.1 1.7-2.5.0-5-.2-7.5.1-2.6.3-5.5.6-4.3 4.9.3 1-2.1 3.1-3.7 4-2.9 1.6-6.7 2-7.6 7.1 10.2-2.6 19.9-5.1 29.9-7.6-.8 6.1.5 7.4 6.3 7.4-.3 1.4-.7 2.7-1.2 4.9-1.9-1.6-3-2.9-4.4-3.5-2.2-1-4.8-2.5-6.9-2-5.4 1.2-10.5 3.4-16.8 5.6 5 3.9 10.6 4.6 15.7 6.2 5.3 1.7 10.3 4.3 15.4 6.5C351.1 185.6 351 186.4 351 186.9z"/><path fill-rule="evenodd" fill="#b0b0b0" d="M375 164.9c.1-1.5.1-2.9.2-4.4-.3-.2-.6-.3-.9-.5-1.6 3.2-3.5 6.3-4.8 9.6-1.5 3.6-2.5 7.4-3.7 11.2-1.4-4.9-2.8-9.8-4.2-14.7-.6.0-1.2.1-1.7.1-1.1 1.7-2.2 3.3-3.7 5.5-3.7-3.5-4.7-7.8-4.8-12.1.0-.5 2.5-1.1 3.8-1.7 2.3 1 4.5 2.1 5.9 2.7 4.9-1.8 9.6-3.4 14.2-5.3 2.1-.8 3.9-2.3 5.9-3.4 2.7 3.5.9 6.1-1.6 8.5C377.9 161.9 376.5 163.4 375 164.9z"/><path fill-rule="evenodd" fill="#d4d4d4" d="M280 273c-.3-2.1-.5-4.3-1-6.4-1.6-6.1.2-9 6.7-10.5 2.7-.6 5.5-1 9.6-1.8-2.1-1.9-3.5-2.8-4.4-4.1-.9-1.2-1.2-2.9-1.8-4.3 3.8 1 7.5 1.9 11.3 2.9.1-.4.3-.7.4-1.1-2.6-1.6-5.2-3.2-7.7-4.8-1.3-1.7-2.7-3.4-4-5 1.7.8 3.4 1.9 5.2 2.3 1.5.3 3.2-.2 4.8-.3 5.3 4.6 10 10.2 15.9 13.6 5.7 3.3 12.7 4.3 19.2 6.3 1.6.4 3.1.8 4.7 1.2 2.6.3 5.3.4 7.9.9 1.8.4 3.5 1.2 5.3 1.9-6.3 2.4-12.6 4.8-18.9 7.2-5.6-4.6-20.5-5.9-27.1-2.3-3 1.3-6 2.6-9.1 3.9-2 .8-3.9 1.6-5.9 2.3-3.7.2-7.9 4.3-11-1.2C280 273.6 280 273.3 280 273z"/><path fill-rule="evenodd" fill="#444" d="M280 273.9c3.1 5.5 7.3 1.4 11 1.2 2.4 1 4.7 1.9 7.1 2.9-10.8 3.3-21.7 2.9-32.7 1.7-4.4-.5-8.9-.6-13.3-.8-2.8-.5-5.6-1-8.4-1.5.0-.1.1-.3.1-.4C255.8 275.9 267.9 274.9 280 273.9z"/><path fill-rule="evenodd" fill="#6c6c6c" d="M280 273.9c-12.1 1-24.2 2-36.2 3 0 .1-.1.3-.1.4 2.8.5 5.6 1 8.4 1.5-2 .3-4 .6-6 .9-2 0-4 0-6.1.0-2.9-.6-5.8-1.3-8.7-1.9-2-.4-3.9-.8-5.9-1.2.1-.6.1-1.3.2-1.9 1.5-.3 3-.6 4.4-.9 8.7.0 17.3.0 26 0 7.7-.7 15.3-1.3 23-2 .3.4.6.7 1 1.1C280 273.3 280 273.6 280 273.9z"/><path fill-rule="evenodd" fill="#bababa" d="M306 268.8c6.6-3.6 21.4-2.4 27.1 2.3-2.3.6-4.7 1.2-7 1.8C319.3 271.5 312.7 270.2 306 268.8z"/><path fill-rule="evenodd" fill="#999" d="M306 268.8c6.7 1.4 13.4 2.7 20 4.1-5.3.7-10.7 1.3-16 2-4.4-.7-8.7-1.5-13.1-2.2C299.9 271.4 303 270.1 306 268.8z"/><path fill-rule="evenodd" fill="#424242" d="M296.9 272.7c4.4.7 8.7 1.5 13.1 2.2-.4.7-.6 2.1-1.1 2.1-3.6.4-7.2.6-10.8.9-2.4-1-4.7-1.9-7.1-2.9C293 274.3 294.9 273.5 296.9 272.7z"/><path fill-rule="evenodd" fill="#828282" d="M338.8 261.1c-1.6-.4-3.1-.8-4.7-1.2 2-.7 3.9-1.3 5.9-2 4.6-.3 9.3-.7 13.9-1 3.3.9 1.6 2.4.0 2.9-2.5.7-5.1.9-7.7 1.2C343.8 261 341.3 261 338.8 261.1z"/><path fill-rule="evenodd" fill="#aaa" d="M256 273.8c-8.7.0-17.3.0-26 0-1.4-1.1-2.6-2.8-4.2-3.3-4.4-1.3-5.3-4.3-5.2-8.4.1-3.5-.2-7-.8-10.4-.2-1.2-1.4-2.9-2.4-3.2-4.2-1.2-12.1 2.8-14 6.7-1.5 2.9-1.2 5 2 6.6 5.8 2.9 10.5 6.8 12.6 13.3.4 1.2 2 2.4 3.2 2.7 2.9.7 5.9.8 8.9 1.1-3.6 2.4-9.6 1.7-13.4-1-4.8-3.5-9.7-6.8-14.7-9.8-4.2-2.5-5.1-4.9-3.3-9.4 2.4-5.9 6.4-9.9 12.2-12.5 1.6-.7 2.8-2.2 4.2-3.4 1.2.8 2.3 1.6 2.7 1.8.4-5.2.9-10.5 1.3-15.8.1.7.0 1.8.2 1.9 5.8 1.9 2.5 6 2.5 9.4.0 3.9-.5 8.1.9 11.5 4.1 10.1 13.1 15.4 22.4 19.8C248.3 273 252.3 273.1 256 273.8z"/><path fill-rule="evenodd" fill="#8d8d8d" d="M230 278.9c-3-.3-6-.5-8.9-1.1-1.2-.3-2.9-1.5-3.2-2.7-2.1-6.5-6.8-10.4-12.6-13.3-3.1-1.6-3.4-3.7-2-6.6 2-3.9 9.8-8 14-6.7 1.1.3 2.2 2 2.4 3.2.5 3.4.9 7 .8 10.4-.1 4.1.8 7.1 5.2 8.4 1.6.5 2.8 2.2 4.2 3.3-1.5.3-3 .6-4.4.9-.1.6-.1 1.3-.2 1.9 2 .4 3.9.8 5.9 1.2 2.9.6 5.8 1.3 8.7 1.9C236.7 279.5 233.4 279.2 230 278.9z"/><path fill-rule="evenodd" fill="#c7c7c7" d="M256 273.8c-3.7-.8-7.7-.8-11-2.4-9.3-4.4-18.3-9.7-22.4-19.8-1.4-3.4-.9-7.6-.9-11.5.0-3.4 3.3-7.5-2.5-9.4-.2-.1-.1-1.2-.2-1.9 1.3-2.4 2.6-4.7 3.9-7.1 1.3-1.7 2.6-3.4 3.9-5.1.7-1.5 1.4-3.1 2.1-4.6-.5.3-1 .6-1.5.8-1.1-1.7-2.3-3.4-3.4-5 0-1.6.0-3.2.0-4.8 3.6-.3 8.1 2.4 9.9-3.2.7-.3 1.4-.6 2.1-1-1.7 5.7 1.9 9.5 5.2 13.2 1.6 1.8 3.7 3.4 5.6 4.9 2.5 2 7 2.7 4.2 7.6-.2.3.5 1.2.9 1.7 4.2 6.4 8.3 12.8 12.6 19.2.8 1.2 1.9 2.5 3.2 3.1 5 2.3 5.5 6.1 3.9 10.4-2.8-.7-5.7-2.2-8.3-1.8-2.1.3-3.9 3-5.8 4.6.2.5.4 1 .6 1.5 3.8.5 7.7 1.6 11.5 1.3 5.8-.4 8.2 2.5 9.5 7.4C271.3 272.5 263.7 273.2 256 273.8z"/><path fill-rule="evenodd" fill="#afafaf" d="M224 203.1c0 1.6.0 3.2.0 4.8-1 .7-2 1.3-3 2 0 1-.1 2-.1 2.9-2.3 3.4-4.6 6.7-6.8 10.1-1.5-3.5-2.8-7.1-4.5-10.6-2-4.1-.6-7.7.6-12.5 2.6 3.2 4.5 5.5 6.6 8.1 2.9-3.7 5-6.4 7.1-9.1C223.9 200.3 224 201.7 224 203.1z"/><path fill-rule="evenodd" fill="#5d5d5d" d="M220.9 212.8c0-1 .1-2 .1-2.9 1.9 2.3 3.9 4.6 5.8 6.9-1.3 1.7-2.6 3.4-3.9 5.1C218 219.8 220.8 216 220.9 212.8z"/><path fill-rule="evenodd" fill="#aeaeae" d="M251 107.8c-.2 1.4-.1 2.9-.6 4.2-1.3 3-2.9 5.9-4.3 8.9-2 4.3-4.9 2.9-7.9.6-.3.4-.5.8-.8 1.3 2.2 2.4 4.3 4.8 6.5 7.2.0.3.0.6.1.9 1 6.3 2 12.6 3 19-.5.1-1 .3-1.5.4-.9-.7-2-1.1-2.7-2-4-5.2-7.8-10.7-12-15.8-2.1-2.5-4.9-5.1-7.9-6-6.4-2.1-13.2-3.2-19.8-4.6-2.1-3.3-4.1-6.7-6.5-9.9-.5-.7-2.5-.8-3.6-.5-2 .4-4.7 2.5-5.7 1.9-2.2-1.5-3.5-4.3-5.2-6.5 5.4-3.6 10.7-7.2 16.1-10.8-.6 5.9 2.3 8 7.9 9.4 6.8 1.8 13.3 5.2 19.9 7.9.5.2 1 .8 1.3.7 6.3-2.2 13.8 2 19.4-3.9C247.6 108.9 249.5 108.5 251 107.8z"/><path fill-rule="evenodd" fill="#b8b8b8" d="M222 136.9c-2 10.9-3.9 21.8-6.2 32.6-.6 2.9-2.5 5.5-3.9 8.3.7-5.9 1.8-11.8 1.8-17.7.0-7.1-2.2-8.9-9.2-9.6-3.8-.4-8.9-6.1-10.3-11.3-.9-3.4-2-6.6-2.8-10-.6-2.6-1.5-5.4 2.4-6.3 1.6.4 3.2.7 4.8 1.1 6.2 1.3 12.8 1.9 17.8 6.4 2.8 2.5 5.5 3.9 8.9.5.3 1.4.5 2.2.7 3C224.7 134.9 223.4 135.9 222 136.9z"/><path fill-rule="evenodd" fill="#e0e0e0" d="M226.1 133.8c-.2-.8-.4-1.6-.7-3-3.4 3.4-6.1 2-8.9-.5-5.1-4.5-11.6-5-17.8-6.4-1.6-.3-3.2-.7-4.8-1.1-.8-1.6-1.6-3.1-2.3-4.6 3.9 1.2 7.7 2.4 11.4 3.5 6.6 1.5 13.4 2.6 19.8 4.6 3 1 5.8 3.5 7.9 6 4.3 5 8 10.5 12 15.8.6.8 1.8 1.3 2.7 2 .5-.1 1-.3 1.5-.4-1-6.3-2-12.6-3-19 1.5 3.9 3.1 7.8 4.7 11.9 3.3-2.5 6.8-5.2 10.3-7.9.7 1 1.3 2 2 3-1.7 1-3.4 2.1-5.2 2.9-3.5 1.6-5.9 3.7-4.7 8-.2 1.2-.5 2.5-.6 3.4-7.4.5-13.8-.4-17.6-7.5C230.8 141 228.4 137.4 226.1 133.8z"/><path fill-rule="evenodd" fill="#aeaeae" d="M226.1 133.8c2.3 3.6 4.7 7.1 6.7 10.9 3.8 7 10.2 8 17.6 7.5.2-.9.4-2.1.6-3.4 2 3.6.8 6.9-1.1 10.1-7.6 2.6-9.3 9.3-10.9 16-2 7.8-4.9 15.1-12.1 19.8 1.1-2.8 2.2-5.5 3.2-8.3 1.4-3.9.6-7.3-3.2-9.4-4-2.2-5.5 1.2-7.5 3.5-.4.5-1 .9-1.4 1.3 6.9-13.3 4.7-27.6 4.9-41.6.0-1.1-.6-2.2-.9-3.3C223.4 135.9 224.7 134.9 226.1 133.8z"/><path fill-rule="evenodd" fill="#575757" d="M226.9 194.7c7.2-4.6 10.1-11.9 12.1-19.8 3-.3 6.1-.5 9.1-.8-1 2.3-1.8 4.7-3.1 6.8-2.8 4.6-2.2 8.8.9 13-1.9.7-3.9 1.4-5.8 2.1-3-.4-5.9-.8-9.8-1.3 1.5 2.1 2.6 3.6 3.6 5.1-1.9 5.6-6.4 2.9-9.9 3.2.0-1.4-.1-2.8-.1-4.2C224.9 197.5 225.9 196.1 226.9 194.7z"/><path fill-rule="evenodd" fill="#ececec" d="M259 134.9c-3.5 2.7-7 5.4-10.3 7.9-1.6-4.1-3.2-8-4.7-11.9.0-.3-.1-.6-.1-.9 1.7-1.7 3.4-3.3 5.1-5C252.3 128.3 255.7 131.6 259 134.9z"/><path fill-rule="evenodd" fill="#444" d="M250 158.9c1.9-3.2 3.2-6.5 1.1-10.1-1.2-4.3 1.2-6.4 4.7-8 1.8-.8 3.5-1.9 5.2-2.9.2.1.4.2.6.2.1.6.3 1.2.4 1.8-.7 1.3-1.4 2.6-2.1 3.8-1.3 2.7-2.6 5.5-3.9 8.2-1.7 2.6-3.4 5.3-5.1 7.9C250.7 159.5 250.3 159.2 250 158.9z"/><path fill-rule="evenodd" fill="#d6d6d6" d="M249 125c-1.7 1.7-3.4 3.3-5.1 5-2.2-2.4-4.3-4.8-6.5-7.2.3-.4.5-.8.8-1.3 3 2.3 5.9 3.7 7.9-.6C247 122.3 248 123.6 249 125z"/><path fill-rule="evenodd" fill="#f3f3f3" d="M266.8 149.8c5.1-1 10.2-2 15.3-3 3.2-.8 6.4-1.5 9.5-2.6 2.6-.9 4.8-1.1 6.5 1.5-2.7 2.8-5.1 6-8.2 8.3-2.3 1.7-4.2 2.9-3.5 6.3.2.9-1.1 3.1-1.9 3.2-7.2.9-14.5 1.7-21.7 2.2-3.1.2-5.5-1.3-5.8-4.9C259.7 156.7 261.3 151.5 266.8 149.8z"/><path fill-rule="evenodd" fill="#818181" d="M298.1 145.8c-1.7-2.6-3.9-2.4-6.5-1.5-3.1 1.1-6.3 1.7-9.5 2.6.9-.9 1.6-2.5 2.7-2.8 6.7-1.9 13.5-3.5 20.2-5.2 4.7 1.4 9.5 2.7 14.2 4.1-2 3.7-4.1 7.3-6.2 11-.7.6-1.3 1.3-2 1.9-3.7 1.8-7.3 3.8-11.1 5.4-1.8.7-4 .4-6 .6 1.9-2.9 3.7-5.8 5.7-8.6C301.9 150.1 302 147.5 298.1 145.8z"/><path fill-rule="evenodd" fill="#6a6a6a" d="M266.8 149.8c-5.5 1.7-7.1 6.9-9.8 11.1-1.7 2.3-3.3 4.7-5 7-1.3 2.1-2.6 4.1-3.8 6.2-3 .3-6.1.5-9.1.8 1.6-6.7 3.3-13.4 10.9-16 .3.3.7.7 1 1-1.1 1.6-2.1 3.2-3.2 4.8.6.5 1.3.9 1.9 1.4 3-4.1 6-8.3 9.1-12.4C261.1 151.7 262.2 147.1 266.8 149.8z"/><path fill-rule="evenodd" fill="#ededed" d="M259.9 143.7c.7-1.3 1.4-2.6 2.1-3.8 2.7 1.7 5.3 3.4 8.9 5.6C262.8 148.3 261.1 147.9 259.9 143.7z"/><path fill-rule="evenodd" fill="#919191" d="M258.8 153.7c-3 4.1-6 8.3-9.1 12.4-.6-.5-1.3-.9-1.9-1.4 1.1-1.6 2.1-3.2 3.2-4.8 1.7-2.6 3.4-5.3 5.1-7.9C257 152.5 257.9 153.1 258.8 153.7z"/><path fill-rule="evenodd" fill="#ececec" d="M240.1 196c1.9-.7 3.9-1.4 5.8-2.1 5-1.7 10-3.3 15-5 3.4.7 6.9 1.1 10.1 2.1 1.3.4 3.2 2.2 3.2 3.2-.1 1.5-1.5 3.3-2.8 4.1-1.8 1-4.1 1.2-6.2 1.6-1.7.3-3.5.3-5.9.5 3.2 6.6-2.9 6.4-6 8.7 13.8 5.1 27.2 9.9 40.6 14.8-6.3-.6-12.7-1.3-19-1.8-2.1-.2-4.6-.7-6.1.2-4.3 2.5-7.9 1-12-1.1.8-1.4 1.5-2.6 2.7-4.6-14.2.6-18.4-8.5-20.4-19.6C239.4 196.7 239.8 196.4 240.1 196z"/><path fill-rule="evenodd" fill="#b5b5b5" d="M340 257.9c-2 .7-3.9 1.3-5.9 2-6.4-2-13.5-3.1-19.2-6.3-6-3.4-10.7-9-15.9-13.6-8.7-4-17.3-8-26-12.1.8-.5 1.7-1.6 2.3-1.5 6.5 1.6 12.9 3.4 19.3 5 3.9 1 8 1.6 11.8 2.9 2.4.8 5 2.3 6.4 4.3 4.1 5.7 9.4 9.3 16.1 11C333.9 250.6 338.1 252.7 340 257.9z"/><path fill-rule="evenodd" fill="#ececec" d="M273 227.8c8.7 4 17.3 8 26 12.1-1.6.1-3.3.6-4.8.3-1.8-.4-3.5-1.5-5.2-2.3-6.3-2.8-12.6-5.6-19.9-8.8C270.9 228.5 272 228.2 273 227.8z"/><path fill-rule="evenodd" fill="#c7c7c7" d="M293 242.9c2.6 1.6 5.2 3.2 7.7 4.8-.1.4-.3.7-.4 1.1-3.8-1-7.5-1.9-11.3-2.9C290.3 244.9 291.7 243.9 293 242.9z"/><path fill-rule="evenodd" fill="#818181" d="M240.1 196c-.4.3-.7.7-1.1 1-1 .6-2 1.3-3.1 1.9-.7.3-1.4.6-2.1 1-1.1-1.5-2.1-3-3.6-5.1C234.2 195.3 237.2 195.6 240.1 196z"/><path fill-rule="evenodd" fill="#787878" d="M285 180.9c-6.7 2-13.3 4-20 6-4.9.7-9.8 1.4-14.7 2-1.2.1-3.3.0-3.6-.5-.5-1.2-.3-2.9.3-4.1 2.5-5.2 5.2-10.3 7.8-15.4 7.7-.7 15.4-1.3 23.1-2 1.9.2 3.8.3 6.6.5C282.3 172.3 280.8 176.9 285 180.9z"/><path fill-rule="evenodd" fill="#bcbcbc" d="M305.9 163.8c.4 3.8.0 7.1-3.7 9.6-1.2.8-1.8 2.7-2.2 4.2-1.5 5.7-2.8 6.5-8.3 4.8-1.9-.6-3.8-1-5.8-1.5.4-1.2 1.5-2.7 1.1-3.6-1.7-4.7 1.2-6.2 4.7-7.6C296.6 167.9 301.2 165.8 305.9 163.8z"/><path fill-rule="evenodd" fill="#9b9b9b" d="M305.9 163.8c-4.7 2-9.4 4-14.1 5.9-3.5 1.4-6.4 2.9-4.7 7.6.3.9-.7 2.4-1.1 3.6-.3.0-.7.0-1 0-4.2-4-2.7-8.6-.5-13.6-2.7-.2-4.6-.4-6.6-.5 1.6-.3 3.3-.9 4.8-.8 4.4.3 8.2-.8 11.2-4.1 2-.2 4.2.1 6-.6 3.8-1.5 7.4-3.5 11.1-5.4C309.3 158.6 307.6 161.2 305.9 163.8z"/><path fill-rule="evenodd" fill="#adadad" d="M254.9 168.8c-2.6 5.1-5.4 10.2-7.8 15.4-.6 1.2-.7 2.9-.3 4.1.2.6 2.3.7 3.6.5 4.9-.6 9.8-1.3 14.7-2-1.3.6-2.7 1.3-4 1.9-5 1.7-10 3.3-15 5-3-4.1-3.7-8.3-.9-13 1.3-2.1 2.1-4.5 3.1-6.8 1.3-2.1 2.6-4.1 3.8-6.2C252.9 168.2 253.9 168.5 254.9 168.8z"/><path fill-rule="evenodd" fill="#363636" d="M226.8 216.7c-1.9-2.3-3.9-4.6-5.8-6.9 1-.7 2-1.3 3-2 1.1 1.7 2.3 3.4 3.4 5 .5-.3 1-.6 1.5-.8C228.2 213.6 227.5 215.2 226.8 216.7z"/><path fill-rule="evenodd" fill="#d3d3d3" d="M254.9 168.8c-1-.3-1.9-.6-2.9-.9 1.7-2.3 3.3-4.7 5-7 .3 3.6 2.7 5.1 5.8 4.9 7.3-.5 14.5-1.2 21.7-2.2.8-.1 2.1-2.3 1.9-3.2-.7-3.3 1.1-4.5 3.5-6.3 3.1-2.3 5.5-5.5 8.2-8.3 3.9 1.8 3.8 4.3 1.6 7.5-2 2.8-3.8 5.8-5.7 8.6-3 3.3-6.8 4.4-11.2 4.1-1.6-.1-3.2.5-4.8.8C270.2 167.5 262.5 168.1 254.9 168.8z"/></svg>