<svg xmlns:rdf="http://www.w3.org/1999/02/22-rdf-syntax-ns#" xmlns="http://www.w3.org/2000/svg" xmlns:cc="http://creativecommons.org/ns#" xmlns:dc="http://purl.org/dc/elements/1.1/" viewBox="0 0 619 194"><path fill="#000" d="m184 180c-4.125-.4002-11.2-.7864-15.73-.8583-5.911-.0939-11.23-.9985-18.89-3.211-6.49-1.875-15.92-3.635-24.11-4.498-7.399-.7797-13.78-1.622-14.19-1.873-.4049-.2502-7.901-1.377-16.66-2.504-24.3-3.128-26.38-3.981-32.95-13.52-3.267-4.744-4.549-5.766-8.828-7.037-6.087-1.808-27.46-1.999-41.27-.3698-8.419.9929-11.64.8165-10.26-.5624 1.487-1.487 16.92-2.752 32.59-2.672 22.66.1159 24.37.6536 30.83 9.706 2.505 3.511 4.874 6.32 5.264 6.242.3901-.0777 2.838.4696 5.441 1.216 3.1.8892 4.307 1.643 3.5 2.185-.7207.4845-.1789.5851 1.306.2425 1.396-.322 9.946.434 19 1.68s21.23 2.359 27.06 2.474c8.957.1762 12.37.7576 22 3.748 6.269 1.947 15.34 4.021 20.16 4.611 4.82.5892 9.912 1.508 11.32 2.042 1.404.5336 4.184.9702 6.178.9702 3.427.0 3.519-.0833 1.685-1.515-1.832-1.43-1.772-1.48 1.059-.8972 1.65.34 5.332 1.196 8.182 1.903 4.875 1.208 5.3 1.158 7.176-.8528 3.15-3.376 3.559-6.915 1.364-11.8-1.073-2.386-3.024-5.277-4.336-6.424-5.126-4.48-19.55-8.863-34.39-10.45-4.4-.4712-12.05-1.87-17-3.108-5.427-1.357-11.78-2.215-16-2.16-6.528.0848-6.926-1.287-.5-1.724l2.5-.17-2.7-.6-2.5-.8006 2.691-.0997c1.48-.0548 2.943.3082 3.251.8066.3081.4985 2.922 1.211 5.809 1.583 2.887.3722 6.973 1.172 9.08 1.776 3.671 1.054 3.936.9663 6.322-2.083 1.37-1.751 3.064-3.183 3.763-3.183.6999.0 2.124-.9405 3.164-2.09 1.47-1.625 2.674-1.972 5.405-1.558 1.932.2925 5.539.0908 8.014-.4482 5.739-1.25 12.09-1.193 29.51.2633 13.69 1.145 20.17.7409 18.98-1.185-.3261-.5276.0334-.7189.7989-.4252.7654.2937 1.969-.1614 2.674-1.011.7055-.85 2.015-1.577 2.91-1.616 1.252-.0541 1.166-.2685-.3724-.9297-1.1-.4727-1.48-.8911-.8436-.9297.636-.0387.9348-.9178.6639-1.954-.3405-1.302.5476-2.677 2.877-4.454 3.533-2.695 4.68-6.389 2.27-7.314-1.374-.5274-7.301 3.391-7.412 4.901-.083 1.125 4.732.9036 5.445-.25.3399-.55 1.154-.99 1.809-.9778s.066.9042-1.309 1.982-3.039 1.766-3.699 1.529c-.6593-.2372-1.506.5373-1.882 1.721-.6642 2.093-.7486 2.071-3.046-.801-1.3-1.624-2.364-3.628-2.364-4.453-68e-5-.825.8905-.0375 1.98 1.75s2.239 3.25 2.553 3.25c.3143.0-.1291-1-.9853-2.223-1.883-2.688-1.97-3.77-.3067-3.8.6875-.0122 2.375-.8879 3.75-1.946 2.001-1.54 2.251-2.174 1.25-3.178-1.002-1.005-1.25-.9375-1.25.339.0 2.006-2.238 2.921-4.091 1.673-1.105-.7441-.9997-.8862.4869-.6575 1.043.1604 2.093-.2708 2.333-.9583.2763-.7902-.5132-1.25-2.146-1.25-1.89.0-2.583.5206-2.583 1.941.0 1.068-.4432 2.215-.9849 2.55-.6015.3718-.771-.4812-.4355-2.191l.5495-2.8-7.327-.2358c-4.03-.1297-9.571-.7186-12.31-1.309-2.743-.5901-6.881-1.246-9.194-1.458-2.314-.2116-6.139-1.31-8.5-2.44l-4.293-2.055 4 .7488c6.855 1.283 23.52.5141 35-1.615 6.05-1.122 17.08-2.964 24.5-4.093 34.49-5.246 46.28-8.176 50.75-12.62 3.836-3.808 3.909-4.319 1.125-7.859-1.892-2.405-2.578-2.631-6.25-2.062-6.281.9743-7.625 1.505-7.625 3.011.0.7606.7838 1.822 1.742 2.358.9579.5361 1.445 1.271 1.083 1.633-.3621.3621-1.708-.3917-2.992-1.675-2.5-1.99-2.6-2-29.2-2-14.71.0-26.75.3696-26.75.8214-.002.4518-.749.0754-1.661-.8364-1.118-1.118-2.502-1.453-4.25-1.029-7.693 1.867-11.88 2.465-25.09 3.589-12.67 1.077-14.94 1.039-18-.2991l-3.5-1.532 5.5.4504c4.736.3879 34.69-2.586 40.5-4.022 10.45-2.58 48.21-15.96 50.13-17.76 3.003-2.821 3.083-7.138.1826-9.84-2.67-2.488-.8851-2.731 2.123-.289 3.707 3.008 2.821 9.871-1.687 13.06-2.412 1.708-31.7 11.89-39.71 13.8-2.617.6252-2.734.7978-1 1.476 3.264 1.276 24.77.9963 45.88-.5969 18.43-1.391 20.05-1.379 21.75.156 3.03 2.742 2.453 8.967-1.143 12.33-4.675 4.367-13.25 6.397-57.02 13.5-21.79 3.535-32.27 5.46-32.84 6.032-.5482.5482 6.726.8516 17.34.7234 6.683-.0807 7.204.086 11.5 3.679l4.5 3.763 3-1.831c3.749-2.289 7.963-2.491 7.138-.3419-.3166.825-.0627 1.5.5643 1.5.6269.0 1.887.676 2.8 1.502 1.495 1.353 1.95 1.206 4.579-1.472 1.605-1.636 3.819-2.958 4.919-2.939 1.827.0325 1.805.114-.25.94-2.864 1.151-2.926 1.958-.0936 1.218 1.434-.3751 1.926-.191 1.468.5497-.3821.6183.4188 1.839 1.801 2.744 2.277 1.492 2.682 1.496 4.754.0439 1.246-.8728 1.925-1.587 1.508-1.587-.4167.0-.276-.9.3127-2 .7009-1.31 2.094-2 4.035-2 3.001.0 3.903 1.662 1.958 3.607-.6758.6758.007 1.756 2.076 3.286 2.942 2.175 3.171 2.2 5.007.5382 1-.8 1.9-2.4 1.9-3.3.0-1.921 1.928-2.952 5.523-2.952 3.067.0 4.158 1.805 1.668 2.758-1.733.6634-1.54 1.023 1.832 3.408 3.491 2.47 3.931 2.554 5.958 1.134 1.572-1.101 1.883-1.838 1.104-2.617-2.5-2.5-1.1-3.7 4-3.7 4.61.0 4.929.1429 3.5 1.571-2.094 2.093-1.983 3.027.5699 4.815 1.965 1.377 2.419 1.288 5.514-1.073 3.024-2.307 3.201-2.698 1.707-3.79-2.393-1.75-.0994-2.884 4.202-2.077 2.402.4507 3.435 1.186 3.435 2.444.0.9898.8183 2.54 1.818 3.445 1.697 1.536 2.028 1.491 4.959-.6716 2.908-2.146 3.02-2.438 1.504-3.954-1.496-1.496-1.499-1.689-.0319-2.253 2.91-1.116 6.236-.0601 6.542 2.078.1603 1.119 1.193 2.599 2.295 3.287 1.681 1.05 2.394.9447 4.425-.6526 1.331-1.047 2.136-2.189 1.788-2.537s.005-.6396.7839-.6481c1.166-.0126 1.152-.1865-.0833-.9847-1.269-.82-1.218-.9717.3269-.9847 1.005-.008 3.174 1.332 4.82 2.978 2.922 2.922 3.051 2.952 5.392 1.25 1.319-.959 2.412-2.306 2.43-2.994.0418-1.664 2.006-1.576 6.472.2894 3.645 1.523 3.735 1.502 8.383-1.91 4.259-3.126 5.306-3.442 11.19-3.374 3.569.0416 9.189-.0449 12.49-.1923 5.22-.2331 5.61-.3791 3-1.122-2.911-.8292-25.45-4.726-52-8.989-14.21-2.281-26.13-5.063-31.72-7.401-7.273-3.039-9.96-10.15-5.441-14.39l2.334-2.193 19.42 1.518c21 1.88 43.2 2.12 46.4.75 1.117-.4798 1.389-.8905.6162-.9297-.7611-.03866-9.761-2.755-20-6.035-21.46-6.876-25.45-9.281-25.45-15.34.0-4.226 2.63-7.723 5.738-7.629 2.015.06095 2.008.09828-.1695.9732-2.58 1.037-4.566 5.345-3.709 8.046 1.002 3.158 6.32 5.47 31.47 13.68 22.27 7.271 25.73 8.123 38 9.367 7.425.7531 17.03 1.365 21.34 1.36 7.606-.0085 7.741.03268 4.5 1.367-2.407.9912-5.58 1.198-11.34.7396-18.22-1.45-27.99-2.644-31.24-3.821-3.007-1.087-3.606-1.027-4.703.4725-.6912.9453-1.463 1.513-1.715 1.261-.2-.26-12.7-.67-27.6-.91-21.8-.35-27.2-.18-27.2.85.0 1.609-2.822 4.048-3.685 3.185-.35-.35.1902-1.55 1.201-2.666 2.555-2.823 1.06-3.871-5.996-4.203-5.661-.2663-6.005-.1451-7.338 2.584-1.797 3.678-.4342 6.937 3.819 9.137 5.57 2.88 23.99 6.876 48.5 10.52 7.7 1.144 18.57 2.947 24.17 4.005 14.76 2.794 27.67 3.435 34.09 1.694 4.364-1.184 5.06-1.195 4.119-.0609-1.483 1.787-11.53 4.688-13.55 3.913-.8653-.3321-2.079-.2039-2.697.2848-1.628 1.288-20.21 3.412-22.76 2.601-1.827-.5797-2.042-.3967-1.387 1.179 1.63 3.924 1.162 7.041-1.546 10.28-2.597 3.111-2.764 3.168-3.401 1.162-.3683-1.16-1.007-1.902-1.418-1.647-.4118.2545-2.292-.4333-4.178-1.528l-3.429-1.991 3.492 2.965c2.118 1.798 3.571 3.988 3.692 5.566.11 1.431-.2239 2.339-.7419 2.019-.7-.5-1.1.5-1.1 1.9.0 1.564-.4203 2.358-1.044 1.973-1.057-.6533-3.956 1.171-3.956 2.489.0 1.083 4.797 3.045 7.297 2.986l2.203-.0524-2.25-1.57c-1.238-.8632-2.25-1.997-2.25-2.52.0-.5228 1.178-.0241 2.618 1.108s3.022 1.809 3.516 1.503c1.398-.8638-.0319-2.417-2.224-2.417-1.085.0-2.239-.6944-2.565-1.543-1.034-2.695.5732-2.882 3.252-.3775 2.512 2.349 2.963 2.408 15.25 2.011 16.07-.5208 31.7-.5149 40.66.0153 7.413.4388 13.5 3.307 16.55 7.8 1.415 2.082 1.595 2.095 8.446.6283 8.026-1.718 17.31-1.962 19.5-.5116 1.028.6792-.3249.7867-4.298.3414-3.395-.3805-6.711-.2172-8 .394-3.002 1.423-16.97 4.306-23.7 4.89-11.76 1.022-27.99 5.492-33.49 9.225-6.006 4.079-8.786 8.73-8.234 13.78.2497 2.281 1.302 5.057 2.338 6.169 1.745 1.872 2.254 1.928 6.884.751 2.75-.6987 6.575-1.554 8.5-1.901 3.248-.5854 3.36-.524 1.559.8515-1.822 1.391-1.71 1.482 1.816 1.482 2.066.0 4.531-.4144 5.477-.9208.9463-.5064 5.756-1.371 10.69-1.922 4.932-.5507 14.37-2.652 20.96-4.669 10.16-3.105 13.61-3.698 22.5-3.868 5.775-.11 17.91-1.219 26.96-2.465 9.054-1.246 17.6-2.002 19-1.68 2.012.4642 2.227.3574 1.038-.5158-1.18-.866-.8172-1.018 1.697-.7113 1.941.2367 2.957.001 2.586-.5991-.3586-.5803.0716-.727 1.041-.355.9538.366 1.551.1736 1.414-.4551-.1309-.599.3871-1.316 1.151-1.594.9318-.3386 1.128-.0819.5955.7795-2.357 3.813 2.089-.9698 6.015-6.472 6.464-9.058 8.08-9.555 31.29-9.611 10.29-.0248 21.41.4254 24.71 1 3.3.5751 6.338 1.048 6.75 1.051.4125.003.75.5975.75 1.321.0 1.082-1.724 1.072-9.75-.0602-6.131-.8647-15.69-1.248-25.75-1.032-18.4.394-20.14.9593-25.36 8.23-7.109 9.898-9.924 11.01-35.53 14.07-7.09.8454-13.24 1.75-13.66 2.011-.4221.2608-6.821 1.112-14.22 1.892-8.19.863-17.62 2.622-24.11 4.498-5.93 1.714-12.98 3.074-15.89 3.065-2.876-.008-12.6.5352-21.61 1.207l-16.38 1.222-2.367-2.957c-4.752-5.937-4.03-13.34 1.897-19.45 6.063-6.251 20.3-11.1 36.98-12.59 4.262-.381 7.75-.9806 7.75-1.332.0-1.417-3.199-5.085-4.434-5.085-.7265.0-1.826-.6083-2.443-1.352-1.24-1.494-13.53-3.014-24.62-3.047-13.44-.0389-32.95 1.66-34.97 3.045-2.38 1.633-8.353 1.759-12.21.2582-1.687-.6562-8.627-1.005-17.32-.8699-17.61.2736-16.25.2927-28.5-.4002-21.76-1.231-34.33-1.408-41.5-.5835-6.775.779-21.27 1.052-45 .8492-4.675-.04-9.767.416-11.32 1.013-3.976 1.534-9.957 1.348-12.24-.382-1.215-.9192-4.293-1.48-8.231-1.5-3.459-.0175-10.66-.5305-16-1.14-11.43-1.304-30.62.2681-36.06 2.955-3.051 1.506-6.151 4.647-6.151 6.232.0.3486 3.09.9211 6.867 1.272 24.46 2.274 38.85 9.291 42.24 20.6 1.078 3.598.9545 4.456-1.26 8.767l-2.455 4.778-6.445.1083c-3.4.1-9.7-.2-13.8-.6zm10.73-1.593c-.3323-.3323-1.195-.3678-1.917-.0789-.7977.3192-.5608.5562.6042.6042 1.054.0434 1.645-.1929 1.312-.5252zm232 0c-.3323-.3323-1.195-.3678-1.917-.0789-.7977.3192-.5608.5562.6042.6042 1.054.0434 1.645-.1929 1.312-.5252zm-256.5-2.1c-1.23-.2374-3.48-.2435-5-.0136-1.52.2298-.5138.4241 2.236.4316 2.75.007 3.994-.1806 2.764-.4179zm284-.002c-1.238-.2384-3.262-.2384-4.5.0s-.225.4334 2.25.4334 3.488-.195 2.25-.4334zm-304.5-3.898c-.3323-.3323-1.195-.3678-1.917-.0789-.7977.3192-.5608.5562.6042.6042 1.054.0434 1.645-.1929 1.312-.5252zm-12.5-3.1c-.6875-.2774-1.812-.2774-2.5.0-.6875.2774-.125.5044 1.25.5044s1.938-.227 1.25-.5044zm346.5.0581c-.3323-.3323-1.195-.3678-1.917-.0789-.7977.3192-.5608.5562.6042.6042 1.054.0434 1.645-.1929 1.312-.5252zm-360.5-1.052c-.677-.2739-2.027-.2906-3-.0371s-.419.4777 1.231.498c1.65.0204 2.446-.1871 1.769-.461zm376-.006c-.6875-.2774-1.812-.2774-2.5.0-.6875.2774-.125.5044 1.25.5044s1.938-.227 1.25-.5044zm-395.5-2.942c-.3323-.3323-1.195-.3678-1.917-.0789-.7977.3192-.5608.5562.6042.6042 1.054.0434 1.645-.1929 1.312-.5252zm414 0c-.3323-.3323-1.195-.3678-1.917-.0789-.7977.3192-.5608.5562.6042.6042 1.054.0434 1.645-.1929 1.312-.5252zm-424-1c-.3323-.3323-1.195-.3678-1.917-.0789-.7977.3192-.5608.5562.6042.6042 1.054.0434 1.645-.1929 1.312-.5252zm434 0c-.3323-.3323-1.195-.3678-1.917-.0789-.7977.3192-.5608.5562.6042.6042 1.054.0434 1.645-.1929 1.312-.5252zm8-1c-.3323-.3323-1.195-.3678-1.917-.0789-.7977.3192-.5608.5562.6042.6042 1.054.0434 1.645-.1929 1.312-.5252zm-298-27.5c1.15-.9544 1.1-1.436-.3097-2.994-1.9-2.2-3.4-2.5-3.4-.7.0.652-1.012 2.292-2.25 3.644l-2.25 2.458 3.405-.65c1.873-.3575 4.021-1.162 4.775-1.787zm-5.06-2.711c.1264-.6542.001-.7282-.2785-.1644-.2796.5638-.9474 1.025-1.484 1.025s-.6468-.5625-.2448-1.25-.2358-.4024-1.417.6336c-1.182 1.036-1.891 2.3-1.577 2.809.6816 1.103 4.669-1.331 5.001-3.053zm38.8.8c.7124.0 2.034-.8161 2.937-1.814 1.273-1.407 1.373-2.082.4457-3.009-.9275-.9275-.7562-1.504.7636-2.571 4.963-3.483 6.729-5.361 6.059-6.444-1.099-1.777-2.229-1.427-5.958 1.848-2.131 1.871-4.037 2.776-5.037 2.392-2.157-.8276-5.734 3.462-5.129 6.15.2931 1.3-.2793 2.582-1.563 3.5-1.95 1.394-1.902 1.468 1.281 1.971 2.094.3308 3.6.0558 4.106-.75.4-.8 1.4-1.4 2.1-1.4zm-27.14 1.338c-.6875-.2774-1.812-.2774-2.5.0-.6875.2774-.125.5044 1.25.5044s1.938-.227 1.25-.5044zm8.75-.1827c0-.4648-.7875-1.555-1.75-2.423-1.551-1.399-2.034-1.412-4.25-.1133l-2.5 1.465 2.5-.5935c2.406-.5712 2.427-.5353.5589.9583-1.842 1.473-1.753 1.552 1.75 1.552 1.9-.1 3.6-.5 3.6-.9zm32-.1c0-.55.5625-1.007 1.25-1.015s1.893-.4224 2.68-.9201c1.178-.7456.9396-1.547-1.357-4.558l-2.787-3.654-2.45 2.302c-1.581 1.485-2.267 3.001-1.935 4.272.2834 1.084.0289 2.556-.5654 3.272-.7 1-.3 1.3 2.2 1.3 1.7.0 3.1-.4 3.1-1zm54.53.0437c-.3251-.526-1.308-.6813-2.183-.3452-1.37.5257-1.343.2306.1915-2.112 1.749-2.669 1.736-2.77-.652-5.158l-2.436-2.436-3.344 3.545-3.344 3.545 3.12 1.178c1.716.6478 3.12 1.529 3.12 1.959.0.4294 1.377.7808 3.059.7808 1.692.0 2.795-.4275 2.468-.9563zm15.01-1.006c-.9787-1.081-1.502-2.677-1.166-3.552.9-2.1-2.1-6.4-4.4-6.4-1.064.0-2.783 1.429-3.909 3.25l-2.009 3.25 3.236 2.75c2.166 1.841 4.374 2.75 6.679 2.75 3.358.0 3.399-.0485 1.666-1.963zm19.79 1.245c-1.747-.2188-3.772-1.12-4.5-2.004-1.191-1.444-1.073-1.483 1.176-.387 2.366 1.153 2.395 1.135.5404-.3498-2.406-1.926-3.604-1.602-4.663 1.26-.7818 2.113-.5918 2.192 4.904 2.038 3.377-.0945 4.418-.3229 2.542-.5578zm-69.11-1.65c1.579-1.199 1.457-1.556-1.519-4.44l-3.236-3.136-2.952 2.354c-2.468 1.968-2.745 2.603-1.69 3.875 1.018 1.227 1.013 1.621-.0294 2.039-.7105.2851.7333.5395 3.208.5654s5.273-.5397 6.217-1.257zm18.13.6488c-.6218-.2073-.9277-1.153-.6797-2.101.2531-.9679-.5691-2.682-1.874-3.909l-2.325-2.185-3.232 2.529c-3.4 2.8-4.1 4.5-1.7 4.5.825.0 1.5.4536 1.5 1.008.0.5608 2.102.9286 4.737.8289 2.605-.0985 4.228-.3488 3.606-.556zm3.453-1.235c-.6713-1.075-1.414-1.761-1.651-1.524-.4286.4286 1.751 3.479 2.486 3.479.2123.0-.1632-.8795-.8346-1.955zm32.2 1.6c0-.2076-.7875-.9952-1.75-1.75-1.586-1.244-1.621-1.208-.3776.3776 1.306 1.666 2.128 2.195 2.128 1.372zm-98-4.505c0-.3591-1.159-2.359-2.576-4.444-2.138-3.147-2.828-3.583-4.055-2.564-3.464 2.875-3.682 4.955-.8303 7.932 2.57 2.682 2.848 2.752 5.09 1.283 1.3-.8 2.4-1.8 2.4-2.2zm105.8-.5956c.7341-1.611.4383-2.729-1.299-4.907l-2.25-2.821-2.63 3.448c-3.206 4.203-3.257 5.099-.3951 6.999 2.574 1.709 5.016.6995 6.573-2.718zm-121.7 1.376c2.881-2.051 2.912-2.167 1.303-4.75-.907-1.456-2.55-3.433-3.652-4.392-1.912-1.665-2.134-1.651-4.899.3181-3.552 2.53-3.576 3.168-.2776 7.493 3.067 4.021 3.612 4.118 7.525 1.331zm68.6-5.357c-.3-2.6-2.4-5.5-3.9-5.5-.5436.0.074.9007 1.372 2.002l2.361 2.002-2.874-1.422c-2.9-1.4-5.7-1.2-5.7.5.0.4912-.7875.9073-1.75.9248-1.667.0303-1.667.0951.0 1.36.9625.7306 1.75 1.6 1.75 1.933.0.3325 1.012 1.633 2.25 2.89l2.25 2.285 2.275-2.32c1.363-1.39 2.15-3.25 1.964-4.639zm66.48 5.71c.8396-.9625 2.095-2.846 2.79-4.186 1.143-2.205.9953-2.65-1.557-4.686-3.306-2.636-5.124-2.048-8.555 2.771l-2.245 3.153 2.731 2.349c3.261 2.805 4.795 2.94 6.836.5993zm-85.8-4.388c-.3098-.5013-.1924-.847.261-.7683 4.061.7055 5.032-3.824 1.328-6.198-2.371-1.52-2.694-1.469-6.097.9482l-3.594 2.553 2.999 3.296c2.309 2.537 3.306 3.041 4.333 2.188.7337-.6089 1.08-1.517.7706-2.019zm-6.3-3c.2292-.1375 1.753-1.375 3.386-2.75 2.212-1.862 2.595-1.989 1.5-.5-1.735 2.36-3.123 3.464-4.386 3.485-.5042.008-.7292-.0972-.5-.2347zm42.81-1.375c-.6693-.8064-1.919-1.197-2.776-.8679-.8576.3291-1.239.2785-.8485-.1125.391-.391.2175-1.305-.3855-2.032-1.22-1.471-3.703-.5468-6.769 2.519-1.641 1.641-1.606 1.825.6863 3.554 2.015 1.52 2.581 1.594 3.401.4433.7839-1.1.8789-1.049.4676.248-.2839.8955.0111 2.158.6557 2.806.898.9023 1.828.4448 3.979-1.957 2.282-2.548 2.579-3.409 1.59-4.601zm-50.3 3.4 2.9-3.3-3.25 2.937c-3 2.8-3.7 3.6-2.9 3.6.1721.0 1.635-1.462 3.25-3.25zm61.4 2.9c0-.1721-1.462-1.635-3.25-3.25l-3.3-2.9 2.937 3.25c2.738 3.029 3.563 3.71 3.563 2.937zm-75.46-9.647c-1-1.2-2.5-2.1-3.3-2.1-.8314.0-1.216.2961-.8537.658 1.225 1.225-1.384 3.139-3.518 2.581-1.462-.3823-1.895-.1901-1.394.6196.399.6456 1.221.8677 1.826.4935.704-.4351.8751-.0921.4746.9517-.874 2.278 1.07 3.185 3.099 1.446 3.604-3.089 4.546-2.898 1.71.3453l-2.977 3.405 3.418-3.21c3.352-3.148 3.383-3.25 1.572-5.25zm78.32 4.102c-1.635-2.618-5.92-4.335-7.515-3.011-1.056.8768-.5876 1.687 2.309 3.988 2.737 2.175 3.959 2.619 4.947 1.799.9602-.7969 1.03-1.542.2588-2.777zm13.24 2.06c.8468-.9889 1.359-2.339 1.139-3-.2204-.6611.1134-1.202.7417-1.202s.8764-.4304.5513-.9563c-.3251-.526-1.27-.6958-2.1-.3773-.9047.3472-1.392.0794-1.218-.6687.4832-2.072-1.761-2.181-4.204-.203-1.892 1.532-2.101 2.2-1.182 3.783.6137 1.057 1.129 1.36 1.146.6724.0481-1.978 1.85-1.456 3.112.9016.9895 1.849.9168 2.062-.5168 1.511-.9817-.3767-1.417-.2333-1.057.3484.8888 1.438 1.849 1.221 3.588-.8095zm-105.4-3.5 2.9-3.3-3.418 3-3.418 3 2.172-3.624c1.879-3.136 1.976-3.787.7162-4.833-.8629-.7162-2.392-.9161-3.754-.491-2.887.9012-6.639 3.448-5.08 3.448.6399.0 1.442-.45 1.782-1 .3399-.55 1.111-1 1.714-1 .6028.0.3399.8355-.5842 1.857-1.408 1.555-1.458 2.041-.313 2.991.752.6241 1.663.8386 2.025.4767.3619-.3619.658.092.658 1.009.0 2.485 1.291 2.037 4.563-1.583zm121.5-.4478c.7609-.7609.4033-1.538-1.236-2.686-1.269-.8886-1.869-1.63-1.334-1.648.5349-.0175.1141-.6815-.9352-1.476-1.685-1.275-2.054-1.243-3.164.2738-1.025 1.402-.9608 2.217.352 4.44 1.626 2.753 4.211 3.202 6.317 1.096zm18.89-4.163c0-3.8-1.3-6.2-3.2-6.2-1.358.0-1.808.4763-1.415 1.5.3166.825.1397 1.5-.393 1.5-.6.0-1-.7-1-1.6.0-1.34-.2653-1.402-1.523-.3582-1.322 1.097-1.057 1.581 2 3.658 3.475 2.361 4.242 3.991 2.773 5.893-.4125.5341.0375.1243 1-.9108s1.744-2.62 1.736-3.521zm-26 4.4c0-.2076-.7875-.9952-1.75-1.75-1.586-1.244-1.621-1.208-.3776.3776 1.306 1.666 2.128 2.195 2.128 1.372zm21.45-2.387c-.5225-.4207-2.118-1.783-3.545-3.028-2.971-2.591-6.935-2.153-4.716.5219.6824.8223 2.156 1.866 3.276 2.32 2.604 1.055 6.232 1.191 4.985.1865zm-207.8 54.18c-1.071-2.791-.6483-10.14.643-11.18.6875-.5538 2.825-1.311 4.75-1.683 2.576-.4977 3.104-.4002 2 .3692-.825.575-2.279 1.052-3.231 1.061-2.193.0194-3.206 3.88-2.377 9.063.6201 3.878-.5896 5.485-1.785 2.371zm255.9-2.124c1.63-4.742.6466-7.35-3.608-9.568l-3.402-1.773 3.5.6385c1.925.3512 4.062 1.092 4.75 1.646 1.596 1.285 1.633 9.979.05 11.56-2.144 2.144-2.591 1.276-1.29-2.506zm-250.7-13c.6875-.2774 1.812-.2774 2.5.0.6875.2774.125.5044-1.25.5044s-1.938-.227-1.25-.5044zm245.1-.0208c.7219-.2889 1.584-.2534 1.917.0789.3323.3323-.2583.5686-1.312.5252-1.165-.048-1.402-.2849-.6042-.6042zm-282.5-17.4c-.8363-1.353-8.372-4.854-10.44-4.848-.825.002.3.8885 2.5 1.969 2.2 1.081 3.1 1.761 2 1.511-1.1-.2497-4.025-.9097-6.5-1.467-2.475-.557-6.975-1.106-10-1.221-4.952-.1871-4.704-.2709 2.5-.8411l8-.6332-8.5-.2857c-7.183-.2415-7.958-.4207-5-1.157 5.519-1.374 14.87.035 21.18 3.191 5.433 2.719 8.068 4.885 5.941 4.885-.55.0-1.307-.4969-1.682-1.104zm321.2-.7014c8.816-5.686 17.5-7.837 25.4-6.29 4.193.8215 3.941.8945-4.027 1.166l-8.5.2897 7.5.5698 7.5.5698-8.065.7044c-4.436.3874-9.349 1.193-10.92 1.789-1.569.5966-4.015 1.24-5.435 1.43s-3.482.6703-4.582 1.067c-1.1.397-.5918-.1865 1.129-1.297zm11.88-4.016c-.5482-.5482-7.395 1.824-7.975 2.763-.2702.4372 1.499.0794 3.931-.7951 2.432-.8746 4.252-1.76 4.044-1.968zm-355.7 4.1c.6875-.2774 1.812-.2774 2.5.0.6875.2774.125.5044-1.25.5044s-1.938-.227-1.25-.5044zm366.1-.0208c.7219-.2889 1.584-.2534 1.917.0789.3323.3323-.2583.5686-1.312.5252-1.165-.048-1.402-.2849-.6042-.6042zm-7.062-.9792c.6875-.2774 1.812-.2774 2.5.0.6875.2774.125.5044-1.25.5044s-1.938-.227-1.25-.5044zm-330.4-6.933c-7.687-4.045-10.25-6.037-6.333-4.912 2.801.8029 15 7.356 15 8.057.0 1.051-2.232.2415-8.667-3.145zm303.1 2c2.673-2.226 14.46-7.809 15.11-7.157.5728.5728-11.9 7.411-15.09 8.275-2.023.5472-2.023.5458-.0254-1.117zm-299.5-3.719c-9.93-5.78-12.33-7.937-6.283-5.658 2.66 1.003 13.32 7.889 13.32 8.605.0.8356-1.906.0369-7.032-2.946zm298 1.4c2.9-2.4 12.4-8.1 13.5-8.1 1.897.0-2.445 3.461-7.934 6.324-7.709 4.022-8.65 4.316-5.56 1.738zm-235.5-9.129c-.3625-.5866-.4447-1.281-.1826-1.543.2621-.2621.7431.2178 1.069 1.067.6762 1.762.0999 2.072-.8862.4766zm174-.8995c.4865-.8063 1.196-3.056 1.577-5l.7-3.6.115 3.628c.0732 2.31-.4994 4.126-1.577 5-1.453 1.179-1.567 1.166-.8075-.0936zm-171.8-.7006c-.3667-.3667-.6149-2.279-.5517-4.25l.115-3.583.7796 4c.819 4.202.7539 4.93-.3429 3.833zm175.5-1.4c0-1.375.227-1.938.5044-1.25.2774.6875.2774 1.812.0 2.5-.2774.6875-.5044.125-.5044-1.25zm55.28.4682c1.068-.8075 2.418-1.454 3-1.436.5824.0175.1854.6925-.8823 1.5s-2.418 1.454-3 1.436c-.5824-.0175-.1854-.6925.8823-1.5zm-291-.5c-.3399-.55-.168-1 .382-1s1.278.45 1.618 1c.3399.55.168 1-.382 1s-1.278-.45-1.618-1zm242.6-3.583c.048-1.165.2849-1.402.6042-.6042.2889.7219.2534 1.584-.0789 1.917-.3323.3323-.5686-.2583-.5252-1.312zm-186.1-.8c0-.7925.45-1.719 1-2.059.55-.3399 1 .3085 1 1.441s-.45 2.059-1 2.059-1-.6484-1-1.441zm179-.8c.0124-1.819.2008-1.963.9847-.75 1.253 1.939 1.253 3 0 3-.55.0-.9931-1.012-.9847-2.25zm65-8.8c0-.55.45-1 1-1s1 .45 1 1-.45 1-1 1-1-.45-1-1zm-237.1-20.75c-1.244-1.586-1.208-1.621.3776-.3776.9625.7548 1.75 1.542 1.75 1.75.0.823-.8212.2933-2.128-1.372zm15.21-.8333c.048-1.165.2849-1.402.6042-.6042.2889.7219.2534 1.584-.0789 1.917-.3323.3323-.5686-.2583-.5252-1.312zm-185.1-8.43c-3.025-.4113-8.425-2.173-12-3.914l-6.5-3.166-18.25.678c-21.58.8017-25.35-.8159-5-2.146 21.1-1.379 24.21-1.104 32.5 2.873 10.09 4.838 20.88 5.71 34.84 2.817 11.91-2.47 25.51-4.11 34.41-4.14 7.583-.02682 17.44-2.157 22.92-4.953 5.147-2.626 17.03-12.23 25.25-20.41 3.6-3.64 7.2-6.63 7.8-6.63 1.699.0 8.612-4.987 16.14-11.64 3.644-3.222 8.819-7.396 11.5-9.276l4.875-3.418-3 3.249c-1.65 1.787-6.791 6.475-11.42 10.42-4.633 3.943-9.285 7.995-10.34 9.006-1.052 1.011-3.502 2.502-5.444 3.313-1.942.8114-6.405 4.35-9.918 7.863-8.38 8.38-21.85 18.75-26.88 20.7-5.237 2.025-15.41 3.529-28.9 4.272-5.997.3302-16.35 1.707-23 3.059-12.27 2.47-19.54 2.83-29.7 1.45zm476.5-1.559c-6.05-1.287-16.4-2.618-23-2.958-14.21-.7329-24.67-2.603-30.88-5.523-4.781-2.247-16.25-11.59-25.98-21.17-3.2-3.18-6.4-5.78-7.1-5.78-2.9.0-31.3-24.49-30-25.81.2185-.2185 4.294 2.912 9.056 6.956 16.18 13.74 17.97 15.12 21.45 16.6 1.916.812 6.343 4.364 9.838 7.893 8.036 8.116 18.44 16.49 23.91 19.25 6.19 3.121 15.19 4.83 28.95 5.498 6.7.3251 18.15 1.755 25.44 3.177 17.67 3.446 27 2.9 37.71-2.206 8.377-3.994 11.48-4.267 32.92-2.895 20.63 1.32 16.51 2.929-5.5 2.152l-18.6-.66-5.5 3.09c-4.053 2.275-7.605 3.332-13.5 4.017-11.36 1.321-16.51 1.032-29-1.624zm-362.1-6.85c-.8925-2.326 2.308-6.296 17.98-22.3 20.29-20.73 23.15-25.08 19.51-29.71-2.194-2.789-1.004-3.555 1.552-.9983 2.18 2.179 1.963 6.735-.5579 11.72-1.2 2.32-8.8 10.96-16.8 19.21-8.078 8.25-15.7 16.46-16.94 18.25-2.155 3.112-2.169 3.25-.3087 3.25 1.068.0 3.896-.6892 6.283-1.532 7.168-2.529 31.7-8.191 42.82-9.885 5.728-.8718 12.7-2.257 15.5-3.078 9.201-2.701 26.31-6.508 28.72-6.39 2.014.09885 2.068.1814.364.5585-1.1.2434-5.15 1.491-9 2.772-7.71 2.566-21.14 5.645-35 8.022-9.594 1.646-20.13 4.037-38.2 8.663-12.66 3.243-15.13 3.468-15.91 1.449zm261.6-1.55c-5.775-1.528-14.1-3.55-18.5-4.494-4.4-.9438-9.575-2.1-11.5-2.569-1.925-.4693-7.775-1.578-13-2.464-5.225-.8857-11.72-2.26-14.43-3.055-2.712-.7946-6.312-1.459-8-1.476-1.688-.01749-3.893-.6564-4.9-1.42-1.007-.7634-4.069-1.925-6.804-2.581-2.735-.6561-4.731-1.434-4.437-1.729.5109-.5109 13.82 2.317 25.57 5.434 3.025.8022 10.68 2.336 17 3.409 13.37 2.267 29.81 5.987 42.26 9.56 4.821 1.383 9.237 2.358 9.815 2.165 1.456-.4852-9.786-13.3-22.36-25.49-7.291-7.067-11.32-11.85-13.16-15.62-2.928-5.985-2.737-9.996.5611-11.76 2.302-1.232 2.441-.2103.2948 2.161-1.034 1.142-1.345 2.528-.8907 3.961.5568 1.754.8944 1.922 1.656.8217.6982-1.009.7999-.8208.3769.6989-.8491 3.051 3.294 8.222 19.83 24.75 22.96 22.95 23.05 25.63.6191 19.7zm-27.54-.09327c-.3625-.5866-.4447-1.281-.1826-1.543.2621-.2621.7431.2178 1.069 1.067.6762 1.762.0999 2.072-.8862.4766zm-146-11.94c-2.31-2.553-.7632-2.553 2.5.0 1.82 1.424 2.066 1.962.905 1.978-.9.01-2.4-.88-3.4-1.98zm99.27.0c1.181-1.1 2.728-1.985 3.439-1.967 1.5.04-2.9 3.97-4.5 3.97-.5928.0-.1117-.9 1.069-2zm60.2-32c-.7931-.4902-1.217-1.116-.9421-1.391.275-.275 1.149-.09894 1.942.3913.7931.4902 1.217 1.116.9421 1.391-.2.28-1.1.1-1.9-.39zm-211.5-1c.3399-.55.8165-1 1.059-1s.441.45.441 1-.4766 1-1.059 1c-.5825.0-.7809-.45-.441-1z"/></svg>