<svg xmlns:rdf="http://www.w3.org/1999/02/22-rdf-syntax-ns#" xmlns="http://www.w3.org/2000/svg" xmlns:cc="http://creativecommons.org/ns#" xmlns:dc="http://purl.org/dc/elements/1.1/" viewBox="0 0 634 256"><path fill="#000" d="m128.4 21.42c.8616-2.245.8264-2.288-1.393-1.708-2.05.5362-2.512 1.444-1.333 2.623 1.095 1.095 2.082.7638 2.726-.9151zM110 36c0-.55-.4766-1-1.059-1-.5825.0-.7809.45-.441 1s.8165 1 1.059 1 .441-.45.441-1zm-6 0c1.213-.7839 1.069-.9723-.75-.9847-1.238-.008-2.25.4347-2.25.9847.0 1.253 1.061 1.253 3 0zm5.5 3c-.3399-.55-1.379-.9684-2.309-.9297-1.378.0573-1.321.2291.309.9297 2.676 1.15 2.711 1.15 2 0zm-1.615 4.214c.7502-1.402.575-1.786-.8152-1.786-1.208.0-1.622.5679-1.304 1.786.2568.9822.6237 1.786.8152 1.786s.7782-.8036 1.304-1.786zm-1.884 4.308c-2.558-1.391-3.61-1.315-2.678.193.2882.4664 1.571.9194 2.85 1.007l2.326.1587-2.498-1.358zm-4.833-1.754c-.7421-.7421-.8722-.3516-.4372 1.312.3536 1.352.8069 1.805 1.057 1.057.2405-.7214-.0382-1.787-.6193-2.368zm54.3 8.23c-.3399-.55-1.154-.9931-1.809-.9847-.7156.009-.5923.4022.309.9847 1.921 1.242 2.267 1.242 1.5.0zm-26.32-.25c.1758-1.238 1.332-2.694 2.57-3.237 2.819-1.237 3.018-4.513.2748-4.513-1.714.0-1.845-.3436-.986-2.602.8468-2.227.5518-3.1-2.049-6.062l-3.038-3.46 2.191-3.077c1.44-2.022 1.705-2.917.7739-2.609-.7794.2574-1.885 1.397-2.456 2.532-.5715 1.135-1.614 2.757-2.317 3.604-1.08 1.301-.8413 1.776 1.539 3.067 3.243 1.758 2.651 2.065-1.175.61-1.743-.6626-2.416-.6626-2.006.0.3389.5483 1.254.997 2.034.997 2.713.0 4.579 4.411 3.86 9.123-.3677 2.407-1.053 4.868-1.523 5.469-.4702.6006-.5587 1.388-.1968 1.75 1.248 1.248 2.186.6514 2.505-1.592zm25.8 2.81c0-.2426-.45-.7191-1-1.059s-1-.1415-1 .441.45 1.059 1 1.059 1-.1984 1-.441zm-7 .441c0-.55-.4766-1-1.059-1-.5825.0-.7809.45-.441 1s.8165 1 1.059 1 .441-.45.441-1zm-26 1c0-.55-.4766-1-1.059-1-.5825.0-.7809.45-.441 1s.8165 1 1.059 1 .441-.45.441-1zm18.5 3c.3399-.55 1.604-1.052 2.809-1.116 1.764-.0934 1.84-.207.3929-.5826-.9889-.2566-2.451.0757-3.25.7384-1.149.9537-1.455.9188-1.467-.1674-.0106-.9485-.2423-1.022-.75-.2381-.4041.6239-1.635 1.359-2.735 1.634-1.348.3367-.9594.5375 1.191.6157 1.755.0638 3.469-.334 3.809-.884zm10.62-.2667c-.9876-.9803-1.102-.8654-.5598.5598.3755.9862.9347 1.541 1.243 1.233.3079-.3079 64e-5-1.115-.6828-1.793zm-18.86 1.611c-.677-.2739-2.027-.2906-3-.0371-.973.2536-.419.4777 1.231.498 1.65.0204 2.446-.1871 1.769-.461zm-14.7-1.09c1.316.2516 2.187.1236 1.935-.2846-.3965-.6415-6.077-2.161-8.943-2.391-.5294-.0426-1.382-1.54-1.895-3.328-.5126-1.788-1.505-3.25-2.206-3.25-.7005.0-2.098-.2804-3.105-.623-1.367-.465-1.261-.197.4182 1.057 1.238.9239 2.25 2.277 2.25 3.008.0.7306 1.125 2.065 2.5 2.966 1.375.9009 2.5 2.078 2.5 2.615.0.5373.7875 1.773 1.75 2.746 1.672 1.69 1.765 1.663 2.076-.602.262-1.904.7979-2.28 2.72-1.913zm34.5 4.75c-.7931-.4902-1.667-.6663-1.942-.3913s.1489.9011.9421 1.391c.7931.4902 1.667.6662 1.942.3912s-.1489-.9011-.9421-1.391zm-35.19-.5265c-.3079-.3079-.867.2471-1.243 1.233-.5427 1.425-.4278 1.54.5598.5598.6834-.6783.9907-1.485.6828-1.793zm29.64 1.304c.8562-1.222 1.557-3.013 1.557-3.979.0-1.544-.3322-1.609-2.75-.5397-2.762 1.221-5.159 3.541-5.218 5.05-.0175.445.3871.5501.8991.2337s1.214-.118 1.559.441c.9858 1.595 2.265 1.205 3.953-1.206zm-7.193 4.56c-.6875-.2774-1.812-.2774-2.5.0-.6875.2774-.125.5044 1.25.5044s1.938-.227 1.25-.5044zm3.095 2.119c-.3257-.8487-.8066-1.329-1.069-1.067-.2621.2621-.18.9565.1826 1.543.986 1.595 1.562 1.286.8862-.4766zm-14.22 2.793c1.226-1.564 1.196-1.612-.2803-.4583-1.351 1.056-1.747 1.056-2.171.0-.3296-.8215-.547-.6546-.5972.4583-.0434.9625.316 1.75.7986 1.75s1.495-.7875 2.25-1.75zm-2.398 5.146c-.3323-.3323-1.195-.3678-1.917-.0789-.7977.3192-.5608.5562.6042.6042 1.054.0434 1.645-.1929 1.312-.5252zm-6.362 7.818c.2671-.4321-.3483-.7857-1.368-.7857-1.019.0-1.635.3536-1.368.7857.2671.4322.8825.7857 1.368.7857.4851.0 1.1-.3536 1.368-.7857zm-4.926 2.254c2.496-1.888 1.57-1.876-2.077.0256-1.575.8216-2.189 1.482-1.364 1.468.825-.0141 2.374-.6863 3.441-1.494zm-6.472 2.456c-1.411-3.405.2011-6.375 3.055-5.628.9148.2392 2.188-.4045 2.828-1.43.6407-1.026 1.764-1.865 2.496-1.865s1.844-1.125 2.47-2.5c.6265-1.375 1.599-2.5 2.161-2.5.5618.0 1.021-.9296 1.021-2.066.0-2.775 1.776-5.934 3.335-5.934.6956.0 1.8-.5354 2.455-1.19 1.553-1.553 4.21-1.924 4.21-.5868.0.5755.9-.0978 2-1.496 2.525-3.21 2.648-5.129.25-3.901-3.736 1.913-9.593 2.174-11.43.5084-1.89-1.711-1.837-1.765-3.381 3.416-.5841 1.959-6.385 1.554-7.151-.5-.359-.9625-1.47-2.338-2.469-3.057-.9-.72-1.7-1.96-1.7-2.77.0-.8074-1.125-1.896-2.5-2.419-1.51-.5743-2.5-1.738-2.5-2.94.0-1.094-.9-2.471-2-3.06-1.28-.685-2-2.094-2-3.913.0-1.563-.675-3.403-1.5-4.087-1.696-1.408-2.016-5.563-.5-6.5.55-.3399 1-2.301 1-4.359s.54-4.281 1.2-4.941c1.456-1.456 5.446-1.582 6.3-.2.3399.55 1.851 1 3.359 1 5.404.0 6.51 3.79 3.141 10.76-1.1 2.277-2 5.082-2 6.233.0 3.307 4.381 7.003 8.3 7.003 4.041.0 6.442-2.323 6.716-6.5.336-5.124.0547-5.995-2.265-7.013-3.109-1.364-3.458-5.771-.7322-9.237 1.81-2.3 2.052-3.54 1.521-7.79-.854-6.835-.0853-8.46 4.001-8.46 3.641.0 3.869.3798 4.93 8.203.4798 3.536.2223 5.337-1.038 7.26-1.626 2.481-1.595 2.622 1.035 4.69 1.952 1.535 2.585 2.791 2.262 4.483-.2472 1.293.1627 2.859.9107 3.48 2.282 1.894 1.655 6.461-1.14 8.292-4.247 2.783-2.722 6.772 1.709 4.47 4.894-2.543 5.84-2.878 8.122-2.878 1.297.0 3.173-.9 4.169-2 2.231-2.465 4.608-2.543 7.449-.2426 2 1.62 2.08 2.109 1.019 6.25-.6331 2.471-1.222 6.422-1.31 8.779-.1559 4.217-1.584 6.165-4.544 6.198-.7619.008-2.428 1.14-3.702 2.515-2.617 2.824-5.568 3.222-7.412 1-.6847-.825-2.035-1.5-3-1.5-.9653.0-2.315.675-3 1.5-.6847.825-1.795 1.5-2.467 1.5-1.89.0-4.533 3.411-4.533 5.85.0 1.364-.9377 2.62-2.481 3.323-1.364.6217-2.744 1.961-3.067 2.976-.3222 1.015-1.793 2.147-3.269 2.514-1.476.3674-3.133 1.274-3.683 2.014-.55.7403-1.972 1.532-3.16 1.76-1.637.3135-2.453-.2941-3.372-2.513zm-28.4 11.08c-.3399-.55-1.154-.9931-1.809-.9847-.7156.009-.5923.4022.309.9847 1.921 1.242 2.267 1.242 1.5.0zm20.5 1.655c0-.1898-1.012-1.202-2.25-2.25l-2.25-1.9 1.905 2.25c1.8 2.1 2.6 2.7 2.6 1.9zm-15.5.3c-.3399-.55-1.379-.9684-2.309-.9297-1.378.0573-1.321.2291.309.9297 2.676 1.15 2.711 1.15 2 0zm28.25 3.311c-.9625-.2515-1.75-.9493-1.75-1.551.0-.6013-.2701-.8233-.6001-.4932-.9987.9987.605 2.741 2.409 2.617 1.524-.1046 1.519-.161-.059-.5733zm-27.02 4.085c-.3323-.3323-1.195-.3678-1.917-.0789-.7977.3192-.5608.5562.6042.6042 1.054.0434 1.645-.1929 1.312-.5252zm-5.78 2.2c0-.2162-.6984-.661-1.552-.9886-.8899-.3415-1.291-.1738-.941.393.58 1 2.49 1.4 2.49.6zm-3.75 1.255c-1.315-1.328-1.693-5.087-.6185-6.161.3473-.3473 1.384-.2287 2.304.2636.9915.5306 2.261.5219 3.119-.0214 1.174-.7439.8813-1.374-1.554-3.345l-3-2.428-1.503 3.165c-1.061 2.234-2.311 3.258-4.25 3.481-1.51.0-2.75.6-2.75 1.1.0 1.166-5.029 1.201-6.848.0484-.7416-.47-1.188-1.701-.9917-2.735.2596-1.368 1.375-1.965 4.098-2.191 2.446-.2029 3.742-.809 3.742-1.75.0-1.649 1.581-1.927 2.5-.4396.3399.55 1.379.9715 2.309.9366 1.234-.0463 1.087-.3061-.5417-.9614-1.886-.7586-2.136-1.408-1.606-4.187.7772-4.081.9812-4.323 2.565-3.047.7008.5649 2.737 1.34 4.524 1.722 1.788.3822 3.295 1.222 3.35 1.865.05482.6438.4121.0479.7938-1.324.9307-3.345 4.066-3.96 4.222-.8286.07419 1.486.2724 1.737.5498.6956.2942-1.104 2.05-1.842 5.456-2.294 4.583-.608 5.196-.4441 7.022 1.877 1.638 2.083 2.235 2.309 3.297 1.247.7128-.7128 1.619-2.313 2.013-3.556.9104-2.868 3.93-2.444 4.366.6137.2259 1.583.9586 2.206 2.5 2.124 1.692-.09 1.788-.2186.4304-.5733-2.185-.5711-2.285-2.891-.1598-3.707 2.603-.9989 3.54.3512 2.926 4.216-.4585 2.885-.3227 3.387.6524 2.412 1.863-1.863 2.831-1.487 2.831 1.102.0 3.282-1.038 3.942-3.169 2.014-.9-.9-1.7-1.3-1.7-.8.0.4371.7481 1.342 1.662 2.01 2.456 1.796.9707 4.505-2.471 4.505-2.122.0-3.18-.6789-4.056-2.602-1.186-2.604-2.458-2.746-7.44-.8347-.847.325-2.505-.4794-3.843-1.864-3.12-3.2-6.86-4.2-6.86-1.7.0.9812-.675 2.344-1.5 3.029-2.084 1.73-1.872 3 .5 3 1.313.0 2 .6667 2 1.941.0 2.413-1.623 3.511-5.5 3.722-1.65.0895-4.125.455-5.5.8124-1.501.3901-3 .1452-3.75-.6127zm-18.75-1.9c-.3399-.55-1.154-.9931-1.809-.9847-.7156.009-.5923.4022.309.9847 1.921 1.242 2.267 1.242 1.5.0zm-26.4 10.2c-1.188-2.219.1697-4.762 1.953-3.66.9575.5918 1.077.308.4704-1.122-.4463-1.053-1.024-3.152-1.283-4.664-.4208-2.451-.1612-2.762 2.391-2.864 1.575-.0627 5.338-.21 8.363-.3275 3.025-.1174 6.947-.5484 8.715-.9578 2.543-.5886 3.68-.311 5.439 1.328 1.223 1.139 3.072 2.072 4.109 2.072 2.353.0 1.983 2.831-.5745 4.393-1.469.8973-2.163.6807-3.66-1.143-1.921-2.339-4.481-2.943-5.498-1.296-.3241.5244-3.163.8295-6.309.6779-7.47-.3-8.21.0-8.21 3.8.0 5.074-3.875 7.564-5.895 3.789zm-6.94 14.8c0-1.375.227-1.938.5044-1.25.2774.6875.2774 1.812.0 2.5-.2774.6875-.5044.125-.5044-1.25zm489.6-19.7c-4.812-.1833-12.69-.1833-17.5.0-4.812.1833-.875.3333 8.75.3333s13.56-.15 8.75-.3333zm-27.02 5.017c-.2165-2.075-.3972-.6223-.4017 3.228-.004 3.85.1727 5.548.3936 3.772.2209-1.775.2245-4.925.008-7zm27.02 10.98c-4.812-.1833-12.69-.1833-17.5.0-4.812.1833-.875.3333 8.75.3333s13.56-.15 8.75-.3333zm16.09-12.85c-3.883-5.151-4.79-7.115-2.683-5.814.721.4456.8828.2739.4309-.4573-1.1-1.7-2.6-.3-2.6 2.5v2.441h-18.5-18.5v6.5 6.5h18.5 18.5v2.698c0 2.432.4287 2.111 4.338-3.25l4.338-5.948-3.838-5.091zm-7.9 18.5v-4.073l-18.25.2433-18.25.2433-.2862-9.67-.2862-9.67 5.786-.0524c3.182-.0288 11.52-.007 18.54.0492l12.75.1016v-4.049c0-3.216.36-4.035 1.75-3.98 2.025.0803 13.25 14.88 13.25 17.46.0 2.621-11.23 17.4-13.25 17.43-1.386.0261-1.75-.8151-1.75-4.04zm-173.2-21.6c-4.812-.1833-12.69-.1833-17.5.0-4.812.1833-.875.3333 8.75.3333s13.56-.15 8.75-.3333zm-27.07 2.557c-.3192-.7977-.5562-.5608-.6042.6042-.0434 1.054.1929 1.645.5252 1.312.3323-.3323.3678-1.195.0789-1.917zm.0345 5.451c-.2298-1.52-.4241-.5138-.4316 2.236-.007 2.75.1806 3.994.4179 2.764.2374-1.23.2435-3.48.0136-5zm27.03 7.992c-4.812-.1833-12.69-.1833-17.5.0-4.812.1833-.875.3333 8.75.3333s13.56-.15 8.75-.3333zm16.14-12.79c-3.928-5.202-4.848-7.179-2.733-5.872.721.4456.8828.2739.4309-.4573-1-1.8-2.5-.4-2.5 2.4v2.441h-18.5-18.5v6.5 6.5h18.5 18.5v2.674c0 2.414.4268 2.104 4.388-3.191l4.388-5.866-3.888-5.15zm-7.8 18.6v-3.822l-17.75-.1542c-9.762-.0848-18.09-.1647-18.5-.1775-.4125-.0128-.75-4.242-.75-9.398v-9.375l2.75-.522c1.512-.2871 9.838-.3778 18.5-.2014l15.75.3206v-3.924c0-3.094.3701-3.91 1.75-3.861 1.969.07 13.25 15.04 13.25 17.58.0 2.544-11.28 17.29-13.25 17.33-1.367.0258-1.75-.8032-1.75-3.79zm-189.2-21.9c-4.812-.1833-12.69-.1833-17.5.0-4.812.1833-.875.3333 8.75.3333s13.56-.15 8.75-.3333zm0 16c-4.812-.1833-12.69-.1833-17.5.0-4.812.1833-.875.3333 8.75.3333s13.56-.15 8.75-.3333zm14.42 1.26c.3667-.008 1.042-.425 1.5-.9256.4842-.5289.3096-.6089-.4167-.191-1.968 1.132-1.472-.419 1.292-4.042 2.823-3.701 2.694-4.286-2.332-10.6-2.651-3.33-3.037-3.523-3.501-1.75-.6 1.7-1.5 1.8-18.7 1.8h-18.1v6.5 6.5h18.09c17.22.0 18.12.0962 18.61 1.989.3092 1.182.9809 1.695 1.656 1.265.625-.3979 1.436-.7303 1.803-.7388zm-6.5 7.818c-.4-.4-.7-2.3-.7-4.1v-3.392l-17.25.1211c-9.488.0666-17.83.0929-18.54.0584-.9746-.0475-1.218-2.311-1-9.313l.2875-9.25 18-.5 18-.5.5-3.5c.3473-2.431 1.019-3.5 2.2-3.5 1.68.0 13.79 14.98 13.8 17.07.008 1.732-12.09 17.43-13.43 17.43-.6759.0-1.529-.3-1.896-.6667zm408.1-68.94c-.3323-.3323-1.195-.3678-1.917-.0789-.7977.3192-.5608.5562.6042.6042 1.054.0434 1.645-.1929 1.312-.5252zm-1.236 2.616c.3503-.5669-.0511-.7345-.941-.393-1.732.6648-2.049 1.382-.611 1.382.5175.0 1.216-.4448 1.552-.9886zm-7.151 8.539c.3709-.9666.0755-1.265-.8873-.8952-.7938.3046-1.194.9567-.8901 1.449.7664 1.24 1.133 1.126 1.777-.5538zm9.731.4491c.5097.0.9267.375.9267.8333s.7345.8333 1.632.8333c1.414.0 1.389-.1782-.1911-1.333-1.003-.7333-2.187-1.333-2.632-1.333-.4449.0-.8089-.675-.8089-1.5.0-.9097-.8854-1.472-2.25-1.43-1.624.0507-1.832.2595-.75.75.825.3738 1.545 1.242 1.6 1.93.055.6875.2197 2.038.366 3 .2533 1.667.2878 1.667.7233.0.2515-.9625.8743-1.75 1.384-1.75zm-5.171.5693c-.2631-.2631-1.074.5137-1.802 1.726-1.265 2.106-1.244 2.128.4783.4783.9912-.9494 1.587-1.941 1.324-2.205zm-5.591 2.482c-.9177-1.072-2.038-1.72-2.49-1.441-1.384.8556-.9159 2.218.9284 2.7 3.128.8173 3.253.716 1.562-1.259zm12.7 1.88c0-.55-.4766-1-1.059-1-.5825.0-.7809.45-.441 1s.8165 1 1.059 1 .441-.45.441-1zm-11.08 2.359c1.003-.8654-3.566-.2274-4.917.6864-1.095.7413-.6909.8341 1.5.344 1.65-.3691 3.188-.8328 3.417-1.03zm8.478 1.811c.6075-.9829-3.044-.8542-4.041.1424-.3779.3779.2614.687 1.421.687 1.159.0 2.338-.3733 2.62-.8295zm10.6.33c2.654-1.517 1.957-1.863-1.75-.8697-1.238.3316-2.25 1-2.25 1.486.0 1.222 1.074 1.056 4-.6166zm-16.4-1.229c-1.017-1.017-1.855.5139-1.021 1.863.63 1.019.8656 1.02 1.204.004.2316-.6948.1492-1.535-.1831-1.867zm-9.6 4.33c0-.2425-.45-.7191-1-1.059s-1-.1415-1 .441.45 1.059 1 1.059 1-.1984 1-.441zm18 .4c0-.55-.4766-1-1.059-1-.5825.0-.7809.45-.441 1s.8165 1 1.059 1 .441-.45.441-1zm4.75 1.206c-.997-.201-1.75-1.254-1.75-2.446.0-1.151-.279-1.814-.6201-1.473-.341.341-.3365 1.75.0102 3.131.4731 1.885 1.064 2.34 2.37 1.826 1.649-.6494 1.649-.7036-.0102-1.038zm-14.8.7c0-.5-.9-.9-2-.9s-2-.4242-2-.9426.9-.7693 2-.5574c1.1.2118 2-.039 2-.5574.0-.5-.7-.9-1.6-.9-.9182.0-1.299-.5138-.9258-1.25.3482-.6875-.007-.4695-.7899.4844-.7827.954-1.788 1.404-2.234 1-1.391-1.259.7507 2.177 2.423 3.888 1.602 1.638 3.086 1.551 3.086-.1811zm-6-.2262c0-.1182-1.125-.2148-2.5-.2148-2.479.0-3.084.5824-1.869 1.798.5207.5207 4.369-.8739 4.369-1.583zm9.196 2.543c-2.059-1.068-2.695-1.076-3.353-.0381-1.387 2.185-.9241 3.091.8443 1.653 1.463-1.19 1.607-1.158 1.082.2446-.5124 1.37-.2557 1.452 1.681.5381l2.286-1.079-2.541-1.318zm-11.2 3c0-.433-.9097-.8557-2.022-.9395s-1.76.2705-1.441.7872c.7025 1.137 3.463 1.258 3.463.1523zm6.817 5.384c-.2-.1-1.6-1-3.3-2l-3-1.842 2.395 2.613c1.317 1.437 2.81 2.357 3.317 2.044.5066-.3131.7787-.6604.6046-.7718zm-5.133 1.215c-.3192-.7977-.5562-.5608-.6042.6042-.0434 1.054.1929 1.645.5252 1.312.3323-.3323.3678-1.195.0789-1.917zm-5.2 2.2c.3399-.55.1415-1-.441-1s-1.059.45-1.059 1 .1984 1 .441 1c.2425.0.7191-.45 1.059-1zm26.4-.6153c-1.16-1.398-1.086-1.566.5447-1.25 1.037.2009 2.073.9278 2.302 1.615.594 1.784-1.26 1.546-2.846-.3653zm-2.4 1.6c.3399-.55-.057-1-.882-1s-1.778.45-2.118 1c-.3399.55.057 1 .882 1s1.778-.45 2.118-1zm-5.833 3.333c-1.236-1.236-.6788-4.115.9151-4.726 4.927-1.891 8.04.6418 4.312 3.508-2.529 1.945-4.128 2.317-5.227 1.218zm17.73 2.063c.3-.8-.1-1.4-.8-1.4-.7619.0-1.644-.5625-1.959-1.25-.3158-.6875-.3229-.2375-.0159 1s.1266 2.25-.4008 2.25c-1.82.0-2.356-5.143-.7244-6.946 1.807-1.997 1.977-3.054.4896-3.054-.5825.0-.7809.45-.441 1s.1415 1-.441 1-1.059-.3881-1.059-.8625c0-.9982 5.682-8.323 7.169-9.242 1.282-.7926.8711-1.765-1.934-4.57-1.84-1.84-2.731-2.088-4.75-1.32-3.095 1.177-3.302 2.388-.2428 1.417 1.833-.5819 2.037-.4574 1.115.6826-1.313 1.624-.0572 5.894 1.733 5.894.8286.0.8002.4271-.1004 1.512-.9085 1.095-1.608 1.219-2.533.4514-.8897-.7384-1.475-.7421-1.926-.0123-1.3 1.8-3.7 1.1-3.7-1 0-1.1-.4696-2-1.044-2-.574.0-2.231-1.101-3.682-2.446-1.451-1.346-3.014-2.214-3.473-1.931-1.145.7076.0141 2.377 1.65 2.377.7337.0 1.632.7756 1.995 1.724.6243 1.627-1.008 3.583-3.839 4.603-.6095.2195-.7897.7418-.4004 1.16.3893.4187 2.172-.4709 3.962-1.977 2.082-1.752 3.398-2.307 3.654-1.54.5304 1.591-5.798 6.937-8.273 6.989-1.517.0316-1.683.3073-.75 1.241 1.946 1.946 1.441 5.589-.8754 6.324-1.141.3623-1.855.8791-1.586 1.148.2694.2693 1.464-.0316 2.654-.6687s4.829-1.255 8.084-1.372c4.744-.1714 6.024.1136 6.443 1.435.6284 1.98 5.057 1.476 5.881-.6695zm-28.12 2.932c4.553-4.219 7.075-7.286 4.871-5.924-.635.3924-1.155.2745-1.155-.2622.0-.5366.5625-1.177 1.25-1.422 2.117-.756.0339-1.945-2.178-1.243-1.849.587-1.913.8253-.5754 2.163 2.151 2.151 1.906 2.388-1.747 1.683-3.181-.6143-3.212-.5851-1.492 1.363 1.679 1.901 1.676 2.065-.0788 3.653-2.631 2.381-5.828 2.115-6.523-.544-.7764-2.969-.047-3.457 2.169-1.452 2.31 2.09 2.949 1.477 2.395-2.299-.3825-2.606-.6147-2.79-1.899-1.506-.8048.8048-1.994 1.449-2.642 1.432-.6482-.0175-.3051-.6925.7626-1.5 1.902-1.439 1.899-1.468-.1885-1.468-1.916.0-2.092.4575-1.757 4.568.36 4.418 2.021 7.799 3.546 7.216.4074-.1558 2.766-2.16 5.242-4.455zm32.18 2.737c1.126-2.178 1.256-3.532.5043-5.25-.9581-2.189-.9916-2.161-.6144.5193.3376 2.399.1008 2.757-1.54 2.328-1.134-.2966-2.164.0809-2.482.9097-.299.7792-.9154 1.187-1.37.9061-.4544-.2808-1.077-.1044-1.384.3921-.8538 1.382 3.084 2.053 4.482.7643.948-.8732 1.09-.7314.6157.6157-.9726 2.764.1202 2.04 1.788-1.185zm-34.02 3.061c-.7732-.8112-3.53.9222-2.953 1.857.3915.6335 1.107.545 1.963-.2429.7405-.682 1.186-1.408.9903-1.614zm-5.259.6569c-.7176-.7176-1.183-.7766-1.183-.15.0 1.335 1.183 2.517 1.85 1.85.2842-.2842-.0158-1.049-.6667-1.7zm31.66.5294c-2.264-2.728-4.469-3.315-6.456-1.719-1.802 1.447-1.79 1.469.2568.4823 1.604-.7732 2.433-.6875 3.285.3396.627.7556 1.071 1.759.9866 2.229-.3671 2.045.1881 2.513 1.596 1.345 1.181-.9801 1.254-1.567.3322-2.677zm-28.9 3.7c0-.5327-.617-.7318-1.371-.4425-.7541.2894-2.104-.2069-3-1.103-1.3-1.3-1.6-1.4-1.6-.2.0.7726.3 1.705.6667 2.071 1.031 1.031 5.333.7872 5.333-.302zm15 1c0-.55-.4766-1-1.059-1-.5825.0-.7809.45-.441 1s.8165 1 1.059 1 .441-.45.441-1zm-8.764-.229c-.7945-1.593-1.155-3.185-.8005-3.54.3542-.3542.9036.3488 1.221 1.562.6459 2.47.585 2.435 2.762 1.599.87-.3338 1.582-1.148 1.582-1.809s.6319-2.066 1.404-3.122c1.366-1.868 1.46-1.853 3.467.5589 1.664 1.999 2.069 2.147 2.096.7643.0183-.9432.9459-2.203 2.061-2.8s1.762-1.516 1.436-2.043c-.3407-.5513-1.24-.3097-2.119.5696-1.369 1.369-1.731 1.267-3.507-.9898-1.578-2.006-2.358-2.314-3.843-1.519-1.1.3-2.9.7-4 .7-1.5.0-2.1.6-2.1 2.2.0 1.194-.6711 2.913-1.491 3.819-1.21 1.337-1.267 2.122-.3048 4.162.6526 1.383 1.702 2.514 2.331 2.514.791.0.6984-.8952-.2996-2.896zm17.95 1.317c.783 1.102.8729 1.009.4092-.4197-.3-1-.6-2.5-.6-3.3.0-.8125-.4304-1.211-.9563-.8862-.526.3251-.6745 1.325-.3301 2.223.4186 1.091.2384 1.392-.5437.909-.6435-.3977-1.177-1.484-1.185-2.414-.0131-1.443-.1531-1.473-.9546-.2054-.6499 1.028-.4912 1.736.5153 2.3.8.4477 1.516 1.804 1.591 3.014.1267 2.048.1677 2.033.5908-.2118.3629-1.925.6571-2.127 1.458-1zm3.498 1.725c-.3192-.7977-.5562-.5608-.6042.6042-.0434 1.054.1929 1.645.5252 1.312.3323-.3323.3678-1.195.0789-1.917zm-17.53-2.056c-.876-.876-1.132-.0762-1.055 3.293l.1021 4.45 1.055-3.293c.7702-2.404.7426-3.605-.1021-4.45zm-3.2 6.4c0-.4858-.9257-1.125-2.057-1.421-1.688-.4414-1.845-.2829-.8776.8834 1.32 1.591 2.935 1.887 2.935.538zm14.35 1.34c-.3257-.8487-.8066-1.329-1.069-1.067-.2621.2621-.18.9565.1826 1.543.986 1.595 1.562 1.286.8862-.4766zm-2.6-.2c-.0429-1.512.2661-3.814.6866-5.113.7112-2.199.6091-2.28-1.467-1.169-1.228.657-1.972 1.454-1.655 1.771.3173.3173.0758 1.181-.5368 1.919-.8249.9939-.8073 1.342.0677 1.342.6498.0.9034.45.5634 1-.3399.55-.1149 1 .5 1s.8399.45.5 1-.1596 1 .4007 1 .9837-1.238.9409-2.75zm-12.96 1.677c-1.517-.9374-3.154-.1771-2.366 1.099.3016.488 1.247.6193 2.1.2917 1.212-.4652 1.27-.7695.2657-1.39zm16.93 2.547c-.3079-.3079-.867.2471-1.243 1.233-.5427 1.425-.4278 1.54.5598.5598.6834-.6783.9907-1.485.6828-1.793zm-4.2 1.6c.3399-.55.1415-1-.441-1s-1.059.45-1.059 1 .1984 1 .441 1c.2425.0.7191-.45 1.059-1zm-15.36.0c.5375.0.6946-.4573.3491-1.016-.3455-.559-1.009-.7812-1.474-.4938s-1.035.1822-1.267-.2337c-.2318-.4159-.2823-.1882-.112.5061.2142.874-.5284 1.1-2.414.7346-2.268-.4394-2.389-.3695-.7234.4177 1.1.52 2.599.7519 3.332.5154.9-.2 1.9-.4 2.4-.4zm24.39 2.05c-.3681-.5956-1.088-.824-1.6-.5075-1.597.9869-1.021-.5297 1.042-2.744 1.855-1.991 1.87-2.196.25-3.426-.9476-.7198-2.398-1.287-3.223-1.262-1.017.032-1.098.2095-.25.5515 1.544.6231 1.617 3.784.1502 6.524-.6049 1.13-.6959 1.805-.2022 1.5.4936-.3051 1.538-.1588 2.321.325 1.688 1.043 2.451.5579 1.512-.9614zm-13.3 1.785c-.8869-.8869-.7667-1.457.5035-2.385 1.552-1.135 1.539-1.509-.1913-5.345-1.023-2.269-2.09-3.895-2.372-3.613-.2814.2814.0949 1.645.8363 3.03 1.12 2.092 1.123 2.727.021 3.748-1.073.9946-1.209.8951-.7112-.5202.3387-.9625.1799-1.75-.3528-1.75s-1.003.3375-1.045.75c-.0421.4125-.2276 1.54-.4122 2.505-.191.9984.1037 1.483.6836 1.125.6411-.3962.769.1587.3448 1.495-.5524 1.74-.264 2.125 1.593 2.125 1.726.0 1.989-.2783 1.102-1.165zm6.427-1.085c-.2774-.6875-.5044-.125-.5044 1.25s.227 1.938.5044 1.25c.2774-.6875.2774-1.812.0-2.5zm6.4 3.3c0-.5327-.675-.7096-1.5-.393-.8495.326-1.5.0232-1.5-.698.0-.7005-.2701-1.004-.6001-.6735-.9108.9108.5288 2.733 2.159 2.733.7925.0 1.441-.4359 1.441-.9686zm-8.371-1.38c-.3892-2.55-1.782-2.538-2.715.0248-.8532 2.344-.234 3.384 1.596 2.682.8091-.3105 1.302-1.503 1.118-2.706zm10.9 4.4c.3399-.55.1415-1-.441-1s-1.059.45-1.059 1 .1984 1 .441 1c.2425.0.7191-.45 1.059-1zm-11.11 1.181c.2784-.4505-.82-.6244-2.441-.3865s-2.947.6065-2.947.8191c0 .762 4.893.3692 5.388-.4326zm-6.455-1.722c.5866.3625 1.067.2098 1.067-.3395s-1.688-1.138-3.75-1.309c-3.327-.2754-3.723-.5924-3.513-2.81.2038-2.147.0909-2.253-.7997-.75-.5703.9625-1.641 1.75-2.38 1.75-.7388.0-1.574.6001-1.855 1.334-.3642.9491.3512 1.282 2.482 1.155 1.975-.1175 3.388.4551 4.155 1.683 1.057 1.695 1.267 1.716 2.345.2444.6509-.8894 1.663-1.32 2.25-.9579zm-17.4-.5c-.3399-.55-.1415-1 .441-1s1.059.45 1.059 1-.1984 1-.441 1c-.2425.0-.7191-.45-1.059-1zm4.092 2.225c.1418-.7012.0291-.8138-.2505-.25s-1.258 1.018-2.175 1.01c-.9712-.009-1.241-.3219-.6463-.75 1.522-1.096 3.59-6.248 2.933-7.31-1.128-1.825-3.334-.8716-4.804 2.075-.8231 1.65-1.134 3-.6899 3 .4437.0 1.052.9391 1.352 2.087.5909 2.26 3.829 2.364 4.28.138zm28.06 1.31c-1.018-.7709-1.554-1.882-1.191-2.468.3-.5.1-1-.4-1-.6.0-1.1.6-1.1 1.3.0 1.578 2.007 3.712 3.45 3.668.5775-.0175.2174-.6626-.8001-1.433zm-4.7 1.3c0-.5447-.7118-.7173-1.582-.3834-.87.3338-1.995.607-2.5.607s-.9182.3876-.9182.8613 1.125.6463 2.5.3834c1.375-.2628 2.5-.9236 2.5-1.468zm-9.756 1.73c.2919-1.527-.1232-2.981-1.071-3.75-1.309-1.063-1.443-.9791-.8716.5456.406 1.082.2811 1.558-.3128 1.191-1.339-.8274-1.243.1261.252 2.521 1.536 2.459 1.431 2.486 2.003-.5072zm14.8 1.2c0-.437-.9-.313-2 .2757s-2 1.508-2 2.044c0 .5391.8921.4162 2-.2757 1.1-.687 2-1.607 2-2.044zm-5.2 2.8c-.1138-1.375-.6069-2.5-1.096-2.5-.4889.0-.6157.7118-.2819 1.582.3338.87.607 1.995.607 2.5s.22.9182.4888.9182.3957-1.125.2819-2.5zm-16.09.3125c-.3192-.7977-.5562-.5608-.6042.6042-.0434 1.054.1929 1.645.5252 1.312.3323-.3323.3678-1.195.0789-1.917zm10.3 2.1c0-.55-.45-.7219-1-.382s-1 1.068-1 1.618.45.7219 1 .382 1-1.068 1-1.618zm-1.507 9.129c.3503-.5669-.0511-.7345-.941-.393-1.732.6648-2.049 1.382-.611 1.382.5175.0 1.216-.4448 1.552-.9886zm-9 3c.3399-.55.1415-1-.441-1s-1.059.45-1.059 1 .1984 1 .441 1c.2425.0.7191-.45 1.059-1zm7.993 1.011c.3503-.5669-.0511-.7345-.941-.393-1.732.6648-2.049 1.382-.611 1.382.5175.0 1.216-.4448 1.552-.9886zm-4.074-1.363c-.6006-1.565 1.075-3.671 6.426-8.073 2.39-1.966 3.74-3.582 3-3.59-1.022-.0117-.9851-.2477.1554-.9847 1.09-.7044 1.142-.9736.191-.9847-.7433-.009-.9965-.5209-.586-1.185.4816-.7792.1844-.9632-.8898-.551-1.064.4085-1.823-.0437-2.231-1.33-.4-.9-1.1-1.8-1.6-1.8-1.248.0-1.19 1.723.0837 2.51.559.3455.7574 1.047.441 1.559s.0781.9309.8767.9309c2.261.0 2.722 2.64.7698 4.406-.9687.8767-2.236 1.594-2.816 1.594-1.371.0-2.374-3.829-1.194-4.558.4984-.308.8825-1.096.8537-1.751-.0289-.655-.7587-.1785-1.622 1.059-.8632 1.238-2.19 2.25-2.948 2.25-.7579.0-1.378.7301-1.378 1.622.0 1.323.2746 1.395 1.488.3874 1.205-1 1.606-.9284 2.107.3776.3404.8869.3598 2.288.0432 3.113-.7822 2.038-3.638 1.908-3.638-.1667.0-.9167-.3007-1.366-.6682-.9985s-.0823 1.763.6338 3.101 1.052 3.388.7468 4.556c-.446 1.706-.2874 1.901.8067.9926.749-.6216 1.154-1.673.8993-2.336zm3.265 4.164c-.3192-.7977-.5562-.5608-.6042.6042-.0434 1.054.1929 1.645.5252 1.312.3323-.3323.3678-1.195.0789-1.917zm-2.142 1.121c1.026-1.66.1051-1.89-1.331-.3326-.7092.7695-.8482 1.399-.309 1.399s1.277-.4799 1.64-1.067zm-4.079 2.005c-.3609-.5839-1.725-1.468-3.031-1.965-3.38-1.285-4.215-5.503-1.64-8.279 2.438-2.628 2.794-4.268 1.743-8.025-.6069-2.17-.2975-3.499 1.327-5.695 1.165-1.576 1.85-3.565 1.522-4.42-.8683-2.263-5.112-1.928-6.415.5061-1.516 2.832-5.117 2.134-6.763-1.311-.7233-1.514-2.133-2.75-3.137-2.75-1.003.0-2.437-.7399-3.188-1.644-1.222-1.473-1.105-1.562 1.12-.8558 2.314.7346 2.382.6629.9922-1.048-.8812-1.084-.9775-1.527-.2351-1.081 1.671 1.004 2.863-2.151 1.376-3.639-1.4-1.4-1.6-5.8-.3-5.8.5175.0 1.202.4223 1.521.9385s1.471.767 2.559.5574 1.979-.0349 1.979.3883 1.35.5713 3 .3291 3-.8478 3-1.346c0-.4981-1.046-.643-2.324-.3222-1.547.3882-2.801-.004-3.75-1.173-.7842-.9659-.9234-1.455-.3094-1.088.614.3676 1.944-.2467 2.957-1.365 1.812-2.003 1.798-2.026-.9224-1.532-5.145.9329-8.989-6.201-5.087-9.439 1.418-1.176 1.418-1.379.0-2.172-1.782-.9972-2.1-5.839-.4891-7.45.5908-.5908 1.091-4.06 1.112-7.71.0211-3.65.4377-6.883.9259-7.185.4882-.3017.8876-2.267.8876-4.367.0-2.174.6459-4.355 1.5-5.063.825-.6847 1.5-2.029 1.5-2.988.0-.9585.9-2.887 2-4.285s2-3.259 2-4.135c0-.898.829-1.592 1.901-1.592 2.27.0 6.099-6.02 6.099-9.589.0-2.585 3.074-4.689 3.775-2.585.2175.6524.8361.9137 1.375.5808.5387-.3329 2.525-.3154 4.415.0391 4.097.7686 4.638 3.644 1.345 7.149l-2.09 2.225 2.09 2.09c2.513 2.513 2.657 4.806.4538 7.24-1.468 1.622-1.476 1.869-.0781 2.406.8569.3288 2.484.1023 3.616-.5034 2.728-1.46 6.875-.3342 7.639 2.073.3364 1.06 1.703 2.642 3.036 3.516 3.18 2.084 3.148 5.959-.0758 8.946-1.375 1.274-2.5 2.962-2.5 3.75.0 1.755 4.684 4.976 6.028 4.145.5345-.3303.9362.4385.8928 1.708s-.3059 1.747-.5833 1.059c-1.115-2.762-2.083-1.035-1.011 1.804.8379 2.22 1.649 2.924 2.971 2.579 1.517-.3966 1.767.0502 1.51 2.696-.2363 2.437-.8415 3.247-2.614 3.498-1.269.1798-2.799 1.409-3.402 2.731-.6024 1.322-1.868 2.649-2.812 2.949-.944.2996-2.522 1.435-3.507 2.523-1.609 1.778-1.654 2.393-.444 6.059 1.042 3.157 1.082 4.505.1756 5.955-1.218 1.95-.607 7.59.9244 8.536 1.614.9974.8871 6.095-1.129 7.92-1.1.9955-2 3.074-2 4.62.0 3.029-2.304 4.88-6.074 4.88-2.894.0-4.855 2.709-4.894 6.764-.0175 1.795-.449 4.045-.9588 5s-1.171 2.524-1.469 3.486c-.6117 1.976-7.012 2.518-8.142.6883zm-128.3-134.6c-.6875-.2774-1.812-.2774-2.5.0-.6875.2774-.125.5044 1.25.5044s1.938-.227 1.25-.5044zm9.75 1.269c0-.2162-.6984-.661-1.552-.9886-.8899-.3415-1.291-.1738-.941.393.5873.9502 2.493 1.405 2.493.5955zm-17.8 1.245c-.385-.3562-2.5-.867-4.7-1.135-2.2-.2682-5.34-.7916-6.977-1.163-3.332-.756-3.177-.2937.5494 1.64 2.509 1.302 12.46 1.891 11.13.6589zm3.928.3976c1.244-1.586 1.208-1.621-.3776-.3776-1.666 1.306-2.195 2.128-1.372 2.128.2076.0.9952-.7875 1.75-1.75zm-18.37 1c.2581-.7837-.5521-1.25-2.172-1.25-1.68.0-2.583.5485-2.583 1.57.0 1.881 4.122 1.604 4.755-.3196zm3.3 1.62c0-.55-.45-.7219-1-.382s-1 1.068-1 1.618.45.7219 1 .382 1-1.068 1-1.618zm30 1.464c0-1.916-2.126-2.756-3.096-1.224-1.348 2.128-1.079 2.767 1.096 2.603 1.1-.0829 2-.7033 2-1.379zm-52.62 4.102c.3415-.8899.1738-1.291-.393-.941-.5437.336-.9886 1.034-.9886 1.552.0 1.438.7168 1.121 1.382-.611zm44.36-1.417c1.234-1.559 2.359-3.891 2.5-5.183.2156-1.98-.1364-2.295-2.244-2.009-1.375.1867-3.429 1.199-4.564 2.25-2.354 2.178-5.588 2.457-8.368.7207-2.429-1.517-5.068.4037-5.068 3.69.0 3.033 1.744 4.286 6.513 4.682 5.333.4428 8.529-.7382 11.23-4.151zm-40.42 3.105c-.3182-1.217.4552-2.605 2.228-4 2.776-2.184 6.06-2.938 4.946-1.136-.3399.55-.1415 1 .441 1 1.298.0 1.304-.2246.0956-3.404-.8004-2.105-.5935-2.793 1.223-4.065 1.202-.8421 3.098-1.538 4.213-1.546 1.577-.0119 1.714-.2137.6182-.9075-.7751-.4907-2.086-.6323-2.914-.3148-.9798.376-1.252.1693-.7817-.5925.434-.7022.0997-1.17-.836-1.17-.9407.0-1.572.8923-1.591 2.25-.0414 2.949-4.59 8.109-6.502 7.376-.944-.3623-1.467.0595-1.467 1.183.0.9604-.6771 2.713-1.505 3.894-1.364 1.947-1.34 2.191.25 2.607.9651.252 1.825.5104 1.911.5742s-.0629-.7227-.331-1.748zm4.6.99c0-.4259-.675-.7743-1.5-.7743-1.567.0-1.952.8814-.8605 1.973.747.747 2.361-.0722 2.361-1.198zm.6384 3.392c.3166-.825 1.247-1.5 2.067-1.5.8205.0 2.753-1.35 4.294-3 3.165-3.389 3.036-3.725-.5352-1.385-2.249 1.474-2.465 1.475-2.465.019.0-1.714-4.2-3.247-5.943-2.169-1.892 1.17-1.115 2.535 1.443 2.535 3.036.0 3.214 1.857.461 4.811-1.121 1.204-1.557 2.189-.9686 2.189.5887.0 1.329-.675 1.646-1.5zm29.28.8593c1.003-.8654-3.566-.2274-4.917.6864-1.095.7413-.6909.8341 1.5.344 1.65-.3691 3.188-.8328 3.417-1.03zm-15.9 1.23c0-.8052-.7516-1.268-1.75-1.077-.9625.1842-1.975.3763-2.25.4268-.6929.1272 2.325 2.027 3.25 2.046.4125.008.75-.6199.75-1.396zm-5.347-1.588c1.388-1.65 3.497-3.007 4.685-3.015 1.762-.0125 1.884-.1944.6611-.9847-2.473-1.598-3.996-1.141-5 1.5-.5228 1.375-1.637 2.5-2.475 2.5-.8386.0-1.525.675-1.525 1.5.0 2.198.8277 1.858 3.653-1.5zm-5.153 2c.3399-.55.1415-1-.441-1s-1.059.45-1.059 1 .1984 1 .441 1c.2425.0.7191-.45 1.059-1zm13.5 2c1.848-1.65 4.029-3 4.847-3 .8176.0 1.258-.2281.9796-.507-.9642-.9642-6.826.7615-6.826 2.01.0 2.165-2.911 3.987-4.242 2.655-.6367-.6367-1.63-1.143-2.208-1.126-1.084.0328 2.339 2.968 3.461 2.968.3458.0 2.141-1.35 3.989-3zm-3.5 5c.3399-.55-.0835-1-.941-1s-1.559.45-1.559 1 .4234 1 .941 1c.5175.0 1.219-.45 1.559-1zm-7.771 3.396c-.3323-.3323-1.195-.3678-1.917-.0789-.7977.3192-.5608.5562.6042.6042 1.054.0434 1.645-.1929 1.312-.5252zm5.3 1.22c0-.2076-.7875-.9952-1.75-1.75-1.586-1.244-1.621-1.208-.3776.3776 1.306 1.666 2.128 2.195 2.128 1.372zm7 16.38c0-.55.7875-1.032 1.75-1.07 1.484-.0596 1.445-.1911-.25-.8635-1.217-.4827-2.288-.3573-2.735.3203-1.2 1.7-1.1 2.7.1 2.7.55.0 1-.45 1-1zm-5.655 5.457c-.3257-.8487-.8066-1.329-1.069-1.067-.2621.2621-.18.9565.1826 1.543.986 1.595 1.562 1.286.8862-.4766zm.626 6.504c-2.371-1.5-3.652-1.035-1.544.5605 1.06.8018 2.172 1.213 2.471.9138.2992-.2992-.1179-.9627-.927-1.474zm5.588 6.507c-1.068-.8075-2.418-1.452-3-1.433-.5824.0195.0661.6785 1.441 1.465 3.239 1.852 4.028 1.836 1.559-.0318zm-6.5 2.1c0-.2425-.45-.7191-1-1.059s-1-.1415-1 .441.45 1.059 1 1.059 1-.1984 1-.441zm3.5-.7821c.5707-.4259.2487-.7529-.75-.7616-.9728-.009-1.75.7249-1.75 1.651.0.9167.3375 1.259.75.7616.4125-.4978 1.2-1.241 1.75-1.651zm2 3.223c.3399-.55.1415-1-.441-1s-1.059.45-1.059 1 .1984 1 .441 1c.2425.0.7191-.45 1.059-1zm15.03 2.193c-.3079-.3079-1.115-64e-5-1.793.6828-.9803.9876-.8654 1.102.5598.5598.9862-.3755 1.541-.9347 1.233-1.243zm-15.5 1.4c0-.2162-.6984-.661-1.552-.9886-.8899-.3415-1.291-.1738-.941.393.5873.9502 2.493 1.405 2.493.5955zm9.483-.3022c-.7594-1.464-1.124-3.076-.8112-3.583.3132-.5068-.3861-.4101-1.554.215l-2.123 1.136 2.162 2.924c2.608 3.527 4.261 3.035 2.327-.6927zm1 5.4c.593-.5076.3086-.6348-.6988-.3127-1.122.3589-1.917-.1437-2.341-1.481-.3534-1.113-.8433-1.824-1.089-1.578-.2454.2454.0938 1.631.7538 3.08.6599 1.448 1.464 2.299 1.787 1.891.3232-.4084 1.038-1.128 1.588-1.599zm-9.5-.7c.5854.0 1.412.9396 1.837 2.088.7195 1.945.8691 1.971 2.185.3854 1.246-1.501 1.125-1.936-1.024-3.676-2.436-1.972-2.438-1.972-4.218.2254-.9793 1.209-1.752 2.936-1.717 3.838.0435 1.124.3476.9322.9678-.6108.4-1.2 1.3-2.2 1.9-2.2zm10.73 6.396c-.3323-.3323-1.195-.3678-1.917-.0789-.7977.3192-.5608.5562.6042.6042 1.054.0434 1.645-.1929 1.312-.5252zm2.395 1.338c-.9876-.9803-1.102-.8654-.5598.5598.3755.9862.9347 1.541 1.243 1.233.3079-.3079 64e-5-1.115-.6828-1.793zm-12.4-.9026c-1.567-.9682-1.909-.4715-1.111 1.61.5144 1.34.8435 1.434 1.471.4195.4675-.7565.3158-1.612-.3602-2.029zm-4.081 2.207c-.0677-1.657-.5006-2.583-.9825-2.101-.4738.4738-.5615 1.807-.1948 2.962.9248 2.914 1.32 2.625 1.177-.8615zm1.482 4.212c1.193-1.521 1.176-1.604-.1276-.6343-.825.6136-2.175 1.366-3 1.671-1.255.4645-1.234.5682.1276.6343.8952.0434 2.245-.7086 3-1.671zm26.73-.3371c-1.784-1.103-2.391-.259-1.01 1.405.6236.7514.8677 1.632.5424 1.958-.3253.3253-.2089 1.184.2587 1.908.5937.9194.9497.4444 1.18-1.575.1851-1.622-.2413-3.245-.971-3.696zm-14.2 4.544c.3257-.8487.3224-1.813-.007-2.142-.8647-.8647-3.731 1.742-3.078 2.799.8535 1.381 2.432 1.045 3.085-.6564zm-7.017.0431c-.3172-.8267-.0286-1.502.643-1.505 1.984-.008 7.097-4.574 6.395-5.71-.9164-1.483-5.6-2.217-6.354-.9963-.3611.5844-.1373.7155.5239.3069.7592-.4692 1.155.1735 1.155 1.877.0 2.941-2.342 4.319-4.415 2.598-1.852-1.537-2.699.7336-1.186 3.18 1.332 2.154 4.051 2.363 3.24.25zm25.82 4.569c.3164-.512.118-1.214-.441-1.559-.559-.3455-1.016.0734-1.016.9309.0 1.757.6001 2.015 1.457.6281zm-24.4-.5c1.187-1.674 1.19-1.796.017-.75-1.96 1.748-5.002 1.56-5.002-.309.0-.8575-.4799-1.262-1.067-.8999-.5866.3625-1.697-.1734-2.468-1.191-.7709-1.018-1.416-1.366-1.433-.7744-.0453 1.533 4.101 5.148 6.468 5.64 1.1.2287 2.015.3861 2.033.3498.0181-.0363.6714-.9659 1.452-2.066zm12 2.5c0-.55-.4766-1-1.059-1-.5825.0-.7809.45-.441 1s.8165 1 1.059 1 .441-.45.441-1zm-8.166.1238c1.087-.6892 1.059-.951-.1522-1.416-1.546-.5931-2.682.0248-2.682 1.459.0 1.058 1.124 1.041 2.834-.0428zm12.2.9c0-.55-.7875-.9931-1.75-.9847-1.496.0131-1.532.1563-.25.9847 1.887 1.22 2 1.22 2 0zm-22.19-.9353c-.6647-1.064-1.549-1.725-1.965-1.468-1.182.7306.2095 3.403 1.772 3.403 1.136.0 1.172-.3672.1929-1.935zm17.2 3.5c0-.2162-.6984-.661-1.552-.9886-.8899-.3415-1.291-.1738-.941.393.5873.9502 2.493 1.405 2.493.5955zm20.46.3239c-.4-.5-1.3-.9-2.2-.9-1.271.0-1.332.2783-.3277 1.489 1.291 1.556 3.468 1.063 2.466-.5581zm-13.5 3.3c0-1.035-2.165-3.2-3.2-3.2-.44.0-.8.9-.8 2 0 1.333.6667 2 2 2 1.1.0 2-.36 2-.8zm-5-.2c0-.55-.7875-.9931-1.75-.9847-1.496.0131-1.532.1563-.25.9847 1.887 1.22 2 1.22 2 0zm-.25 2.311c-.9625-.2515-2.538-.2515-3.5.0-.9625.2515-.175.4573 1.75.4573s2.712-.2058 1.75-.4573zm-23.52-1.532c-.6357-2.431-2.16-3.25-3.519-1.891-.8172.8172-.5947 1.121.8371 1.145 1.933.0315 1.933.045.002 1.505-1.874 1.417-1.851 1.465.6025 1.262 1.923-.1592 2.434-.6563 2.078-2.021zm33.9-.2c2.501-1.899 2.163-2.899-.5-1.479-2.04 1.087-2.122 1.044-.8776-.4648.7548-.915 1.781-1.664 2.281-1.664 1.608.0 2.184 3.172.7419 4.086-2.206 1.397-3.587.9957-1.646-.4777zm-.951 7.642c-.6062-1.662-.5389-1.663 1.345-.0137 1.53 1.339 2.254 1.465 3.17.55 1.837-1.837 1.409-3.497-1.064-4.12-2.165-.5454-2.177-.5122-.323.873 2.167 1.619 1.519 3.038-.954 2.089-.983-.3772-1.488-1.5-1.292-2.874.2471-1.735.9214-2.216 2.926-2.086l2.604.1685-2.1-4.261c-1.524-3.093-2.578-4.136-3.845-3.804-1.16.3034-2.036-.3289-2.612-1.885-.5734-1.55-1.675-2.349-3.26-2.364-1.795-.0171-2.339-.5234-2.173-2.023.1215-1.1-.0285-1.438-.3333-.75-.7915 1.785-3.388 1.548-3.388-.309.0-.8575.375-1.327.8333-1.044.4583.2833.8333-.1427.8333-.9465.0-.8039-.6962-1.347-1.547-1.206-.8509.1406-1.709-.5319-1.907-1.494-.498-2.424 3.466-2.338 4.237.0918.3215 1.013 1.727 2.915 3.123 4.226 1.715 1.611 2.333 1.85 1.905.7355-.3481-.907-1.209-1.87-1.913-2.141-.7043-.2703-1.551-1.846-1.883-3.502-.5477-2.739-.8538-2.941-3.392-2.239-2.37.6548-2.753 1.238-2.544 3.868.1354 1.703-.2021 3.374-.75 3.712-1.969 1.217-.938 2.362 2.05 2.277 1.676-.0476 3.566.4325 4.2 1.067.6344.6344 2.012 1.154 3.06 1.154 1.35.0 1.725.4749 1.283 1.627-.3433.8947-.167 2.178.3919 2.851.5589.6734 1.112 2.384 1.229 3.801.1173 1.417.5678 2.358 1.001 2.09.6-.6 1-.1 1 .8.0.9807-.4608 1.333-1.17.895-.7976-.493-.9568-.1675-.5 1.023.3685.9602.6699 2.384.6699 3.164s.4359 1.418.9686 1.418.6814-.7875.3304-1.75zm13.1 1.586c-.2545-.4118-1.123-.4952-1.931-.1854-2.036.7812-1.834 1.253.4628 1.08 1.062-.08 1.722-.4824 1.468-.8942zm-8.716 1.976c-.3192-.7977-.5562-.5608-.6042.6042-.0434 1.054.1929 1.645.5252 1.312.3323-.3323.3678-1.195.0789-1.917zm-46.95.4982c.1951-.5854-.3392-1.331-1.188-1.656-1.081-.4148-1.542.022-1.542 1.46.0 2.057 2.06 2.205 2.73.196zm53.91 1.189c1.333-1.333 1.276-1.5-.5124-1.5-2.147.0-3.493 1.304-2.437 2.361.9192.9192 1.272.8162 2.949-.8605zm6.5 2.5c0-.55-.45-1-1-1s-1 .45-1 1 .45 1 1 1 1-.45 1-1zm-3.964 1.544c-.6647-.8009-.8788-2.038-.4757-2.75.5767-1.018.455-1.037-.5715-.0862-1.061.9823-1.066 1.495-.0243 2.75.704.8483 1.505 1.542 1.78 1.542s-.0438-.6553-.7085-1.456zm-22 1.1c0-1.055-1.919-1.499-2.49-.5753-.3455.559.0734 1.016.9309 1.016.9.0 1.6-.2 1.6-.4zm-22.5-6.6c-.3399-.55-.1415-1 .441-1s1.059.45 1.059 1-.1984 1-.441 1c-.2425.0-.7191-.45-1.059-1zm4.786 6.984c-.2899-1.109-.8648-2.224-1.278-2.479-.4128-.2551-.5922-1.823-.3988-3.484s-.037-3.021-.5122-3.021c-1.284.0-1.959-3.495-1.004-5.202.6721-1.201.2152-1.428-2.381-1.181-4.317.4097-5.976.7922-7.463 1.721-2.124 1.327-1.407 2.845 1 2.118 1.532-.4628 1.931-.3518 1.25.3479-.55.5652-2.125 1.258-3.5 1.54-1.375.2819-.6422.4258 1.628.3198 2.974-.1388 3.993.161 3.643 1.072-.267.6957.0128 1.265.6216 1.265s1.136-.7875 1.17-1.75c.0506-1.396.2386-1.316.9299.3977.4766 1.181 1.348 2.445 1.937 2.809.5886.3637 1.07 1.561 1.07 2.661.0 1.272.4256 1.737 1.17 1.277.7772-.4803.9639-.1861.5562.8764-.3376.8797-.0765 1.818.5801 2.085.6566.2671 1.264.5212 1.35.5646s-.0808-.8281-.3707-1.937zm-17.3-1.6c0-.7252-.5265-1.644-1.17-2.042-.7866-.4862-.9607-.1779-.5314.941.3512.9152.2777 1.664-.1634 1.664s-.802.6679-.802 1.484c0 1.123.3241 1.215 1.333.3776.8-.6 1.4-1.7 1.4-2.5zm50.71.3708c-.1916-2.544-3.36-2.257-4.046.3662-.3126 1.195-.3442 2.536-.0703 2.98.8395 1.358 4.261-1.423 4.116-3.346zm-12.7 5.2c0-.55-.45-1-1-1s-1 .45-1 1 .45 1 1 1 1-.45 1-1zm-12.78.2373c.7035-.8477 1.73-2.935 2.281-4.639.8033-2.485 1.628-3.159 4.169-3.405 2.605-.2526 3.405.1754 4.5 2.408 2.947 6.007 6.896 5.422 8.284-1.229.5714-2.737.3474-3.205-1.789-3.741-1.454-.3648-2.684-1.577-3.04-2.995-.6331-2.522-4.089-4.358-9.123-4.845-2.671-.2586-3.034-.6941-3.306-3.968-.2965-3.563-.4099-3.661-3.623-3.14-1.88.305-3.605.0714-3.983-.5392-.3817-.6176-1.948-.8211-3.669-.4768-2.255.451-3.346.1318-4.379-1.281-.7568-1.035-1.682-1.576-2.056-1.202-.9688.9688 2.5 5.271 5.758 7.14 2.171 1.246 2.8 2.393 2.954 5.38.3739 7.287.5414 8.815 1.256 11.45.3957 1.461.247 3.54-.3304 4.619s-.8301 2.181-.5615 2.45c.9018.9018 5.367-.4314 6.659-1.988zm17.6 3.6c-.151-.755.641-1.156 2-1.012 1.238.131 2.25-.2065 2.25-.75s-.7875-.9951-1.75-1.004c-1.496-.0131-1.532-.1563-.25-.9847.825-.5332 1.019-.9763.4303-.9847-.5883-.008-2.023 1.081-3.189 2.422-1.922 2.21-1.844 2.741.5084 3.484.1375.0434.1375-.4836.0-1.171zm-21.8 2.8c0-.7935.847-1.374 1.89-1.295 1.104.0832 1.683.681 1.393 1.438-.7 1.8-3.3 1.7-3.3-.1zm4.352.0229c1.058-1.615 2.219-2.249 3.502-1.913 1.056.2761 2.213.0276 2.571-.5523.3584-.5799 1.872-.9048 3.363-.722s1.945.1395 1.009-.0961c-.9365-.2356-1.966-1.258-2.288-2.273-.3219-1.014-1.243-2.097-2.047-2.405-1.736-.666-1.923.5148-.3347 2.103 1.129 1.129-1.124 1.987-9.918 3.779-3.905.7957-6.536-.8992-5.664-3.647.8734-2.752-.8605-2.241-2.201.649-.6358 1.371-.7483 2.492-.25 2.492.4982.0.9059.4766.9059 1.059.0.5825-.5195.7379-1.155.3455-.7484-.4625-.8816-.272-.3787.5417.4742.7673 1.861 1.038 3.567.697 1.8-.3599 3.221-.0404 4.001.8992 1.753 2.112 3.514 1.795 5.317-.9574zm-20.22 5.723c.9326-1.15.9718-1.451.1224-.941-1.32.7932-1.742-.5414-.5486-1.735.3858-.3857.7904-2.435.8993-4.553.1642-3.194-.288-4.211-2.648-5.956-1.991-1.472-3.059-1.76-3.554-.9591-.4298.6955-.2659.872.4175.4497.6804-.4205 1.377.3064 1.761 1.839.3498 1.394 1.038 2.286 1.529 1.982 1.142-.706 1.124-.1714-.1036 3.058-.7248 1.906-.6894 2.432.1297 1.926.6886-.4256.9304-.1562.622.6928-.2776.7641-1.011 1.277-1.63 1.139-.6188-.1375-1.125.6359-1.125 1.719.0 1.425.4593 1.792 1.664 1.33 1.119-.4294 1.427-.2553.941.5314-1.09 1.764-.0395 1.404 1.523-.522zm-5.66 1.656c-1.59-1.757-1.68-2.486-.655-5.321 1.75-4.839 1.468-6.586-1.227-7.61-2.65-1.007-4.175-4.296-2.909-6.274.4431-.6924.8097-3.044.8146-5.226.007-3.228.4745-4.198 2.509-5.211 3.371-1.678 6-5.067 6-7.733.0-1.204.54-2.729 1.2-3.389.9333-.9333.9333-1.467.0-2.4-.66-.66-1.2-1.92-1.2-2.799.0-1.252.7943-1.506 3.661-1.172l3.661.4274-2.161-3.496c-2.337-3.781-2.795-7.25-1.096-8.3.7024-.4341.5102-1.272-.5641-2.459-1.202-1.328-1.461-2.81-.9872-5.651 1.053-6.316 1.298-6.752 2.998-5.341 1.068.8866 1.488.9114 1.488.0879.0-.631-1.074-1.556-2.387-2.055-2.175-.827-2.391-1.49-2.425-7.463-.0208-3.605.3672-6.805.8622-7.111.495-.3059.6251-2.562.2892-5.013-.6-3.6-.4-4.4 1-4.4.8951.0 2.19.9 2.876 2 .687 1.1 2.153 1.948 3.258 1.884 1.702-.0983 1.74-.1863.2472-.5757-.9692-.2528-1.503-.8788-1.187-1.391.3166-.5123-.125-1.2-.9814-1.529-1.371-.5262-1.334-.9132.3122-3.243 2.881-4.077 1.005-7.819-3.621-7.223-1.886.2432-5.261-1.835-5.261-3.239.0-.6851-1.35-1.755-3-2.378-2.244-.8468-3-1.77-3-3.66.0-1.39-.45-2.806-1-3.146-.55-.3399-1-1.488-1-2.55.0-2.142-5.176-7.553-8.116-8.487-2.65-.8411-2.446-5.76.3665-8.822 1.238-1.348 2.83-3.168 3.539-4.045.7092-.8774 2.397-1.595 3.75-1.595 1.924.0 2.461-.5183 2.461-2.378.0-3.54 2.326-4.971 6.739-4.146 2.069.3866 4.318 1.163 4.998 1.725.6804.5622 2.348.7434 3.706.4026s4.501-.076 6.986.5884c4.171 1.115 4.696 1.039 6.859-.992 2.276-2.139 6.643-2.936 8.1-1.48.3962.3962 2.193.5934 3.993.4383 4.319-.3721 6.382 1.961 5.013 5.672-.6105 1.654-.6385 3.632-.0737 5.199.7472 2.073.337 3.38-2.275 7.25-1.752 2.597-3.76 4.721-4.46 4.721-.7008.0-2.067.8763-3.036 1.947-1.361 1.504-3.061 1.941-7.465 1.92-4.294-.0205-6.604.5482-9.35 2.303-2.006 1.281-3.666 2.907-3.69 3.612-.0233.7052-1.055 1.689-2.292 2.187-1.724.6929-1.841.9192-.5.9678.9625.0349 1.75.4993 1.75 1.032s.6405.7228 1.423.4224c.836-.3208 1.956.4142 2.715 1.781 1.21 2.182 1.394 2.661 1.752 4.578.0772.4125.5834.075 1.125-.75.8753-1.333 1.097-1.333 1.998.0.5572.825.7311 2.4.3865 3.5s-.8486 3.697-1.12 5.772c-.3027 2.313-1.226 4.164-2.386 4.785-1.041.5572-1.893 2.022-1.893 3.255s-.6685 3.197-1.486 4.363c-1.322 1.888-1.313 2.187.0818 2.723.8621.3308 2.891.6015 4.509.6015 2.85.0 2.894.0721 1.415 2.33-1.672 2.552-1.161 3.854 1.162 2.962 1.183-.4539 1.221-.7342.1861-1.374-.9267-.5727-.4733-1.118 1.579-1.898 3.884-1.477 5.37-.0225 3.915 3.832l-1.066 2.825 4.102-.7633c2.256-.4198 4.496-.3808 4.978.0866.4966.4821-.1034 2.872-1.387 5.522-2.014 4.159-2.554 4.614-4.922 4.14-1.463-.2927-3.314-.1185-4.114.387-1.085.6863-1.121.923-.1439.9344.72.008 1.031.4653.691 1.015-.3399.55-.0933 1 .548 1 .653.0.8986-.6968.5583-1.584-.4008-1.044-.1819-1.385.643-1.001.6879.3206 2.064.8673 3.057 1.215.9992.3496 1.572 1.244 1.281 2.001-.2888.7527-.0893 1.369.4434 1.369s.9686-.45.9686-1c0-1.816 2.177-1.039 2.701.9646.2826 1.081 2.04 2.865 3.906 3.966 2.176 1.284 3.393 2.769 3.393 4.141.0 2.555 4.096 7.801 7.824 10.02 2.253 1.342 2.676 2.286 2.676 5.989.0 4.096.2048 4.434 3 4.946 2.973.5441 2.978.555.5172 1.228-1.366.3734-2.918.2436-3.45-.2884-1.594-1.594-2.568-1.104-2.552 1.283.0106 1.553.2687 1.851.833.9612.6226-.9813 1.486-1.035 3.617-.2245 1.54.5853 3.556.8239 4.482.5302 1.459-.4629 1.655.2326 1.478 5.225-.1123 3.167-.2539 6.157-.3146 6.644-.0607.4873-2.073.6169-4.472.2881-3.693-.5062-4.689-.2491-6.5 1.679-1.176 1.252-2.139 2.965-2.139 3.807.0 3.27-5.957 6.337-7.49 3.856-.3475-.5622-3.265-.7778-6.803-.5026-4.805.3736-6.556.9612-7.807 2.619-1.322 1.753-2.223 2.012-5.006 1.441-1.867-.3828-4.833-.6705-6.591-.6394-4.113.0727-6.493-2.972-5.301-6.783 1.886-6.032 1.961-10.23.1935-10.86-.9326-.3298-2.497-1.289-3.477-2.131-1.597-1.373-1.939-1.374-3.308-.004-2.059 2.059-.8468 6.683 2.106 8.029 1.894.863 2.339 2.022 2.753 7.17.5 7.3-1 10.8-4.7 10.8-1.277.0-3.151-.9163-4.165-2.036zm-160-170c1.594-3.083 1.131-3.7-1.5-2-.9487.6131-1.052.975-.2814.9847.6702.008.9606.6877.6452 1.51-.3154.8218-.9762 1.245-1.469.941-.4924-.3043-.8952-.0767-.8952.5057.0 2.096 1.98.9984 3.5-1.941zm0 6c.3399-.55 1.068-1 1.618-1s.7219.45.382 1-1.068 1-1.618 1-.7219-.45-.382-1zm3.25 7.453c2.11-.6596 1.392-2.235-1.5-3.291-2.23-.8146-2.363-1.019-.7-1.083 1.128-.0434 2.515.3858 3.083.9538 1.531 1.53 4.244.1059 5.901-3.098.8028-1.552 2.693-3.414 4.201-4.136 1.508-.7226 2.902-2.151 3.1-3.175.2301-1.195-.0497-1.609-.7816-1.156-.627.3875-1.769.1825-2.538-.4555-1.138-.9448-1.59-.4449-2.436 2.695-.5709 2.12-1.61 4.637-2.309 5.593-1.18 1.614-1.437 1.622-3.592.1121-1.277-.8943-2.711-2.59-3.186-3.769-.6543-1.621-.8802-1.732-.9282-.4534-.0456 1.216-1.114 1.777-3.813 2-3.321.2749-3.719.5911-3.475 2.767.1511 1.351.8261 2.807 1.5 3.235.8538.5424.6947.783-.5248.7937-1.732.0152-2.381 2.051-1.072 3.36.6137.6137 5.926.0915 9.072-.8917zm-8.75 5.547c1.213-.7839 1.069-.9723-.75-.9847-1.238-.008-2.25.4347-2.25.9847.0 1.253 1.061 1.253 3 0zm-6 9.941c0-3.512.2659-3.941 2.441-3.941 3.518.0 4.056-1.682.5703-1.781-2.019-.0574-3.103.4931-3.513 1.785-.326 1.027-1.169 2.009-1.873 2.182-.9415.2312-1.051 1.183-.4152 3.6 1.127 4.282 2.789 3.183 2.789-1.845zm-1 8.666c0-.2162.675-.652 1.5-.9686s1.5-.1397 1.5.393-.675.9686-1.5.9686-1.5-.1769-1.5-.393zm1.5 1.2c2.728-.4561 2.537-3.231-.25-3.627-1.238-.1758-2.25.1617-2.25.75.0 2.166-.174 2.604-1.705 4.296-.8593.9495-1.952 1.485-2.429 1.191-1.028-.6356-1.17.9453-.1742 1.941.3807.3807 1.618-.4125 2.75-1.763s2.958-2.605 4.058-2.789zm-6.396 7.897c-1.283-1.283-2.585-.2915-1.635 1.246.3681.5956 1.127.7997 1.687.4537.683-.4221.6658-.9815-.0524-1.7zm.9 3.8c0-.152-.8663-.5029-1.925-.7798-1.314-.3437-1.764-.0834-1.417.8202.4058 1.058 3.342 1.022 3.342-.0404zm-7.618 5.938c.3415-.8899.1738-1.291-.393-.941-.5437.336-.9886 1.034-.9886 1.552.0 1.438.7168 1.121 1.382-.611zm-1.744 10.25c.3-.4.0-.7-.7-.7-.8507.0-.4778-.9188 1.02-2.513 1.779-1.894 2.078-2.797 1.211-3.663-.8661-.8661-1.399-.493-2.162 1.513-.6363 1.674-1.765 2.663-3.037 2.663-2.245.0-2.598 1.027-.9275 2.697 1.161 1.161 3.379 1.16 4.54-.002zm-2.251 4.023c-1.038-.5579-2.733-1.892-3.767-2.965-1.04-1.078-2.157-1.526-2.5-1.002-.3408.5215-1.295 1.205-2.12 1.519-1.212.4614-1.171.5862.2148.6499.9432.0434 2.157.9045 2.697 1.914.7348 1.373 1.784 1.717 4.172 1.366 2.815-.4132 2.969-.5874 1.303-1.483zm-14.4 4.5c0-.4125-1.125-.75-2.5-.75s-2.5.3375-2.5.75 1.125.75 2.5.75 2.5-.3375 2.5-.75zm18.49 1.761c.3503-.5669-.0511-.7345-.941-.393-1.732.6648-2.049 1.382-.611 1.382.5175.0 1.216-.4448 1.552-.9886zm-12.3-.2c-.9333-.9333-1.467-.9333-2.4.0-.9333.9333-.6667 1.2 1.2 1.2s2.133-.2667 1.2-1.2zm12.8 4.2c0-.55-.45-1-1-1s-1 .45-1 1 .45 1 1 1 1-.45 1-1zm-10 4.617c0-.2108-.9006-.6189-2.001-.9067-1.101-.2878-1.749-.1153-1.441.3834.5382.8709 3.442 1.312 3.442.5234zm5.493 6.395c.3503-.5669-.0511-.7345-.941-.393-1.732.6648-2.049 1.382-.611 1.382.5175.0 1.216-.4448 1.552-.9886zm8.946 2.088c.3025-.4894-.1726-1.167-1.056-1.506-1.147-.4402-1.44-.1846-1.026.8952.3552.9257.0108 1.511-.8886 1.511-.8077.0-1.469.4658-1.469 1.035.0 1.147 3.468-.3659 4.439-1.936zm-.6508 3.764c-.2496-.749-.7029-.2956-1.057 1.057-.435 1.663-.3048 2.054.4372 1.312.5811-.5811.8598-1.647.6193-2.368zm-22.1 1.949c-.3192-.7977-.5562-.5608-.6042.6042-.0434 1.054.1929 1.645.5252 1.312.3323-.3323.3678-1.195.0789-1.917zm6.858 6.121c1.076-1.741-.1495-2.11-1.521-.4576-.7888.9504-.8646 1.524-.2015 1.524.5849.0 1.36-.4799 1.723-1.067zm44.43 3.106c.8091-.5117 1.166-1.235.7931-1.608-.9151-.9151-3.764.2488-3.764 1.538.0 1.27 1.035 1.295 2.971.0704zm-.3273 2.167c-1.021-.2164-2.293.0429-2.826.5762-.6261.6261.0314.7655 1.856.3935 2.093-.4267 2.344-.6782.9696-.9696zm6.9 2.8c.3399-.55.1415-1-.441-1s-1.059.45-1.059 1 .1984 1 .441 1c.2425.0.7191-.45 1.059-1zm-35.5 1.617c0-.2109-1.111-.5959-2.47-.8556-1.358-.2597-2.232-.0871-1.941.3834.5121.8286 4.411 1.246 4.411.4721zm3.729.7793c-.3323-.3323-1.195-.3678-1.917-.0789-.7977.3192-.5608.5562.6042.6042 1.054.0434 1.645-.1929 1.312-.5252zm29.62.061c-.3257-.8487-.8066-1.329-1.069-1.067-.2621.2621-.18.9565.1826 1.543.986 1.595 1.562 1.286.8862-.4766zm-46.14-.2206c-.8586-.2862-.905-.9353-.1656-2.317.565-1.056.8022-1.919.5272-1.919s-.9866.9093-1.581 2.021c-1.227 2.292-.4246 4.367 1.281 3.313.8285-.512.8121-.8059-.0611-1.097zm27.19 2.505c2.042-2.042.7798-3.907-1.306-1.929-.9784.9281-1.599 2.025-1.378 2.438.5674 1.063 1.24.9354 2.684-.5089zm-5.407-2.453c-1.09-1.699-1.118-1.697-.5708.0441.3165 1.007.611 2.357.6545 3 .057.8432.2158.8309.5708-.0441.2705-.6668-.024-2.017-.6544-3zm16.73 4.108c-.3323-.3323-1.195-.3678-1.917-.0789-.7977.3192-.5608.5562.6042.6042 1.054.0434 1.645-.1929 1.312-.5252zm-38.33.4375c-.3-.4-.1-.8.5-.8.55.0 1.278.45 1.618 1 .3399.55 1.379.9715 2.309.9366 1.194-.0447 1.011-.3362-.6233-.9915-1.273-.5105-2.038-1.376-1.699-1.923.3931-.6361-.1964-.6948-1.634-.163-2.637.9756-3.566 2.808-1.424 2.808.8161.0 1.252-.375.9688-.8333zm42.56 2.978c2.386-2.561 2.455-3.094.789-6.075-1.832-3.277-3.009-3.812-4.808-2.184-.8822.7984-1.905 1.151-2.273.7828-.3679-.3679-.6688-.1173-.6688.5568s-.399.9791-.8867.6777c-1.278-.7896-3.246 1.92-2.607 3.587.2977.7758 1.768 1.474 3.267 1.552l2.726.1419-2.75-1.009c-3.776-1.386-3.454-2.241 1.326-3.517 3.832-1.023 4.141-.9436 5.173 1.321.8125 1.783.7929 2.713-.0756 3.581-.8972.8972-1.173.8769-1.173-.0861.0-.6925-.45-.9809-1-.641-1.278.7896-1.308 3.5-.039 3.5.5286.0 1.879-.9848 3-2.189zm-15.46 1.549c1.209-.4641 1.334-.8443.4537-1.388-.6666-.412-.8731-1.297-.4588-1.968.5801-.9386.9758-.9069 1.722.1382.7591 1.062.8574 1.004.4532-.2714-.2839-.8955.0111-2.239.6557-2.985.6445-.7463.0179-.3511-1.393.8782-1.41 1.229-3.058 2.235-3.662 2.235-.876.0-1.022 1.557-.3505 3.75.1217.3975.7921.2964 2.579-.3892zm-23.16 3.096c-.3257-.8487-.8066-1.329-1.069-1.067-.2621.2621-.18.9565.1826 1.543.986 1.595 1.562 1.286.8862-.4766zm40.06-2.382c-.7277-.7277-3.265 3.348-2.677 4.3.3046.4929 1.128-.1765 1.83-1.487.7016-1.311 1.083-2.576.8472-2.812zm-34.45-.6296c-1.9-2.1-5-1.8-5 .6.0 1.467.6667 2 2.5 2 1.662.0 2.546.5863 2.636 1.75.0869 1.116.2957.9152.5768-.555.2423-1.268-.0991-2.955-.7586-3.75zm39 5.1c0-.825-.675-1.5-1.5-1.5-2.602.0-1.759 1.971 1.25 2.921.1375.0434.25-.596.25-1.421zm-15.68.8489c.3581-.3581-.1294-1.295-1.083-2.082-1.492-1.23-1.507-1.36-.1063-.927.8955.2769 2.133-.001 2.75-.6184.8292-.8292 1.435-.8088 2.322.0781.66.66 1.646 1.2 2.191 1.2.5451.0.1176-.6402-.95-1.423-1.182-.8663-3.115-1.206-4.941-.8678-4.04.7474-5.096 1.867-3.535 3.748 1.382 1.665 2.328 1.917 3.353.8913zm-21.3 2.3c0-.2108-.9006-.6189-2.001-.9067-1.101-.2878-1.749-.1153-1.441.3834.5382.8709 3.442 1.312 3.442.5234zm32.35-.1598c-.3257-.8487-.8066-1.329-1.069-1.067-.2621.2621-.18.9565.1826 1.543.986 1.595 1.562 1.286.8862-.4766zm-2.958 2.948c-.6297-2.509-.792-2.608-1.425-.868-.3929 1.08-.2559 2.537.3045 3.238 1.478 1.848 1.936.8789 1.121-2.37zm19.58 3.191c.0173-.4977-.7847-.1664-1.782.7364-1.138 1.03-2.165 1.29-2.758.6966-.592-.592-1.502-.5926-2.436-.002-1.186.75-1.019.9462.8174.9584 1.507.01 2.058.422 1.585 1.186-.398.644.4613.3065 1.91-.75 1.448-1.056 2.647-2.328 2.665-2.826zm-12 4.1c0-.2425-.45-.7191-1-1.059s-1-.1415-1 .441.45 1.059 1 1.059 1-.1984 1-.441zm-4.015.191c-.012-1.757-.2167-1.932-.934-.7978-.5053.7987-.6968 1.811-.4257 2.25.8674 1.403 1.375.8608 1.36-1.452zm-13 2.2c0-.55-.45-1-1-1s-1 .45-1 1 .45 1 1 1 1-.45 1-1zm39.18-1.632c.8786-3.391-.2457-8.555-1.989-9.136-.6886-.2295-1.225.5908-1.266 1.935-.0661 2.196-.121 2.215-.9297.3333-.7022-1.634-.8695-1.36-.9144 1.5-.0398 2.532.2022 3.093.8753 2.029 1.076-1.702 1.526-1.39 2.482 1.721.7118 2.316-.9266 3.279-1.702 1-.2339-.6875-.6367.1667-.8952 1.898-.4209 2.819-.2586 3.07 1.554 2.399 1.113-.4119 2.366-2.068 2.784-3.68zm-25.84 5.183c.3733-.9727.0755-1.265-.9057-.8881-2.13.8172-4.664-1.682-4.058-4.002.2846-1.088-.2777-2.989-1.249-4.225-1.674-2.128-1.826-2.151-2.901-.4304-.8896 1.425-.8209 1.936.319 2.373.7991.3066 1.453.0317 1.453-.6111.0-.8581.2957-.8729 1.113-.0557 1.706 1.706-.0168 3.528-2.7 2.855-1.945-.4881-2.485-.1301-3.02 2.002-.4805 1.914-1.143 2.468-2.524 2.107-1.03-.2693-1.62-.0815-1.312.4172.9832 1.591 3.919.9748 5.21-1.093 1.592-2.549 4.268-2.579 4.928-.0562.2796 1.069 1.475 2.133 2.656 2.364s2.212.4813 2.291.5562c.0787.0749.3932-.5159.6991-1.313zm34.6 1.5c0-1.676-1.774-2.092-2.364-.5533-.3483.9077.003 1.494.8952 1.494.8077.0 1.469-.4234 1.469-.941zm-4.4-.1c0-2.786-5.734-3.138-8.439-.5186-1.142 1.106-.7608 1.296 2.313 1.151 2.024-.0952 4.214.1667 4.867.5819s1.203.7619 1.223.7703c.0197.008.0357-.8847.0357-1.985zm6.4 4.6c0-.2162-.6984-.661-1.552-.9886-.8899-.3415-1.291-.1738-.941.393.5873.9502 2.493 1.405 2.493.5955zm-39.32-1.794c-.3192-.7977-.5562-.5608-.6042.6042-.0434 1.054.1929 1.645.5252 1.312.3323-.3323.3678-1.195.0789-1.917zm-4.075-2.239c-.3-1.4-1.1-2.6-1.6-2.6-.5907.0-.5635 1.033.0711 2.702l1.027 2.702-2.207-1.952-2.207-1.952 1.803 2.801c2.127 3.304 4.102 2.208 3.114-1.728zm47.4 6c0-1.055-1.919-1.499-2.49-.5753-.3455.559.0734 1.016.9309 1.016s1.559-.1984 1.559-.441zm-1 3.382c0-1.132-.4223-1.798-.9385-1.479s-1.403-.2169-1.97-1.191c-.5671-.9741-1.045-1.406-1.061-.9591-.0281.7492 3.152 5.585 3.72 5.657.1375.0173.25-.8951.25-2.028zm-39.86.2713c-.7214-.2405-1.787.0382-2.368.6193-.7421.7421-.3516.8722 1.312.4372 1.352-.3536 1.806-.8069 1.057-1.057zm-10.34.144c-.2914-1.375-.5429-1.123-.9696.9696-.372 1.825-.2327 2.482.3935 1.856.5333-.5333.7926-1.805.5762-2.826zm53.2 3.6c0-.55-.1984-1-.441-1-.2425.0-.7191.45-1.059 1s-.1415 1 .441 1 1.059-.45 1.059-1zm-46.55.884c1.769-.1001 1.802-.1803.2415-.5846-2.808-.7276-1.781-4.729 1.308-5.098 1.375-.164 3.616-1.144 4.979-2.177 2.151-1.63 2.222-1.856.5383-1.702-1.259.1149-2.036-.5252-2.211-1.823-.1489-1.1-.0161-1.438.295-.75.6403 1.415 3.399 1.717 3.399.3724.0-1.445-2.834-3.343-3.956-2.65-.4.2-.9 1.4-.9 2.4.0 3.2-1.1 5-3.1 5-1 0-1.9-.6-1.9-1.4.0-.915-.8245-1.204-2.515-.8806-2.527.4831-4.523 2.242-2.544 2.242.5825.0 1.111 1.238 1.175 2.75.0877 2.078.2335 2.262.5971.75.5313-2.209 2.302-4.518 2.263-2.95-.0131.5225-.4281 2.693-.9223 4.822-.6642 2.863-.6058 3.58.2239 2.75.6172-.6172 2.045-1.174 3.172-1.238zm-5.105 4.366c.2549-.4125-.5755-.75-1.845-.75s-2.1.3375-1.845.75c.2549.4125 1.085.75 1.845.75.7601.0 1.591-.3375 1.845-.75zm58.7 3.6c0-1.132-.4304-1.793-.9563-1.468-.526.3251-.7028 1.252-.393 2.059.7932 2.067 1.349 1.824 1.349-.591zm-6.118 9.309c-.3402-2.155.2764-2.423 1.587-.6911 1.532 2.026 1.686 1.739 1.907-3.559.0688-1.65-.2014-3-.6002-3-.3989.0-.2975-1.125.2252-2.5.7635-2.008.6419-2.5-.6184-2.5-.8629.0-1.796-.8689-2.074-1.931-.291-1.113-1.079-1.71-1.861-1.41-1.007.3863-.7426 1.089 1.025 2.727 2.276 2.109 2.313 2.348.8367 5.396-.8496 1.754-1.942 2.944-2.427 2.644-1.334-.8247-1.056 2.999.3181 4.373 1.385 1.385 1.849 1.509 1.682.45zm-3.9 1.8c-1.109-1.109-2-3.333-2-4.992.0-1.909.724-3.444 2-4.241 2.624-1.639 2.533-3.417-.25-4.882-2.834-1.492-3.715-2.809-3.735-5.578-.0223-3.196-3.637-8.814-6.515-10.13-1.369-.6237-3.84-.8638-5.492-.5335-1.784.3569-3.613.0946-4.505-.6464-1.699-1.41-2.032-6.557-.4862-7.512.559-.3455.7574-1.047.441-1.559-.9017-1.459-4.44-1.091-6.172.6414-.9612.9612-2.457 1.35-3.849 1.001-2.581-.6478-5.436.179-5.436 1.574.0.5134.9466 2.214 2.104 3.779 2.409 3.258 1.898 6.621-1.152 7.589-1.071.3398-2.235 1.825-2.587 3.301-.8413 3.526-2.22 5.183-4.313 5.183-.9368.0-2.76 1.125-4.052 2.5s-3.37 2.5-4.618 2.5c-4.176.0-6.172-5.813-3.28-9.552.4476-.5786.5726-1.974.2779-3.101-.2956-1.13.1225-2.707.9327-3.517 1.85-1.85.4142-4.83-2.328-4.83-4.343.0-4.921-7.254-.6843-8.592 2.603-.8224 5.002-3.915 5.701-7.351.3238-1.592 1.389-2.677 3-3.058 2.28-.5391 2.329-.6556.5604-1.335-1.303-.5006-2.22-.2398-2.8.796-1.271 2.272-6.466 1.964-7.763-.4594-.6195-1.158-2.094-2-3.5-2-2.709.0-4.121-2.024-5.27-7.557-.722-3.475-1.005-3.698-5.16-4.072-2.418-.2178-4.885-.7951-5.483-1.283-.6638-.5416-1.589-.342-2.377.5128-1.053 1.143-1.053 1.401.0 1.406.7092.003 2.567.6726 4.129 1.487 2.015 1.051 3.375 1.194 4.684.4938 1.015-.543 2.099-.9872 2.41-.9872 1.189.0.495 4.656-1.015 6.812-1.533 2.188-1.501 2.242 1.062 1.777 2.233-.4049 2.595-.1543 2.331 1.614-.1718 1.151-.9874 2.406-1.812 2.79-.825.3832-2.506 1.217-3.736 1.852-3.207 1.657-5.044 1.435-6.996-.8446-.9418-1.1-2.299-2-3.015-2-.7164.0-1.725-1.112-2.242-2.472-.5772-1.518-2.015-2.708-3.725-3.084-4.9-1-5.3-1.3-5.3-3.3.0-1.319.4846-1.814 1.423-1.454.7985.3064 1.879-.3052 2.461-1.393.8341-1.558.5681-2.381-1.354-4.187-1.316-1.236-2.682-3.963-3.036-6.06-.3543-2.097-1.286-4.059-2.069-4.36-.8-.2-1.4-1.5-1.4-2.7.0-2.478-2.719-5.316-6.455-6.737-1.559-.5928-2.495-1.957-2.88-4.198-.3135-1.826-.878-4.854-1.254-6.729-.5991-2.985-.4647-3.325 1.079-2.733.97.3722 2.376.1687 3.124-.4524.7483-.621 2.047-.8659 2.885-.5441 1.634.627 6.501-1.191 6.501-2.428.0-.4102-.8928-.5124-1.984-.227-2.767.7235-6.688-.4097-7.346-2.123-.8-2.5 1.3-8.8 2.9-8.8.7992.0 1.453.675 1.453 1.5.0.9034.9251 1.5 2.326 1.5 1.279.0 3.36 1.101 4.624 2.447s3.255 2.584 4.424 2.751c1.667.2386 2.081.928 1.918 3.195-.2337 3.253 1.478 6.108 3.663 6.108.8002.0 1.713 1.092 2.028 2.426s1.123 2.609 1.795 2.833c1.949.6495 1.415-2.275-.7776-4.259-1.1-.9955-2-2.589-2-3.54.0-2.307-2.488-8.138-3.178-7.448-.8.9-5.7-1.4-5.7-2.7.0-.7063-.9278-1.864-2.062-2.572-1.425-.8898-1.966-2.118-1.75-3.974.2783-2.397.9048-2.801 5.812-3.747 5.471-1.055 5.499-1.079 5.266-4.516-.3598-5.322.529-7.956 2.685-7.956 2.871.0 5.974-4.941 5.304-8.446-.4463-2.335-.0194-3.331 2.179-5.083 2.597-2.071 2.675-2.377 1.553-6.119-1.573-5.251-.999-8.74 1.513-9.189 1.1-.1966 3.238-1.523 4.75-2.947 2.43-2.288 2.75-3.317 2.75-8.831.0-3.659.522-6.788 1.262-7.563.6939-.7268 1.822-2.586 2.506-4.131 1.089-2.46 1.71-2.771 4.988-2.5 3.216.2663 3.89.7603 4.776 3.504 1.169 3.617 2.466 3.278 4.57-1.194 1.143-2.43 2.122-3.059 5.148-3.31 3.162-.2623 3.911.0724 4.87 2.176 1.701 3.734.3927 7.259-3.154 8.495-1.997.696-3.404 2.093-4.09 4.059-.5748 1.649-2.02 3.306-3.211 3.682-1.192.3764-2.735 1.492-3.429 2.478-.6946.9868-2.72 1.935-4.5 2.107-2.95.2846-3.264.644-3.546 4.047-.3039 3.668-3.479 7.323-5.354 6.164-1.501-.9276-.8796 4.32.663 5.601 2.993 2.484 1.216 8-2.578 8-2.622.0-4.343 2.844-4.384 7.244-.0265 2.815-.5652 4.289-1.788 4.892-.9625.4749-2.538 1.26-3.5 1.746-1.383.697-1.686 1.921-1.445 5.832.2186 3.545-.1361 5.316-1.25 6.24-1.741 1.445-2.093 5.596-.5552 6.546.55.3399 1 1.739 1 3.109.0 3.218 2.469 7.974 4.556 8.775 1.334.5117 1.509 1.51.9618 5.485-.5389 3.918-.3633 4.977.9068 5.464.8663.3324 1.575 1.453 1.575 2.491.0 1.962-5.501 7.176-7.57 7.176-1.684.0-3.181-2.088-3.584-5-.2315-1.674-1.425-2.996-3.61-4-2.019-.9277-3.481-2.454-3.834-4-1.041-4.568-1.326-5-3.3-5-1.078.0-2.622-.6624-3.432-1.472-1.296-1.296-1.618-1.296-2.694.0-1 .8-2.3 1.5-3.2 1.5-1.8.0-4.1 1.8-4.1 3.2.0.4594.8408.3852 1.869-.1648 2.18-1.167 3.229-.487 2.436 1.578-.4349 1.133.0204 1.308 2.069.7938 2.522-.6331 2.626-.4931 2.626 3.533.0 2.909.3826 4.064 1.25 3.776.6875-.2289 1.389-1.279 1.559-2.333.6927-4.304 1.094-4.586 3.429-2.41 1.244 1.159 2.318 2.532 2.387 3.05.2974 2.243.4525 2.369 1.289 1.047 1.104-1.744 4.086-.715 4.086 1.41.0.8673-1.149 2.726-2.554 4.131-3.102 3.102-2.857 5.966.4784 5.593 1.288-.144 3.02.3005 3.848.9878.8282.6873 2.568 1.11 3.867.9403 1.299-.1702 2.361.1587 2.361.7308s.675.7812 1.5.4646 1.5-1.202 1.5-1.969c0-2.063 3.704-1.689 6 .607 1.1 1.1 2 1.55 2 1 0-1.721 2.827-1.09 3.362.75.361 1.242.4548 1.129.3233-.3922-.2066-2.391 2.894-6.358 4.97-6.358.7398.0 1.352.7875 1.36 1.75.0108 1.281.3536 1.08 1.28-.75 1.821-3.6 6.704-3.49 8.469.191.7094 1.48 2.229 2.989 3.378 3.354 1.704.5408 1.991 1.241 1.559 3.809-.2909 1.731-.8765 4.046-1.301 5.146-.6581 1.704-.5462 1.816.7569.7587.8411-.6827 1.825-.9452 2.187-.5833 1.148 1.148.7113 4.036-.7996 5.289-.9559.7934-1.26 2.2-.8822 4.087.5017 2.508.112 3.15-3.042 5.012-1.99 1.174-3.618 2.54-3.618 3.036.0 1.197 1.726 1.154 2.477-.0616.3273-.5295 2.57-.9231 4.984-.8747 4.167.0836 12.78-3.124 14.09-5.249.8554-1.384 5.053-1.093 6.324.4389.6173.7438 1.409 4.095 1.759 7.447.6195 5.927.7223 6.103 3.743 6.398 2.242.2188 3.471 1.068 4.418 3.053.7213 1.512 1.705 2.75 2.186 2.75 1.821.0 4.017 3.252 4.017 5.949.0 1.543.675 3.366 1.5 4.051.825.6847 1.5 1.72 1.5 2.301.0.5811 1.575 2.499 3.5 4.262 3.809 3.489 4.319 5.475 2 7.793-.825.825-1.5 2.587-1.5 3.916.0 5.133-6.261 7.466-10 3.726zm-260.5-82c.3503-.5669-.05106-.7345-.941-.393-1.73.7-2.05 1.4-.61 1.4.5175.0 1.216-.4448 1.552-.9886zm-14.81 1.801c-.3192-.7977-.5562-.5608-.6042.6042-.04342 1.054.1929 1.645.5252 1.312.3323-.3323.3678-1.195.07895-1.917zm7.317.6875c1.864-1.375 3.096-2.5 2.739-2.5-.3574.0-2.308 1.125-4.334 2.5s-3.259 2.5-2.739 2.5c.5199.0 2.47-1.125 4.334-2.5zm5 6.941c0-.8575-.4573-1.276-1.016-.9309-.559.3455-.7574 1.047-.441 1.559.8572 1.387 1.457 1.128 1.457-.6281zm-10.27.9548c-.3323-.3323-1.195-.3678-1.917-.0789-.7977.3192-.5608.5562.6042.6042 1.054.0434 1.645-.1929 1.312-.5252zm11.05 4.509c.4338-2.253-2.535-1.949-3.128.3197-.3568 1.365-.03212 1.802 1.165 1.572.9131-.1758 1.796-1.027 1.963-1.892zm-5.78 3.1c0-.55-.45-1-1-1s-1 .45-1 1 .45 1 1 1 1-.45 1-1zm.05996 18.76c-1.105-1.026-1.25-.9573-.7853.371.313.8955.1558 2.135-.3492 2.754-.5051.619-.1517.452.7853-.371 1.426-1.253 1.483-1.701.3492-2.754zm41.14 8c-.9333-.9333-1.467-.9333-2.4.0-.9333.9333-.6667 1.2 1.2 1.2s2.133-.2667 1.2-1.2zm-43.96-.1517c.6372.3938.7768.1878.3455-.5101-.8509-1.377-2.621-.5501-2.506 1.171.05651.8524.2229.8339.5854-.0652.2786-.6909.9876-.9589 1.576-.5955zm38.76 1.4c0-.4672-.662-.7522-1.471-.6335-2.331.3421-2.633 1.174-.486 1.335 1.08.1 1.96-.2 1.96-.7zm-37.11.8565c.7298-1.649 1.053-3.272.7177-3.607-.34-.4-.61.1-.61 1.1.0 1.003-1.224 2.146-2.939 2.743-1.781.621-2.741 1.542-2.435 2.337.8177 2.131 3.835.6508 5.266-2.583zm6.11 3c0-.55-.45-.7219-1-.382s-1 1.068-1 1.618.45.7219 1 .382 1-1.068 1-1.618zm-8 3.072c1.113-.7531.7903-.8502-1.25-.3763-1.73.4-2.75.2-2.75-.5.0-.6-.51-1.1-1.12-1.1-.7755.0-.7377.4636.1224 1.5 1.447 1.744 2.9 1.876 5 .4543zm8.493 1.057c.3615-.585-.08164-.7228-1.086-.3375-1.065.4086-2.197-.0338-3.042-1.188-.7398-1.012-1.62-1.564-1.956-1.228-.9281.9281 1.862 3.662 3.782 3.705.93.0209 1.966-.4068 2.302-.9505zm38.51 1.5c0-.2425-.45-.7191-1-1.059s-1-.1415-1 .441.45 1.059 1 1.059 1-.1984 1-.441zm-47.27 2.4c-.17-2.2-1.73-2.8-1.73-.7.0 1.2.89 2.7 1.6 2.7.1492.0.2034-.9.1205-2zm-3.001 4.02c.08204-1.089-.2736-2.242-.7902-2.561-.7281-.45-.7322 1.853-.0077 4.291.2551.8583.6708-.0432.7979-1.73zm47.99-1.237c.1838-2.292.1668-3.968-.03778-3.725-1.139 1.355-3.395 6.885-2.612 6.4.51-.4.93.2.93 1.1.0 3.369 1.389.2758 1.718-3.825zm-35.72.7c0-1.375.3876-2.5.8613-2.5s.6463 1.125.3834 2.5c-.2628 1.375-.6504 2.5-.8613 2.5-.21.0-.38-1.1-.38-2.5zm4.012 2.055c-.4286-1.9-.527-3.708-.2187-4.016.3083-.3083-.3954-1.451-1.564-2.54-1.24-1.155-2.379-1.567-2.736-.9894-.3365.5444-.04519.9898.6473.9898.9792.0.9924.2667.05902 1.2-1.86 1.86-1.424 4.873 1.05 7.262 2.951 2.849 3.716 2.321 2.762-1.906zm31.42 4.558c.3013-.4875-.3729-1.127-1.498-1.421-1.678-.4388-1.834-.2794-.8663.8863 1.381 1.664 1.632 1.721 2.364.535zm-17.8.8c.07406-.825.1866-2.27.25-3.211.06344-.9411 1.07-2.601 2.238-3.688l2.122-1.977-2.122.555c-1.618.4232-2.104.1116-2.043-1.312.04758-1.125.2849-1.353.5972-.5749.4236 1.056.8028 1.056 2.075.0.856-.7105 1.712-1.179 1.903-1.042.1905.1375 1.584.2051 3.096.1503l2.74-.2-2.5-.8c-1.745-.5588-1.958-.8308-.7062-.9003.9866-.0548 1.665-.6622 1.507-1.35-.1579-.6875.1599-1.25.7062-1.25s.9403.5048.8757 1.122c-.06705.64.7284.9005 1.852.6066 1.095-.2864 2.362.1036 2.852.8783.6961 1.099.8856 1.114.8976.072.0084-.7268-.6856-2.022-1.542-2.879-.8566-.8566-1.351-2.096-1.098-2.754.2791-.7274-.3846-1.128-1.692-1.023-1.183.0958-2.519-.3202-2.967-.9244-.4727-.6367-.595-.2577-.2909.9015.5335 2.034-3.92 8.307-5.076 7.151-1.18-1.3-4.32 1.3-4.32 3.5.0 1.246-.5339 2.799-1.186 3.451-1.89 1.89-2.134 5.551-.3242 4.856.83-.4 1.51-.2 1.51.3.0.4945-1.012 1.117-2.25 1.382-1.983.4259-1.953.4639.25.3196 1.412-.0925 2.559-.8168 2.635-1.664zm-10.63 3.6c0-.2162-.6984-.661-1.552-.9886-.8899-.3415-1.291-.1738-.941.393.58 1 2.49 1.4 2.49.6zm56.03 22.55c1.178-.3894 1.234-.1975.2796.9594-1.3 1.577-.6017 3.21 1.571 3.672 1.009.2143 1.185-.3207.6565-2-.3967-1.261-.9561-3.536-1.243-5.055-.6404-3.39-1.918-4.293-3.829-2.706-.7978.6621-2.562.9912-3.921.7314s-2.625-.0103-2.813.5545c-.1882.5647-.9201-.3683-1.626-2.073-.7063-1.705-1.821-3.306-2.478-3.558-1.394-.535-6.975 4.184-7.949 6.721-.9213 2.401-4.102 1.575-4.494-1.167-.34-1.2-.92-2.2-1.47-2.2-.54.0-.71-.4-.37-1 .3399-.55-.07495-1-.9219-1s-1.798-1.03-2.114-2.289c-.7986-3.182 1.112-7.708 3.262-7.726 1.354-.0117 1.458-.2159.4409-.8608-1.083-.6862-1.048-.9554.1854-1.429.8356-.3206 1.738-.0458 2.005.6108.2956.7266.5166.5872.5646-.3562.1-1.8-1.82-3.9-3.62-3.9-.7711.0-1.3 1.193-1.3 2.933.0 1.999-.6026 3.124-1.892 3.533-2.105.668-3.601 4.525-1.764 4.55.7399.01.676.3198-.1775.8608-1.074.6808-1.025.964.25 1.453.87.3 1.58 1.5 1.58 2.6.0 2.2 5.55 8 7.6 8 .6351.0 1.715-.675 2.4-1.5.6847-.825 2.626-1.5 4.314-1.5 2.9.0 2.962-.0787 1.128-1.433-1.498-1.105-1.671-1.707-.7583-2.633 1.387-1.407 4.657-.4535 4.106 1.198-.2074.6223.7328 2.396 2.089 3.942 1.911 2.178 2.863 2.599 4.228 1.868 3.055-1.635 3.863-1.084 3.382 2.307-.3611 2.543-.2953 2.722.3026.8241.4202-1.334 1.427-2.645 2.236-2.913zm1.702 6.234c-.3323-.3323-1.195-.3678-1.917-.0789-.7977.3192-.5608.5562.6042.6042 1.054.0434 1.645-.1929 1.312-.5252zm-6.074.7754c-.9-1-1.6-2.4-1.6-3 0-.7-.7-1.2-1.5-1.2-.825.0-2.4-.9-3.5-2s-3.064-2-4.365-2-3.509.9-4.908 2c-3.298 2.594-3.573 2.559-8.53-1.087-2.82-2.1-4.2-3.8-4.2-5.4.0-1.348-1.034-2.976-2.5-3.937-3.92-2.569-3.221-7.629 1.248-9.024 3.081-.9615 3.964-5.093 1.853-8.668-1.528-2.586-1.541-3.115-.144-5.816 1.645-3.182.5848-5.044-1.465-2.574-.69.8-2.06 1.5-3.05 1.5-2.28.0-5.95 4.6-5.95 7.4.0 3.1-1.88 4.6-5.77 4.6-1.851.0-4.278.4883-5.393 1.085-3.33 1.782-6.502.3625-7.221-3.233-.3491-1.746-1.532-3.802-2.628-4.57-1.09-.8-1.99-2.5-1.99-3.8.0-2.901-2.269-2.423-5.702 1.201-2.575 2.717-4.542 2.938-6.726.7531-1.96-1.96-1.981-3.399-.0858-6.105 1.314-1.876 1.314-2.187.0-2.691-2.422-.9294-1.831-6.216.9379-8.394 3.098-2.437 4.541-8.931 2.186-9.835-.94-.5-1.61-1.9-1.61-3.4.0-3.569.9914-4.45 2.583-2.294 1.145 1.551 1.292 1.417 1.384-1.266.1901-5.554.1173-6.988-.5102-10.05-.5343-2.608-.2499-3.222 1.959-4.229 1.95-.9 2.59-1.9 2.59-4.2.0-2.095.7534-3.492 2.5-4.636 2.68-1.7 3.37-4.4 1.15-4.4-2.13.0-4.65 3.4-4.65 6.3.0 2-.6192 2.808-2.516 3.284-1.384.3473-3.414.3968-4.511.1099s-3.304-.0274-4.904.5765c-2.236.8439-3.275.7945-4.489-.2133-1.77-1.5-2.17-7.1-.51-7.1.5967.0.7992.8449.4593 1.916-.3344 1.054-.1449 2.202.4212 2.552.5758.3559.804.0493.5181-.6959-.521-1.358 2.161-2.068 7.788-2.062 2.184.002 2.524-.2734 1.645-1.333-.788-.9495-1.637-1.053-2.938-.3567-2.78 1.5-3.46 1.2-3.46-1.4.0-1.322.3857-2.166.8571-1.875.4714.2914.5737-.3632.2273-1.455-.9422-2.969.3717-5.511 2.553-4.94 1.259.3294 1.867-.0491 1.877-1.169.01-1.4.14-1.4.98-.1.5332.825 1.033 1.162 1.11.75.07717-.4125.2528-1.2.3903-1.75s.3062-1.45.375-2c.1661-1.328 2.832-1.283 3.664.063.3613.5847-.0621 1.858-.941 2.829-1.78 2-2.15 5.1-.6 5.1.55.0 1-.4981 1-1.107.0-.6088.675-.848 1.5-.5314 1.011.3878 1.5-.0474 1.5-1.334.0-2.629 2.057-3.671 3.459-1.752.7864 1.075 1.617 1.289 2.598.6681.7933-.502 1.729-.9195 2.079-.928 1.214-.0292 1.624 6.492.4964 7.901-.9417 1.177-.6688 1.3 1.617.731 2.549-.6348 2.75-.4616 2.75 2.366.0 1.993-.6069 3.274-1.75 3.696-2.387.8806-3.217 2.297-3.235 5.523-.01156 2.062-.6189 2.882-2.479 3.349-2.767.6945-4.311 4.045-2.635 5.72 1.685 1.685 1.319 3.836-1.087 6.398-1.687 1.796-1.916 2.599-1 3.514 1.263 1.263 1.607 5.033.5555 6.085-.3472.3472-.7265 2.199-.8428 4.115-.1943 3.2.03509 3.508 2.815 3.785 2.377.2369 3.191.9192 3.79 3.178.4198 1.582 1.723 3.771 2.896 4.863 1.477 1.376 1.954 2.698 1.552 4.301-.6572 2.618 1.879 5.875 3.752 4.816 3.07-1.8 4.67-3.9 4.67-6.4.0-3.1 1.65-5 4.34-5 2.451.0 4.583-2.755 4.644-6 .07221-3.831 1.088-4.65 6.673-5.375 4.034-.5237 5.504-.3224 6.75.924 2.089 2.089 2.014 4.03-.2408 6.285-1.779 1.779-1.771 1.862.25 2.75 2.275.9998 3.295 4.82 1.794 6.721-1.293 1.637-.7739 10.31.7252 12.12 1.924 2.318.8565 5.921-2.185 7.374-3.675 1.756-3.48 4.546.4925 7.061l3.242 2.053 2.562-2.455c3.281-3.143 6.39-3.118 9.166.0755 1.934 2.224 2.721 2.452 6.502 1.885 2.712-.4066 4.819-.2162 5.7.515 1.963 1.629 3.147 12.69 1.563 14.6-1.696 2.043-6.333 1.846-8.324-.3544z"/></svg>