<svg xmlns:rdf="http://www.w3.org/1999/02/22-rdf-syntax-ns#" xmlns="http://www.w3.org/2000/svg" xmlns:cc="http://creativecommons.org/ns#" xmlns:dc="http://purl.org/dc/elements/1.1/" viewBox="0 0 473.3 241.2"><path fill="#000" d="m.6563 240.5c-.981-.981-.8134-27.12.1779-27.74.4645-.2871 9.164-.5745 19.33-.6387 26.92-.1699 30.52-.6055 31.71-3.843.6869-1.872.9817-2.094 1.038-.7812.04718 1.096.5819 1.599 1.329 1.251.6875-.3205 1.99-.8481 2.895-1.172 3.122-1.119-.2904-9.352-3.895-9.396-2.154-.0264-1.364 1.976 1.25 3.167 1.531.6975 2.486 1.949 2.465 3.229-.03513 2.072-.04586 2.071-1.25-.0912-.9858-1.77-1.57-1.982-3.102-1.124-1.38.7731-1.699.7526-1.187-.0764.3984-.6446-.08156-1.378-1.113-1.699-.9974-.3113-2.541-.9493-3.43-1.418-.8889-.4685-3.24-.4856-5.225-.038s-9.583.9297-16.88 1.071c-7.301.1416-15.75.304-18.78.361l-5.5.1036v-17.5c0-9.625.2988-18.62.664-20 .3652-1.375.7027 1.612.75 6.639l.08595 9.139 3.544.6648c1.949.3656 4.424.3854 5.5.0439s1.956-.1931 1.956.3299c0 1.366-3.821 2.17-7.149 1.504l-2.851-.5703v8.616 8.616l10.5-.0641 10.5-.0641.07028-4.177c.09433-5.606 1.393-8.969 2.455-6.36.4175 1.025.2463 2.311-.3927 2.95-2.015 2.015-1.429 6.623.768 6.048 2.103-.5499 3.272-4.449 1.95-6.501-.466-.7231-.6059-2.467-.3111-3.875.6836-3.265-2.062-5.891-6.662-6.371-9.113-.9507-11.46-2.957-4.777-4.086l4.101-.6928-3.601-2.968c-3.202-2.639-5.17-5.91-2.601-4.322.5672.3505 1-.4896 1-1.941.0-1.407-.5271-2.559-1.171-2.559-.6442.0-2.07-.7875-3.17-1.75-1.909-1.672-1.969-1.669-1.328.0836.4505 1.232.2603 1.697-.5804 1.417-2.103-.701-1.445-3.281.7493-2.937 1.1.1725 2.879.3061 3.954.2968 3.396-.0294 4.282 1.543 3.557 6.315-.6194 4.081-.4849 4.49 1.657 5.027 3.88.9737 3.195 5.313-.9186 5.824-2.808.3484-2.669.4251 1.014.5634 4.667.1752 10.85 3.579 11.58 6.376.2471.9437.09041 1.619-.3482 1.5-.4386-.1187-.7974.2342-.7974.7842s.405.8875.9.75.9 1.55.9 3.75c0 3.333.3333 4 2 4 2.126.0 3.097-8.204 1.115-9.429-.4866-.3007-1.08-1.879-1.319-3.506-.2389-1.628-.05757-2.727.4029-2.442.4605.2846 2.475-.4949 4.477-1.732 2.937-1.815 5.396-2.308 12.73-2.552 34.66-1.152 37.61-1.43 36.54-3.442-.7019-1.312-.6861-1.897.05131-1.897.5866.0 1.347.7315 1.69 1.626.5422 1.413 1.865 1.534 10.12.9289 7.374-.5413 9.679-.402 10.33.6244 1.18 1.86 1.073 8.577-.148 9.331-2.136 1.32.1946 2.324 3.07 1.321 1.655-.577 4.458-.83 6.228-.5621 1.794.2714 4.466-.15 6.036-.9519 1.55-.7914 3.35-1.222 4-.9571.6726.2741.4807.5158-.4454.5607-.8952.0434-2.188.754-2.872 1.579-.6999.8434-3.052 1.552-5.372 1.618-2.27.0651-5.478.4762-7.128.9137-1.754.4649.3237.5584 5 .225 9.097-.6487 8.099-.6227 15.92-.4145 6.057.1613 7.041 1.49 1.281 1.729-20.39.8483-25.7 1.634-25.58 3.788.1026 1.894.1719 1.922.6013.2456.3881-1.516.6578-1.616 1.347-.5014.8453 1.368 25.05 1.596 30.44.2869 1.542-.3746 1.656-.2762.5.4294-1.452.8862-18.6 2.388-28.23 2.472-4.378.0384-4.686.2056-4.169 2.266.307 1.223.0717 2.525-.5228 2.892-.5946.3675-1.081 1.441-1.081 2.386.0 1.397-.7935 1.666-4.25 1.444-3.242-.2088-3.776-.0538-2.25.6533 2.524 1.17-3.871 1.558-25.74 1.564-17.14.004-20.55-.8293-7.507-1.835 4.538-.3498 10.28-.8248 12.75-1.056 2.475-.2309 8.55-.5406 13.5-.6881 11.97-.3568 11.5-.0579 11.5-7.381v-6.249l-10.34-.5277c-6.948-.3546-11.29-1.07-13.25-2.18l-2.91-1.653 4 .5075c2.2.2791 7.407.8045 11.57 1.168 12.97 1.13 16.23-3.418 3.919-5.458l-5.491-.9095 6.5-.2799 6.5-.2799-5.5-.674-5.5-.674 4.5-.3001c2.475-.165 5.25-.3001 6.166-.3002 1.059-9e-5 1.459-.5386 1.099-1.478-.4399-1.146-1.599-1.332-5.166-.8288-2.529.3571-13.37 1.075-24.1 1.596-22.01 1.068-33.68 1.916-36.25 2.632-2.623.7318-2.107 2.353.75 2.353 1.375.0 2.5.3407 2.5.7572s-2.082.5916-4.628.3892c-3.214-.2556-4.418-.0287-3.941.7428.3776.611 3.022 1.184 5.878 1.274l5.191.163-5.5.7435c-3.59.4852-.5502.6438 8.75.4566 7.838-.1578 14.25.1093 14.25.5935.0.9381-1.801 1.068-17.5 1.259l-10 .1217-.2975 4-.2975 4 9.487-.3172 9.487-.3172 1.56 3.018c.8582 1.66 1.56 4.185 1.56 5.613.0 2.859-5.071 8.792-5.756 6.735-.296-.888-.8034-.8134-1.895.2784-.9655.9655-3.669 1.535-7.67 1.616-32.37.6538-42.18 1.382-42.1 3.125.04583.9625.1583 6.549.25 12.42l.1667 10.67 132.8-.6796c73.01-.3738 178.2-.7856 233.8-.9152l101-.2356v-15.75c0-21.03 1.826-20.43 2.52.8317.2859 8.756.3503 16.48.143 17.17-.4088 1.356-471.1 1.937-472.5.5833zm155.2-43.5c.5504-1.448.692-2.976.3146-3.395-.3774-.4197-.1663-.4658.469-.1024.7936.4539 1.482-1.609 2.2-6.59l1.044-7.25-.4119 6.75c-.4119 6.75-.4119 6.75 2.301 6.765 1.492.008 3.387.4515 4.212.9847 1.109.7166.4737.9734-2.436.9847-2.682.0104-4.693.7272-6.315 2.25l-2.379 2.235 1.001-2.632zm29.13.6097c-.825-.1762-3.638-.6016-6.25-.9453-2.612-.3436-4.75-.9866-4.75-1.429.0-.8966 6.46-.5109 15.4.9192 3.243.519 6.281.7065 6.75.4165.4691-.2899.8529-.0506.8529.5319.0.9708-8.205 1.317-12 .5066zm269.5-3.094c-10.22-1.218-12.25-1.756-13.68-3.627-.9249-1.208-1.451-2.428-1.168-2.71.2824-.2824 1.074.2538 1.76 1.191 1.55 2.12 8.489 3.783 15.09 3.617l5-.1258-4.5-.7193c-3.25-.5195-1.723-.6861 5.5-.5998 9.567.1143 10.01.2168 10.32 2.369.384 2.704-.464 2.732-18.32.6038zm-438.5-1c0-.8765.9-1.829 2-2.117 1.1-.2877 2-1.109 2-1.825.0-.7159.3147-2.126.6992-3.133.5328-1.396-.08051-1.177-2.577.9182-3.517 2.952-5.194 3.317-8.098 1.763-2.134-1.142-1.688-4.545.7172-5.467 2.326-.8924 3.003.4367.9774 1.918-1.628 1.19-1.638 1.354-.1217 1.936 1.654.6345 4.18-.7671 5.714-3.17.4463-.6991 1.203-1.029 1.681-.7337.4782.2955 1.152.08 1.498-.479 1.866-3.019 3.176 2.871 1.384 6.22-.6194 1.157-.5881 1.764.0911 1.764.5694.0 1.035.9 1.035 2 0 1.619-.6667 2-3.5 2-2.536.0-3.5-.439-3.5-1.594zm179-3.656c.001-.4125 2.14-.755 4.752-.761 8.176-.0189 12.25-1.037 12.25-3.062.0-1.643-.6718-1.749-7.25-1.14-10.3.9534-15.01.8652-15.4-.2877-.2079-.6174 4.236-1.132 11.62-1.345l11.95-.3449.6697 2.668c.3683 1.467.2751 3.054-.2071 3.525-1.095 1.07-18.38 1.773-18.38.7472zm272.1-3.138c-1.616-3.02-.7911-5.612 1.786-5.612 2.563.0 4.381 2.372 3.981 5.195-.4686 3.305-4.081 3.566-5.767.4168zm-398.6-.5c.6378-1.032-2.175-1.466-7.668-1.184-1.481.0761-2.97-.3104-3.309-.8589-.3966-.6417 3.059-.9466 9.693-.8553 7.55.1039 9.239.3336 6.309.8581-2.501.4478-3.094.7694-1.583.8581 2.914.1711 2.541.6304-1.25 1.541-1.859.4465-2.613.3229-2.191-.3593zm67.5-2.088c-.7888-1.474-1.675-1.864-3.16-1.393-1.463.4643-1.848.3052-1.322-.5461.4083-.6607 1.841-.9913 3.183-.7347 1.873.358 2.306.1143 1.86-1.047-.4877-1.271-.329-1.305.9893-.2107 1.255 1.041 1.31 1.475.2729 2.16-1.01.6677-.8681 1.185.6438 2.338 1.656 1.264 1.698 1.481.2852 1.481-.9108.0-2.149-.9216-2.752-2.048zm-70.97-3.968c11.16-1.074 23-1.109 23-.0666.0.5186-6.624.8891-15.25.8528-12.78-.0538-14.04-.181-7.75-.7862zm366.6.2589c-.2575-.4167-.76-2.554-1.117-4.75-.3566-2.196-.856-5.005-1.11-6.242-.2538-1.238-.0662-2.25.4169-2.25s1.305 3.15 1.826 7c.9289 6.862.9265 7.768-.0163 6.242zm-408.6-6.2c-1.626-2.283-1.846-3.586-1.216-7.176l.7709-4.386 5.45.1775c4.051.132 4.808-.035 2.95-.6503-2.346-.7768-2.284-.8421 1-1.059l3.5-.2313-3.5-.7558c-2.282-.4928.1539-.7079 7-.6184 10.46.1369 10.5.146 10.23 2.542-.146 1.322.3732 3.122 1.154 4 1.454 1.634 1.414 6.707-.06403 8.155-.4533.4441-5.099.9146-10.32 1.046-5.225.131-10.73.5776-12.23.9926-2.297.6337-3.053.3078-4.721-2.035zm5.64-3.912c1.201-.6323 3.312-1.15 4.691-1.15s2.785-.45 3.125-1c.3399-.55 1.604-1.06 2.809-1.134 2.703-.1648-6.581-1.658-11.06-1.779-3.173-.0855-3.25.0132-3.235 4.162.0084 2.338.3459 3.755.75 3.15.4041-.6052 1.718-1.618 2.919-2.25zm13.61.8238c2.56-2.99-.1218-3.655-6.469-1.605-2.778.8973-5.648 1.631-6.377 1.631-.7294.0-1.604.45-1.944 1-1.337 2.163 12.91 1.174 14.79-1.026zm4.916-7.738c-.6016-.2005-.8888-.898-.6383-1.55.3286-.8551-1.011-1.058-4.806-.7284-4.067.3532-4.581.5609-2.262.9146l3 .4576-3 .6464-3 .6464 3.68.48c2.024.264 3.46.124 3.191-.311-.2689-.4351.2268-.791 1.102-.791.8747.0 1.884.7648 2.243 1.699.5079 1.323.7553 1.39 1.119.3.2566-.7697-.02574-1.564-.6273-1.764zm93.28 11.9c-.5429-1.026-2.286-4.282-3.873-7.235-1.737-3.231-2.241-4.834-1.265-4.024.8914.7398 2.599 3.303 3.794 5.696 1.606 3.215 2.708 4.296 4.224 4.14 1.26-.1292 2.192.4649 2.416 1.54.5093 2.446-3.992 2.348-5.295-.1162zm60.09.9852c-.5603-.9066-.78-7.879-.3739-11.87.2294-2.255 1.8-3.238 1.8-1.128.0.7755.4636.7377 1.5-.1224 1.829-1.518 1.948-3 .2406-3-1.821.0-3.982-3.733-2.641-4.561 1.587-.9806 10.1 1.586 12.54 3.784 1.643 1.476 2.265 1.616 2.671.6008.367-.9184.5529-.9516.6077-.1083.0434.6682-.856 1.715-1.999 2.327-1.143.6115-1.859 1.682-1.591 2.379.3355.8744-.2603 1.124-1.922.8067-1.325-.2532-2.409-.8439-2.409-1.312.0-.4686.7875-.6101 1.75-.3144s.625-.1524-.75-.9959c-2.477-1.519-2.479-1.534-.25-1.569 1.238-.0195 2.25-.4854 2.25-1.035.0-.55-.675-1-1.5-1-2.092.0-2.659-.1172-5.5-1.136l-2.5-.8968 2.453 1.924c2.725 2.137 1.724 7.109-1.431 7.109-2.1.0-1.939 3.954.2286 5.642 1.379 1.074 1.414 1.247.1667.8172-.996-.3432-1.583.0269-1.583.9976.0 1.968 2.049 1.992 3.667.043.6847-.825.895-1.5.4675-1.5-.4276.0.0467-.9106 1.054-2.024 1.404-1.551 1.557-2.298.655-3.2-.647-.647-1.176-1.862-1.176-2.699.0-1.249 1.478.302 3.462 3.633.5928.9954 4.508-1.361 5.072-3.053.7194-2.158.7194-2.158 1.161.0837.2428 1.233 1.308 2.848 2.367 3.59 1.059.7417 1.628 1.646 1.265 2.009-1.026 1.026-2.053.7914-3.686-.8414-2.326-2.326-7.127-.2748-5.681 2.427 2.211 4.131 1.392 5.075-4.401 5.075-2.993.0-5.686-.3965-5.986-.8811zm-70.63-4.22c-1.246-2.328-1.293-5.995-.0517-4.036.7291 1.151.939 1.151 1.348.0.675-1.901 1.628-.7626 2.339 2.793.6932 3.466-1.96 4.373-3.635 1.243zm12.8-1.007c-2.498-1.416-2.3-4.27.25-3.603 1.627.4255 2.003.0277 2.015-2.133.012-2.082.2248-2.332.9847-1.156.6131.9487.975 1.052.9847.2814.008-.6702.6903-.9596 1.515-.643 1.119.4296 1.496-.1493 1.485-2.281-.0119-2.212-.2341-2.518-.9847-1.357-.7861 1.216-.9723 1.081-.9847-.7186-.0108-1.564.427-2.049 1.485-1.643.975.3742 1.5 1.927 1.5 4.437.0 2.808-.3639 3.722-1.334 3.35-.8694-.3336-1.305.2365-1.25 1.637.1115 2.85-3.312 5.164-5.666 3.83zm86.91-2.718c-.4627-1.279-.6135-2.553-.3351-2.832.2784-.2784-.1305-2.03-.9087-3.893-1.928-4.614-1.78-5.22.6392-2.623 1.594 1.711 1.986 3.265 1.75 6.939-.2519 3.92-.4487 4.334-1.145 2.408zm66.46-2.7c-3.962-15.94-5.068-17.91-6.973-12.45-1.028 2.948-1.192 3.014-6.348 2.552-13.26-1.189-29.15-4.681-36.41-8.002-5.146-2.356-5.146-2.356-5.016-6.96.0939-3.322.5477-4.63 1.63-4.696.825-.0506.1726-.4885-1.45-.973-1.622-.4845-3.16-.6709-3.417-.414-.2568.2568.0581.4669.6997.4669 3.073.0.6935 1.688-2.583 1.832-7.093.3132-25.72.0263-26.15-.4027-.2362-.2362 3.54-.4295 8.392-.4295 8.822.0 8.822.0 6.94-2.08-1.36-1.503-2.64-1.928-4.616-1.533-2.797.5594-4.836-.809-2.568-1.723.8521-.3435.7643-.5319-.273-.5854-.8411-.0434-2.113.7304-2.825 1.719-1.111 1.542-2.57 1.757-10.22 1.508-7.373-.2396-8.925-.0308-8.925 1.202.0.8204-.4981 1.492-1.107 1.492-.6088.0-.848-.675-.5314-1.5.42-1.095-.1591-1.528-2.143-1.602-2.719-.1024-2.719-.1024.2814-.8218 1.65-.3957 5.588-.6164 8.75-.4905 5.263.2096 5.76.0463 5.866-1.928.0909-1.691.2149-1.779.5733-.4072.3312 1.267 1.471 1.749 4.134 1.746l3.677-.004-3.274-1.996c-1.801-1.098-4.051-2.003-5-2.012-.9492-.008-2.386-.4327-3.192-.9428-.9251-.5851-1.929-.5433-2.72.1132-3.121 2.59-12.72-.5297-12.79-4.155-.0172-.9731-.9924-1.486-2.776-1.461-1.512.0217-2.75-.3158-2.75-.75s-1.238-.8507-2.75-.9256c-2.38-.1179-2.445-.1948-.4852-.5715 1.246-.2394 2.006-.8548 1.689-1.367-.3169-.5127-1.635-.6665-2.928-.3418-1.62.4067-3.001-.0589-4.439-1.496-1.148-1.147-3.368-2.086-4.934-2.086s-3.91-.9216-5.208-2.048c-4.042-3.506-9.287-2.376-9.502 2.048-.2759 5.676-.3765 6-1.859 6-.7792.0-1.644-.5625-1.921-1.25-.3968-.9834-.5212-.9781-.5833.0248-.0434.7011.9847 1.679 2.285 2.173 2.628.9991 4.036 3.614 2.905 5.392-.7272 1.143-.8968 1.686-1.144 3.66-.0687.55-1.362.9994-2.875.9987-2.624-.001-7.166-7.067-7.282-11.33-.0981-3.614-2.244-4.178-14.72-3.863-6.771.1707-12.25.7298-12.25 1.25.0.5177-.7875.9861-1.75 1.041-4.829.2751 4.192 1.713 11.3 1.801 4.428.0548 8.478.5116 9 1.015.5225.5034 1.85 1.124 2.95 1.379s.2.2357-2-.0428-7.687-.5615-12.19-.6289c-12.65-.1891-8.244 1.778 5.491 2.452 6.436.3161 11.48.6832 11.2.8158-2.32 1.119-25 1.04-25-.0863 2e-5-1.041-4.991-1.274-24.75-1.154-30.24.184-28.25.0625-28.25 1.727.0.7576-.7593 1.995-1.687 2.75-1.796 1.461-1.803 1.598.1687-3.3.9939-2.469-1.494-1.769-5.544 1.561-1.89 1.554-2.586 2.542-1.546 2.196 1.602-.5331 1.698-.3964.6276.8935-1.393 1.679-3.504 2.117-2.519.5229.9592-1.552-1.179-1.178-2.857.5-1.591 1.591-7.643 2.096-7.643.6387.0-.4737 1.071-.6566 2.38-.4064 2.866.5479 10.19-4.424 12.96-8.797 1.858-2.935 1.858-2.935 13.51-3.015 26.71-.1844 44.66-2.489 21.31-2.736-14.77-.1561-16.62-.3718-19.25-2.246-1.602-1.141-2.912-1.593-2.912-1.006.0.5874-.6375 1.068-1.417 1.068-.7792.0-1.644.5625-1.921 1.25-.4035 1-.5202 1-.5833.0-.04342-.6875-.7539-1.25-1.579-1.25-.825.0-1.411-.3375-1.302-.75.5109-1.934-1.743-5.748-5.294-8.955-3.67-3.315-5.519-6.625-2.607-4.667.7134.4798.4386.0849-.6108-.8776s-2.519-1.75-3.266-1.75c-.8484.0-1.139.6566-.7753 1.75.3204.9625-.551.4001-1.936-1.25-1.577-1.879-2.123-3.244-1.461-3.654.582-.3597-.1354-.5848-1.594-.5003-2.873.1666-3.904 3.96-1.343 4.943 2.201.8446.9044 7.711-1.456 7.711-1.596.0-1.748.3323-.8879 1.939.7237 1.352.7147 2.139-.0297 2.599-1.465.9052-7.709-.3595-8.558-1.733-.4799-.7765.2549-.9283 2.409-.4974 2.515.5031 3.217.2498 3.723-1.344.3428-1.08 1.38-2.023 2.306-2.095.9254-.0724.1076-.4099-1.817-.75-2.17-.3833-3.5-1.189-3.5-2.118.0-.825-.4443-1.818-.9874-2.206-.5431-.3882-.03001-.6336 1.14-.5455s1.948.6307 1.729 1.206c-.2194.575.9551 1.14 2.61 1.255 1.966.137 3.009-.2593 3.009-1.143.0-1.575-2.156-2.567-5.582-2.567-1.56.0-2.418-.5735-2.418-1.617.0-1.178.6107-1.463 2.25-1.05 2.047.5156 2.092.4484.5-.7436-1.778-1.332-2.525-4.187-.8191-3.133.512.3164 1.227.0961 1.589-.4895.3847-.6225 1.14-.7077 1.819-.205 1.276.9449 5.763.8474 9.661-.21l2.5-.6782-2.311 1.38c-2.162 1.292-1.809 1.457 5.5 2.569 7.285 1.109 21.95 1.502 18.05.484-.9692-.2528-1.505-.8756-1.191-1.384.3142-.5084-.0178-.9312-.7378-.9396-.9583-.0112-.9115-.2667.1746-.9534 1.434-.9069-.1875-1.893-7.033-4.275-.8519-.2965-2.055-2.189-2.674-4.206-.8553-2.787-.8436-3.568.0489-3.255.6458.2265 1.038 1.171.8708 2.1-.2548 1.418-.0012 1.499 1.583.5098 2.171-1.356 2.592-4.262.5015-3.46-.7619.2924-1.129.1174-.8164-.3889.3129-.5063-.6762-1.109-2.198-1.339l-2.767-.4182 2.973-.1498 2.973-.1498-2.466-1.727c-3.231-2.263-4.193-2.34-6.53-.5207-1.603 1.248-1.64 1.41-.2094.9176 1.298-.447 1.904.0904 2.388 2.115.3564 1.493 1.1 3.288 1.652 3.988.75.9513.5888 1.114-.6379.643-.9028-.3464-1.641-1.032-1.641-1.523.0-.4912-.4875-.893-1.083-.893-.5958.0-.8938.5625-.6622 1.25s-.2934 1.798-1.167 2.468c-1.133.8696-1.213 1.227-.2788 1.25 2.373.0576.1268 2.032-2.311 2.032-1.33.0-3.072.9825-3.941 2.223-1.28 1.827-1.557 1.916-1.557.5.0-2.256-2.72-2.233-3.311.0275-.3441 1.317-.486 1.193-.5733-.5-.0638-1.238.334-2.25.884-2.25s1-.6139 1-1.364c0-.7504 1.688-2.078 3.75-2.949l3.75-1.585-3.689.5492c-4.209.6268-9.343-1.849-6.275-3.026 3.147-1.207 7.109-.6031 9.275 1.415 1.753 1.634 2.189 1.733 2.189.5.0-.8464.45-1.539 1-1.539s1-.45 1-1-.9266-1-2.059-1-1.784-.4448-1.448-.9886c.342-.5534-.03149-.742-.8484-.4285-2.062.7914-10.26-3.083-8.643-4.084.9489-.5865.8374-1.009-.4575-1.734-1.189-.6652-1.53-1.686-1.116-3.335.4538-1.808.2498-2.244-.8527-1.82-.8373.3213-1.193 1.224-.8424 2.137.4016 1.047.2112 1.337-.5631.8582-.6435-.3977-1.17-.2465-1.17.336s.765 1.059 1.7 1.059c1.257.0 1.408.2924.577 1.123-.8306.8306-1.899.5703-4.104-1-1.64-1.168-3.812-2.129-4.827-2.136-1.015-.0071-4.771-.9738-8.346-2.148-3.669-1.205-8.569-2.049-11.25-1.937-3.492.1461-4.75-.1708-4.75-1.197.0-1.697-3.167-4.705-4.954-4.705-.9145.0-1.115.9073-.6802 3.08.4422 2.211.2659 2.965-.625 2.673-1.753-.5756-2.038-4.6-1.24-17.5.659-12.11 1.019-12.79 4.628-9.04 2.136 2.217 3.266 2.421 16.77 3.025 20.56.9201 21.05 1.038 24.02 5.782 2.796 4.466 4.107 2.902 1.944-2.319-1.72-4.153-.2235-5.457 4.361-3.799 1.927.6969 3.33 1.755 3.117 2.351-.2129.596.3925 2.061 1.345 3.256 2.225 2.791 20.86 4.45 21.83 1.943.2993-.78 1.526-1.751 2.725-2.158 1.763-.5982 1.318-.8567-2.319-1.349-6.241-.844-10.25-.2108-9.591 1.514.5751 1.499-4.003 1.967-5.982.6124-4.878-3.34-1.12-6.303 6.573-5.182 3.025.4407 8.286.8341 11.69.8742 3.405.04015 6.499.5712 6.875 1.18.4605.745-.01084.8865-1.441.4326-1.261-.4002-2.125-.2404-2.125.3929.0.5871.675 1.067 1.5 1.067 1.205.0 1.535 1.719 1.68 8.75l.1802 8.75.5698-7.5.5698-7.5 4 .0477c19.99.2383 24.02 1.419 23.04 6.752-.311 1.7-.1252 2.561.4729 2.191.5417-.3348.9849-.1322.9849.4503s-.45 1.059-1 1.059-.9857.7875-.9682 1.75c.0284 1.562.1957 1.535 1.556-.25 1.03-1.352 1.323-3.085.9044-5.348-.4156-2.246-.2694-3.132.4442-2.691.6255.3866 1.112-.2938 1.18-1.652.0923-1.837.2131-1.932.5912-.4662.3191 1.237 1.102 1.679 2.384 1.344 1.477-.3862 1.909.0304 1.909 1.841.0 1.785-.6522 2.439-2.75 2.757l-2.75.4166 2.75.1498c2.181.1188 2.75.6382 2.75 2.51.0 1.298.2862 4.448.6359 7l.6359 4.64h-4.136c-3.266.0-4.139-.3679-4.151-1.75-.0119-1.356-.2078-1.446-.8707-.4002-.6888 1.087-3.614 1.208-15.02.62-15.67-.8075-16.42-1.171-16.06-7.787.3714-6.866-.0703-14.68-.8296-14.68-1.493.0-3.517 7.478-3.659 13.52-.1757 7.476-.9353 8.851-4.401 7.967-1.452-.3703-7.716-.6357-13.92-.5898-13.05.0965-13.15.0123-13.3-10.71-.04342-3.127-.3154-5.094-.6044-4.372-.3622.9051-1.391.3433-3.312-1.808l-2.786-3.121-.7184 8.115c-.7086 8.004-.2076 10.76 1.464 8.059.6405-1.036.9403-.7833 1.196 1.009.2372 1.665 1.253 2.65 3.341 3.242 1.65.4674 4.35 1.29 6 1.829 1.65.5385 4.295 1.164 5.878 1.389 1.583.2254 3.929 1.099 5.215 1.941 3.028 1.984 5.079 1.941 6.239-.1315.8426-1.506.9883-1.481 1.54.258.8667 2.731 9.625 2.135 10.37-.7055.7851-3.002 4.261-2.414 4.261.7217.0 2.393.2722 2.565 3.25 2.059 1.788-.3035 5.05-.1804 7.25.2737 3.606.7442 3.288.8369-3.219.9406-6.087.097-7.125.3584-6.623 1.668.3411.8888 1.504 1.423 2.719 1.25 1.325-.189 2.509.4491 3.151 1.697 1.876 3.649 20.87 5.927 21.73 2.607.354-1.354-.0425-2.464-1.105-3.091-1.421-.8401-1.451-1.115-.2068-1.93 1.059-.6945.2497-1.057-3-1.344l-4.45-.3926 4.231-.1747c3.611-.1491 4.323-.5408 4.858-2.675.8621-3.435 9.004-3.773 10.24-.4258.422 1.141 1.083 2.041 1.468 2 3.432-.3634 3.752 1.354.4505 2.418-2.139.6892-2.101.7634.75 1.498 3 .7733 3 .7733.309.8916-2.83.1244-5.059 2.118-2.368 2.118.8924.0 1.559.8552 1.559 2 0 2.661 10.28 2.958 13.13.3787 2.701-2.445 4.96-1.099 4.236 2.523-.5384 2.692-.2491 3.122 3.017 4.487 3.957 1.653 4.08 1.871 2.605 4.627-1.137 2.125 2.737 4.469 8.599 5.204 2.726.3418 3.061.1156 2.838-1.916-.2908-2.649-.3733-2.613 3.006-1.328 1.588.6037 2.565 1.747 2.565 3 0 1.114.6457 2.025 1.435 2.025.7892.0 2.702.5235 4.25 1.163 4.183 1.728 7.982 1.829 7.982.2113.0-.756-.375-1.375-.8333-1.375s-.8333-.675-.8333-1.5-.5625-1.537-1.25-1.581c-.6875-.0447.1-.6783 1.75-1.408 3.619-1.601 5.301.124 3.465 3.554-.6156 1.15-.7977 2.844-.4046 3.763.5941 1.39.8433 1.25 1.477-.8281.7291-2.39.7671-2.401.8624-.25.0708 1.598.717 2.25 2.231 2.25 2.18.0 2.319-3.265.3505-8.242-.4763-1.204-.1169-1.926 1.165-2.341 4.577-1.479 6.179-2.711 5.587-4.294-.5153-1.378-.3646-1.426.9941-.3225.8808.7157 2.653 1.208 3.937 1.094 4.721-.418 15.15.1239 14.52.7544-.3576.3576-3.319.5701-6.58.4722-5.694-.1709-5.907-.0884-5.341 2.074.3239 1.239.7347 1.814.9129 1.278.1782-.5358 3.812-.9391 8.075-.8961s6.963-.1025 6.001-.3233c-2.517-.5773-2.154-2.151.75-3.255 1.375-.5228 2.5-1.337 2.5-1.809s.675-.8581 1.5-.8581 1.5.825 1.5 1.833c0 5.239 9.843.8468 12.53-5.594 1.516-3.627 2.776-4.132 7.297-2.922 1.659.4442 2.19 1.161 1.844 2.486-.2924 1.118.0377 1.862.8258 1.862.7943.0 1.118-.7454.8193-1.887-.6565-2.51.6362-3.157 4.922-2.461 2.969.4818 3.653 1.074 4.158 3.596.6436 3.218 6.789 9.752 9.172 9.752 1.938.0 1.803-1.111-.711-5.82-3-5.62-2.163-7.162 3.312-6.104 2.38.46 6.24.8559 8.577.8799 4.526.0464 4.557.0918 4.271 6.289-.1051 2.275.4457 4.364 1.403 5.321 1.401 1.401 1.409 1.743.0761 3.076-.825.825-1.5 1.968-1.5 2.54.0 1.375 7.248.0304 8.217-1.524.5314-.8527 1.191-.8677 2.502-.0567 1.02.6308 2.635.7676 3.781.3203 1.133-.4425 1.386-.8117.5833-.8515-.7792-.0387-1.093-.3944-.6964-.7906.3962-.3962 2.271-.5867 4.167-.4234 3.446.2969 3.446.2969 3.446-4.28.0-3.401-.3852-4.577-1.5-4.577-2.851.0-1.171-3.521 2-4.191 1.1-.2323-.925-.543-4.5-.6904s-7.85-.3469-9.5-.4433c-2.697-.1576-3.032.153-3.313 3.075-.2328 2.414.0886 3.25 1.25 3.25.8672.0 1.563.8429 1.563 1.893.0 1.041.7035 2.163 1.563 2.493.8599.33 1.304 1.019.9878 1.531-.3166.5122.2174 1.138 1.187 1.391 1.39.3627 1.305.4842-.4044.5757-1.192.0638-2.394-.4465-2.671-1.134-.3013-.7467-.5362-.5454-.5833.5-.0889 1.97-.8889 2.165-3.079.75-1-.6462-1.083-.9745-.25-.9847.7298-.009 1.25-1.315 1.25-3.138.0-2.662-.2211-2.939-1.5-1.878-1.305 1.083-1.5.4601-1.5-4.798.0-6.894 1.967-8.254 8.993-6.215 1.921.5574 5.521 1.02 8 1.029 5.521.0188 7.466 1.119 6.759 3.823-.4412 1.687-.2485 1.867 1.107 1.035 1.05-.6451 4.881-.7136 10.64-.1902l9 .8178.2889 8.75c.2174 6.584-.0301 8.775-1 8.852-1.959.1553-19.26-.2515-19.47-.4578-.1016-.0993-.338-1.297-.5253-2.662s-.6695-3.006-1.072-3.647c-.402-.6405-.2421-1.328.3553-1.527.6063-.2021.92-1.897.71-3.835l-.3763-3.473-1.154 2.685c-.6349 1.477-1.263 4.788-1.396 7.358l-.2419 4.672-16.56-.3951-16.56-.395 2.5 2.642c5.077 5.364 6.777 7.841 5.643 8.219-1.411.4703 1.642 3.702 3.535 3.743 3.249.0692 12.12 3.672 10.89 4.426-1.039.6422-1.026.964.0697 1.67 1.131.7293 1.116 1.03-.0911 1.806-1.757 1.13 1.459 1.991 6.948 1.86 4.785-.1142 11.19 1.221 13 2.711 1.392 1.143 10.78 3.289 24.03 5.491 3.044.5058 8.186 1.61 11.43 2.454 6.36 1.657 6.559 1.626 6.952-1.052.4328-2.949 2.588-2.842 2.588.1292.0 2.442.2547 2.626 2.75 1.979 1.512-.3918 9.388-.6456 17.5-.5642 14.75.1481 14.75.1481 14.77-2.146.0123-1.848.2038-2.003.9847-.7942 2.966 4.59 1.874 5-13.31 5-11.56.0-14.68.3036-16.25 1.582-1.916 1.561-1.915 1.573.0471.94 1.984-.6404 1.984-.6379.0 1.26-2.162 2.068-4.983 1.229-5.893-1.753-.2565-.8407-.3967-.4036-.3116.9714s-.1954 3.062-.6234 3.75c-.5442.8742-.0265 1.25 1.722 1.25 3.286.0 4.4 1.955 2.08 3.652-1.433 1.048-2.012 1.076-2.598.1273-.415-.6715-1.049-.9264-1.409-.5665-1.168 1.168.6021 2.788 3.046 2.788 1.31.0 2.634.4078 2.942.9061.308.4984 1.572.7141 2.809.4795 2.096-.3977 2.113-.3622.249.5236-1.622.7706-1.685.9635-.3318 1.021.9175.0387 2.339.3278 3.16.6426.9421.3615 1.734-.191 2.149-1.5.6184-1.948 1.393-2.072 12.95-2.072h12.29l-.4779-2.5c-.3691-1.931-.053-2.514 1.389-2.563 1.57-.0533 1.509-.2069-.3834-.9678-2.856-1.148-2.96-2.329-.1252-1.429 2.84.9015 3.487-.4574 2.959-6.215-.4142-4.513-.4934-4.631-1.227-1.824-.5874 2.246-.6595 1.869-.287-1.5.2737-2.475 1.073-4.95 1.776-5.5.7032-.55 1.574-1.788 1.935-2.75.7312-1.949 8.108-2.549 9.219-.75.3399.55 1.518 1 2.618 1s1.724.4474 1.386.9941c-.3379.5468.6225 2.616 2.134 4.598 2.915 3.822 5.033 16.56 2.492 14.99-.6216-.3842-1.13-2.152-1.13-3.928.0-8.878-12.87-21.7-14.71-14.65-.2877 1.1-1.176 2-1.974 2-1.521.0-1.006 3.52.7964 5.45.4882.5225.8876 1.621.8876 2.441.0 1.112-.3638.9972-1.43-.45-1.305-1.772-1.401-1.552-1.103 2.524.3312 4.533 2.056 6.636 2.74 3.34.3078-1.484.4888-1.387 1.017.5484.5834 2.135.3745 2.314-2.252 1.929-1.861-.2731-3.085.0697-3.426.9596-.2922.7615-.9777 1.109-1.523.7715-.6172-.3814-.7674.5102-.3975 2.36.5354 2.677.3103 3.018-2.265 3.429-1.573.2508-.1596.3979 3.14.327 5.472-.1176 6.029-.3333 6.329-2.451.296-2.089.0135-2.273-2.808-1.828-2.361.3721-2.891.1979-2.142-.7042 2.57-3.097 6.12-1.811 6.12 2.217.0 5.922-1.816 10.3-3.843 9.259-2.941-1.508-34.16-3.672-34.16-2.367.0.9989-9.197 3.382-9.99 2.589-.6434-.6434 2.945-2.676 5.429-3.076 2.661-.4283 3.036-.9892 1.722-2.572-1.14-1.373-6.685-1.176-8.661.3075-.55.4129-1.9.417-3 .009s-2.978-.3767-4.173.0694c-1.501.5603-2.555.35-3.41-.6802-.6807-.8202-1.889-1.241-2.684-.9361-1.456.5586-18.44-1.167-21.23-2.158-2.058-.7293-6.714-1.097-18.75-1.48-11.68-.3718-11.12-.9422-8.666 8.86.8709 3.473 1.4 6.865 1.175 7.538-.2245.6735-.9646-1.014-1.645-3.75zm-9.375-16.06c-.2474-1.294-.1483-2.166.2202-1.938.3684.2277 1.244-3.048 1.945-7.28.7012-4.232 1.779-9.609 2.394-11.95 1.478-5.619.7151-6.249-11.8-9.741-26.2-7.313-26.72-7.286-28.6 1.497-.4124 1.925-1.492 6.2-2.399 9.5-3.655 13.3-4.095 12.74 13 16.53 6.112 1.355 19.27 4.921 22 5.963 2.735 1.043 3.773.2183 3.239-2.576zm72.73.9208c1.795-1.214 1.811-1.334.1826-1.334-1.309.0-1.626-.5152-1.182-1.916.7464-2.352-.5147-3.213-4.737-3.236-3.344-.0184-11.95-2.252-14.94-3.881-1.064-.5786-1.929-.562-2.304.0444-.3716.6013-1.88.4356-3.965-.4354-1.851-.7733-3.614-1.157-3.918-.8531-.3041.3041-2.478.0563-4.832-.5506-2.353-.6069-6.219-1.335-8.591-1.617-2.372-.2826-4.703-.7555-5.181-1.051-.4779-.2954-1.131-.1129-1.452.4056-.7177 1.161-5.629-.1479-8.746-2.331-4.318-3.024-6.534-2.107-7.666 3.171-1.143 5.327-.5713 6.428 3.567 6.865 5.834.6159 10.83 1.653 11.84 2.459.9996.7977 13.97 2.644 24.17 3.44 2.63.2052 6.879.7712 9.442 1.258 4.598.8729 4.648.8539 3.778-1.434-1.688-4.44-.2893-5.919 3.66-3.87 2.012 1.044 3.024 1.146 3.513.3543.378-.6116 1.459-.8159 2.402-.4541 1.666.6395 1.664 1.825-.0104 5.895-.8081 1.964 1.267 1.576 4.97-.9275zm-90.11.9678c.6822-.6822-19.39-6.23-22.37-6.181-2.714.0453 17.09 6.601 20.58 6.813.5958.0362 1.398-.2485 1.782-.6326zm-22.43-29.68c.0539-1.661-.4368-1.8-4.189-1.186-6.015.9843-11.05.6791-12.01-.7282-.5915-.8661-.7773-.783-.662.2961.3379 3.164-.1515 3.999-2.327 3.968-2.174-.0307-2.185-.0807-.3465-1.472 1.669-1.263 1.708-1.516.3131-2.051-.8747-.3356-1.363-1.203-1.085-1.926.7683-2.002-1.276-2.731-2.954-1.053-1.526 1.526-3.4-.4869-2.225-2.389.2526-.4087-.1762-.7431-.9528-.7431s-1.178.3782-.8926.8404c.8176 1.323-1.864 1.95-9.176 2.145-6.394.171-11.24 2.681-5.181 2.681 1.329.0 2.757.3375 3.174.75.4164.4125 1.504.7959 2.417.8519.9128.0561 3.01.1755 4.66.2653 2.059.1121 2.581.4288 1.665 1.009-1.431.9069 1.481 2.083 5.224 2.11 1.039.008 2.539.8012 3.332 1.764 1.373 1.667 1.416 1.667.8916.0-.6122-1.947 1.652-2.418 3.679-.7651 10.85 8.846 12.73 9.177 14.9 2.624.9289-2.81 1.716-5.955 1.75-6.99zm-94.23 5.132c.0217-.6875.15-1.7.2851-2.25.523-2.13-.0529-3.5-1.471-3.5-4.067.0-8.284-16.94-4.251-17.08 1.866-.0636 1.723-.2679-.8776-1.25-2.067-.7805-3.018-1.759-2.839-2.92.1482-.9603-.1478-2.004-.6578-2.319-.51-.3152-.6684-.992-.3519-1.504.3164-.512-.1262-.9309-.9837-.9309-1.832.0-2.098 1.654-.3597 2.233.7132.2377 1.252 2.602 1.329 5.833.1496 6.255 5.462 21.72 8.131 23.67 2.1 1.535 1.999 1.535 2.047.01zm-82.71-6.801c-6.642-1.182-10.87-1.158-9 .051.825.5332 4.2.9199 7.5.8595l6-.1098-4.5-.8007zm29.81.5285c-.845-.845-22.84-1.081-24.13-.2589-.6494.413 4.632.7578 11.74.7662 7.104.008 12.68-.2198 12.39-.5072zm149.8-7.057c.7354-2.93 3.929-4.519 6.891-3.429 6.366 2.343 11.12 2.149 12.32-.5036 1.491-3.272 1.475-3.642-.141-3.282-3.865.8621-15.68-12.43-15.68-17.64.0-1.295-.675-2.614-1.5-2.931-.825-.3166-1.5-.1922-1.5.2764s-1.012 1.198-2.25 1.62c-2.045.6982-1.954.8058 1 1.18 5.694.7213 3.73 2.572-2.207 2.08l-5.457-.4526-4.661 5.399c-7.396 8.566-16.42 11.66-16.42 5.636.0-.9134-1.264-1.4-3.75-1.444-2.062-.0365-6.832-.252-10.6-.4791-5.897-.3554-6.766-.1959-6.25 1.148.3294.8585.599 2.554.599 3.767.0 2.049.5208 2.226 7.31 2.479 4.021.1497 8.183.4355 9.25.6351s2.727.3973 3.69.4394c.9625.0421 1.75.7515 1.75 1.577.0 1.504 1.617 1.968 5.675 1.629 1.196-.0999 2.453.2688 2.794.8194.3509.5678 2.44.7513 4.828.424 3.458-.4739 4.549-.2016 6.111 1.525 2.794 3.088 7.374 2.821 8.202-.4777zm-154.5-.1c-3.438-.1953-9.062-.1953-12.5.0s-.625.355 6.25.355 9.688-.1598 6.25-.355zm92.43-.7003c-.9991-.7574-1.899-1.71-2-2.117-.1009-.4068-1.737-.834-3.636-.9493s-3.624-.7234-3.833-1.351c-.469-1.407-3.869-1.509-4.714-.1418-.3399.55.2874 1 1.394 1 2.637.0 7.106 2.061 7.106 3.277.0.5259.8502.7338 1.889.462 1.039-.2717 2.502-.1061 3.25.3681 2.155 1.365 2.547.9701.5441-.548zm85.96-2.609c-.3783-1.891-.2359-2.819.375-2.441 1.668 1.031 1.088-.1855-.7651-1.604-.9625-.7367-1.444-.9737-1.071-.5267.3735.447-.1813 2.345-1.233 4.217l-1.912 3.404h2.608c2.374.0 2.553-.2738 1.998-3.05zm-165.6.9908c0-.7228 4.565-.8763 14.38-.4837 13.82.553 14.4.4972 14.91-1.441.4208-1.609.0414-2.016-1.879-2.016-1.324.0-2.406-.5188-2.406-1.153.0-.8393-3.119-.9858-11.46-.5386-6.96.373-11.7.2366-12.06-.347-.3268-.5288-5.63-.9546-11.79-.9461-7.595.0104-10.71.3268-9.691.9847 1.421.9185-1.203 1.303-9.634 1.412-1.317.017-1.946.5179-1.643 1.308.3013.785 2.288 1.282 5.134 1.286 10.49.0117 24.72 1.412 21.14 2.079l-3.5.6522 4.25.1316c2.407.0746 4.25-.3275 4.25-.9272zm89.13-9.441c.168-2.755-.1291-5.007-.6616-5.015-.5316-.008-1.559-.391-2.283-.8501-2.027-1.286-2.252-.3206-.6458 2.775.8043 1.55 1.427 3.33 1.383 3.954-.0506.7277-.2602.6866-.5833-.1143-.601-1.489-2.338-1.675-2.338-.25.0 1.1 3.969 5.368 4.495 4.833.1806-.1833.4655-2.583.6332-5.333zm-60.15.8074-1.244-2.807h-17.12c-9.413.0-20.94-.2662-25.62-.5916-6.658-.4634-4.749-.6259 8.809-.75 9.762-.0893 17.07-.5449 16.76-1.045-.3013-.4875-8.765-.9374-18.81-.9998-18.45-.1145-39.33-.8577-45.76-1.629l-3.5-.4197 3 1.095c1.65.6022 4.35 2.079 6 3.282 3.518 2.564 28.67 4.594 56.64 4.571 11.79-.01 16.33.3468 18.45 1.449 3.507 1.819 3.963 1.407 2.385-2.155zm133.2-3.943c-.3514-1.838-1.097-2.365-3.349-2.365-1.593.0-3.77-.5455-4.838-1.212-3.016-1.883-3.45-.2732-.87 3.228 4.751 6.448 10.26 6.66 9.057.3491zm-34.36-6.197c2.83-3.267 5.144-6.554 5.142-7.304-.002-.7503-.8979.1024-1.991 1.895-2.738 4.491-7.734 7.439-11.51 6.79-3.557-.6123-4.983.1567-5.933 3.201-.5185 1.662-.3004 2.25.8338 2.25.9944.0 1.32.5618.9247 1.593-1.288 3.356 7.361-2.46 12.53-8.425zm89.75 8.666c.6294-1.018-2.6-.9638-8.602.1455-4.44.8206-4.417.8307 1.793.7602 3.461-.0393 6.525-.4468 6.809-.9057zm-12.6-2.5c0-1.001.5592-1.333 1.582-.941.87.3338 2.332.6139 3.25.6223 1.448.0133 1.47.1495.1682 1.03-1.095.7413-.6909.8341 1.5.344 4.201-.9397 4.164-1.102-.4274-1.877-4.64-.7839-5.713-1.836-3.746-3.673.7539-.7042 1.161-2.081.9053-3.06-.5939-2.271 4.188-2.503 6.381-.3091 1.294 1.294 1.135 1.559-1.321 2.206l-2.792.7358 2.955.5459c1.817.3356 3.165 1.316 3.5 2.544 1.136 4.166 2.925 2.583 2.478-2.192-.5441-5.804.1191-5.347-8.727-6.016l-7.487-.5663.7434 4.065c.4089 2.236.3665 4.66-.0941 5.386-1.166 1.839-1.077 4.068.1319 3.321.55-.3399 1-1.315 1-2.166zm-34-3.834c0-5.058-.1809-5.494-2.25-5.43-2.163.0676-2.173.1069-.25 1.016 1.467.6939.867.8054-2.25.4179-2.548-.3167-4.25-.123-4.25.4835.0.9289 3.336 1.456 7 1.105 1.118-.1069 1.049.1331-.2702.9425-.9736.5972-2.661.8031-3.75.4575-2.264-.7184-2.328-.5394-1.032 2.87.6246 1.643 1.904 2.638 3.75 2.915 1.541.2319 2.914.489 3.052.5714.1375.0824.25-2.325.25-5.35zm-150 3.913c0-.2541-1.077-.8714-2.393-1.372-2.577-.9799-6.889-.3061-6.11.9548.5026.8133 8.503 1.206 8.503.417zm16.39-1.583c-.4851-.785-.1794-.9613.929-.536.9086.3487 1.562.3126 1.452-.0801-.1102-.3927.3268-1.663.9712-2.822 1.021-1.838.8502-2.255-1.335-3.25-3.208-1.462-3.088-1.49-3.702.8581-.3996 1.528-1.43 2.032-4.367 2.136-2.535.0898-2.993.2702-1.344.53 5.055.7962 6.986 1.386 6.876 2.101-.1942 1.263.1024 2.232.6833 2.232.3075.0.2336-.5265-.164-1.17zm-47.61-2.564c-2.594-.2052-7.094-.2074-10-.005-2.906.2029-.7835.3708 4.716.3734 5.5.003 7.878-.1632 5.284-.3684zm8.741-2.226c-.3263-.528-2.94-.918-5.809-.8666s-6.678-.2186-8.466-.6c-2.574-.5493-3.25-.3691-3.25.8666.0 1.299 1.518 1.56 9.059 1.56 5.533.0 8.828-.3736 8.466-.96zm-19.52-1.04c0-.5566-2.686-1-6.059-1-3.785.0-5.827.3754-5.441 1 .3399.55 3.066 1 6.059 1s5.441-.45 5.441-1zm30.98-2.794c1.913-.0468 3.819.4502 4.235 1.105.5731.9014.7601.8868.7717-.0604.01-.7946 1.564-1.266 4.265-1.294 2.338-.024 6.95-.6691 10.25-1.433 5.848-1.355 5.578-1.385-10.66-1.206-9.161.1009-16.45-.154-16.19-.5665.256-.4125-.5163-.75-1.716-.75-1.797.0-1.968.257-.9729 1.456.6647.8009.8905 1.971.5018 2.6-.5231.8464-.1816.8626 1.314.0621 1.624-.8692 2.149-.747 2.674.6222.4157 1.083.9072 1.312 1.35.6272.3829-.5921 2.261-1.115 4.175-1.162zm-25.63-2.412c.7339-2.806.3855-3.109-3.732-3.246-2.282-.0757-3.23.2843-2.914 1.107.2573.6705 1.065.99 1.795.71.7518-.2885 1.612.389 1.985 1.563.857 2.7 2.141 2.64 2.867-.134zm187.4.4563c.2904-.882-.8642-1.216-3.922-1.134-2.383.0638-3.546.3218-2.583.5733.9625.2515 1.75.9056 1.75 1.454.0 1.414 4.259.6145 4.755-.8929zm-195.8-.23c-1.925-.3849-4.483-1.233-5.684-1.885-1.201-.6518-4.351-1.151-7-1.109-4.816.0761-4.816.0761-1.638 1.25 1.748.6457 3.511 1.511 3.917 1.924.4061.4125 3.701.6982 7.322.635 5.363-.0937 5.934-.2448 3.083-.8148zm-10.46-7.74c-.02427-1.285-.3125-2.223-.6404-2.083-.328.1395-1.366-.385-2.306-1.166-1.477-1.226-1.668-1.226-1.404.0.1685.7806.7564 1.75 1.306 2.154.6135.4507.5016.7406-.2894.75-1.031.0122-1.039.283-.04391 1.349 1.907 2.042 3.426 1.591 3.377-1.004zm50.09-15.58c-.3316-1.238-.6091-3.188-.6166-4.333-.0273-4.17-2.512-2.106-2.717 2.256-.1775 3.775.0608 4.327 1.867 4.327 1.659.0 1.95-.4471 1.467-2.25zm-9.442-7-.346-7.75h-3.921c-3.538.0-3.921.2494-3.921 2.555.0 4.076-9.343 3.31-9.816-.8048-.475-4.128-5.184-4.018-5.184.1212.0 3.42 2.512 4.033 20.75 5.059.6875.0387 1.25.9703 1.25 2.07s-.5625 2.047-1.25 2.105c-2.08.175-15.07-.1929-17.86-.5057-1.643-.1845-3.011.3573-3.704 1.466-1.305 2.09 3.246 2.908 15.64 2.813 4.03-.0309 7.593.2086 7.917.5323.8305.8305.8258.9109.4432-7.661zm-44.19 4.959c0-.7202-.4879-1.797-1.084-2.394-.779-.779-.4993-1.494.9936-2.54 1.143-.8005 1.781-1.753 1.418-2.116-.9819-.9819-10.33-.8-10.33.201.0.4737-1.072.6564-2.383.4058-1.311-.2505-2.675.0172-3.032.595-.3571.5778-1.31.797-2.117.4872-1.584-.608-2.034 2.213-.6897 4.326 1.26 1.98 17.22 2.939 17.22 1.034zm9.168-6.553c.2856-5.886.1076-6.785-1.272-6.422-1.608.4232-1.648 1.575-.2647 7.664.466 2.051.3238 2.692-.4865 2.191-.673-.4159-1.145-.06494-1.145.8514.0 1.993-2.602 2.038-3.362.059-.3166-.825-1.377-1.468-2.357-1.43-1.559.0615-1.532.1774.2186.9297 1.1.4727 1.636.8911 1.191.9297-2.44.212.9584 2.07 3.786 2.07h3.359l.3321-6.844zm-38.7-1.406c1.241-12.33.4151-12.75-25.13-12.75h-4.344v6.5c0 4.889.3452 6.5 1.393 6.5.7662.0 1.652.675 1.969 1.5.3882 1.012 1.807 1.448 4.357 1.34 3.667-.1552 3.684-.1722.5489-.562-2.524-.3139-3.594-1.163-4.881-3.876-2.057-4.335-1.649-4.729 4.856-4.684 2.892.02 4.245-.1648 3.008-.4107-5.12-1.017-2.682-4.308 3.191-4.308 5.518.0 7.308.9863 5.899 3.25-.428.6875-.6423 2.301-.4763 3.585.2947 2.28.1362 2.327-6.689 2-3.845-.1844-6.78.002-6.524.4147.2568.4125 3.028.8234 6.158.913l5.691.163-5.5.674-5.5.674 7 .1477c4.839.1021 6.537-.1516 5.5-.8217-1.288-.8321-1.257-.9715.2186-.9847 1.162-.0104 1.52-.5334 1.104-1.616-.6313-1.645 1.454-3.655 2.879-2.774 1.152.7121.9829 4.375-.2023 4.375-.55.0-1 .9-1 2 0 1.766-.6667 2-5.7 2-9.93.0-4.178 2.586 6.37 2.864l5.17.1362.6291-6.25zm-32.49-8.28c0-5.308-.3279-6.652-1.75-7.177-.9625-.3551-2.118-1.128-2.568-1.719-.45-.5901-.6364 1.534-.4141 4.721.2258 3.237.04202 5.223-.4164 4.5-.5277-.8318-.7979-.2228-.7569 1.707.035 1.65.2812 2.466.5472 1.812.329-.808 1.103-.5682 2.421.75 2.805 2.805 2.938 2.598 2.938-4.594zm47 .5756c0 .709.2203 1.069.4895.7996.8856-.8856-1.954-5.732-3.612-6.166-1.213-.3171-1.507.113-1.161 1.699 1.019 4.681 1.211 4.929 2.796 3.613 1.187-.9848 1.488-.9739 1.488.05404zm24.5 116.8c-2.825-1.811-2.853-1.889-.4765-1.331 1.388.3257 3.638.1474 5-.3961 2.005-.8001 1.16-1-4.44-1.052-3.804-.0349-6.642-.338-6.306-.6736.3356-.3356 3.561-.566 7.167-.5119 3.718.0558 6.556-.3294 6.556-.8898.0-.6061-5.703-.9889-14.75-.9901-8.112-.001-27.31-.3002-42.66-.6646-17.8-.4226-27.7-.314-27.32.2997.3271.5293.1578 1.616-.3762 2.415-.7242 1.083-.898.7465-.684-1.325l.2869-2.777 48.5.0908c26.68.0499 51.2.3379 54.5.64 4.161.3809 5.693.2286 5-.4968-.55-.5753-2.8-1.225-5-1.445l-4-.3987 4.194-.1681c3.164-.1268 4.883.4289 7 2.262 4.241 3.674 2.257 4.616-9.769 4.641-8.859.0187-10.65.296-11.93 1.846-2.273 2.765-6.982 3.179-10.5.9238zm340.9-2c-.3695-.5979-.1051-1.61.5877-2.25.8885-.8203 1.072-.8283.6245-.0272-.3778.6756.3729 1.328 1.853 1.611 1.369.2616 2.488.033 2.488-.5081s.675-.4236 1.5.2611c1.255 1.042 1.5.8889 1.5-.9388.0-2.035.323-2.137 4.75-1.494 6.01.8722 7.125 1.786 1.557 1.276-3.37-.3091-4.284-.0367-4.656 1.386-.5324 2.036-9.017 2.605-10.2.6839zm33.22.0215c.7306-.7306 2.916-.7686 6.95-.1207l5.884.9449-6.95.1207c-4.919.0855-6.639-.1907-5.884-.9449zm17.22.3746c-.0651-.445-.0651-1.147.0-1.559.0651-.4125-1.007-.75-2.382-.75s-2.5-.4785-2.5-1.063c0-1.873 6.295-.6184 6.571 1.309.1377.9603-.1595 1.999-.6606 2.309-.501.3096-.9642.1989-1.029-.246zm-336.6-2.905c-1.028-2.68 2.742-4.345 9.675-4.273 4.741.0495 5.823.2846 4 .8685-1.947.6236-2.076.8227-.5833.9003 2.956.1537 1.143 1.249-3.62 2.186-2.363.4651-5.331 1.064-6.596 1.332-1.468.3101-2.508-.0569-2.875-1.014zm306.6-.4439c-2.073-1.281.4061-1.468 12.06-.9097 6.325.3028 10.6.6944 9.5.8702-4.273.6828-20.48.7125-21.56.0395zm-253.4-4.534c1.068-.8658 1.379-1.289.6911-.941-.8033.4069-1.25-.1139-1.25-1.457.0-4.282 9.209-3.415 9.839.9267.3132 2.161.0708 2.293-3.232 1.757-1.964-.3186-3.83-.159-4.148.3548-.3175.5138-1.312.9342-2.209.9342-1.379.0-1.331-.2445.309-1.574zm239.9-8.37-.7079-8.944-3.148-.3957c-3.048-.3832-3.032-.4008.5138-.5558 3.507-.1532 3.685-92e-5 4.199 3.59 1.439 10.05 1.717 15.25.817 15.25-.5312.0-1.284-4.025-1.674-8.944zm-242.4 3.944c-.051-4.275 1.127-5.076 6.816-4.631 7.032.5493 8.066 1.88 1.177 1.516-5.192-.2743-5.505-.1499-6.705 2.664-1.227 2.877-1.26 2.888-1.289.4516zm-184.8-3.1c.1752-7.03.7944-9.372 2.125-8.041.6469.6468 4.863 1.227 9.695 1.334l8.55.189-9 .6221-9 .6221 12.42.189c15.39.2342 15.26.8072-.3663 1.627-6.572.345-12.2.9001-12.5 1.233-.3027.3334 7.059.3185 16.36-.0329 9.3-.3515 21.68-.6912 27.5-.755 5.825-.0638 9.77-.3282 8.767-.5875-1.187-.3068-1.622-1.052-1.248-2.134.501-1.446.3986-1.435-.7868.0875-1.145 1.47-2.864 1.722-10.75 1.578l-9.39-.1725 8.719-.5776c6.833-.4527 9.104-.9943 10.5-2.505 1.749-1.892 1.732-1.897-.9335-.25-5.938 3.669-21.61 1.532-22.54-3.073-.3506-1.753.397-1.571 3.76.9152 4.544 3.36 19.61 2.265 17.43-1.267-.2975-.4814.2356-.5773 1.185-.2131 1.353.5193 1.578.277 1.041-1.123-.5286-1.377-.3079-1.64.9666-1.151 1.044.4007 2.172-.1101 3.068-1.389.7791-1.112 1.896-2.022 2.482-2.022.6747.0.609.5504-.1791 1.5-1.454 1.752 2.824 2.273 4.55.5537 1.588-1.582 82.45-1.916 82.45-.3402.0.7076.45 1.286 1 1.286s1 .9684 1 2.152c0 2.152.0 2.152-22.25 1.683-12.24-.2579-18.88-.3255-14.75-.1502 9.563.4064 11.67.91 11.67 2.792.0.8375-.375 1.523-.8333 1.523s-.8333-.45-.8333-1c0-1.288-14.68-1.329-15.47-.0433-.3652.5908 1.393.7217 4.598.3422 3.883-.4599 5.003-.3146 4.452.5775-.8502 1.376-14.31 1.36-15.16-.0175-.2919-.4724.6958-.8588 2.195-.8588s2.538-.1542 2.309-.3426c-.2292-.1884-8.067-.0393-17.42.3315l-17 .6741 14.14.1685c11.25.1341 14.26.4618 14.69 1.604.303.7895.0136 1.691-.643 2.003-.6566.3124 5.389.3171 13.43.0104 16.04-.6117 37.05.432 32.87 1.633-1.863.5354-1.178.7437 2.691.818 5.95.1142 7.338-1.044 4.076-3.401l-2.267-1.637 2.391.3186c1.397.1862 2.74 1.267 3.23 2.601 1.539 4.189 7.492 3.881-113.4 5.859l-39.74.6504.1096-4.396zm54.69 1.504c1.277-.2603 2.135-1.019 1.907-1.686-.3801-1.115-53.44-1.266-54.6-.1559-3.217 3.071 39.37 4.559 52.69 1.842zm35.48-1.145c-5.608-.1779-15.06-.1786-21-.001-5.942.1771-1.354.3227 10.2.3235 11.55 82e-5 16.41-.1441 10.8-.322zm-11.06-2.49c8.658-.1454 15.75-.6019 15.75-1.014.0099-.916-18.44-.9754-29.74-.0958-4.538.3532-8.25 1.046-8.25 1.539.0.4934 1.462.6582 3.25.3662s10.33-.6499 18.99-.7953zm50.04.5049c-2.321-.2097-6.371-.2122-9-.006-2.629.2067-.7302.3783 4.22.3813s7.101-.166 4.78-.3758zm-59.28-7.842c0-1.25-1.076-1.54-5.25-1.415-7.487.225-7.75.1679-7.75-1.679.0-2.411-1.35-.6999-1.739 2.204-.3251 2.428-.2238 2.462 7.204 2.462 6.185.0 7.534-.2816 7.534-1.572zm19.56-2.383c.5256-.5256 4.553-1.129 8.95-1.34 4.62-.2223 2.844-.3466-4.206-.2944-8.32.0616-12.6.4878-13.45 1.34-.9995.9999-.3492 1.25 3.251 1.25 2.475.0 4.93-.43 5.456-.9556zm48.94-1.007c1.882-.774 1.893-.8658.1857-1.561-2.213-.9014-11.04.0493-13.44 1.448-2.181 1.271 10.18 1.377 13.26.1139zm237.5 13.99c0-.5327.7875-.7438 1.75-.4691.9625.2748.625-.0644-.75-.7537s-2.831-1.716-3.235-2.281c-.4041-.5652-.7416-.0152-.75 1.222-.0219 3.218-3.63 3.046-4.251-.2026l-.4688-2.453 15.35-.2974c8.445-.1636 15.35.0401 15.35.4526-79e-5.4125-5.289.8022-11.75.866-12.29.1213-12.64.31-2.75 1.456 3.3.3823 5.435.8984 4.744 1.147-.6909.2486-.9876.8866-.6593 1.418.3283.5312-1.106.2544-3.187-.6153-3.389-1.416-3.874-1.421-4.64-.0513-.9357 1.672-4.757 2.123-4.757.5612zm-187-7.531c.6847-.825 2.427-1.433 3.872-1.35 2.531.1443 2.517.1717-.3724.7437-1.77.3503 1.51.8229 8 1.152l11 .5587-11.87.1977c-10.45.174-11.72.0184-10.63-1.302zm-45-.3645c3.243-.5045 3.097-.5908-2-1.177l-5.5-.6326 6.083-.163c4.813-.129 6.083.1502 6.083 1.337.0 1.115-1.049 1.459-4.083 1.34l-4.083-.16 3.5-.5444zm226.6-2.304c.2262-.3677-.9426-.966-2.597-1.329-1.655-.3635-3.009-1.064-3.009-1.556.0-1.724-6.224-4.151-9.145-3.567-6.513 1.303-22.85 1.873-22.85.7972.0-3.137 2.456-6.096 5.387-6.491 1.712-.2303 1.224-.3117-1.086-.1808-3.879.2198-4.246.0213-4.824-2.609-.8843-4.026.0229-4.896 5.107-4.896 4.524.0 7.598 3.279 5.8 6.189-1.169 1.891 10.25.2416 14.5-2.096 3.828-2.102 20.8-.5415 22.18 2.039 1.278 2.387.306 5.868-1.638 5.868-2.78.0-1.598 3.842 1.317 4.284l2.75.4166-2.844.1498c-1.902.1002-3.013.7962-3.354 2.101-.3712 1.419-1.274 1.897-3.309 1.75-1.539-.1109-2.614-.5025-2.387-.8702zm4.91-10.58c-.2493-.6875.3201-1.303 1.265-1.368 2.845-.1958-4.01-1.645-7.781-1.645-3.5.0-3.5.0-.5.6778 2.937.6636 2.91.693-1.303 1.402-2.65.446-4.955.3059-6-.3649-1.472-.9444-1.407-1.028.4929-.6295 1.93.405 2.05.2349 1.009-1.431-.6494-1.04-1.467-1.891-1.818-1.891-1.347.0-3.019 2.97-2.313 4.111.4421.7154.3176.9369-.3091.5496-.5773-.3568-1.308.0237-1.623.8455-.3687.9609.04 1.511 1.145 1.542.9452.0264 3.294.9091 5.219 1.961s4.962 2.612 6.75 3.465c1.788.8536 3.29 2.108 3.339 2.789.0492.6801.7173-1.013 1.485-3.763.7674-2.75 1.191-5.562.942-6.25zm-31.96 2.663c.3695-.5979 1.522-.8649 2.56-.5933 1.039.2716 1.636.0858 1.328-.4129-.3082-.4987-.1213-.9067.4153-.9067s1.156.5398 1.376 1.199c.2501.7502.644.563 1.052-.5.5746-1.497-.1626-1.699-6.2-1.699-6.011.0-6.916.2455-7.375 2-.5873 2.246 5.517 3.06 6.844.9129zm-2.554-7.913c0-2.211-2.029-2.59-5.094-.9498-2.62 1.402-1.491 2.95 2.153 2.95 2.274.0 2.941-.4534 2.941-2zm-318.2 13.7c-.2441-.7324-1.901-1.116-4.165-.9632-2.395.1613-3.527-.1232-3.119-.7836.3876-.6271-.5357-1.037-2.336-1.037-3.777.0-6.291.9488-5.576 2.105.3043.4924-1.326.8952-3.622.8952-3.842.0-4.128-.1796-3.573-2.25.3316-1.238.6091-2.812.6166-3.5.01019-.9326 3.188-1.25 12.51-1.25 10.02.0 12.5.2766 12.5 1.393.0 1.741-2.438 2.738-4.75 1.942-.9625-.3314-.2001.5827 1.694 2.031 2.175 1.663 2.851 2.634 1.833 2.634-.886.0-1.793-.5474-2.016-1.216zm442.6.4792c-7.625-.6764-6.762-3.902 1.186-4.431 4.688-.3122 4.977-.1911 4.977 2.085.0 2.725-.357 2.861-6.163 2.346zm-431.9-3.5c-2.658-1.501-6.971-5.988-7.778-8.09-.415-1.082-1.248-1.455-2.325-1.041-1.54.591-1.527.7542.1533 1.983 1.007.7365 1.381 1.339.8314 1.339-.55.0-1.874-.6607-2.941-1.468-1.389-1.051-4.703-1.477-11.66-1.5l-9.715-.0318.2507-10.75c.2996-12.25.7793-13.61 4.539-12.85 5.623 1.138 23.16.9731 24.36-.229.6551-.6551 1.636-1.191 2.18-1.191.5437.0.09776.8299-.991 1.844-1.74 1.621-3.546 1.819-14.94 1.632-10.36-.1696-11.35-.0816-4.959.4389l8 .651-5.5.5773c-4.092.4295-3.068.5594 4 .5071 9.004-.0665 13.44 1.469 6.25 2.163-3.536.3409-4.541 2.187-1.191 2.187 1.132.0 1.781.45 1.441 1-.3399.55-1.491 1-2.559 1s-1.941.5025-1.941 1.117c0 .6346.888.8844 2.057.5787 1.308-.3421 1.916-.1115 1.669.6334-.2518.76-3.784 1.272-10.06 1.458-8.777.2598-9.669.4637-9.669 2.211.0 1.73.8796 1.954 8.669 2.214 7.793.2597 13.49 2.289 6.426 2.289-1.597.0-2.696-.3375-2.441-.75.2549-.4125-2.826-.6633-6.845-.5573l-7.309.1927 6.279.3558c3.635.206 6.031.7565 5.691 1.307-.3344.5411 1.127.9515 3.389.9515 4.607.0 7.352-.8487 6.613-2.044-.2837-.4591.4049-.7653 1.53-.6806 1.201.0905 1.846.6762 1.561 1.419-.6224 1.622 7.231 10.3 9.34 10.32.8779.008 2.271.4515 3.096.9847 2.229 1.44-2.929 1.262-5.5-.1906zm-17.5-20.81c0-.5714-3-1-7-1s-7 .4286-7 1 3 1 7 1 7-.4286 7-1zm2-3.5c0-1.2-1.5-1.5-7.5-1.5-9.61.0-9.809 1.802-.25 2.257 3.988.1898 7.362.4345 7.5.5438.1375.1093.25-.4763.25-1.301zm411.5 21.72c1.145-1.193 20.5-2.105 20.5-.9655-42e-5.4125-1.96.75-4.354.75s-7.232.283-10.75.6288c-4.425.435-6.088.3076-5.397-.4133zm30-2.354c11.23-1.357 13.17-1.828 11.59-2.805-.9233-.5706-.9791-1.007-.1908-1.495 1.365-.8435 2.714 2.248 1.482 3.397-.4855.4534-5.383 1.06-10.88 1.347l-10 .5226 8-.967zm-65.42-1.223c.2292-.1986 3.792-.6496 7.917-1.002 5.073-.4335 7.015-.3216 6 .3458-1.347.8864-14.92 1.526-13.92.6562zm-258.4-5.306c-1.781-1.781-.4606-3.333 2.833-3.333 2.833.0 3.5.381 3.5 2 0 1.994-4.686 2.981-6.333 1.333zm166.6-1.583c.2465-.6875.0432-2.038-.4518-3-1.226-2.384-.4152-2.197 2.603.5996 2.684 2.488 2.467 3.65-.6822 3.65-1.106.0-1.727-.5289-1.468-1.25zm-259.8-3.75c-.3399-.55-2.391-1-4.559-1s-3.941-.45-3.941-1c0-.5846 3.376-1 8.128-1h8.128l-.642-4.25c-.4509-2.985-.3446-3.803.3569-2.75 2.399 3.602 1.227 7.891-2.593 9.487-4.295 1.795-4.099 1.774-4.878.5134zm300.7-.8644c-2.642-1.675-1.097-9.675 1.815-9.398 2.155.2045 2.257.0934.7421-.8041-.9669-.5728-2.17-.7869-2.673-.4759-1.824 1.127-9.913 1.604-10.52.6201-.3407-.5513-.8896-5.245-1.22-10.43l-.6003-9.428 16.61.113c11.38.0774 16.29.437 15.59 1.141-.6248.6242-6.814.9722-15.76.8863l-14.73-.1415.3229 6.641c.4298 8.842.9927 11.18 2.551 10.58.8341-.3201 1.139-1.753.867-4.08-.2722-2.332.0616-3.896.9541-4.471 1.148-.7402 1.152-1.027.0245-1.755-2.137-1.379-.9129-4.416 2.105-5.224 1.799-.481 2.536-.3806 2.122.2889-.41.6634 1.002.896 3.993.6581 3.346-.2661 4.628-.004 4.628.9482.0.7239.45 1.038 1 .6982.5562-.3438 1.001.4067 1.002 1.691.002 2.206-.2828 2.294-6.403 1.978-6.405-.331-6.405-.331-7.097 2.822-.8556 3.896-1.164 3.657 5.748 4.449l5.75.6583v-3.049c0-3.976 1.642-3.944 2.227.0439.2947 2.008-.0163 3.273-.8865 3.607-2.123.8148-1.556 2.17.6649 1.589 1.103-.2884 2.586-.0425 3.296.5465 1.573 1.306 13.62 1.766 19.43.7416 4.838-.8531 7.136 1.826 5.875 6.85l-.646 2.574-17.73-.0153c-9.752-.008-18.32-.3905-19.05-.8491zm34.8-4.37c-.008-1.796-.3459-2.771-.75-2.166-1.324 1.981-19.2 1.471-22.18-.6336-3.959-2.796-8.576-1.657-8.869 2.19-.1253 1.644.1408 2.761.5914 2.483.4505-.2784 1.444-.1199 2.208.3523s7.605.8994 15.2.9494l13.81.0908-.0153-3.265zm-28.8-17.71c-1.532-1.532-11.26-2.448-11.26-1.059.0 1.333 2.305 1.937 7.95 2.085 3.334.0869 4.164-.1703 3.309-1.025zm28.72 11.89-2.478-2.042 4 .5547 4 .5547-3-1.361-3-1.361 4.309-.0451c2.416-.0253 4.056.364 3.734.8858-.3164.512-.118 1.214.441 1.559.559.3455 1.068.0391 1.13-.6809.0627-.72.2542-2.462.4256-3.87.4731-3.889-.6381-4.818-6.15-5.142-3.095-.1818-5.116-.7805-5.22-1.547-.0936-.6875-.2452-1.925-.3368-2.75-.2128-1.915-9.369-2.139-10.25-.25-.32.6875-.4342-.221-.2537-2.019.2058-2.051-.2388-3.728-1.194-4.5-1.099-.8888-1.324-.9009-.8092-.0435.5244.8741-1.074 1.156-6.058 1.069-3.724-.0653-5.533-.2921-4.02-.5039 1.919-.2688 2.75-.9695 2.75-2.319.0-1.085.6845-1.934 1.559-1.934.8575.0 1.271.4666.9182 1.037-.3959.6405.6327 1.012 2.691.9731 1.832-.0351 4.82.2282 6.638.585l3.306.6487-.3065-5.293c-.3085-5.327-2.692-8.414-2.922-3.784-.0842 1.694-.2412 1.854-.5733.5833-.2515-.9625-1.437-1.782-2.634-1.82-2.095-.0676-2.101-.1003-.1767-.8697 1.47-.5877.5437-.9177-3.5-1.246-6.506-.5282-7.893.2594-7.774 4.415.0543 1.91-.6433 3.707-1.819 4.685-1.049.8724-1.907 2.261-1.907 3.086.0 1.859-16.32 1.552-18.08-.3402-.6726-.725-.9135-4.484-.6426-10.03l.4334-8.867 6.143.8317c3.378.4575 8.081.8349 10.45.8388 3.131.005 3.95.2877 3 1.035-1.542 1.213-2.307 13.96-.7815 13.01.5361-.3313.9747-2.578.9747-4.994.0-3.127.5038-4.685 1.75-5.411 1.61-.9377 1.59-1.024-.25-1.081-1.866-.058-1.884-.1505-.2675-1.378 1.603-1.218 1.548-1.4-.75-2.447-2.044-.9311-2.462-1.798-2.364-4.903.1142-3.639.1408-3.666.7578-.7714.6232 2.924.8498 3.027 8.897 4.068 9.615 1.244 9.171 1.436 8.486-3.677-.3369-2.512-.1508-3.874.5036-3.687.5708.1628 1.083-.1541 1.138-.7041s-.9125-1.285-2.15-1.632c-1.238-.3478-4.175-1.157-6.529-1.799-2.685-.732-4.024-1.579-3.594-2.275.4542-.7348-.0416-.9187-1.47-.5451-1.185.31-2.409.1527-2.72-.3495-1.035-1.675 2.676-2.191 7.898-1.098 2.84.5943 6.654 1.374 8.474 1.733 2.263.4458 3.607 1.433 4.25 3.123.8444 2.221 1.421 2.44 5.69 2.157l4.75-.314.5217 5.871c.722 8.125-.1969 9.142-7.172 7.94-5.589-.963-6.21-.4914-4.855 3.688.0892.275.1765 3.425.1941 7 .0184 3.74.2594 5.226.5677 3.5.5308-2.973.5415-2.977 1.179-.5.6563 2.549 10.06 4.569 10.06 2.162.0-1.268-2.514-2.162-6.082-2.162-1.605.0-2.918-.3375-2.919-.75-34e-5-.4125 2.216-.5964 4.925-.4086 4.338.3007 4.884.1218 4.577-1.5-.1916-1.013-.3829-2.335-.4249-2.938-.1526-2.188-9.952-1.16-10.4 1.091-.2492 1.245-.453.837-.5376-1.077-.1795-4.065.5618-4.624 3.864-2.917 1.511.7811 2.989 1.178 3.285.8818.2962-.2962 1.668-.6625 3.048-.814 3.071-.3371 3.529 1.044 2.893 8.717l-.474 5.715h-3.663c-3.076.0-3.69.3587-3.832 2.237-.1252 1.662.057 1.872.7088.8178.6977-1.129 1.866-1.229 5.706-.4874l4.828.9322.2772 6.79c.1525 3.735-.1394 7.535-.6485 8.444-1.406 2.512-8.108 2.518-11.15.01zm-31.1-26.52c-.2574-2.237-.8756-2.805-3.316-3.043-4.863-.4749-6.229-1.138-4.52-2.195.7833-.4841 1.783-.6584 2.222-.3872.4388.2712.7978-.0138.7978-.6334.0-.6934.8169-.8671 2.125-.4519 1.43.4539 1.901.3124 1.441-.4326-.3763-.6089-2.345-1.139-4.375-1.177-4.674-.089-8.014-1.303-6.375-2.316.651-.4023 1.744-.3851 2.429.0383 2.453 1.516 10.75 2.078 10.75.728.0-1.862-.8405-2.144-8.699-2.919-6.974-.6872-8.897.2756-6.113 3.06.3184.3184.1922 2.244-.2805 4.279-1.111 4.784-1.104 5.2.0927 5.2.55.0 1-1.125 1-2.5s.4359-2.5.9686-2.5.6813.7488.3301 1.664c-.3736.9736-.2305 1.412.3449 1.056.5409-.3343 3.205-.236 5.92.2183 4.597.7694 4.683.8342 1.245.9438-2.03.0647-3.988.5983-4.351 1.186-.3631.5875-1.33.811-2.149.4968-1.827-.7012-3.55.2357-2.766 1.504.3164.512 3.504.9309 7.083.9309 6.507.0 6.507.0 6.191-2.75zm35.18-15.22c0-.5327-.6801-.7076-1.511-.3886-1.08.4144-1.335.1215-.8952-1.026.3389-.8831 1.051-1.337 1.582-1.008.5674.3507.8337-.734.6452-2.627-.2935-2.948-.6509-3.254-4.172-3.564-2.118-.1867-4.397-.7929-5.065-1.347-.9178-.7617-1.272.1236-1.454 3.629-.2226 4.3-.113 4.534 1.507 3.219.9607-.7798 1.43-.8895 1.043-.2436-.4108.6851.0299 1.366 1.058 1.634 1.249.3259 1.035.5139-.7378.646-2.312.1722-2.349.2511-.5 1.046 2.765 1.188 8.5 1.21 8.5.0314zm54.4 42.57c-.9293-2.422.0432-8.94 1.373-9.203.7012-.1388.8138-.0236.25.256s-1.025.9566-1.025 1.504c0 .925 1.84.7393 8.899-.898 1.584-.3673 2.171-.1867 1.727.5316-.3698.5984-2.687 1.39-5.149 1.759-5.147.7719-6.781 4.444-1.977 4.444 1.375.0 2.5-.4766 2.5-1.059.0-.5825.4394-.7874.9765-.4555.862.5327 18.79-1.646 24.77-3.01 2.91-.6639 3.32-7.049.5-7.786-1.077-.2814-.6919-.502 1-.5733 2.644-.1115 2.75.0741 2.75 4.817.0 5.706.4289 5.452-12 7.092-4.675.6169-11.88 1.764-16 2.548-4.125.7846-7.627 1.427-7.781 1.427-.1548 9e-5-.5222-.6275-.8166-1.395zm-60.06-7.148c-.9036-2.355-.0159-2.626 5.282-1.612l4.873.9319-4 .2537-4 .2538 4 .7162 4 .7162-4.781.1419c-3.481.1033-4.942-.2777-5.374-1.401zm-13.35-2.907c0-2.883.3756-3.55 2-3.55 1.1.0 2 .45 2 1s-.675 1-1.5 1c-1.813.0-2.004 1.893-.25 2.484 3.389 1.142 5.039.9131 5.298-.7339.1513-.9625-.1351-1.75-.6364-1.75s-.9115-.4799-.9115-1.066c0-.5865 1.238-.924 2.75-.75 2.319.2668 2.75.7871 2.75 3.316.0 2.951-.0944 3.005-5.75 3.3l-5.75.2999v-3.55zm-362.7-.16c-.9948-2.592.9004-3.065 10.42-2.6 9.927.4855 13.05 1.49 10.27 3.298-2.241 1.455-20.09.8528-20.69-.6978zm448.9.97c-1.788-.2473-3.25-.82-3.25-1.273.0-.9746 8.923-2.461 9.758-1.625.3163.3163-.175.575-1.092.575-.9167.0-1.667.4896-1.667 1.088.0.7239 1.422.8518 4.25.3821 5.492-.912 6.634-1.135 10.25-2 2.689-.6436 2.845-.5584 1.5.8219-1.586 1.628-13.68 2.872-19.75 2.031zm-423.3-2.688c0-2.659-4.087-6.808-5.528-5.612-.728.6042-1.92.9978-2.648.8747-.7283-.1231-2.595.1316-4.147.5659-3.25.9091-5.177-.4512-5.177-3.655.0-2.735-3.203-4.876-4.407-2.946-.718 1.151-.9349 1.151-1.393.0-.2982-.7497-.634.4368-.7462 2.637l-.2041 4-.7374-4.5c-.4056-2.475-.6087-5.175-.4513-6s.3205-1.838.3626-2.25c.1036-1.016 9.082-.822 11.58.25 2 .8594 2 .8594.0.9615-1.1.0562-2.874.7628-3.941 1.57-1.748 1.322-.9254 1.468 8.25 1.468 6.127.0 10.19-.3988 10.19-1 0-.55-1.462-1.045-3.25-1.1-5.887-.1806.8794-1.531 8.917-1.779 6.344-.1962 7.238.003 7.788 1.736.3418 1.077 1.279 2.21 2.083 2.519 2.2.8442 1.809 4.72-.5381 5.334-1.1.2877-2 .9205-2 1.406.0.4858-.5253.7709-1.167.6334-.6421-.1375-1.607 1.212-2.145 3-.928 3.086-1.222 3.25-5.833 3.25-3.436.0-4.855-.3991-4.855-1.365zm7.796-2.385c-.2336-1.165-1.26-1.737-3.073-1.711-1.735.02512-2.723-.4888-2.723-1.417.0-.8008-.2469-1.209-.5487-.9074-.3018.3018-.253 1.727.1084 3.167.8051 3.208 6.874 4.052 6.236.868zm6.584-7.641c.5117-1.453.3711-1.648-.6071-.8395-.7001.5786-2.965 1.368-5.034 1.755-4.625.8642-5.546 2.057-2.232 2.888 1.371.3442 2.493 1.085 2.493 1.647.0 1.458 4.582-3.185 5.38-5.451zm-17.69 1.463c1.262.4797 3.011.5972 3.886.261 2.943-1.129-.5255-2.081-7.933-2.175-6.748-.0863-6.977-.0178-4.142 1.24 1.65.7322 3.651.9873 4.447.5668.7961-.4205 2.48-.3721 3.741.1076zm15.31-4.653c0-1.258-.7681-1.47-3.75-1.038-2.062.2991-3.889.5608-4.059.5816-.17.02077-.0309.4878.309 1.038 1.064 1.722 7.5 1.223 7.5-.5816zm163.5 8.655c-5.785-.4745-7.052-.897-7.348-2.45-.333-1.751.1507-1.829 7.234-1.165 10.53.987 15.26 2.549 6.104 2.018l-7-.4058 5.435.9832c5.335.965 8.252 2.117 4.482 1.77-1.054-.0971-5.063-.4346-8.907-.75zm266.2.186c-.8171-1.322.978-3.601 2.228-2.829.627.3875 1.112.0331 1.112-.8129.0-.825-.45-1.778-1-2.118-.55-.3399-1-.1149-1 .5s-.4573.8354-1.016.4899c-.559-.3455-.7574-1.047-.441-1.559s.0988-.9309-.4837-.9309-1.059-.5051-1.059-1.122c0-.792.4275-.7677 1.452.0826.7986.6628 2.31.9329 3.358.6002 1.681-.5336 1.893-.1018 1.798 3.667-.1047 4.148-3.278 6.733-4.948 4.032zm-18.66-7.059c0-2.106 1.845-4.2 3.7-4.2 1.633.0 1.7 3.2.1 4.8-1.776 1.776-3.8 1.456-3.8-.6zm-131.1.414c-.2349-.2239-2.902-.6648-5.927-.98-3.025-.3151-8.875-1.017-13-1.56-9.997-1.315-23.3-1.366-22.51-.0859.3498.5661-.0498.735-.9352.3952-.8504-.3263-1.297-.9962-.9929-1.489.3059-.495-3.049-.9511-7.506-1.02-4.432-.0687-8.622-.2147-9.309-.3243-.6875-.1096-2.6.5468-4.25 1.459-1.65.9119-3.788 1.475-4.75 1.251-.9625-.2239-1.75.076-1.75.6663.0 1.561-2.616 1.314-4.34-.4091-.8398-.8398-1.244-2.392-.9335-3.581.5063-1.936.1693-2.086-4.339-1.929-7.431.2589-8.212.1206-6.138-1.088 1.397-.8138 1.743-2.37 1.717-7.72l-.0333-6.7-1.967 2.361c-1.351 1.621-1.967 1.894-1.967.8724.0-.8186.67-2.044 1.489-2.724 1.811-1.503.9083-3.376-1.232-2.554-1.643.6305-.0338-2.017 2.243-3.689 2.649-1.946 23.34-.8285 24.86 1.343.8122 1.16 1.963 1.808 2.557 1.441.6604-.4082 1.049.2295 1.001 1.642-.0434 1.27-.3059 1.747-.5833 1.059-.7809-1.935-2.338-1.475-2.338.691.0 2.251-1.572 3.561-2.49 2.075-.3455-.559-3.103-1.016-6.128-1.016-3.412.0-5.265.3796-4.882 1 .3399.55.1043 1-.5236 1-.7968.0-.9497 1.737-.5062 5.75.3495 3.162.7241 6.983.8326 8.489.2191 3.043 2.456 4.552 3.339 2.253.4022-1.048 1.042-1.206 2.212-.5462 1.272.7173 2.375.0897 4.851-2.758 1.763-2.028 2.773-3.838 2.244-4.022-.5288-.1845-.7152-.7338-.4142-1.221.5478-.8864-.808-1.311-7.75-2.425-2.043-.328-4.012-1.077-4.375-1.665-.414-.6698.0393-.8692 1.215-.5343 7.12 2.028 10.58 1.93 9.405-.2647-.7839-1.465-1.743-1.963-3.006-1.562-1.02.3238-2.149.1131-2.508-.4682-.3593-.5814-1.072-.7981-1.584-.4817s-.9309.1712-.9309-.3227c0-2.84 7.562-.5453 9.248 2.806 1.308 2.599 1.749 2.955 1.75 1.415.004-4.902 1.951-5.748 11.06-4.809 9.077.9358 9.854 1.583 8.477 7.067-.6082 2.423-.9015 2.519-6.339 2.077-3.135-.2549-5.138-.2713-4.451-.0364.6875.2348 1.25 1.289 1.25 2.344.0 1.47.7582 1.946 3.25 2.044 1.788.0702 4.24.2327 5.451.3611 1.655.1756 2.336-.4141 2.745-2.378.8415-4.041.9347-13.69.1446-14.96-.3897-.6305-.2405-1.146.3314-1.146 1.811.0 2.425 5.159 1.453 12.2l-.9404 6.804h3.783c3.368.0 3.783-.2739 3.783-2.5.0-1.556-.5667-2.5-1.5-2.5-.825.0-1.464-.7875-1.421-1.75.0472-1.045.282-1.247.5833-.5 1.066 2.643 2.04 1.071 1.745-2.819-.2815-3.712-.0407-4.182 2.746-5.353 3.685-1.549 1.972-2.578-4.294-2.578-2.397.0-3.732-.3974-3.359-1 .7837-1.268 5.7-1.285 10.38-.0356 1.989.5304 6.204 1.238 9.366 1.572 4.802.5074 5.75.9255 5.75 2.536.0 2.289-.8613 2.467-2.39.496-1.407-1.815-10.61-3.273-10.61-1.682.0.6124-1.012 1.184-2.25 1.271-1.238.0864.0.4239 2.75.75s5.28.2102 5.621-.2576c.3416-.4678 1.574-.0344 2.739.9631 1.454 1.245 3.376 1.723 6.129 1.524 3.486-.2517 4.011-.018 4.011 1.787.0 2.684 2.668 2.699 3.518.0195.9915-3.124 6.657-2.335 7.593 1.057.9527 3.454 1.057 13.98.139 14.08-.4125.0452-1.908.275-3.323.5105s-2.765.2451-3 .0212zm5.073-2.676c0-.5158-1.462-1.005-3.25-1.088-3.025-.1395-3.06-.1787-.5-.5664 2.567-.3889 2.75-.7411 2.75-5.291.0-6.231-2.436-7.77-4.301-2.717-.5053 1.369-1.577 1.713-4.676 1.5-3.906-.2679-5.237-1.204-2.846-2.001 1.54-.5135.1258-2.774-1.736-2.774-.7925.0-1.441.8734-1.441 1.941s-.45 2.219-1 2.559c-.55.3399-.9684 1.604-.9297 2.809.0678 2.112.1011 2.119.9297.191.7115-1.656.8715-1.419.9297 1.378.0703 3.378.0703 3.378 4.32 2.736 2.788-.4212 3.757-.3196 2.816.2951-1.066.6964-.5523 1.021 2 1.264 1.889.1799 4.222.4116 5.184.515.9625.1033 1.75-.2342 1.75-.75zm-23.24-3.507c-.3129-.3129-2.747-.8804-5.409-1.261-4.332-.6196-4.911-1.006-5.521-3.681-.6604-2.9-.6756-2.885-.5079.5069.1494 3.02.5807 3.582 3.173 4.132 3.952.8379 8.984 1.023 8.264.3038zm3.042-9.903c-.1684-.1378-3.006-.541-6.306-.896-4.107-.4418-5.527-.3328-4.5.3458.825.5452 3.412.9981 5.75 1.007 4.803.0173 6.658 3.87 2 4.151l-2.25.1362 2.25.4334c1.601.3084 2.303 1.206 2.435 3.114.1017 1.474.352.2682.5561-2.68s.2334-5.473.065-5.611zm-37.81 7.293c.001-.3732-.6727-1.354-1.498-2.179-.825-.825-1.5-2.856-1.5-4.512.0-2.875-1.498-4.966-2.698-3.765-.7565.7565-1.462 9.567-.8459 10.56.5882.9518 6.539.8544 6.542-.107zm9.419-5.465c.8685-2.263.5683-2.411-5.804-2.864-4.971-.3527-5.612-.1829-5.612 1.485.0 3.018 10.31 4.264 11.42 1.379zm-19.27-9.142c-.6359-.212-.9411-.7336-.6781-1.159.263-.4255-1.053-.6049-2.925-.3986s-3.68-.0725-4.018-.6195c-.4988-.8071-11.26-.4359-12.28.4236-.1399.118 4.248.7882 9.75 1.489 5.949.7582 10.04 1.736 10.08 2.412.0434.6255.3359.4848.65-.3127s.0507-1.623-.5852-1.835zm163 17.16c.1161-5.18.2186-5.459.8684-2.372l.7367 3.5.1316-3.417c.1826-4.739.7519-3.596 1.452 2.917.3251 3.025.3423 4.919.0382 4.208-.4245-.9918-.8786-1.021-1.956-.1276-1.179.9782-1.382.2261-1.271-4.708zm10.37 3.628c-.3399-.55-.3399-1.45.0-2 1.021-1.651 3.359-1.132 4.5 1 1.168 2.182-3.173 3.146-4.5 1zm-259.9-1.177c.2797-.4526 1.27-.8236 2.2-.8245.93-86e-5.129-.7884-1.78-1.75-4.255-2.143-4.801-3.971-4.929-16.5l-.0997-9.75h4.441c5.182.0 6.868 1.719 3.73 3.803-2.231 1.481-2.95 5.597-1.171 6.697.55.3399 1-.098 1-.9732.0-3.437 7.725-3.646 11.76-.3188 2.426 2.001-.006-2.215-2.668-4.624-3.931-3.558-2.738-4.613 4.602-4.068 7.396.5486 8.267 1.25 8.29 6.674.0147 3.539.1689 3.702 3.765 4 3.042.2517 3.812.7459 4.077 2.615.5017 3.539-1.415 5.136-5.389 4.491-2.649-.4299-3.438-.2106-3.438.9563.0 1.913-3.145 2.761-7.573 2.042-2.211-.3587-3.427-.1547-3.427.5746.0.645-1.652 1.131-3.845 1.131-4.2.0-7.176-2.33-7.125-5.579.0293-1.849.0715-1.846 1.124.0787 2.357 4.309 8.417 5.285 9.66 1.556.2447-.7341-.0125-1.052-.5715-.7065s-1.536.002-2.171-.7636c-.8824-1.063-.8501-1.514.1367-1.91.7105-.2851.3274-.5538-.8513-.5972s-2.436.6833-2.793 1.615c-.5322 1.387-1.047 1.07-2.839-1.75l-2.189-3.444-.3114 3c-.1713 1.65-.5885 3.675-.9272 4.5s-.5443 1.838-.457 2.25c.0873.4125-.3178.75-.9003.75-1.675.0-.1777 1.705 1.997 2.274 1.86.4863 1.882.3818.4006-1.879-2.053-3.133-.8922-3.037 3.017.2495 2.725 2.292 4.872 7.233 2.507 5.771-.4742-.2931-.8635-.1688-.8652.2761-.002.445-1.554.8418-3.45.8819s-3.218-.2974-2.938-.75zm22.39-11.68c0-7.29-1.367-13.92-2.827-13.7-1.913.2808-2.665 2.133-1.226 3.022 1.466.9059 1.316 4.127-.2664 5.711-2.509 2.513-2.675 5.669-.3227 6.13 4.124.8071 4.642.6775 4.642-1.162zm7.377 11.05c.3605-.5834.1982-1.343-.3608-1.689-.559-.3455-1.016-.1203-1.016.5004s-1.012.9848-2.25.809c-4.113-.5841-2.671-3.32 1.75-3.32 4.088.0 6.011 3.163 2.611 4.296-.7984.2661-1.11.012-.7337-.5976zm270.4-1.229c-1.478-.4198-2.94-.5098-3.25-.2-.3098.3098-.5633.0383-.5633-.6034.0-1.166 1.144-1.522 4.035-1.255.8797.0812 1.6-.7236 1.688-1.885.1147-1.523-.4532-2.026-2.285-2.026-1.341.0-2.438-.4785-2.438-1.063.0-.5973 1.424-.926 3.25-.75 2.886.2783 3.286.6914 3.573 3.691.3961 4.143-.5246 5.083-4.01 4.093zm-13.15-1.914c-1.742-.822-5.418-1.733-8.168-2.025-4.23-.4488-5.049-.8771-5.32-2.781-.3572-2.515 1.287-3.081 2.181-.75.398 1.037 2.051 1.51 5.357 1.532 2.63.0175 5.655.6925 6.723 1.5 3.137 2.373 6.763 1.928 6.378-.7818-.3385-2.383.4986-2.16-16.1-4.293-6.38-.82-8.739-2.459-3.53-2.453 3.882.004 20.8 2.655 21.52 3.37.27.27.1831 2.313-.1932 4.54-.7697 4.556-2.725 5.029-8.847 2.141zm-301.5-1.594c-1.065-1.208-1.022-1.462.25-1.462 2.146.0 1.942-1.864-.2106-1.925-3.698-.1035-24.81-.9119-25.89-.9916-.801-.0589-.9825-2.597-.6113-8.548.4242-6.8.2058-8.956-1.111-10.96-1.918-2.927-2.227-4.758-.3757-2.226 1.205 1.648 12.35 3.098 21.02 2.735 5.867-.2459 6.532.9388 5.973 10.64-.4165 7.237.5443 11.25 1.361 5.69 1.854-12.63 1.638-16.31-.9959-16.97-3.145-.7894-2.486-2.49.8575-2.213 1.308.1083 2.159.5514 1.891.9847-.2678.4333-.0479.7879.4888.7879.5366.0 1.223-.5625 1.526-1.25.7321-1.662-.2366 5.527-1.557 11.55-.5788 2.642-.7767 5.08-.4397 5.417s.6127-.3623.6127-1.554c0-1.518.614-2.167 2.052-2.167 1.847.0 2.022.5239 1.75 5.25-.2466 4.284-.6244 5.224-2.052 5.111-1.098-.0871-1.75.5648-1.75 1.75.0 2.24-1.011 2.367-2.789.3508zm-4.338-7.362c.8824-.559-1.619-1.145-7-1.64-12.31-1.133-12.87-1.128-12.87.09143.0.7188 2.907 1.172 8.154 1.27 4.485.0844 8.385.3841 8.667.666.7151.7151 1.461.6204 3.052-.3878zm1.127-9.771c0-2.532-.4286-3.329-1.789-3.329-1.295.0-1.779.7598-1.75 2.75.035 2.445-.4049 2.821-3.961 3.389-3.525.563-3.317.6318 1.75.5789l5.75-.06v-3.329zm-16.91-1.526c-.8836-4.32-2.777-4.639-3.255-.5474-.3311 2.836-.064 3.373 1.755 3.523 1.898.157 2.071-.1864 1.5-2.976zm73.66 19.03c-2.703-.9871-2.75-1.149-2.75-9.421.0-4.629-.002-8.739-.004-9.132-.005-1.016 13.98-1.132 14.6-.1208.2845.4599 2.066.8362 3.958.8362 3.357.0 3.441.09913 3.441 4.066.0 5.349-1.478 7.934-4.535 7.934-1.524.0-2.465.5724-2.465 1.5.0.825.5625 1.507 1.25 1.515.8364.0103.7536.3422-.25 1.003-1.235.8131-1.146.9592.5.8262 3.693-.2981 5.623.1478 5 1.155-.7924 1.282-15.14 1.158-18.75-.1623zm4.463-3.838c-.3108-2.118-.9952-3-2.327-3-1.534.0-1.886-.7469-1.886-4 0-3.6.25-4 2.5-4 3.626.0 3.069-1.686-.75-2.268-1.788-.2722-3.272-.4358-3.298-.3635-.0263.0723.1987 3.488.5 7.591.5066 6.898.736 7.511 3.048 8.15 1.375.38 2.535.7358 2.577.7907.0422.0548-.1213-1.25-.3635-2.9zm6.086-3.75c.4398-.6875 1.677-1.25 2.75-1.25 4.649.0.8398-3.882-4.336-4.418-.4326-.0448-1.157-.6818-1.611-1.415-1.451-2.348-2.014 1.445-1.184 7.973.1409 1.108 3.545.4175 4.381-.8889zm7.355-7.707c-.7058-1.839-6.025-2.154-5.414-.3207.3776 1.133 4.788 2.822 5.633 2.158.2054-.1617.1071-.9884-.2186-1.837zm168.7 12.5c-.6318-1.674-1.863-3.043-2.736-3.043-.9202.0-1.587-.8402-1.587-2 0-2.973 11.72-2.332 12.73.6967.2657.7972-1.042.7135-4.335-.2776-5.921-1.782-8.799-1.849-5.713-.1337 1.201.668 2.271 1.665 2.377 2.215.1062.55.4032 1.548.6601 2.217.2568.6694.3056 1.701.1082 2.293-.1973.592-.8757-.2932-1.507-1.967zm30.08-.1955c-.5128-.8298.45-.9963 3.441-.5952 4.032.5409 4.153.474 4.153-2.302.0-2.478-.4684-2.947-3.511-3.518-5.251-.9851-5.736-2.862-.5594-2.168 5.169.6933 4.928.4526 5.569 5.556l.5252 4.18h-4.453c-2.449.0-4.773-.5185-5.165-1.152zm-15.74-5.514c-.3667-.3667-.6667-1.957-.6667-3.534.0-2.571.2843-2.821 2.75-2.416 1.512.2486 3.088.489 3.5.5342.4125.0452.6978 1.095.634 2.332-.0873 1.693-.2292 1.817-.5733.5-.5495-2.103-4.311-2.364-4.311-.2997.0.7977.7875 1.909 1.75 2.47 1.592.9273 1.562 1.022-.3333 1.05-1.146.0167-2.383-.2696-2.75-.6363zm-74.11-4.311c-5.521-.5841-5.763-.9971-6.912-11.81-.7818-7.361 1.169-8.244 12.61-5.703 9.992 2.219 11.73 3.26 9.098 5.452-1.392 1.159-1.853 2.91-1.853 7.042v5.5l-4 .0228c-2.2.0125-6.224-.2124-8.942-.5zm11.44-5.41c0-2.291-.6088-3.868-1.75-4.533-1.61-.9377-1.59-1.024.25-1.08 3.332-.1013-.3265-1.654-5.738-2.435-2.606-.3761-5.415-1.361-6.242-2.188-3.148-3.148-4.284 3.519-1.256 7.373.6665.8486.6024 1.25-.1997 1.25-.7018.0-.8592.5075-.3878 1.25.4365.6875.8568 1.588.934 2 .0772.4125.1986.8625.2698 1s3.277.3909 7.125.5631l6.995.3131v-3.513zm-79.25 3.648c-3.162-.1984-5.75-.8098-5.75-1.359.0-1.494 12.25-.6799 12.75.8476.227.6875.0377 1.165-.4206 1.061s-3.421-.3515-6.583-.5499zm46.25-.7274c-6.325-.5685-11.95-1.293-12.5-1.609-.55-.3166-2.575-.666-4.5-.7763-1.925-.1104-7.1-.6169-11.5-1.126-4.4-.5087-12.52-1.45-18.05-2.093l-10.05-1.168.331-7.131c.3954-8.517-.4326-10.44-3.651-8.473-1.84 1.124-2.166 2.154-2.01 6.342.312 8.349.8351 7.869-7.811 7.169-12.72-1.03-15.38-2.109-14.7-5.967 1.005-5.7-.4679-13.02-2.314-11.49-.8593.7095-2.502 1.29-3.651 1.29-1.955.0-2.066.4555-1.742 7.131.1905 3.922-.0672 7.387-.5727 7.699-.6338.3917-23.68-1.742-24.84-2.3-.0876-.0421.2431-9.038.4221-11.48.2603-3.552 2.005-.2203 2.33 4.45l.3131 4.5 9.697 1.028c9.411.9973 9.713.9662 10.22-1.053.7964-3.173-.3038-7.817-2.21-9.328-1.527-1.211-1.444-1.285.7929-.7023 1.704.4438 2.022.3637 1-.2516-1.891-1.138-16.09-3.44-16.8-2.724-.2925.2925.2504.5318 1.206.5318.956.0 2.455.7165 3.33 1.592 1.055 1.055 2.55 1.401 4.429 1.025 1.564-.3127 2.836-.1298 2.836.4077.0 1.535-7.791 1.165-8.7-.4135-.4398-.7637-1.7-1.578-2.8-1.809-1.1-.2315-1.888-.9566-1.75-1.611.1375-.6548-.425-1.191-1.25-1.191s-1.5.45-1.5 1-.675 1-1.5 1c-1.804.0-1.823-.197-.3395-3.453.6383-1.401 1.912-2.547 2.831-2.547 4.829.0 23.62 4.114 24.54 5.374 1.181 1.615 4.962.2342 3.931-1.435-.319-.5162.234-.9741 1.229-1.017 1.236-.05393.9566-.3909-.8807-1.063-3.071-1.124-3.482-2.896-2.987-12.9l.3238-6.539 11.59 1.375c14.54 1.726 16.72 2.478 15.82 5.471-.3681 1.228-1.029 4.707-1.469 7.732-.4396 3.025-1.106 6.207-1.481 7.071-.9727 2.242 5.337 4.176 7.784 2.387 1.298-.9495 1.399-1.382.4136-1.777-.9853-.3948-.9982-.5413-.053-.601.8623-.05446 1.25-2.075 1.25-6.514.0-8.744 1.107-11.46 4.416-10.83 1.408.2692 2.333.8569 2.056 1.306-.2776.4491-.0473 1.099.5117 1.445.559.3455 1.016 1.103 1.016 1.684.0.5901-1.087.3435-2.465-.559-3.518-2.305-3.535-2.281-3.535 4.885.0 5.492.2715 6.513 1.75 6.584.9625.04641 4.338.4076 7.5.8027 6.053.7561 6.499.394 5.808-4.711-.0987-.7283.3957-2.078 1.099-3 .7028-.9217.9017-1.36.4418-.9734-.4598.3863-1.49.04881-2.288-.75-.7988-.7988-2.294-1.452-3.322-1.452-3.376.0-2.938-1.595.5018-1.826 1.848-.1245 3.646.2355 3.994.8.9652 1.562 2.307 1.228 2.911-.7237.298-.9625.335.725.082 3.75-.2529 3.025-.4638 7.188-.4686 9.25-.009 3.963-1.899 4.9-5.824 2.886-.9263-.4751-4.384-1.104-7.684-1.398-10.7-.9524 13.04 6.056 25 7.382 9.851 1.092 11.81 1.911 10.81 4.522-.4098 1.068.112 1.108 2.701.2052 3.728-1.3 17.71-.6043 20.77 1.033 1.479.7914 2.213 2.519 2.7 6.353.3676 2.896.8825 6.026 1.144 6.955.8105 2.878-2.601 3.425-14.62 2.345zm11.37-7.284c-.7737-6.869-.2773-6.113-4.443-6.766-2.872-.4501-3.062-.376-1.177.4574 3.56 1.574 2.701 3.217-1.5 2.869-2.901-.2401-3.685-.7-3.463-2.032.3727-2.233-3.57-3.256-8.544-2.216-2.059.4304-4.043.8174-4.41.8601-1.618.1882-1.937 1.704-1.28 6.087.39 2.601 1.027 4.169 1.43 3.518.5291-.8561 1.166-.7345 2.349.4486 1.12 1.12 2.639 1.455 4.895 1.082 1.8-.2978 5.747-.1512 8.772.3258s6.066.9235 6.759.9921c.9471.0939 1.098-1.299.6111-5.625zm-26.56-2-.3466-4.75h-5.981c-4.436.0-5.91.3422-5.706 1.324.1511.7284-.1667 1.051-.7063.718-.5396-.3335-.7276-1.267-.4178-2.074.3854-1.004-.1021-1.468-1.544-1.468-1.825.0-2.107.5917-2.107 4.428v4.428l5.25.5684c8.056.8722 11.22 1.262 11.58 1.426.1802.0824.1717-1.988-.0189-4.6zm-21.81-2.643c0-3.083-.4716-4.574-1.582-5-2.357-.9046-3.615-.7352-2.918.393.3399.55.1415 1-.441 1s-1.059-.4215-1.059-.9366c0-.5152-1.462-1.078-3.25-1.25-2.083-.2008-3.25-.852-3.25-1.813.0-.825-1.012-1.644-2.25-1.82-2.119-.3009-2.25.03046-2.25 5.674v5.993l5.25.9575c10.98 2.003 11.75 1.794 11.75-3.198zm-27-2.394c0-3.775-.014-3.788-4.25-3.878-3.158-.06737-3.608.0823-1.75.5826 5.111 1.376 3.188 4.631-2.5 4.232-5.656-.3975-7.85-1.701-7.18-4.264.2555-.9769-.2042-2.01-1.037-2.329-1.021-.3916-1.302-1.345-.8858-3.003.3354-1.336.1581-2.709-.3939-3.05-.552-.3412-1.004-1.07-1.004-1.62s.5195-.6789 1.155-.2865c.7442.4599.8818.2723.3871-.5281-1.59-2.573-2.326.6429-1.428 6.241.5125 3.195.6892 6.201.3926 6.681-.8765 1.418 1.177 2.151 9.821 3.503 4.495.7032 8.285 1.33 8.423 1.393.1375.0631.25-1.59.25-3.673zm36.5-3.212c-.3593-.5814.7671-1.057 2.691-1.136 2.571-.1058 2.778-.2367.928-.5867-3.666-.6937-9.813.6708-8.05 1.787 1.939 1.227 5.199 1.18 4.431-.06392zm-10.71-2.129c-.6249-.3876-.491-.8638.349-1.241.7497-.3365.3175-.3501-.9606-.03027-1.278.3199-3.655.03013-5.282-.6438-3.294-1.364-4.232-1-3.35 1.299.4321 1.126 1.894 1.502 5.425 1.393 2.658-.08173 4.377-.4316 3.819-.7775zm-30.29-.8711c-2-.8594-2-.8594.0-1.029 1.699-.1444 1.624-.2905-.5-.9706l-2.5-.8006 2.5-.1666c1.944-.1295 1.507-.4759-1.96-1.556-3.893-1.213-7.708-.9746-4.229.2641 1.002.3569.8846.9538-.5 2.535-.9961 1.138-1.323 1.785-.7254 1.439.5971-.3461 2.397-.2372 4 .2422 3.836 1.147 6.553 1.177 3.914.04341zm2.926-13.25c1.378-6.676 1.627-11.75.5759-11.75-.6162.0-.8454.4448-.5093.9885.3498.5661-.0498.735-.9352.3952-.8504-.3263-1.3-.991-1-1.477.3004-.4861-.1579-.6136-1.018-.2833-.8606.3302-2.187.08426-2.947-.5466-1.379-1.145-6.305-.9496-10.09.3995-1.425.5078-1.612.435-.6487-.2535 1.009-.7215.5562-1.083-1.79-1.427l-3.142-.4611.2904 7.083c.2904 7.083.2904 7.083 3.29 7.301 1.65.12 2.438-.03004 1.75-.3333-1.932-.8524-1.528-4.387.5-4.369 1.469.01285 1.513.165.278.9462-1.819 1.15-.8358 1.607 6.284 2.918 4.053.7461 4.723.6546 4.249-.5801-.3426-.8927-.0735-1.303.6881-1.05 1.997.665 2.038 3.537.0578 4.05-1.189.3081-.8728.508.9239.5843 2.076.08818 2.842-.4237 3.195-2.134zm177.6 34.29c-2.366-.7176-2.312-.7842 1-1.24l3.5-.4819-3.25-.16c-1.788-.088-3.25-.6582-3.25-1.267s.7118-.8338 1.582-.5c.87.3338 2.67.607 4 .607 1.752.0 2.418.5514 2.418 2 0 2.121-1.553 2.391-6 1.042zm16.75-2.777c-4.409-.3476-4.748-.5682-4.718-3.07.029-2.454.1505-2.539 1.36-.9452.7494.9872 3.325 2.024 5.909 2.378l4.581.6279-.5808-5.628c-.3618-3.505-.2-5.628.429-5.628 1.839.0 2.276 9.3.5287 11.25-.8628.9625-1.836 1.669-2.164 1.57-.3272-.0991-2.733-.3488-5.345-.5548zm-17-1.981c-2.385-.3613-2.75-.8721-2.75-3.85.0-2.767-.3883-3.434-2-3.434-2.45.0-2.569-1.713-.2944-4.227 1.392-1.539 1.484-2.239.5-3.815-.6631-1.062-1.206-2.612-1.206-3.444.0-.8325-.585-1.514-1.3-1.514-1.987.0-3.7 2.148-3.7 4.641.0 2.743-1.905 4.119-3.096 2.237-.5114-.8073-.8792-.9087-.8882-.2447-.008.6234-.8862 1.361-1.951 1.639-1.431.3741-1.784 1.083-1.357 2.717.465 1.778.2075 2.138-1.315 1.836-1.305-.259-1.796-1.066-1.58-2.601.2036-1.448-.2096-2.225-1.183-2.225-.8225.0-1.804-.9733-2.182-2.163-.6615-2.084-.7244-2.093-1.732-.25-1.696 3.104-3.112 3.526-4.846 1.445-1.613-1.937-1.648-1.935-3.5.1519-1.351 1.522-1.523 2.23-.6205 2.545.6875.2405 1.25 1.128 1.25 1.973.0 1.834-18.47.939-20.85-1.01-1.778-1.453-3.194-1.68-12.4-1.984-4.266-.1408-7.753-.5827-7.75-.9821s.005-1.401.005-2.226c0-.9276.9405-1.5 2.465-1.5 2.551.0 4.602-2.558 3.815-4.756-.2476-.6909-.9383-.9546-1.535-.586-.6986.4317-.8479.05354-.4195-1.063.5258-1.37.1951-1.666-1.58-1.414-1.811.2573-2.354 1.136-2.81 4.55-.7282 5.456-.3431 5.22-9.539 5.848-8.738.5968-10.61-.05396-9.736-3.388.4943-1.89.7601-2.009 1.712-.7666.7454.9726 3.598 1.617 8.419 1.903l7.292.432-.3594-3.13c-.2024-1.762.2371-3.728 1.006-4.499 1.154-1.157.9536-1.582-1.297-2.75-3.786-1.964-5.345-1.76-4.723.619.428 1.637.0307 2-2.187 2-1.869.0-2.873-.6206-3.233-2-.9052-3.462-6.258-2.769-5.798.75l.3594 2.75-1.119-2.75c-2.178-5.354-4.077-2.915-2.849 3.658.4918 2.632.4877 4.863-.01 5.17-.4809.2972-.9418-.9487-1.024-2.769-.137-3.025-.1855-3.073-.5664-.559-.381 2.515-.7737 2.742-4.6 2.651-7.361-.174-14.74-1.37-14.81-2.401-.0385-.55-.4914-1.788-1.007-2.75-.5832-1.09-.5819-1.75.003-1.75.5252.0.6942-1.833.383-4.153-.4012-2.991-.2346-3.954.5952-3.441.6337.3917 1.159 2.373 1.168 4.403.0217 5.234.6623 5.779 8.352 7.106 8.056 1.39 7.593 1.618 6.774-3.333-.688-4.161-3.14-6.243-3.14-2.665.0 1.146-.4079 2.083-.9064 2.083s-.671-.9-.3834-2c.3939-1.506.0307-2-1.471-2-3.047.0-9.397-2.935-8.72-4.03.3296-.5334 1.585-.9381 2.79-.8995 2.119.06798 2.125.09997.191.9764-1.394.6315-.7878.7215 2 .2971 7.183-1.094 5.285-1.674-5.866-1.792l-4.866-.05163.5021 6.262c.6236 7.778.7325 7.719-11.38 6.175-5.482-.6986-9.468-1.579-8.859-1.955 1.963-1.213.8287-12.89-1.318-13.57-2.862-.9085-.0959-3.424 3.661-3.329 5.408.1366 16.26 2.368 17.82 3.662.8205.6827 1.786.9472 2.146.5877.3595-.3595 5.162-.05703 10.67.6722 10.61 1.405 13.94 3.103 10.7 5.467-1.008.7369-1.656 2.441-1.576 4.142.1278 2.711.1643 2.735.5912.3898.9671-5.314 2.753-6.085 12.65-5.465 4.972.3117 9.55.99 10.17 1.507.6232.5172 1.361.7129 1.638.4349.6429-.6429 26.18 1.39 38.57 3.07 4.515.6122 5.354 1.071 5.895 3.23l.6315 2.516 1.352-2.58c.9773-1.865 2.116-2.558 4.11-2.501 1.517.04313 3.735-.2317 4.929-.6106 1.54-.4886 2.475-.1673 3.215 1.105.5741.9866 1.058 1.231 1.074.5438.0186-.7649 1.439-1.25 3.661-1.25 3.591.0 3.625-.03861 3.063-3.499-.4338-2.673-.1698-3.691 1.119-4.316 3.938-1.909 4.666-.9659 5.257 6.815.3134 4.125.6509 6.075.75 4.333s.6947-3.338 1.324-3.548c.8579-.286.8579-.9147.0-2.518-2.754-5.146-.7031-7.034 5.752-5.296 4.197 1.13 5.847 4.834 2.95 6.624-.635.3924-.9128.3065-.6174-.191.9669-1.628-1.014-5.115-3.236-5.696-1.909-.4992-2.097-.2618-1.543 1.945.406 1.618.2613 2.285-.4061 1.873-.6988-.4319-.7395.1417-.1249 1.758.5017 1.32.8378 3.258.747 4.307-.1092 1.261.5687 2.012 2 2.216 1.191.1699 2.413.9528 2.715 1.74.4273 1.114-.2004 1.335-2.83.9982-2.172-.2781-3.556.0273-3.873.8545-.3397.8853.2215 1.15 1.798.8492 1.26-.2409 2.596.05433 2.968.6561.4433.7173-.6356 1.105-3.133 1.126-3.381.02823-3.613.1809-2.059 1.36 2.325 1.765 2.206 2.283-.5 2.187-3.72-.1313-3.24 6.424.5625 7.691 3.518 1.173 3.805.868 4.435-4.721.282-2.502.9318-4.549 1.444-4.549.5335.0.6596 2.029.2953 4.75-1.057 7.892-.7085 7.598-7.737 6.534zm-41-12.4c-2.64-1.489-2.189-3.171.5-1.868 1.94.9401 2.025.907.6167-.2397-.8983-.7316-1.859-2.219-2.134-3.305-.4292-1.693-.5172-1.637-.6167.3936l-.116 2.369-3.597-2.744c-3.087-2.355-3.547-2.478-3.24-.8687.1972 1.034 1.362 2.019 2.597 2.195 1.232.1758 2.24.7383 2.24 1.25s.0149 1.268.0331 1.68c.0182.4125-1.669.9969-3.75 1.299l-3.783.5487 5.5 1.025c5.748 1.072 8.99.0935 5.75-1.735zm-13.75-2.829c0-1.068-.4078-2.193-.9061-2.501-.4984-.308-.6709-1.46-.3834-2.559.3747-1.433.0301-1.999-1.216-1.999-1.507.0-1.556.2249-.3666 1.687 1.202 1.478 1.155 1.606-.3776 1.031-.9625-.3607-1.75-.2503-1.75.2454s.9 1.187 2 1.536c2.462.7813 2.657 3.506.25 3.485-1.158-.01013-1.352-.2685-.5739-.7633.8245-.5244.4946-1.355-1.104-2.779l-2.28-2.031-.08 2.812c-.044 1.547.3091 2.572.7846 2.278.4755-.2939 1.147-.07697 1.493.482 1.139 1.844 4.51 1.153 4.51-.9247zm-69-10.3c-.022-4.673-.8859-5.473-6.485-6.012-2.75-.2645-6.012-.8162-7.25-1.226-2.086-.691-2.25-.4497-2.25 3.312.0 4.609.3542 4.956 6.235 6.116 8.612 1.698 9.767 1.438 9.75-2.19zm120.4-4.91c-.2841-.4596-1.165-.8357-1.957-.8357-1.809.0-1.981 5.649-.191 6.26 1.303.4449 3.05-3.966 2.148-5.425zm-276.5 24.72c-.2415-.2415-3.927-.6943-8.19-1.006-4.263-.3118-8.528-.9761-9.478-1.476-.9496-.5-3.302-1.351-5.227-1.892l-3.5-.9826 3.316-.1021c1.824-.0562 4.234.3894 5.356.99 1.763.9438 6.672 1.437 18.08 1.816 1.737.0578 2.75.644 2.75 1.591.0 1.38-2.077 2.089-3.106 1.061zm291.1-1.252c.0308-3.644 1.593-4.857 4.354-3.379 1.375.7357 3.455 1.088 4.622.7825 1.79-.4682 1.929-.3216.8856.9357-1.191 1.435-2.362 1.408-6.127-.1417-1.223-.5036-1.75-.2545-1.75.8275.0.8514-.45 1.826-1 2.166-.55.3399-.9931-.196-.9847-1.191zm32.18-2.377c-4.186-.8883-3.97-.574-4.319-6.293-.258-4.231.0328-5.101 2.244-6.711 4.102-2.988 6.88-.4053 6.86 6.379-.0195 6.615-.6596 7.501-4.785 6.626zm2.273-4.804c.841-3.829-.324-8.128-2.203-8.128-1.291.0-1.313.2417-.1494 1.644 1.204 1.45 1.124 1.568-.673.9975-2.812-.8925-3.466 5.667-.7237 7.263 2.659 1.548 3.061 1.357 3.749-1.776zm-289.5 4.23c-.8251-.2251-5.1-.7354-9.5-1.134l-8-.7248.3529-10c.1941-5.5.6636-10.33 1.043-10.74.948-1.021 26.97 2.706 28.32 4.055.7807.7807.6238 1.79-.5587 3.595-.9044 1.38-1.575 3.316-1.49 4.301.0847.9855.0828 3.929-.004 6.542l-.1588 4.75-4.25-.116c-2.338-.0638-4.925-.3001-5.75-.5252zm7.985-6.609c-.022-6.103-2.08-7.875-6.985-6.013-1.763.6693-2.869.9032-5.25 1.11-.9625.08377-1.75.6211-1.75 1.194.0 1.608 3.322 4.484 5 4.328.825-.07651 2.062-.191 2.75-.2545.6875-.06344 1.25-.5919 1.25-1.174.0-.5825-.5625-.7741-1.25-.4258-.6875.3482-.4695-.0072.4845-.7899s1.441-1.716 1.083-2.074c-.3581-.3581-.1261-.6511.5155-.6511 1.304.0 1.445 1.358.5046 4.872-.645 2.41-3.332 2.573-11.84.7175-1.1-.2399-2.386-.4706-2.857-.5127-.4713-.04208-.598-.7515-.2814-1.577.3166-.825.1397-1.5-.393-1.5s-.9686-.9-.9686-2c0-1.505.6667-2 2.691-2 2.428.0 2.52.125.9456 1.276-1.094.7998-1.499 1.92-1.084 3 .9333 2.432 2.372 2.152 1.722-.3355-.3964-1.516.0273-2.207 1.605-2.62 1.952-.5104 1.83-.7291-1.364-2.441-6.179-3.312-7.22-2.735-7.316 4.055l-.0842 5.935 5.193.5612c2.856.3087 6.543.7204 8.193.9149 9.358 1.103 9.501 1.049 9.485-3.597zm-4.331-9.505c-3.986-1.028-5.418-1.78-4.5-2.361.9536-.6043.6169-.8604-1.154-.8774-1.375-.0132-4.862-.3078-7.75-.6546-4.196-.504-5.25-.3414-5.25.8105.0.9704 1.182 1.475 3.619 1.544 1.99.05642 4.306.7894 5.145 1.629 1.094 1.094 3.538 1.511 8.631 1.472l7.105-.05403-5.846-1.508zm-85.65 14.69c-1.599-.47.4531-.771 5.691-.8347 4.505-.0548 8.417.2666 8.694.7143.6292 1.018-11 1.115-14.39.1204zm354-1.01c-2.206-1.342-3.105-2.518-2.709-3.548.3252-.8475.5913-3.545.5913-5.994.0-4.144.1392-4.379 2-3.383 1.1.5887 2 1.531 2 2.094.0.5631-.403.7748-.8955.4704-1.269-.7844-1.888 7.373-.6365 8.396 1.03.8421 3.915 1.372 6.282 1.154.6875-.06333 1.243-.9027 1.235-1.865-.0117-1.34-.2133-1.438-.8608-.4162-.6808 1.074-.964 1.025-1.453-.25-.3343-.8711-.1719-1.584.3608-1.584 1.54.0 1.124-4.334-.6615-6.882-1.574-2.247-1.559-2.289.4323-1.224 2.39 1.279 3.041 2.991 3.357 8.829.2586 4.779.2606 4.776-3.2 5.603-1.661.3969-3.683-.0879-5.841-1.4zm-251-.34c-2.1-2.639-2.376-5.805-.4587-5.247 1.017.2957 4.886.8425 8.599 1.215 3.712.3727 6.75 1.075 6.75 1.561.0.4859-.45.8835-1 .8835s-1 .675-1 1.5-.675 1.5-1.5 1.5c-1.813.0-2.003-2.595-.25-3.425.6875-.3257-1.225-.3992-4.25-.1633-3.566.278-4.797.1299-3.5-.4209 1.768-.7511 1.681-.8579-.75-.92-1.512-.03866-2.75.3316-2.75.8227.0 1.074 2.463 2.107 5.023 2.107 1.023.0 2.129.437 2.459.9711.8341 1.35-6.288.979-7.372-.3836zm-47.09-3.338c2.076-9.634 1.665-16.6-1.021-17.31-2.143-.5694-2.25-.7703-.75-1.409 3.944-1.678 4.951.01344 4.295 7.219-1.067 11.73-1.644 15.25-2.5 15.25-.4578.0-.4688-1.688-.0244-3.75zm286.2 2.061c-2.69-.5388-2.972-3.648-.801-8.844 1.677-4.013 3.062-4.639 2.14-.9679-.463 1.845-.2294 2.5.8916 2.5 2.313.0 1.811 2.956-.6572 3.87l-2.176.8051 2.237.5851c2.721.7115 3.569-.9957 2.742-5.517-.3264-1.783-.1864-3.886.3109-4.673 1.148-1.816 2.367 3.988 1.89 8.998-.3422 3.593-1.64 4.233-6.577 3.244zm-292.7-8.06c.1828-5.31.5789-6.819 1.857-7.073 1.377-.274 1.624.7558 1.624 6.75.0 6.225-.2227 7.073-1.857 7.073-1.649.0-1.831-.7568-1.624-6.75zm-65.02 5.05c-2.75-.187-9.5-.7312-15-1.209-5.912-.5141-10.7-.499-11.72.03708-1.848.9762-3.892-1.344-5.286-5.999-.6672-2.228-.4958-2.347 2.834-1.958 4.176.4875 4.633-.4518 4.655-9.557l.01365-5.886 10.75.6784c5.912.3731 13.3 1.161 16.42 1.751l5.672 1.073.05217 7.984c.04339 6.64-1.832 14.68-3.173 13.61-.1234-.09914-2.474-.3332-5.224-.5202zm4.667-7.05c.09205-2.062.2112-5.635.2648-7.939l.09747-4.189-4.515-.5576c-2.483-.3067-6.765-.7865-9.515-1.066-2.75-.2798-6.912-.7827-9.25-1.117-4.464-.6394-6.32 1.61-2.528 3.065 1.307.5014 1.414.8509.4468 1.449-.7013.4334-1.52 3.537-1.82 6.896l-.5447 6.108 6.348.3576c3.491.1967 9.61.4443 13.6.5503l7.25.1927.1674-3.75zm-15.58-.12c-4.55-.9852-4.468-3.132.1199-3.132 3.24.0 3.869-.3349 3.869-2.061.0-1.585-.4698-1.934-2.036-1.514-1.12.3008-2.936.5979-4.036.6603-1.666.09443-1.583.2469.5.914 2.157.6907 1.94.8143-1.583.9003-2.246.05482-4.352-.1693-4.681-.4981-1.259-1.259.5873-3.402 2.93-3.402 1.449.0 2.188-.4271 1.807-1.044-1.097-1.774 1.601-4.068 3.918-3.331 1.16.3686 2.784.77 3.609.892 3.086.4563 6 1.747 6 2.659.0.5183-.4189.6835-.9309.3671s-1.214-.118-1.559.441c-.3478.5627.2908 1.016 1.431 1.016 1.392.0 2.059.6476 2.059 2 0 1.333-.6667 2-2 2s-2 .6667-2 2c0 2.12-1.674 2.375-7.418 1.132zm60.78 3.118c.3409-2.062.6248-5.245.6308-7.073.009-2.599.3852-3.251 1.727-2.993 2.966.5712 1.61 13.82-1.414 13.82-1.25.0-1.439-.7514-.9436-3.75zm-111.4-.64-13.5-1.11-.07507-9c-.04129-4.95-.2663-9.9-.5-11-.4123-1.941.1001-2 17.24-2 9.718.0 18.04.3754 18.5.8343 1.009 1.013 1.114 8.953.1279 9.696-.3869.2916-.8369 3.552-1 7.245l-.2966 6.715-3.5-.1395c-1.925-.07672-9.575-.637-17-1.245zm17.85-8.606c.2126-5.208-.05132-7.04-1.031-7.157-5.183-.6162-6.817-.4232-6.817.8056.0.8822 1.238 1.351 3.57 1.351 3.13.0 3.53.2772 3.25 2.25-.3339 2.351-1.05 2.461-7.57 1.168-1.885-.374-3.25-.2354-3.25.33.0.5362 1.238.7397 2.75.4523 2.469-.4691 2.61-.3527 1.378 1.139-2.289 2.771-14.05 1.668-14.85-1.392-.708-2.707-4.995-3.117-5.686-.5434-1.595 5.941-1.05 6.588 5.66 6.714 3.438.06429 9.175.4457 12.75.8475s7.189.7992 8.031.8831c1.219.1215 1.589-1.272 1.817-6.848zm-10.76-8.05c1.079-.5776 1.698-1.478 1.375-2-.3411-.5519 1.846-1.017 5.222-1.11 3.195-.08802 4.459-.3199 2.809-.5153s-8.625.03697-15.5.5164-10.19.9363-7.372 1.015c3.189.08934 5.598.7107 6.372 1.644 1.455 1.753 4.32 1.934 7.094.4498zm-28.32 12.3c-1.067-8.88-.3212-21.71 1.28-22.02.947-.183 2.203 1.074 3.234 3.236 1.932 4.054 1.402 4.534-1.398 1.284-1.93-2.243-1.935-2.213-1.581 9.5.3385 11.2-.5773 15.97-1.534 8zm366.9-1.97c-1.512-.2291-2.751-.9492-2.753-1.6-.002-.7867-2.398-1.234-7.144-1.332-9.429-.1966-19.85-1.342-19.85-2.181-1e-5-.6332 3.886-.6558 17.26-.1003 7.004.2909 7.262.06826 6.133-5.286-.8899-4.218-4.395-6.896-4.395-3.357.0 2.014-4.573 2.129-5.338.1345-.3765-.981.3054-1.583 2.143-1.891 1.482-.2485-.005-.4641-3.305-.4792-3.3-.01509-6.51-.06429-7.133-.1093-1.334-.09641-2.508-5.082-1.197-5.082.491.0 1.123.6 1.404 1.333.2814.7333 1.955 1.338 3.719 1.343 5.883.01839 14.71 1.456 14.71 2.395.0.5104 1.541.928 3.424.928 11.44.0 14.75 2.331 16.1 11.34l.6986 4.659-5.864-.1498c-3.225-.08241-7.101-.3373-8.614-.5664zm11.47-2.891c-.6218-4.23-2.212-8.392-3.207-8.392-.468.0-1.675-.3099-2.683-.6887-1.331-.5005-1.135-.02236.7172 1.75 1.402 1.341 1.817 1.876.9213 1.189-.8953-.6875-2.332-1.25-3.192-1.25-.8604.0-1.823-.675-2.14-1.5-.3511-.915-1.866-1.5-3.883-1.5-3.256.0-3.302.06262-2.926 4 .2327 2.44.8931 4 1.693 4 .7214.0 1.462.4323 1.645.9607.3636 1.048 10.71 4.079 12.33 3.612.55-.1585.8748-1.14.7218-2.181zm-167.2.4163c-12.06-2.028-11.46-1.583-11.8-8.741-.4142-8.742-.977-8.414 13.3-7.759 3.3.1514 6.45-.04313 7-.4323.6516-.461.8753 2.269.6422 7.834-.2543 6.071-.0374 8.343.75 7.856.6093-.3766 1.108-.0788 1.108.6617.0 1.639-3.578 1.828-11 .5804zm8-8.368v-5.441l-4.25-.09968c-2.338-.05482-5.375-.4168-6.75-.8044-3.004-.8467-7-.2303-7 1.08.0.5183.4697.6521 1.044.2973.5741-.3548 1.687-.1117 2.472.5403.7856.652 3.128 1.293 5.206 1.424s4.79.3113 6.028.4007c1.658.1197 2.219.7545 2.134 2.412-.0873 1.693-.2292 1.817-.5733.5-.3014-1.153-1.37-1.716-3.134-1.65l-2.677.09968 2.5.7159c2.5.7159 2.5.7159-.467 1.303-2.109.4175-3.41.08551-4.5-1.148-1.918-2.172-6.096-3.399-5.401-1.586.2655.6918-.2182 1.527-1.075 1.855-3.884 1.49-1.697 4.501 3.693 5.085 13.79 1.493 12.75 1.901 12.75-4.984zm49.02 8.382c-.008-.9222.7722-1.882 1.735-2.134.9625-.2515.3426-.5095-1.378-.5733-1.72-.0638-3.745-.8774-4.5-1.808-1.185-1.46-1.167-1.566.1276-.7729.825.5055 3.069.9294 4.986.942 2.514.0165 3.58.5111 3.823 1.773.2992 1.553-.2897 1.953-2.448 1.665-.351-.04698-1.019.5155-1.485 1.25-.6571 1.037-.8499.9603-.8618-.3413zm123 .09274c0-.6632-.723-.855-1.75-.4644-.9625.3661-.0625-1.067 2-3.185 4.315-4.431 4.667-6.491 1.5-8.778l-2.25-1.625 2.5.3186c2.236.285 2.491.7631 2.417 4.524-.0457 2.313.2918 3.974.75 3.691 2.876-1.778.0983-9.397-3.426-9.397-1.022.0-1.581-.45-1.241-1 1.677-2.713 7.5.6323 7.5 4.309.0 3.202-3.199 9.592-5.585 11.16-1.528 1.002-2.415 1.168-2.415.4525zm-253.3-3.41c-.5229-2.735.4014-3.019 6.12-1.875 5.232 1.046 4.274 4.375-1.258 4.375-3.882.0-4.438-.2862-4.861-2.5zm329.6 1.088c.3928-1.024.0664-1.588-.9183-1.588-.8402.0-1.25.45-.9096 1 .6973 1.128-.5608 1.298-2.918.393-.87-.3338-1.643-1.796-1.718-3.25-.1214-2.356-.1833-2.398-.5696-.393-.3041 1.579-1.141 2.25-2.805 2.25-3.134.0-4.152-1.767-1.254-2.179 3.061-.4345 1.919-2.379-1.235-2.102-2.246.1969-2.297.1279-.5-.6797 1.7-.7641 1.513-.9093-1.25-.9691-3.601-.07788-3.955.4931-1.789 2.887 1.298 1.434 1.242 1.614-.5 1.614-1.181.0-1.961-.6779-1.961-1.704.0-.9372-.2731-2.416-.607-3.286-.7896-2.058 4.01-2.156 9.337-.191 2.074.7649 6.02 1.777 8.77 2.25 4.698.8073 5 1.04 5 3.859.0 2.403-.4761 3.067-2.391 3.338-1.842.2604-2.251-.02647-1.781-1.25zm-281.8-.8c-3.85-.456-8.8-.9978-11-1.204l-4-.375-.2921-7.604c-.2711-7.057-.4508-7.61-2.5-7.69-1.803-.07018-1.668-.2474.7363-.9655 1.619-.4837 7.706-.6071 13.52-.2741l10.58.6054-.3872 7.11c-.4802 8.819.9036 8.006 1.949-1.143.7134-6.246.7406-6.086.3669 2.166-.4837 10.68-.2242 10.41-8.978 9.374zm5.3-8.536-.2999-5.75-6.5-.644c-3.575-.3542-7.625-.8042-9-1-2.243-.3195-2.532.02919-2.81 3.394-.252 3.045.0301 3.765 1.5 3.829 1.137.0496 1.326.273.5074.601-.9736.3901-.8472.8597.5 1.858 1.733 1.284 1.732 1.326-.027 1.079-1.006-.1414-2.268-.9004-2.804-1.687-.7656-1.124-.9068-1.002-.6604.5704.3498 2.232 4.042 3.112 14.09 3.358l5.8.1419-.2999-5.75zm-12.73 3.814c-1.87-1.183 4.156-2.389 8.998-1.801 2.918.3544 2.682.4646-1.567.7341l-5 .3171 5 .6858 5 .6858-5.5.1418c-3.025.07798-6.144-.2657-6.931-.7637zm263.9 4.493c0-.3785.4755-1.577 1.057-2.663.8275-1.546.5859-2.736-1.114-5.487-2.57-4.159-2.018-5.478.9568-2.285 2.463 2.643 2.792 8.059.6006 9.878-.825.6847-1.5.9352-1.5.5567zm-137.4-4.2c-3.238-.6452-6.163-1.55-6.5-2.011-.3374-.4609-1.738-.9841-3.113-1.163-12.28-1.594-36.32-6.09-37.18-6.955-.5973-.5973-.8154-1.791-.4846-2.653.6679-1.741 55.78-2.412 58.46-.7124.9124.5787 1.21 2.882 1 7.735-.3446 7.956-.5878 8.071-12.19 5.76zm9.216-5.341c-.2094-2.195.0809-4.159.645-4.363 2.401-.8699-.6392-1.64-8.289-2.098l-8.186-.4909v3.851c0 4.425 3.465 6.692 8.986 5.882 1.658-.2433 3.014-.07029 3.014.3845.0.4547.9473.8268 2.105.8268 1.852.0 2.059-.4797 1.724-3.991zm-4.329-2.009c1.645-.7068 1.379-.8776-1.5-.9615-1.925-.05615-4.4-.819-5.5-1.695-1.946-1.55-1.932-1.573.5-.8477 1.375.41 3.85.8465 5.5.9701 3.708.2777 4.967 3.574 1.323 3.464-2.19-.06624-2.208-.1197-.3233-.9297zm-12.5-1.516c0-3.291-.1922-3.501-3-3.287-1.65.1257-3 .6729-3 1.216.0.543-.54.4473-1.2-.2127-1.295-1.295-9.81-1.687-9.785-.45.0441 2.159 2.294 3.553 7.598 4.708 9.323 2.03 9.387 2.017 9.387-1.974zm-20-1.984c0-1.225-1.604-1.486-8.75-1.421-9.163.08267-9.532.3914-2.192 1.831 7.269 1.426 10.94 1.288 10.94-.4098zm158.2 11.79c-1.238-.2384-2.25-1.093-2.25-1.899.0-1.12-.4396-1.23-1.862-.4689-1.138.6093-3.86.6809-7.001.1843-3.886-.6143-5.412-.483-6.26.5385-.6166.743-1.997 1.351-3.068 1.351-3.32.0-1.833-4.238 2.192-6.248 1.925-.9616 3.107-1.749 2.628-1.75-.4798-855e-6-.3122-.6766.3724-1.502 1.539-1.854 4.39-1.941 5.853-.1768.8791 1.059.5044 1.236-1.878.8865-2.5-.3669-2.976-.09893-2.976 1.677.0 1.302-.6716 2.158-1.75 2.228-2.054.135 5.279 1.743 8.333 1.827 1.661.04595 2.083-.5506 2.083-2.942.0-1.65-.4016-3-.8924-3s-.6142-.45-.2743-1c.8997-1.456 2.125-1.232 4.107.75.9625.9625 1.89 1.65 2.061 1.527.171-.1225 1.028.05267 1.905.3892 1.257.4824 1.318.7827.2869 1.42-.7342.4537-1.593.3459-1.959-.2459-1.113-1.801-1.715.5322-.7775 3.014.5444 1.442 1.436 2.145 2.3 1.813.7759-.2978 1.659.1052 1.962.8955.3032.7903.228 1.376-.1672 1.301-.3952-.0749-1.731-.3312-2.969-.5696zm-298.2-2.884c-13.85-2.15-13.33-1.886-12.71-6.539.5347-3.987.5196-4.009-1.477-2.202-1.975 1.787-2.01 1.773-1.665-.6716l.352-2.497 15.25-.276 15.25-.276v7.026 7.026l-3.25-.135c-1.788-.07424-7.075-.7289-11.75-1.455zm13-4.328c0-3.515-.8894-6.082-2.107-6.082-.4912.0-.893.675-.893 1.5s-.4359 1.5-.9686 1.5-.7096-.675-.393-1.5c.4742-1.236-.4566-1.479-5.281-1.382-4.909.09916-5.371.2493-2.857.9275 2.558.69 2.264.7956-2 .7168-2.75-.0508-5.743-.4599-6.65-.9092-1.646-.815-2.85.6922-2.85 3.569.0 1.735 10.54 4.04 20.25 4.428 3.511.1403 3.75-.03625 3.75-2.768zm317.6 4.203c-.4307-.4315-2.434-1.247-4.451-1.812-3.264-.9145-3.735-1.465-4.276-5l-.6081-3.972-.1419 3.861-.1419 3.861-3.732-.7001c-5.267-.9881-7.268-2.274-7.268-4.668.0-2.053-.019-2.052-1.783.1265-1.693 2.091-1.958 2.126-5.25.6924l-3.467-1.51 3.5-.2132 3.5-.2132-3.5-.6887-3.5-.6887 3.5-.656c1.925-.3608 9.8-.5542 17.5-.4297l14 .2264v5.986c0 5.857-1.534 8.149-3.881 5.798zm2.381-6.191c0-3.407-.2544-3.84-1.989-3.386-1.094.286-1.742.9189-1.441 1.406.3013.4875.0936.8863-.4616.8863-.5551.0-1.468-.7875-2.029-1.75-.8391-1.441-1.025-1.476-1.05-.2-.0167.8525.5321 2.141 1.22 2.862 1.022 1.073.7938 1.18-1.25.5876-1.948-.5647-2.244-.4554-1.343.495.6365.6709 2.662 1.575 4.5 2.01 1.838.4347 3.455.8364 3.593.8926.1375.0563.25-1.656.25-3.804zm-14-2.023c0-1.571-.6478-1.896-3.496-1.75-4.002.2048-4.534 1.329-1.254 2.648 3.526 1.417 4.75 1.186 4.75-.8977zm-132.8 2.679-.1571-5.75 7.75.1766 7.75.1766-7 .5734-7 .5734-.5929 5-.5929 5-.1571-5.75zm-225 2.781c-13.61-1.329-14.53-1.757-13.61-6.348l.6375-3.187h14.29c7.861.0 15 .2719 15.87.6043 2.7 1.04-.4 10.51-3.3 10.26-.9-.08-7.1-.67-13.89-1.334zm14.28-4.55c0-2.486.0-2.486-12.83-2.767-11.85-.259-12.8-.144-12.49 1.5.2854 1.494 2.105 1.959 11.33 2.889 13.91 1.403 13.99 1.394 13.99-1.622zm-44.5.9336c-3.025-.3971-8.088-.7666-11.25-.821-5.44-.09357-5.75-.2336-5.75-2.599v-2.5h16.06 16.06l-.3134 3.25c-.354 3.672-3.231 4.191-14.81 2.67zm12-2.42c0-1.268-2.131-1.478-13.75-1.356l-13.75.1436 12.4.8366c6.818.4601 12.63 1.07 12.92 1.356 1.019 1.019 2.186.4955 2.186-.9803zm289.3 1.112c-2.843-.6116-5.506-1.449-5.917-1.862-.411-.4125-2.135-.7637-3.831-.7804-2.557-.02522-2.788-.2026-1.352-1.039.9522-.5548 5.677-.8787 10.5-.7196 8.741.2883 8.77.2978 9.085 3.039.3582 3.113-.0456 3.177-8.486 1.362zm-331.8-1.612c-1.1-.4727-3.35-.8979-5-.945-7.25-.2069.5511-2.025 8.75-2.04 8.088-.01416 8.75.1359 8.75 1.985.0 2.187-8.209 2.844-12.5 1zm387 0c-.9719-1.573.4044-3 2.892-3 2.954.0 3.868.9811 2.477 2.658-1.307 1.575-4.482 1.777-5.369.342z"/></svg>