<svg version="1.2" baseProfile="tiny" id="Layer_1" xmlns="http://www.w3.org/2000/svg" xmlns:xlink="http://www.w3.org/1999/xlink" width="200" height="117.2" viewBox="0 0 200 117.2"><path fill-rule="evenodd" fill="#fff" d="M2e2 116.5c-66.7.0-133.3.0-2e2.0C0 77.7.0 38.8.0.0c66.7.0 133.3.0 2e2.0.0 38.8.0 77.7.0 116.5zM109.1 99c-5.4.0-10.6.0-15.6.0.7-.8 1.5-1.4 2.1-2.3.2-.3.1-1.1-.1-1.5-.1-.2-.8-.3-1.2-.3-2.5.5-5 1.1-7.6 1.5-.9.1-1.8-.1-3-.2.5-.6.7-1 1-1.3 2.1-2.4 4.3-4.8 6.3-7.2 3.8-4.6 5-10.3 6-16 .7-4.1-1.1-7.8-2.7-11.5-1.3-2.8-3.3-5.2-5.3-7.5-.8-.9-1.7-1.8-2.6-2.6-1.9-1.6-3.9-3.1-5.9-4.6-1.7-1.3-3.6-2.4-5.4-3.6-2.6-1.7-5.2-3.2-7.7-5-1.5-1-2-3.4-1.2-4.6 2.3-3.5 5.4-6 9.4-7.1 3.4-.9 6.9-1.7 10.3-2.2 5.7-.9 10.8.8 15.6 3.9 2.1 1.4 4.2 3 6.5 3.9 3 1.2 6.2 1.9 9.3 2.8 1.2.4 2.4.8 3.6 1.1 1.2.3 1.8-.5 2.3-1.4.3-.4.3-1.3.0-1.7-1.2-1.9-2.5-3.6-3.7-5.5-3.4-5-7.9-8.6-13.3-11.2-9.7-4.7-19.8-4.5-29.8-1.5-3.6 1.1-7 3.1-10.2 5.2-3.9 2.6-7.8 5.3-10.5 9.4-1.6 2.4-2.9 4.9-3.3 7.7-.3 1.9-.3 3.7.9 5.2 1.5 1.9 3.5 3.3 5.9 4 7 2.1 13.5 5.1 19.2 9.8 5.2 4.4 9.1 9.4 8.5 16.6-.2 2.4-.5 5-1.5 7.1-1.4 2.9-3.4 5.5-5.5 8-1.3 1.5-3 2.7-4.7 3.8-1.4.9-2.8 1.2-4.4.1-1.7-1.2-3.6-2.2-5.6-3.1-4.2-2-8.5-3.8-13.2-4.5-2.5-.4-5.1-1-7.6-1.1-7.7-.2-15.1 1.5-22.2 4.5-2.7 1.1-5.3 2.5-7 5-1.2 1.8-1.8 3.6-.4 5.5.3.5.6 1 1.1 1.7-.6.1-1.1.4-1.5.3-.9-.2-1.6.0-2.4.4-.8.4-1.9.4-2.8.3-1.4-.2-3.9.6-4.7 1.7-.1.1.0.4.0.9.8-.5 1.5-1 2.2-1.3.4-.2 1-.3 1.5-.2 1.3.5 2.6.5 3.8-.3.4-.3.8-.4 1.2-.5 1.7-.3 3.5-.5 5.2-.7 1-.1 1.6.4 1.7 1.5.0.2.2.5.5.6.2.1.5-.1.6-.2.1-.1.1-.5.0-.7-.9-1.9-1.8-2.3-3.8-2-.3-.6-.6-1-.8-1.6-.3-.9-.9-1.8-.7-2.6.2-1 1-2 1.8-2.6 1.3-1 2.9-1.7 4.3-2.6 1.8-1.1 3.7-1.6 5.8-.5-.4-.4-.9-.8-1.5-1.3 1.1-.3 2.1-.7 3.1-.9 1.2-.3 2 .3 2.4 1.3.3.9-.3 3-.8 3.4-.6.5-1.4 1-1.7 1.7-.3.7.1 1.5.2 2.5-.5.3-1.3.7-2.1 1.2.0.1.1.2.1.3.4-.1.7-.3 1.1-.4 1.2-.6 2.3-.7 3.4.3.5.4 1.3.6 2 .8 1 .3 2.1.6 3.1.9.1.2.1.4.2.6-.7.5-1.3.9-2 1.4.1.1.2.2.3.3.3-.2.6-.4.9-.7 1-1 2-1.3 3.4-.9 2.2.5 4.5 1 6.8.9 4-.2 8.1-.9 12.1-1.3.9-.1 1.9.0 2.7.4.9.4 1.4 1.3.8 2.5 1.3-1.4-.1-2.2-.6-3 2.8-1.2 5.4-2.4 8-3.5 1.3-.5 2.3.1 2.6 1.5.1.3.2.5.3.9.4-1.5.1-2.2-1.2-3.1 1.8-1.7 3.2-2.5 4.2-.7.1-.5.1-1.4.5-1.7 1.6-1.2 3.4-1.9 5.4-.5.0-.1.1-.2.1-.3-.8-.4-1.5-.8-2.3-1.3 1-1.4 2.2-2.4 3.9-2.6 1.4-.2 2 .4 1.9 1.8-.1.5-.2 1-.3 1.5.2.0.3.0.5.1.1-.9.3-1.9.2-2.8-.2-1.8-2-.8-2.9-1.3.8-1.8 2.1-2.4 4-2.2-.2-.2-.2-.3-.2-.3-.1.0-.2-.1-.3-.1-1.5-.2-1.4-.2-.6-1.4 1-1.5 2.4-2.9 2.7-4.9.1-.5.8-.9 1.3-1.4-.9-1-.8-1.5.6-2.8-.3-.5-.8-1-.7-1.4.1-.5.7-.8 1.2-1.4-1.3.1-1.3-.6-1.4-1.6-.1-1.6-.3-3.3-.9-4.8-1.6-4.2-4.4-7.7-8-10.5-1.9-1.4-3.8-2.8-5.5-4.1.6-.7 1.1-1.2 1.5-1.8.4-.7.0-1.5-.8-1.7.7 1 .7 1.8-.1 2.2-1.5.9-2.3.6-3.4-1.3-.3.2-.7.6-.9.5-1.5-.5-2.9-1.2-4.5-1.9.7-.5 1.2-.8 2-1.3-1.5.1-2.6 1.1-4 .5.8-.8 1.6-1.3 2.1-2.1.6-.7 1-1.6 1.6-2.5.8.6 2 1 2.2 1.6.2.8-.4 1.8-.7 2.8.6-.7 1.2-1.5 1.9-2.3 2.6 1.5 5 2.9 7.5 4.4 1.2.7 2.2 1.7 3.3 2.5.8.5 1.7.8 2.4 1.4 2.8 1.9 4.6 4.6 6.4 7.2 2.3 3.4 4 7.1 4.4 11.3.3 2.8-.4 5.4-1.3 8.1-1.3 4.3-3.3 8.4-6.4 11.7-1.9 2.1-4.1 3.9-6.1 5.9-3.7 3.9-8.1 6.9-12.7 9.6-.8.5-2 1.1-2.8.9-2-.5-3.8-.3-5.7.2-1.1.3-2-.1-2.9-.6-.7-.4-1.5-.7-2.3-.9-2.4-.4-4.6.1-6.8 1-1.2.4-2.5.5-3.8.8-.7.2-1.6.3-1.3 1.4-1.4.1-2.7.2-4 .3.2.3.4.4.6.4 3.8-.1 7.6-.2 11.5-.3.9.0 1.9.0 2.8-.2 1.3-.3 2.5-.7 3.7-1 .1.0.3.2.5.3-.2.3-.4.4-.7.7 2.4.0 4.6.0 6.8.0.0-.1.0-.3.0-.4-1.4.0-2.9.0-4.3.0.0-.2.0-.3.0-.5 1.4-.1 2.8-.3 4.1-.3.6.0 1.3.3 1.8.6.8.6 1.8.8 2.8.3-.6-.1-1.1-.2-1.6-.3.0-.1.0-.2.0-.3.3-.2.6-.5.9-.5 1.1.2 2.6.3 3.2 1 .9 1.1 1.7.6 2.4.5-.4-1.9-2.2-1.4-3.3-2.1 2.3.0 4.5-.5 6.8.0 2.9.5 6 .1 9 .1.0-.2.0-.3.0-.5-3.2-.7-6.6.5-9.7-.7 1.7.0 3.3.2 5 .2 3.7.0 7.5-.3 11.2-.3 3.4.0 6.7.4 10.1.4 4.5.0 9-.4 13.4-.4 1.4.0 2.9.4 4.3.6.0.2.0.4-.1.6-1.1-.1-2.2-.1-3.3-.2-1.4-.1-2.9-.2-4.3-.1-2 .1-3.9.5-5.9.6-2.2.1-4.4.0-6.6.0-3.4.0-6.9-.2-10.3.6-.3.1-.7.0-1 0-.6.1-1.1.3-1.7.4.0.1.0.3.1.4.3.0.7.0 1 0 1.9-.1 3.7-.4 5.6-.4 3.9-.1 7.9.0 11.8-.1 2.1-.1 4.2-.4 6.3-.5 1.4-.1 2.7-.1 4.1-.1 1 0 2 .3 3.1.3 2-.1 4.1-.6 6-.4 2.2.3 4.1-.4 6.1-.8.6-.1 1.2.0 1.9.0.8.0 1.7-.1 2.5-.2.7-.1 1.6-.5 2-.2 1 .7 1.9.3 2.9.2 2.8-.2 5.7-.4 8.5-.6.9-.1 1.8-.2 2.7-.3.0-.2.0-.3.0-.5-1.4-.1-2.7-.3-4.1-.4.0-.1.0-.2.0-.3 3.4.0 6.8.0 10.2.0.0.2.0.3.0.5-1.4.0-2.9.0-4.3.0.0.2.0.3.0.5 2.2.1 4.4.2 6.6.3.0.1.0.2.0.4-.2.1-.4.2-.6.2-5.9.3-11.9.5-17.8.7-1.7.1-3.5-.1-5.2.1-1.7.2-3.4.7-5.1 1-.2.0-.4.2-.5.3.6.3 1.2.3 1.7.3 2.3-.2 4.5-.9 6.9-.8 2.9.1 5.9-.2 8.8-.3 2-.1 4.1.0 6.1-.2 4.3-.6 8.7.4 13-.5.0.0.1.0.1.0 1.7.0 3.5.2 5.2.1 5-.3 10-.7 15-1.1 1-.1 2-.2 3-.3.0-.1.0-.3.0-.4-6 .4-12 1-18 .7.3-.3.7-.4 1-.6 1.1-.6 2.3-1 3.3-1.8 1.8-1.5 3.6-3.1 5.3-4.7 3.5-3.3 6.3-7 7.9-11.5 1.2-3.4 1.2-6.9 1-10.4-.1-1.4.1-2.9-.1-4.3-.2-1.6-.7-3.1-.9-4.6-.4-2.9-1.2-5.5-3.3-7.8-3.4-3.8-7.6-6.2-12.2-7.7-6.7-2.3-13.5-4.5-20.8-3.1-2.1.4-4.3 1-6.3 1.9-3.5 1.7-6.7 4.1-9.6 6.9-.3.3-.7 1.1-.6 1.3.4.6 1 1.1 1.6 1.3.7.2 1.6.0 2.3-.2 3.6-.9 7.3-1.3 11-1.1 4.9.3 9.9.8 14.7 1.7 3.4.7 6.7 1.8 9.1 4.7 3.4 4.1 6 8.5 5.4 14.1-.3 3.3-1 6.6-3.3 9.1-1.8 2-3.9 3.7-6.1 5.2-1.5 1-3.4 2-5.1 2.1-3.8.1-6.4-2.5-8.8-4.7 1.4-1.7 3-3.2 4-4.9 1-1.7 1.6-3.7 2.4-5.6 1.2-3-.9-7.3-3.9-8.2-.3-.1-1 .1-1.2.3-.3.3-.4.9-.4 1.3.0.4.3.9.3 1.3.3 3.9-1.9 6.8-4 9.7-.6.7-1.2.9-1.9-.1-.9-1.2-1.9-2.4-2.8-3.7-2.3-3-4.5-6-6.9-8.8-2.6-3.1-5.9-5.1-9.8-6.2-5.5-1.5-10.6-.4-15.5 2.2-2.9 1.6-5.4 3.6-7.7 5.9-3 3.1-5.7 6.3-6.7 10.6-1.3 5.4-.4 10.1 3.4 14.2C108.4 98.2 108.7 98.5 109.1 99zM28 105.4c0 .1.0.3.0.4 4.3.5 6.8.3 7.4-.4-.7-.8-1.3-1.5-1.9-2.2-.6-.8-1.8-1-2.7-.4-.2.1-.6.3-.7.2-1.3-1-2.7-.5-4-.2-.9-1.9-2.9-2.4-4.3-1.1 1.2.4 2.9-.2 3.1 1.8-.4.1-.7.2-1 .3.0.1.0.2.0.4 1.9.1 4 .7 5.6.1 1.9-.7 2.9.0 4.2.7.0.1.0.3.0.4C31.7 105.4 29.9 105.4 28 105.4zM125.5 112c0-.2.0-.3.0-.5-.7.0-1.4.0-2.2.0-5.9.0-11.9-.1-17.8-.1-.7.0-1.4.2-2.2.3.0.2.0.4.1.5C110.8 112.2 118.2 112.8 125.5 112zM121.3 108.9c-1.4-1-12.1-1.3-12.8-.6C112.9 108.5 117.1 108.7 121.3 108.9zM187.2 101.9c-2.6.0-5.3.0-7.9.0.0.1.0.3.0.4C181.9 102.7 184.6 103.2 187.2 101.9zM40.8 106.2c-.6-1.5-2.9-2.3-4-1.3-.1.1-.2.6.0.7C37.9 106.6 39.5 106.8 40.8 106.2zM122.4 106.4c0 .1.0.3.0.4 2.3.0 4.5.0 6.8.0.0-.1.0-.2.0-.4C126.9 106.2 124.6 106.1 122.4 106.4zM126.2 108.6c0 .1.0.3.0.4 1.4.0 2.9.0 4.3.0.0-.1.0-.3.0-.4C129.1 108.6 127.6 108.6 126.2 108.6zM17.9 92.1c2.1-.9 3.6-2.5 5.9-2C22 89.3 19.1 90.2 17.9 92.1zM154.5 107.4c0-.2-.1-.3-.1-.5-1.4.1-2.7.3-4.1.4.0.2.0.4.1.6C151.7 107.8 153.1 107.6 154.5 107.4z"/><path fill-rule="evenodd" d="M109.1 99c-.4-.6-.7-.9-.9-1.2-3.8-4.1-4.7-8.9-3.4-14.2 1-4.3 3.7-7.5 6.7-10.6 2.3-2.3 4.8-4.4 7.7-5.9 4.9-2.6 9.9-3.8 15.5-2.2 4 1.1 7.3 3.1 9.8 6.2 2.4 2.9 4.6 5.9 6.9 8.8.9 1.2 1.9 2.4 2.8 3.7.7.9 1.3.8 1.9.1 2.2-2.9 4.3-5.8 4-9.7.0-.4-.3-.9-.3-1.3.0-.4.1-1 .4-1.3.2-.3.8-.4 1.2-.3 3.1.9 5.1 5.2 3.9 8.2-.7 1.9-1.3 3.9-2.4 5.6-1 1.7-2.6 3.2-4 4.9 2.4 2.2 5 4.8 8.8 4.7 1.7.0 3.6-1 5.1-2.1 2.2-1.5 4.3-3.2 6.1-5.2 2.3-2.5 2.9-5.9 3.3-9.1.6-5.6-2.1-10-5.4-14.1-2.4-2.9-5.8-4.1-9.1-4.7-4.8-.9-9.8-1.4-14.7-1.7-3.7-.2-7.4.2-11 1.1-.8.2-1.6.4-2.3.2-.6-.1-1.2-.7-1.6-1.3-.1-.2.3-1 .6-1.3 2.8-2.8 6-5.1 9.6-6.9 1.9-1 4.1-1.5 6.3-1.9 7.2-1.4 14.1.8 20.8 3.1 4.6 1.5 8.8 3.9 12.2 7.7 2.1 2.3 2.9 4.9 3.3 7.8.2 1.6.7 3.1.9 4.6.2 1.4.0 2.9.1 4.3.2 3.5.1 7-1 10.4-1.6 4.6-4.4 8.3-7.9 11.5-1.7 1.6-3.5 3.2-5.3 4.7-1 .8-2.2 1.2-3.3 1.8-.3.2-.7.3-1 .6 6 .3 12-.4 18-.7.0.1.0.3.0.4-1 .1-2 .3-3 .3-5 .4-10 .8-15 1.1-1.7.1-3.5-.1-5.2-.1.0.0-.1.0-.1.0-4.3.9-8.7-.1-13 .5-2 .3-4 .2-6.1.2-2.9.1-5.9.4-8.8.3-2.4-.1-4.6.6-6.9.8-.6.1-1.1.0-1.7-.3.2-.1.3-.3.5-.3 1.7-.4 3.4-.9 5.1-1 1.7-.2 3.5.0 5.2-.1 5.9-.2 11.9-.5 17.8-.7.2.0.4-.1.6-.2.0-.1.0-.2.0-.4-2.2-.1-4.4-.2-6.6-.3.0-.2.0-.3.0-.5 1.4.0 2.9.0 4.3.0.0-.2.0-.3.0-.5-3.4.0-6.8.0-10.2.0.0.1.0.2.0.3 1.4.1 2.7.3 4.1.4.0.2.0.3.0.5-.9.1-1.8.2-2.7.3-2.8.2-5.7.3-8.5.6-1 .1-1.9.4-2.9-.2-.4-.3-1.3.1-2 .2-.8.1-1.7.2-2.5.2-.6.0-1.3-.1-1.9.0-2 .4-3.9 1.1-6.1.8-2-.3-4 .3-6 .4-1 0-2-.2-3.1-.3-1.4.0-2.7.0-4.1.1-2.1.1-4.2.5-6.3.5-3.9.1-7.9.0-11.8.1-1.9.0-3.7.3-5.6.4-.3.0-.7.0-1 0 0-.1.0-.3-.1-.4.6-.1 1.1-.3 1.7-.4.3-.1.7.1 1 0 3.4-.7 6.8-.5 10.3-.6 2.2.0 4.4.1 6.6.0 2-.1 3.9-.5 5.9-.6 1.4-.1 2.9.1 4.3.1 1.1.0 2.2.1 3.3.2.0-.2.0-.4.1-.6-1.4-.2-2.9-.6-4.3-.6-4.5.1-9 .4-13.4.4-3.4.0-6.7-.4-10.1-.4-3.7.0-7.4.3-11.2.3-1.7.0-3.3-.2-5-.2 3.1 1.3 6.5.0 9.7.7.0.2.0.3.0.5-3 0-6.1.4-9-.1-2.3-.4-4.5.0-6.8.0 1.2.7 3 .2 3.3 2.1-.7.1-1.5.6-2.4-.5-.6-.7-2.1-.8-3.2-1-.2-.1-.6.3-.9.5.0.1.0.2.0.3.5.1 1 .2 1.6.3-1.1.5-2 .3-2.8-.3-.5-.4-1.2-.6-1.8-.6-1.4.0-2.8.2-4.1.3.0.2.0.3.0.5 1.4.0 2.9.0 4.3.0.0.1.0.3.0.4-2.2.0-4.4.0-6.8.0.3-.3.4-.5.7-.7-.2-.1-.4-.3-.5-.3-1.2.3-2.5.8-3.7 1-.9.2-1.9.2-2.8.2-3.8.1-7.6.2-11.5.3-.2.0-.4-.1-.6-.4 1.3-.1 2.6-.2 4-.3-.3-1.1.6-1.2 1.3-1.4 1.3-.3 2.6-.3 3.8-.8 2.2-.8 4.5-1.3 6.8-1 .8.1 1.6.4 2.3.9.9.6 1.8.9 2.9.6 1.9-.4 3.7-.6 5.7-.2.8.2 1.9-.4 2.8-.9 4.6-2.6 9-5.7 12.7-9.6 2-2 4.2-3.8 6.1-5.9 3.1-3.4 5-7.4 6.4-11.7.8-2.6 1.6-5.2 1.3-8.1-.5-4.2-2.1-7.9-4.4-11.3-1.8-2.7-3.7-5.4-6.4-7.2-.8-.5-1.7-.8-2.4-1.4-1.1-.8-2.1-1.8-3.3-2.5-2.4-1.5-4.9-2.9-7.5-4.4-.7.8-1.3 1.5-1.9 2.3.3-1 .9-2 .7-2.8-.2-.7-1.3-1.1-2.2-1.6-.6 1-1 1.8-1.6 2.5-.6.7-1.3 1.3-2.1 2.1 1.4.6 2.5-.4 4-.5-.8.5-1.2.8-2 1.3 1.7.7 3.1 1.3 4.5 1.9.2.1.6-.4.9-.5 1.1 1.9 1.9 2.2 3.4 1.3.7-.4.7-1.2.1-2.2.8.2 1.2 1 .8 1.7-.4.6-.9 1.1-1.5 1.8 1.7 1.3 3.7 2.7 5.5 4.1 3.6 2.7 6.4 6.2 8 10.5.6 1.5.7 3.2.9 4.8.1.9.1 1.6 1.4 1.6-.5.5-1.1.9-1.2 1.4C89 72 89.5 72.5 89.7 73c-1.3 1.3-1.4 1.8-.6 2.8-.5.5-1.2.9-1.3 1.4-.3 2-1.6 3.3-2.7 4.9-.8 1.2-.9 1.1.6 1.4.1.0.2.1.3.1.0.0.0.1.2.3-1.9-.2-3.3.4-4 2.2.9.5 2.7-.4 2.9 1.3.1.9-.1 1.9-.2 2.8-.2.0-.3.0-.5-.1.1-.5.2-1 .3-1.5.2-1.4-.5-2-1.9-1.8-1.8.2-2.9 1.2-3.9 2.6.8.4 1.6.8 2.3 1.3.0.1-.1.2-.1.3-2-1.4-3.8-.7-5.4.5-.4.3-.4 1.2-.5 1.7-1-1.8-2.4-1-4.2.7 1.3 1 1.6 1.6 1.2 3.1-.1-.4-.2-.7-.3-.9-.3-1.4-1.3-2-2.6-1.5-2.7 1.1-5.3 2.3-8 3.5.5.9 1.9 1.7.6 3 .6-1.1.1-2-.8-2.5-.8-.4-1.8-.5-2.7-.4-4 .4-8.1 1.1-12.1 1.3-2.2.1-4.6-.4-6.8-.9-1.4-.3-2.5-.1-3.4.9-.2.3-.6.4-.9.7-.1-.1-.2-.2-.3-.3.7-.5 1.3-.9 2-1.4-.1-.2-.1-.4-.2-.6-1-.3-2.1-.6-3.1-.9-.7-.2-1.5-.3-2-.8-1.1-1-2.2-.9-3.4-.3-.3.2-.7.3-1.1.4.0-.1-.1-.2-.1-.3.8-.4 1.5-.9 2.1-1.2-.1-.9-.4-1.8-.2-2.5.3-.7 1-1.2 1.7-1.7.5-.4 1.1-2.5.8-3.4-.3-1-1.2-1.6-2.4-1.3-1 .2-2 .6-3.1.9.6.5 1 .9 1.5 1.3-2.1-1.1-3.9-.6-5.8.5-1.4.9-3 1.6-4.3 2.6-.8.6-1.6 1.6-1.8 2.6-.2.8.4 1.8.7 2.6.2.5.5 1 .8 1.6 2-.4 3 .1 3.8 2 .1.2.1.5.0.7-.1.2-.5.3-.6.2-.2-.1-.4-.4-.5-.6-.2-1.1-.8-1.6-1.7-1.5-1.7.2-3.5.5-5.2.7-.4.1-.9.3-1.2.5-1.2.8-2.5.8-3.8.3-.4-.1-1 0-1.5.2-.7.3-1.3.8-2.2 1.3.0-.5-.1-.7.0-.9.8-1.2 3.4-1.9 4.7-1.7.9.1 2 .1 2.8-.3.8-.3 1.5-.5 2.4-.4.4.1.9-.1 1.5-.3-.5-.7-.8-1.2-1.1-1.7-1.4-2-.8-3.7.4-5.5 1.7-2.6 4.3-3.9 7-5 7.1-3 14.5-4.6 22.2-4.5 2.6.1 5.1.7 7.6 1.1 4.7.7 8.9 2.6 13.2 4.5 1.9.9 3.8 1.9 5.6 3.1 1.6 1.1 3 .8 4.4-.1 1.7-1.2 3.4-2.3 4.7-3.8 2.1-2.5 4.1-5.1 5.5-8 1-2.1 1.3-4.7 1.5-7.1.5-7.2-3.3-12.2-8.5-16.6-5.7-4.7-12.2-7.7-19.2-9.8-2.4-.7-4.4-2-5.9-4-1.2-1.5-1.2-3.4-.9-5.2.4-2.9 1.7-5.3 3.3-7.7 2.7-4.1 6.6-6.9 10.5-9.4 3.2-2.1 6.6-4.1 10.2-5.2 10-3 20.1-3.2 29.8 1.5 5.4 2.6 9.9 6.2 13.3 11.2 1.2 1.8 2.5 3.6 3.7 5.5.3.4.2 1.3.0 1.7-.5.8-1.1 1.6-2.3 1.4-1.2-.3-2.4-.7-3.6-1.1-3.1-.9-6.3-1.6-9.3-2.8-2.3-1-4.4-2.5-6.5-3.9-4.8-3.1-9.9-4.8-15.6-3.9-3.5.5-6.9 1.3-10.3 2.2-4 1.1-7.1 3.6-9.4 7.1-.8 1.2-.3 3.5 1.2 4.6 2.5 1.8 5.2 3.3 7.7 5 1.8 1.2 3.7 2.3 5.4 3.6 2 1.5 4 3 5.9 4.6 1 .8 1.8 1.7 2.6 2.6 2 2.3 4 4.7 5.3 7.5 1.7 3.7 3.4 7.4 2.7 11.5-.9 5.7-2.1 11.4-6 16-2 2.5-4.2 4.8-6.3 7.2-.3.3-.5.7-1 1.3 1.2.1 2.1.3 3 .2 2.5-.4 5-1 7.6-1.5.4-.1 1.1.0 1.2.3.2.4.3 1.2.1 1.5-.6.8-1.4 1.5-2.1 2.3C98.5 99 103.7 99 109.1 99zM133.2 73.5c-1.1-3.2-.1-5.6 2.7-5.7-.5.3-.8.4-1.1.6-1.1.7-1.8 1.9-1.6 3.2.1.9.9 2.2 1.7 2.5 3 1.4 5.7 3.1 7.7 5.7 2.7 3.6 5.2 7.3 7.8 11 .5.7 1 1.3 1.7 2.2.4-1.6.9-2.8 2.6-3.1-2.2 2.3-2.1 5.2.1 6.2.8-2.4.9-2.4 1.9-2.9-1.3 1.5-1.6 3.2-.8 4.3 3.1 4.2 10.3 6.4 15.3 4.6 4-1.4 7-4.3 10.1-7 1.5-1.3 2.8-2.9 4.4-4.7-2.4.0-3.9-.9-4.7-2.8-1.3 1.4-2.4 2.7-3.8 4.3 1.6.5 2.9.9 4.2 1.3.0.1.0.2-.1.3-1.2-.2-2.5-.1-3.4-.6-1.4-.8-2.2-.2-3.2.6-1.9 1.6-4.2 2.3-6.6 2.7-3 .6-5.5-.8-7.8-2.9-3-2.8-5.7-5.9-8.1-9.3-2.5-3.6-5.2-7.1-7.8-10.6-2.8-3.6-6.4-6.2-10.8-7.2-4.9-1-9.7-.4-14.2 2.1-4.1 2.3-7 5.6-9.9 9.1-1.7 2-2.7 4.4-3.3 7-.5 2.2-.5 4.2.0 6.3.1.5.8 1.1 1.3 1.2.9.2 2 .1 2.9.1.0.1.0.2.0.4-1.2.0-2.4.0-4 0 .4.8.7 1.4 1 2 2.5 3.7 6.2 5.7 10.5 6.7 3.4.8 6.8 1.6 10.2 2.4 1.8.4 3.6.6 5.4-.2.4-.2.9-.2 1.3-.3 2.7-.7 5.4-1.3 7.7-3.1.0-.5-.1-.9-.1-1.4.1-.1.3-.1.4-.2.2.4.3.7.5 1.1 1.8-1.2 3.4-2.2 5-3.2 2.1-1.3 2.2-1.9.9-3.9-.1-.1-.2-.2-.4-.3-.3.2-.7.4-1.1.6-2.3 1.1-4.4 2.6-6.8 3.4-2.8 1-5.8 1.5-8.8 2.1-1.5.3-3 .3-4.5.2-3.6-.2-7-1-9.8-3.3-2.5 2.1-2.6 2.2-3.9 2.1.9-.5 1.8-1 2.6-1.6.2-.2.4-.9.2-1.1-.5-.6-1.2-1-1.8-1.5-1.1 1.4-2.3 2.4-4.2 2.6 1-.6 2-1.1 2.8-1.7.8-.6.9-1.2.4-2.3-1.3-2.7-2.1-5.6-.3-8.4.4-.6.2-1-.4-1.4-.4-.2-.6-.7-.9-1 .1-.1.2-.1.3-.2.3.3.5.6.8.8.2.1.8.2.9.1.9-1.3 1.7-2.6 2.6-3.9-1.5-1-1.6-1.2-1.1-2.1.6 1.5 1.3 1.7 2.6.7 1.1-.8 2-1.8 3.1-2.5 1.1-.6 2.5-1.3 3.7-1.2C128.1 72.5 130.7 73.1 133.2 73.5zM121.2 32.3c-1.2-1.8-2.4-3.5-3.7-5.2-2.9-3.9-6.4-7.1-10.7-9.3-4-2.1-8.1-3.7-12.6-4.3-3.6-.5-7.3-1-10.9-.2-3.1.7-6 1.8-9 2.7-2.6.8-5 2-7.1 3.7-1.2 1-2.5 1.9-3.7 2.9-1.7 1.3-3.6 2.5-4.9 4.2C56.7 29 55.4 31.5 54 34c-.6 1.2-.8 2.6-.3 4.1 1.1 3.1 3.7 4.3 6.4 5.5.3.1.7.1.9-.1 1-.8 2-1.6 2.9-2.5 1.4-1.5 2.1-3.1.5-4.9-.3-.3-.8-.6-1-.8.1-.5.1-1.1.3-1.8.1-.5.2-1.1.6-1.5 1.5-1.9 3.2-3.6 5.3-5.1 6.9-4.8 14.5-6.7 22.8-6.2 1.8.1 3.5.4 5 1.8.5.5 1.4.6 2.2.9.2.1.4.0.6.1 1.7 1.1 3.4 2.1 4.9 3.3 4.7 3.7 10.5 3.8 15.9 5.5C120.9 32.5 121 32.4 121.2 32.3zM129.4 97.1c0 .1.0.2.0.3 2.9-.5 5.9-.8 8.8-1.6 3.2-.9 6.3-2.2 8.8-4.6.7-.7.8-1.2.2-2-1-1.4-2-2.8-3-4.1-2.1-2.9-4.1-5.8-7.2-7.8-3.3-2.1-6.9-3.3-10.8-3.3-3.4.0-6 2.1-8.1 4.6-1.3 1.5-2.2 3.4-3.1 5.2-1.4 2.7-.8 6.3 1.4 8.3C120.1 95.4 124.2 97.7 129.4 97.1zM183.8 72.7c.1 1.3.4 2.4.3 3.5-.2 3.2-.9 6.2-2 9.2-.3.9-.2 2.1.1 3.1.4 1.3 1.9 1.4 3 1.5.4.0 1-.7 1.4-1.2 2.3-3.3 3.4-7 3.6-10.9.1-2.4.3-4.8.0-7.1-.3-2.6-1.2-5.2-1.7-7.9-.4-2.2-2-3.6-3.4-4.9-1.6-1.6-3.6-2.9-5.7-4-2.2-1.2-4.5-2.3-6.9-3-2.7-.8-5.5-1-8.2-1.9-3.6-1.1-7.3-.9-10.9-.3-5.2.8-9.6 3.6-13.2 7.5-.1.1-.1.3-.1.6 1.7-.3 3.2-.6 4.7-.9 5.2-.9 10.4-.6 15.7.0 4 .5 8 .8 11.7 2.4 1.7.7 3.3 1.7 4.6 3 1.7 1.6 3 3.5 4.5 5.3.2-.1.5-.2.8-.4.1.1.2.1.3.2-.2.4-.4.9-.7 1.5.4 1.5.7 1.7 2.4 1.3.6-.1 1.3-.3 1.9-.4.0.1.1.2.1.3-.8.3-1.6.5-2.4.8-.3.1-.7.4-.7.6.0.3.3.7.6.8.4.3.9.5 1.4.5 1.3.1 2.6.2 4 .3-1 .1-1.8.3-2.6.3C185.5 72.7 184.7 72.7 183.8 72.7zM71.1 92.6c-12.7-7.3-25.6-11.2-39.8-7 .3 1.5.6 3 .9 4.5.3-.1.8-.3 1.2-.4 4.3-1.2 8.6-1 12.9-.6 6.7.6 12.9 2.9 19 5.4.5.2 1.1.4 1.6.2C68.4 94.1 69.7 93.3 71.1 92.6zM63.1 96.4c0-.2.0-.4.0-.5-.9-.3-1.9-.6-2.8-1-5.7-2.3-11.5-4-17.8-4.1-3.5-.1-7.1-.2-10.4 1.2-.6.2-1.1.7-1.6 1 .5.6.9 1.1 1.4 1.7.1.1.3.2.4.2 4.1 2.3 8.6 3.5 13.2 3.7 3.9.2 7.8-.6 11.6-1C59.2 97.3 61.1 96.8 63.1 96.4zM161.7 72.6c-.1 2.7-.3 5.2-1.7 7.4-1.1 1.8-1.8 3.8-3.7 5.1-.6.4-.6.8-.2 1.3.2.3.5.6.8 1 .6 1 1.2.9 2 .2 2.2-1.7 3.4-4 4.4-6.4 1.1-2.8 2-5.7-1.1-8C161.9 73.1 161.8 72.8 161.7 72.6zM143.5 101.7c4.5.0 8.9.0 13.3.0.0-.1.1-.2.1-.4-1.8-1.8-3.5-3.6-5.2-5.4C148.9 97.9 146.2 99.8 143.5 101.7zm-65.5-1c0 .1.0.3.1.4 1.6.2 3.2.6 4.7.4 2.1-.4 4-1.3 6-2.1 1.5-.6 3.1-1.3 4.5-2 .3-.2.6-.6 1.1-1.1-.7.1-1 .1-1.3.1-.2.0-.4.1-.6.1-3.2 1.1-6.5 1.5-9.8.8-.2.0-.5.0-.7.1C80.7 98.5 79.3 99.6 78 100.7zM88.6 100.7c0 .1.1.3.1.4 5.5-.2 11-.4 16.5-.5.0.2.0.4.0.5-1.4.1-2.8.2-4.1.3.0.2.0.3.0.5 3.8.0 7.7.0 11.5.0-1-.9-2.1-1.9-3.3-2.2-1.4-.3-3-.2-4.5-.1-4.1.1-8.2.2-12.3.4C91.2 1e2 89.9 100.4 88.6 100.7zM61.7 44c.8.6 1.8.7 2.5.0 1-1 1.9-2.2 2.7-3.4.6-.8.1-1.4-.6-1.7C64.8 40.6 63.2 42.3 61.7 44zM109.1 103.3c0-.1.0-.2.0-.3-4 0-8.1.0-12.1.0.0.1.0.2.0.3 4 0 8 0 12.099999999999994.0zM142.4 102.1c-.8.4-1.6.8-2.4 1.2.0.1.1.1.1.2 2.3-.2 4.7-.4 7-.6C145.6 102.2 143.8 103.7 142.4 102.1zM92.3 102c0 .2.0.4.0.6 1.4-.1 2.9-.2 4.3-.4.0-.2.0-.3.0-.5C95.2 101.8 93.8 101.9 92.3 102zM56.4 105.8c-.1-1.1-.7-1.3-3.2-.9C54.3 105.2 55.4 105.5 56.4 105.8zM45.8 106.8c1 0 2 0 3.2.0-.1-.5-.3-.8-.3-.9C47.6 106.2 46.8 106.5 45.8 106.8zM114.6 103.1c0-.1.0-.2.0-.3-.9.0-1.8.0-2.7.0.0.1.0.2.0.3C112.9 103.1 113.7 103.1 114.6 103.1z"/><path fill-rule="evenodd" d="M28 105.4c1.9.0 3.8.0 5.7.0.0-.1.0-.3.0-.4-1.3-.7-2.4-1.4-4.2-.7-1.6.6-3.7.0-5.6-.1.0-.1.0-.2.0-.4.3-.1.6-.2 1-.3-.2-2-1.9-1.5-3.1-1.8 1.4-1.3 3.4-.8 4.3 1.1 1.3-.3 2.7-.8 4 .2.1.1.5-.1.7-.2.9-.5 2.1-.4 2.7.4.6.8 1.3 1.5 1.9 2.2-.6.7-3.1.9-7.4.4C28 105.7 28 105.6 28 105.4z"
		/><path fill-rule="evenodd" d="M125.5 112c-7.3.8-14.7.3-22.1.3.0-.2.0-.4-.1-.5.7-.1 1.4-.3 2.2-.3 5.9.0 11.9.1 17.8.1.7.0 1.4.0 2.2.0C125.5 111.7 125.5 111.8 125.5 112z"/><path fill-rule="evenodd" d="M121.3 108.9c-4.2-.2-8.5-.4-12.8-.6C109.2 107.6 119.9 107.9 121.3 108.9z"/><path fill-rule="evenodd" d="M187.2 101.9c-2.6 1.3-5.3.7-7.9.4.0-.1.0-.3.0-.4C181.9 101.9 184.5 101.9 187.2 101.9z"/><path fill-rule="evenodd" d="M40.8 106.2c-1.4.7-3 .5-4-.6-.1-.1-.1-.6.0-.7C37.9 103.9 40.2 104.6 40.8 106.2z"/><path fill-rule="evenodd" d="M122.4 106.4c2.3-.3 4.5-.2 6.8.0.0.1.0.2.0.4-2.3.0-4.5.0-6.8.0C122.4 106.6 122.4 106.5 122.4 106.4z"/><path fill-rule="evenodd" d="M126.2 108.6c1.4.0 2.9.0 4.3.0.0.1.0.3.0.4-1.4.0-2.9.0-4.3.0C126.2 108.8 126.2 108.7 126.2 108.6z"/><path fill-rule="evenodd" d="M17.9 92.1c1.2-1.8 4.1-2.8 5.9-2C21.5 89.5 20 91.2 17.9 92.1z"/><path fill-rule="evenodd" d="M154.5 107.4c-1.4.2-2.7.3-4.1.5.0-.2.0-.4-.1-.6 1.4-.1 2.7-.3 4.1-.4C154.4 107.1 154.4 107.3 154.5 107.4z"/><path fill-rule="evenodd" fill="#fff" d="M133.2 73.5c-2.5-.4-5.1-1-7.7-1.1-1.2-.1-2.6.6-3.7 1.2-1.1.6-2.1 1.7-3.1 2.5-1.3 1-2 .8-2.6-.7-.5.9-.4 1.1 1.1 2.1-.9 1.3-1.7 2.6-2.6 3.9-.1.1-.7.1-.9-.1-.3-.2-.5-.6-.8-.8-.1.1-.2.1-.3.2.3.3.5.8.9 1 .6.4.8.8.4 1.4-1.8 2.9-1 5.7.3 8.4.5 1.1.4 1.7-.4 2.3-.8.6-1.8 1.1-2.8 1.7 1.8-.1 3-1.1 4.2-2.6.7.5 1.3.9 1.8 1.5.2.2.0.9-.2 1.1-.8.6-1.7 1.1-2.6 1.6 1.2.0 1.4.0 3.9-2.1 2.9 2.3 6.3 3.1 9.8 3.3 1.5.1 3 0 4.5-.2 3-.6 6-1.1 8.8-2.1 2.4-.8 4.5-2.2 6.8-3.4.4-.2.7-.4 1.1-.6.2.1.3.2.4.3 1.3 2 1.1 2.6-.9 3.9-1.6 1-3.1 2-5 3.2-.2-.4-.4-.8-.5-1.1-.1.1-.3.1-.4.2.0.5.1.9.1 1.4-2.2 1.8-5 2.4-7.7 3.1-.4.1-.9.1-1.3.3-1.8.8-3.6.6-5.4.2-3.4-.8-6.8-1.6-10.2-2.4-4.2-1.1-7.9-3-10.5-6.7-.4-.5-.6-1.1-1-2 1.5.0 2.7.0 4 0 0-.1.0-.2.0-.4-1 0-2 .1-2.9-.1-.5-.1-1.2-.7-1.3-1.2-.5-2.1-.5-4.1.0-6.3.6-2.6 1.6-5 3.3-7 2.9-3.5 5.8-6.8 9.9-9.1 4.5-2.5 9.3-3.2 14.2-2.1 4.4.9 8.1 3.5 10.8 7.2 2.7 3.5 5.4 7 7.8 10.6 2.3 3.4 5 6.5 8.1 9.3 2.2 2.1 4.7 3.4 7.8 2.9 2.3-.4 4.7-1.1 6.6-2.7.9-.8 1.8-1.4 3.2-.6 1 .5 2.3.4 3.4.6.0-.1.0-.2.1-.3-1.3-.4-2.7-.8-4.2-1.3 1.4-1.6 2.6-2.9 3.8-4.3.8 2 2.3 2.8 4.7 2.8-1.6 1.8-2.9 3.3-4.4 4.7-3.1 2.8-6.1 5.6-10.1 7-5 1.8-12.2-.4-15.3-4.6-.8-1.1-.5-2.8.8-4.3-1 .4-1.1.5-1.9 2.9-2.2-1.1-2.3-3.9-.1-6.2-1.7.3-2.2 1.5-2.6 3.1-.7-.9-1.2-1.5-1.7-2.2-2.6-3.7-5.1-7.4-7.8-11-2-2.6-4.7-4.4-7.7-5.7-.8-.4-1.5-1.6-1.7-2.5-.2-1.2.5-2.4 1.6-3.2.3-.2.6-.3 1.1-.6C133.1 67.9 132.1 70.3 133.2 73.5zM137.5 69.4c-1.5.3-2.3 1.2-2.4 2.4.0 1.1.8 2.3 1.7 2.6C135.2 72 135.3 71.4 137.5 69.4zM118.7 69.9c-.8 1.2-.4 2.6.8 3.3C119.2 72.2 119 71.1 118.7 69.9z"/><path fill-rule="evenodd" fill="#fff" d="M121.2 32.3c-.2.1-.3.1-.3.1-5.3-1.7-11.2-1.8-15.9-5.5-1.5-1.2-3.3-2.2-4.9-3.3-.2-.1-.4.0-.6-.1-.7-.3-1.6-.4-2.2-.9-1.4-1.3-3.2-1.7-5-1.8-8.3-.6-15.9 1.4-22.8 6.2-2 1.4-3.7 3.1-5.3 5.1-.3.4-.4 1-.6 1.5-.2.6-.2 1.2-.3 1.8.3.2.7.4 1 .8 1.6 1.8.9 3.4-.5 4.9-.9.9-1.9 1.7-2.9 2.5-.2.2-.7.2-.9.1-2.7-1.2-5.3-2.4-6.4-5.5-.5-1.5-.4-2.9.3-4.1 1.3-2.5 2.7-5.1 4.5-7.3 1.3-1.6 3.2-2.8 4.9-4.2 1.2-1 2.5-1.9 3.7-2.9 2.1-1.7 4.5-2.9 7.1-3.7 3-.9 6-2 9-2.7 3.6-.8 7.3-.3 10.9.2 4.5.6 8.6 2.2 12.6 4.3 4.3 2.2 7.8 5.5 10.7 9.3C118.8 28.8 120 30.6 121.2 32.3zM60.9 36.5c-1.1-.3-2.3-.7-3.4-1C57.8 36.9 59.6 37.5 60.9 36.5z"/><path fill-rule="evenodd" fill="#fff" d="M129.4 97.1c-5.2.6-9.3-1.7-13-5-2.2-2-2.8-5.7-1.4-8.3.9-1.8 1.8-3.7 3.1-5.2 2.1-2.5 4.7-4.5 8.1-4.6 3.9-.1 7.5 1.1 10.8 3.3 3.1 2 5.2 4.9 7.2 7.8 1 1.4 2 2.8 3 4.1.6.8.5 1.3-.2 2-2.5 2.5-5.6 3.7-8.8 4.6-2.9.8-5.9 1.1-8.8 1.6C129.5 97.3 129.4 97.2 129.4 97.1z"/><path fill-rule="evenodd" fill="#fff" d="M183.8 72.7c.9.0 1.7.0 2.5.0.8-.1 1.6-.2 2.6-.3-1.4-.1-2.7-.1-4-.3-.5-.1-1-.3-1.4-.5-.3-.2-.6-.6-.6-.8.0-.2.4-.5.7-.6.8-.3 1.6-.5 2.4-.8.0-.1-.1-.2-.1-.3-.6.1-1.3.2-1.9.4-1.7.4-2 .2-2.4-1.3.3-.6.5-1.1.7-1.5-.1-.1-.2-.1-.3-.2-.3.2-.6.3-.8.4-1.5-1.8-2.9-3.7-4.5-5.3-1.3-1.2-3-2.3-4.6-3-3.7-1.6-7.7-1.9-11.7-2.4-5.2-.6-10.5-.9-15.7.0-1.5.3-3.1.6-4.7.9.1-.3.1-.5.1-.6 3.6-3.9 7.9-6.6 13.2-7.5 3.6-.6 7.2-.8 10.9.3 2.7.8 5.5 1 8.2 1.9 2.4.7 4.7 1.8 6.9 3 2 1.1 4 2.4 5.7 4 1.4 1.4 2.9 2.8 3.4 4.9.5 2.6 1.4 5.2 1.7 7.9.3 2.3.1 4.7.0 7.1-.2 3.9-1.3 7.6-3.6 10.9-.4.5-.9 1.2-1.4 1.2-1.2-.1-2.6-.2-3-1.5-.3-1-.4-2.2-.1-3.1 1.1-3 1.8-6.1 2-9.2C184.2 75.1 184 73.9 183.8 72.7zM160.2 53.2c-.1-.1-.3-.1-.4-.2-.4.7-.7 1.4-1.1 2.1.2.1.3.2.5.2C159.5 54.7 159.9 53.9 160.2 53.2z"/><path fill-rule="evenodd" fill="#fff" d="M71.1 92.6c-1.4.7-2.7 1.5-4.1 2.1-.4.2-1.1.0-1.6-.2-6.2-2.4-12.4-4.7-19-5.4-4.3-.4-8.6-.7-12.9.6-.5.1-.9.3-1.2.4-.3-1.5-.6-3-.9-4.5C45.5 81.4 58.5 85.3 71.1 92.6z"/><path fill-rule="evenodd" fill="#fff" d="M63.1 96.4c-2 .4-3.9.9-5.9 1.1-3.9.5-7.8 1.2-11.6 1-4.6-.2-9.1-1.4-13.2-3.7-.1-.1-.3-.1-.4-.2-.5-.6-.9-1.1-1.4-1.7.5-.3 1.1-.7 1.6-1 3.4-1.4 6.9-1.3 10.4-1.2 6.2.2 12.1 1.8 17.8 4.1.9.4 1.9.7 2.8 1C63.1 96 63.1 96.2 63.1 96.4z"/><path fill-rule="evenodd" fill="#fff" d="M161.7 72.6c.1.2.2.5.4.7 3.1 2.3 2.2 5.2 1.1 8-1 2.4-2.2 4.7-4.4 6.4-.8.6-1.4.8-2-.2-.2-.4-.5-.7-.8-1-.4-.5-.4-.9.2-1.3 1.9-1.2 2.6-3.3 3.7-5.1C161.3 77.8 161.6 75.2 161.7 72.6z"/><path fill-rule="evenodd" fill="#fff" d="M143.5 101.7c2.7-1.9 5.4-3.8 8.2-5.8 1.7 1.8 3.5 3.6 5.2 5.4.0.1-.1.2-.1.4C152.4 101.7 148 101.7 143.5 101.7z"/><path fill-rule="evenodd" fill="#fff" d="M78 100.7c1.3-1.1 2.7-2.2 4-3.2.2-.1.5-.1.7-.1 3.3.7 6.6.3 9.8-.8.2-.1.4-.1.6-.1.3.0.6-.1 1.3-.1-.5.5-.8.9-1.1 1.1-1.5.7-3 1.4-4.5 2-2 .8-3.9 1.7-6 2.1-1.5.3-3.1-.2-4.7-.4C78.1 100.9 78 100.8 78 100.7z"/><path fill-rule="evenodd" fill="#fff" d="M88.6 100.7c1.3-.2 2.6-.6 3.9-.7 4.1-.2 8.2-.3 12.3-.4 1.5.0 3.1-.2 4.5.1 1.2.3 2.2 1.3 3.3 2.2-3.8.0-7.7.0-11.5.0.0-.2.0-.3.0-.5 1.4-.1 2.8-.2 4.1-.3.0-.2.0-.4.0-.5-5.5.2-11 .4-16.5.5C88.6 101 88.6 100.8 88.6 100.7z"/><path fill-rule="evenodd" fill="#fff" d="M61.7 44c1.5-1.7 3.1-3.4 4.7-5.1.7.3 1.2.9.6 1.7-.8 1.2-1.7 2.4-2.7 3.4C63.5 44.7 62.5 44.6 61.7 44z"/><path fill-rule="evenodd" fill="#fff" d="M109.1 103.3c-4 0-8.1.0-12.1.0.0-.1.0-.2.0-.3 4 0 8.1.0 12.1.0C109.1 103.1 109.1 103.2 109.1 103.3z"/><path fill-rule="evenodd" fill="#fff" d="M142.4 102.1c1.4 1.7 3.1.2 4.7.8-2.3.2-4.7.4-7 .6.0-.1-.1-.1-.1-.2C140.8 102.9 141.6 102.5 142.4 102.1z"/><path fill-rule="evenodd" fill="#fff" d="M92.3 102c1.4-.1 2.9-.2 4.3-.3.0.2.0.3.0.5-1.4.1-2.9.2-4.3.4C92.3 102.3 92.3 102.2 92.3 102z"/><path fill-rule="evenodd" fill="#fff" d="M56.4 105.8c-1-.3-2.1-.6-3.2-.9C55.7 104.4 56.3 104.6 56.4 105.8z"/><path fill-rule="evenodd" fill="#fff" d="M45.8 106.8c.9-.3 1.8-.6 2.9-.9.1.2.2.5.3.9C47.8 106.8 46.8 106.8 45.8 106.8z"/><path fill-rule="evenodd" fill="#fff" d="M114.6 103.1c-.9.0-1.8.0-2.7.0.0-.1.0-.2.0-.3.9.0 1.8.0 2.7.0C114.6 103 114.6 103 114.6 103.1z"/><path fill-rule="evenodd" d="M137.5 69.4c-2.2 2-2.3 2.6-.6 5-1-.3-1.8-1.5-1.7-2.6C135.2 70.6 136 69.7 137.5 69.4z"/><path fill-rule="evenodd" d="M118.7 69.9c.3 1.2.5 2.3.8 3.3C118.4 72.5 118 71.1 118.7 69.9z"/><path fill-rule="evenodd" d="M60.9 36.5c-1.3 1-3.1.4-3.4-1C58.6 35.8 59.8 36.2 60.9 36.5z"/><path fill-rule="evenodd" d="M160.2 53.2c-.3.7-.7 1.4-1 2.2-.2-.1-.3-.2-.5-.2.4-.7.7-1.4 1.1-2.1C159.9 53.1 160.1 53.2 160.2 53.2z"/></svg>